<svg width="597" height="501" viewBox="0 0 597 501" fill="none" xmlns="http://www.w3.org/2000/svg">
<path d="M504.811 430.82H91.5189C84.283 430.82 77.1392 429.197 70.6135 426.07C64.0879 422.944 58.3465 418.394 53.8122 412.755C49.2778 407.116 46.066 400.531 44.4131 393.487C42.7602 386.442 42.7083 379.117 44.2614 372.049L62.7234 288.15H533.504L551.966 372.049C553.517 379.108 553.467 386.425 551.82 393.462C550.173 400.499 546.97 407.078 542.447 412.715C537.925 418.352 532.196 422.904 525.683 426.037C519.17 429.17 512.038 430.804 504.811 430.82ZM63.9542 289.534L45.7486 372.331C43.0782 384.491 45.3463 397.213 52.0542 407.7C58.762 418.187 69.3603 425.581 81.5187 428.256C84.8373 428.982 88.2242 429.352 91.6215 429.358H504.811C517.27 429.358 529.218 424.409 538.028 415.6C546.837 406.79 551.787 394.841 551.787 382.383C551.779 378.994 551.41 375.616 550.684 372.306L532.555 289.534H63.9542Z" fill="#E9EBEE"/>
<path d="M452.348 109.018L474.016 105.787L470.605 90.7094L457.605 97.248L430.784 87.2221C430.4 86.241 429.74 85.3925 428.882 84.7798C428.025 84.1671 427.009 83.8167 425.956 83.7711C424.904 83.7255 423.861 83.9867 422.954 84.523C422.047 85.0593 421.316 85.8475 420.849 86.7918C420.382 87.7361 420.199 88.7958 420.323 89.8419C420.447 90.8881 420.872 91.8757 421.547 92.6846C422.222 93.4936 423.118 94.0889 424.125 94.3983C425.132 94.7077 426.207 94.7178 427.22 94.4274L452.348 109.018Z" fill="#FFB6B6"/>
<path d="M496.401 97.7353C494.734 104.094 456.118 111.274 456.118 109.889C456.118 105.992 458.682 97.7866 457.246 95.6583C456.451 94.4532 467.349 91.3249 467.349 91.3249C467.349 91.3249 473.375 89.0171 481.195 86.1965C483.387 85.353 485.756 85.0776 488.083 85.3959C490.41 85.7143 492.619 86.6159 494.503 88.0171C495.638 89.3316 496.41 90.9197 496.743 92.6241C497.076 94.3286 496.958 96.0904 496.401 97.7353Z" fill="#1A66FF"/>
<path d="M122.853 362.28H109.468C107.94 362.207 106.412 362.445 104.978 362.98C103.544 363.515 102.234 364.335 101.127 365.391C100.019 366.447 99.1373 367.717 98.5349 369.123C97.9324 370.53 97.6218 372.045 97.6218 373.575C97.6218 375.105 97.9324 376.62 98.5349 378.026C99.1373 379.433 100.019 380.703 101.127 381.759C102.234 382.815 103.544 383.635 104.978 384.17C106.412 384.705 107.94 384.943 109.468 384.87H122.879C124.407 384.943 125.935 384.705 127.369 384.17C128.802 383.635 130.113 382.815 131.22 381.759C132.328 380.703 133.21 379.433 133.812 378.026C134.414 376.62 134.725 375.105 134.725 373.575C134.725 372.045 134.414 370.53 133.812 369.123C133.21 367.717 132.328 366.447 131.22 365.391C130.113 364.335 128.802 363.515 127.369 362.98C125.935 362.445 124.407 362.207 122.879 362.28H122.853Z" fill="#DCDEE1"/>
<path d="M165.88 362.28H152.52C150.992 362.207 149.464 362.445 148.031 362.98C146.597 363.515 145.286 364.335 144.179 365.391C143.071 366.447 142.19 367.717 141.587 369.123C140.985 370.53 140.674 372.045 140.674 373.575C140.674 375.105 140.985 376.62 141.587 378.026C142.19 379.433 143.071 380.703 144.179 381.759C145.286 382.815 146.597 383.635 148.031 384.17C149.464 384.705 150.992 384.943 152.52 384.87H165.88C167.408 384.943 168.936 384.705 170.37 384.17C171.804 383.635 173.114 382.815 174.221 381.759C175.329 380.703 176.211 379.433 176.813 378.026C177.415 376.62 177.726 375.105 177.726 373.575C177.726 372.045 177.415 370.53 176.813 369.123C176.211 367.717 175.329 366.447 174.221 365.391C173.114 364.335 171.804 363.515 170.37 362.98C168.936 362.445 167.408 362.207 165.88 362.28Z" fill="#DCDEE1"/>
<path d="M209.035 362.28H195.599C192.696 362.418 189.958 363.669 187.953 365.772C185.948 367.875 184.829 370.669 184.829 373.575C184.829 376.481 185.948 379.275 187.953 381.378C189.958 383.482 192.696 384.732 195.599 384.87H209.035C211.937 384.732 214.675 383.482 216.68 381.378C218.686 379.275 219.804 376.481 219.804 373.575C219.804 370.669 218.686 367.875 216.68 365.772C214.675 363.669 211.937 362.418 209.035 362.28Z" fill="#DCDEE1"/>
<path d="M252.113 362.28H238.676C235.774 362.418 233.036 363.669 231.031 365.772C229.025 367.875 227.907 370.669 227.907 373.575C227.907 376.481 229.025 379.275 231.031 381.378C233.036 383.482 235.774 384.732 238.676 384.87H252.113C255.015 384.732 257.753 383.482 259.758 381.378C261.764 379.275 262.882 376.481 262.882 373.575C262.882 370.669 261.764 367.875 259.758 365.772C257.753 363.669 255.015 362.418 252.113 362.28Z" fill="#DCDEE1"/>
<path d="M295.191 362.28H281.754C278.852 362.418 276.114 363.669 274.109 365.772C272.103 367.875 270.985 370.669 270.985 373.575C270.985 376.481 272.103 379.275 274.109 381.378C276.114 383.482 278.852 384.732 281.754 384.87H295.191C298.093 384.732 300.831 383.482 302.836 381.378C304.842 379.275 305.96 376.481 305.96 373.575C305.96 370.669 304.842 367.875 302.836 365.772C300.831 363.669 298.093 362.418 295.191 362.28Z" fill="#DCDEE1"/>
<path d="M338.269 362.28H324.858C321.955 362.418 319.218 363.669 317.212 365.772C315.207 367.875 314.088 370.669 314.088 373.575C314.088 376.481 315.207 379.275 317.212 381.378C319.218 383.482 321.955 384.732 324.858 384.87H338.294C341.197 384.732 343.935 383.482 345.94 381.378C347.945 379.275 349.064 376.481 349.064 373.575C349.064 370.669 347.945 367.875 345.94 365.772C343.935 363.669 341.197 362.418 338.294 362.28H338.269Z" fill="#DCDEE1"/>
<path d="M381.27 362.28H367.936C366.407 362.207 364.88 362.445 363.446 362.98C362.012 363.515 360.702 364.335 359.594 365.391C358.487 366.447 357.605 367.717 357.003 369.123C356.4 370.53 356.09 372.045 356.09 373.575C356.09 375.105 356.4 376.62 357.003 378.026C357.605 379.433 358.487 380.703 359.594 381.759C360.702 382.815 362.012 383.635 363.446 384.17C364.88 384.705 366.407 384.943 367.936 384.87H381.27C382.798 384.943 384.326 384.705 385.76 384.17C387.193 383.635 388.504 382.815 389.611 381.759C390.719 380.703 391.601 379.433 392.203 378.026C392.805 376.62 393.116 375.105 393.116 373.575C393.116 372.045 392.805 370.53 392.203 369.123C391.601 367.717 390.719 366.447 389.611 365.391C388.504 364.335 387.193 363.515 385.76 362.98C384.326 362.445 382.798 362.207 381.27 362.28Z" fill="#DCDEE1"/>
<path d="M424.425 362.28H411.014C409.485 362.207 407.958 362.445 406.524 362.98C405.09 363.515 403.78 364.335 402.672 365.391C401.565 366.447 400.683 367.717 400.081 369.123C399.478 370.53 399.168 372.045 399.168 373.575C399.168 375.105 399.478 376.62 400.081 378.026C400.683 379.433 401.565 380.703 402.672 381.759C403.78 382.815 405.09 383.635 406.524 384.17C407.958 384.705 409.485 384.943 411.014 384.87H424.425C425.953 384.943 427.481 384.705 428.914 384.17C430.348 383.635 431.659 382.815 432.766 381.759C433.874 380.703 434.755 379.433 435.358 378.026C435.96 376.62 436.271 375.105 436.271 373.575C436.271 372.045 435.96 370.53 435.358 369.123C434.755 367.717 433.874 366.447 432.766 365.391C431.659 364.335 430.348 363.515 428.914 362.98C427.481 362.445 425.953 362.207 424.425 362.28Z" fill="#DCDEE1"/>
<path d="M467.502 362.28H454.092C452.563 362.207 451.036 362.445 449.602 362.98C448.168 363.515 446.858 364.335 445.75 365.391C444.643 366.447 443.761 367.717 443.159 369.123C442.556 370.53 442.245 372.045 442.245 373.575C442.245 375.105 442.556 376.62 443.159 378.026C443.761 379.433 444.643 380.703 445.75 381.759C446.858 382.815 448.168 383.635 449.602 384.17C451.036 384.705 452.563 384.943 454.092 384.87H467.502C469.031 384.943 470.558 384.705 471.992 384.17C473.426 383.635 474.736 382.815 475.844 381.759C476.952 380.703 477.833 379.433 478.436 378.026C479.038 376.62 479.349 375.105 479.349 373.575C479.349 372.045 479.038 370.53 478.436 369.123C477.833 367.717 476.952 366.447 475.844 365.391C474.736 364.335 473.426 363.515 471.992 362.98C470.558 362.445 469.031 362.207 467.502 362.28Z" fill="#DCDEE1"/>
<path d="M122.853 314.971H109.468C107.94 314.898 106.412 315.137 104.978 315.671C103.544 316.206 102.234 317.026 101.127 318.082C100.019 319.138 99.1373 320.408 98.5349 321.815C97.9324 323.222 97.6218 324.736 97.6218 326.266C97.6218 327.797 97.9324 329.311 98.5349 330.718C99.1373 332.125 100.019 333.394 101.127 334.451C102.234 335.507 103.544 336.327 104.978 336.862C106.412 337.396 107.94 337.634 109.468 337.562H122.879C124.407 337.634 125.935 337.396 127.369 336.862C128.802 336.327 130.113 335.507 131.22 334.451C132.328 333.394 133.21 332.125 133.812 330.718C134.414 329.311 134.725 327.797 134.725 326.266C134.725 324.736 134.414 323.222 133.812 321.815C133.21 320.408 132.328 319.138 131.22 318.082C130.113 317.026 128.802 316.206 127.369 315.671C125.935 315.137 124.407 314.898 122.879 314.971H122.853Z" fill="#DCDEE1"/>
<path d="M165.88 314.971H152.52C150.992 314.898 149.464 315.137 148.031 315.671C146.597 316.206 145.286 317.026 144.179 318.082C143.071 319.138 142.19 320.408 141.587 321.815C140.985 323.222 140.674 324.736 140.674 326.266C140.674 327.797 140.985 329.311 141.587 330.718C142.19 332.125 143.071 333.394 144.179 334.451C145.286 335.507 146.597 336.327 148.031 336.862C149.464 337.396 150.992 337.634 152.52 337.562H165.88C167.408 337.634 168.936 337.396 170.37 336.862C171.804 336.327 173.114 335.507 174.221 334.451C175.329 333.394 176.211 332.125 176.813 330.718C177.415 329.311 177.726 327.797 177.726 326.266C177.726 324.736 177.415 323.222 176.813 321.815C176.211 320.408 175.329 319.138 174.221 318.082C173.114 317.026 171.804 316.206 170.37 315.671C168.936 315.137 167.408 314.898 165.88 314.971Z" fill="#DCDEE1"/>
<path d="M209.035 314.971H195.599C192.696 315.109 189.958 316.36 187.953 318.463C185.948 320.566 184.829 323.36 184.829 326.266C184.829 329.172 185.948 331.966 187.953 334.069C189.958 336.173 192.696 337.423 195.599 337.561H209.035C211.937 337.423 214.675 336.173 216.68 334.069C218.686 331.966 219.804 329.172 219.804 326.266C219.804 323.36 218.686 320.566 216.68 318.463C214.675 316.36 211.937 315.109 209.035 314.971Z" fill="#1A66FF"/>
<path d="M252.113 314.971H238.676C235.774 315.109 233.036 316.36 231.031 318.463C229.025 320.566 227.907 323.36 227.907 326.266C227.907 329.172 229.025 331.966 231.031 334.069C233.036 336.173 235.774 337.423 238.676 337.561H252.113C255.015 337.423 257.753 336.173 259.758 334.069C261.764 331.966 262.882 329.172 262.882 326.266C262.882 323.36 261.764 320.566 259.758 318.463C257.753 316.36 255.015 315.109 252.113 314.971Z" fill="#DCDEE1"/>
<path d="M295.191 314.971H281.754C278.852 315.109 276.114 316.36 274.109 318.463C272.103 320.566 270.985 323.36 270.985 326.266C270.985 329.172 272.103 331.966 274.109 334.069C276.114 336.173 278.852 337.423 281.754 337.561H295.191C298.093 337.423 300.831 336.173 302.836 334.069C304.842 331.966 305.96 329.172 305.96 326.266C305.96 323.36 304.842 320.566 302.836 318.463C300.831 316.36 298.093 315.109 295.191 314.971Z" fill="#DCDEE1"/>
<path d="M338.269 314.971H324.858C321.955 315.109 319.218 316.36 317.212 318.463C315.207 320.566 314.088 323.36 314.088 326.266C314.088 329.172 315.207 331.966 317.212 334.069C319.218 336.173 321.955 337.423 324.858 337.561H338.294C341.197 337.423 343.935 336.173 345.94 334.069C347.945 331.966 349.064 329.172 349.064 326.266C349.064 323.36 347.945 320.566 345.94 318.463C343.935 316.36 341.197 315.109 338.294 314.971H338.269Z" fill="#DCDEE1"/>
<path d="M381.27 314.971H367.936C366.407 314.898 364.88 315.137 363.446 315.671C362.012 316.206 360.702 317.026 359.594 318.082C358.487 319.138 357.605 320.408 357.003 321.815C356.4 323.222 356.09 324.736 356.09 326.266C356.09 327.797 356.4 329.311 357.003 330.718C357.605 332.125 358.487 333.394 359.594 334.451C360.702 335.507 362.012 336.327 363.446 336.862C364.88 337.396 366.407 337.634 367.936 337.562H381.27C382.798 337.634 384.326 337.396 385.76 336.862C387.193 336.327 388.504 335.507 389.611 334.451C390.719 333.394 391.601 332.125 392.203 330.718C392.805 329.311 393.116 327.797 393.116 326.266C393.116 324.736 392.805 323.222 392.203 321.815C391.601 320.408 390.719 319.138 389.611 318.082C388.504 317.026 387.193 316.206 385.76 315.671C384.326 315.137 382.798 314.898 381.27 314.971Z" fill="#DCDEE1"/>
<path d="M424.425 314.971H411.014C409.485 314.898 407.958 315.137 406.524 315.671C405.09 316.206 403.78 317.026 402.672 318.082C401.565 319.138 400.683 320.408 400.081 321.815C399.478 323.222 399.168 324.736 399.168 326.266C399.168 327.797 399.478 329.311 400.081 330.718C400.683 332.125 401.565 333.394 402.672 334.451C403.78 335.507 405.09 336.327 406.524 336.862C407.958 337.396 409.485 337.634 411.014 337.562H424.425C425.953 337.634 427.481 337.396 428.914 336.862C430.348 336.327 431.659 335.507 432.766 334.451C433.874 333.394 434.755 332.125 435.358 330.718C435.96 329.311 436.271 327.797 436.271 326.266C436.271 324.736 435.96 323.222 435.358 321.815C434.755 320.408 433.874 319.138 432.766 318.082C431.659 317.026 430.348 316.206 428.914 315.671C427.481 315.137 425.953 314.898 424.425 314.971Z" fill="#DCDEE1"/>
<path d="M467.502 314.971H454.092C452.563 314.898 451.036 315.137 449.602 315.671C448.168 316.206 446.858 317.026 445.75 318.082C444.643 319.138 443.761 320.408 443.159 321.815C442.556 323.222 442.245 324.736 442.245 326.266C442.245 327.797 442.556 329.311 443.159 330.718C443.761 332.125 444.643 333.394 445.75 334.451C446.858 335.507 448.168 336.327 449.602 336.862C451.036 337.396 452.563 337.634 454.092 337.562H467.502C469.031 337.634 470.558 337.396 471.992 336.862C473.426 336.327 474.736 335.507 475.844 334.451C476.952 333.394 477.833 332.125 478.436 330.718C479.038 329.311 479.349 327.797 479.349 326.266C479.349 324.736 479.038 323.222 478.436 321.815C477.833 320.408 476.952 319.138 475.844 318.082C474.736 317.026 473.426 316.206 471.992 315.671C470.558 315.137 469.031 314.898 467.502 314.971Z" fill="#DCDEE1"/>
<path d="M142.982 339.331H129.571C128.043 339.258 126.515 339.496 125.081 340.031C123.647 340.566 122.337 341.386 121.23 342.442C120.122 343.498 119.24 344.768 118.638 346.175C118.035 347.581 117.725 349.096 117.725 350.626C117.725 352.156 118.035 353.671 118.638 355.078C119.24 356.484 120.122 357.754 121.23 358.81C122.337 359.866 123.647 360.686 125.081 361.221C126.515 361.756 128.043 361.994 129.571 361.921H142.982C144.51 361.994 146.038 361.756 147.472 361.221C148.905 360.686 150.216 359.866 151.323 358.81C152.431 357.754 153.313 356.484 153.915 355.078C154.517 353.671 154.828 352.156 154.828 350.626C154.828 349.096 154.517 347.581 153.915 346.175C153.313 344.768 152.431 343.498 151.323 342.442C150.216 341.386 148.905 340.566 147.472 340.031C146.038 339.496 144.51 339.258 142.982 339.331Z" fill="#DCDEE1"/>
<path d="M186.06 339.331H172.649C171.121 339.258 169.593 339.496 168.159 340.031C166.726 340.566 165.415 341.386 164.308 342.442C163.2 343.498 162.318 344.768 161.716 346.175C161.114 347.581 160.803 349.096 160.803 350.626C160.803 352.156 161.114 353.671 161.716 355.078C162.318 356.484 163.2 357.754 164.308 358.81C165.415 359.866 166.726 360.686 168.159 361.221C169.593 361.756 171.121 361.994 172.649 361.921H186.06C187.588 361.994 189.116 361.756 190.55 361.221C191.984 360.686 193.294 359.866 194.402 358.81C195.509 357.754 196.391 356.484 196.993 355.078C197.596 353.671 197.906 352.156 197.906 350.626C197.906 349.096 197.596 347.581 196.993 346.175C196.391 344.768 195.509 343.498 194.402 342.442C193.294 341.386 191.984 340.566 190.55 340.031C189.116 339.496 187.588 339.258 186.06 339.331Z" fill="#DCDEE1"/>
<path d="M229.138 339.331H215.727C212.825 339.469 210.087 340.72 208.082 342.823C206.076 344.926 204.958 347.72 204.958 350.626C204.958 353.532 206.076 356.326 208.082 358.429C210.087 360.532 212.825 361.783 215.727 361.921H229.138C230.667 361.994 232.194 361.756 233.628 361.221C235.062 360.686 236.372 359.866 237.48 358.81C238.587 357.754 239.469 356.484 240.071 355.078C240.674 353.671 240.984 352.156 240.984 350.626C240.984 349.096 240.674 347.581 240.071 346.175C239.469 344.768 238.587 343.498 237.48 342.442C236.372 341.386 235.062 340.566 233.628 340.031C232.194 339.496 230.667 339.258 229.138 339.331Z" fill="#DCDEE1"/>
<path d="M272.242 339.331H258.805C255.903 339.469 253.165 340.72 251.16 342.823C249.154 344.926 248.036 347.72 248.036 350.626C248.036 353.532 249.154 356.326 251.16 358.429C253.165 360.532 255.903 361.783 258.805 361.921H272.242C275.144 361.783 277.882 360.532 279.887 358.429C281.893 356.326 283.011 353.532 283.011 350.626C283.011 347.72 281.893 344.926 279.887 342.823C277.882 340.72 275.144 339.469 272.242 339.331Z" fill="#DCDEE1"/>
<path d="M315.319 339.331H301.781C298.878 339.469 296.14 340.72 294.135 342.823C292.13 344.926 291.011 347.72 291.011 350.626C291.011 353.532 292.13 356.326 294.135 358.429C296.14 360.532 298.878 361.783 301.781 361.921H315.217C318.119 361.783 320.857 360.532 322.863 358.429C324.868 356.326 325.987 353.532 325.987 350.626C325.987 347.72 324.868 344.926 322.863 342.823C320.857 340.72 318.119 339.469 315.217 339.331H315.319Z" fill="#DCDEE1"/>
<path d="M358.397 339.331H344.961C342.059 339.469 339.321 340.72 337.315 342.823C335.31 344.926 334.192 347.72 334.192 350.626C334.192 353.532 335.31 356.326 337.315 358.429C339.321 360.532 342.059 361.783 344.961 361.921H358.397C361.3 361.783 364.038 360.532 366.043 358.429C368.048 356.326 369.167 353.532 369.167 350.626C369.167 347.72 368.048 344.926 366.043 342.823C364.038 340.72 361.3 339.469 358.397 339.331Z" fill="#DCDEE1"/>
<path d="M401.475 339.331H388.039C385.137 339.469 382.399 340.72 380.393 342.823C378.388 344.926 377.27 347.72 377.27 350.626C377.27 353.532 378.388 356.326 380.393 358.429C382.399 360.532 385.137 361.783 388.039 361.921H401.475C404.378 361.783 407.116 360.532 409.121 358.429C411.126 356.326 412.245 353.532 412.245 350.626C412.245 347.72 411.126 344.926 409.121 342.823C407.116 340.72 404.378 339.469 401.475 339.331Z" fill="#DCDEE1"/>
<path d="M444.553 339.331H431.143C429.614 339.258 428.087 339.496 426.653 340.031C425.219 340.566 423.909 341.386 422.801 342.442C421.694 343.498 420.812 344.768 420.209 346.175C419.607 347.581 419.296 349.096 419.296 350.626C419.296 352.156 419.607 353.671 420.209 355.078C420.812 356.484 421.694 357.754 422.801 358.81C423.909 359.866 425.219 360.686 426.653 361.221C428.087 361.756 429.614 361.994 431.143 361.921H444.553C446.082 361.994 447.609 361.756 449.043 361.221C450.477 360.686 451.787 359.866 452.895 358.81C454.002 357.754 454.884 356.484 455.487 355.078C456.089 353.671 456.4 352.156 456.4 350.626C456.4 349.096 456.089 347.581 455.487 346.175C454.884 344.768 454.002 343.498 452.895 342.442C451.787 341.386 450.477 340.566 449.043 340.031C447.609 339.496 446.082 339.258 444.553 339.331Z" fill="#DCDEE1"/>
<path d="M487.631 339.331H474.221C472.692 339.258 471.165 339.496 469.731 340.031C468.297 340.566 466.987 341.386 465.879 342.442C464.772 343.498 463.89 344.768 463.288 346.175C462.685 347.581 462.375 349.096 462.375 350.626C462.375 352.156 462.685 353.671 463.288 355.078C463.89 356.484 464.772 357.754 465.879 358.81C466.987 359.866 468.297 360.686 469.731 361.221C471.165 361.756 472.692 361.994 474.221 361.921H487.631C489.16 361.994 490.687 361.756 492.121 361.221C493.555 360.686 494.865 359.866 495.973 358.81C497.081 357.754 497.962 356.484 498.565 355.078C499.167 353.671 499.478 352.156 499.478 350.626C499.478 349.096 499.167 347.581 498.565 346.175C497.962 344.768 497.081 343.498 495.973 342.442C494.865 341.386 493.555 340.566 492.121 340.031C490.687 339.496 489.16 339.258 487.631 339.331Z" fill="#DCDEE1"/>
<path d="M437.938 288.842H159.136C154.713 288.835 150.474 287.074 147.349 283.944C144.224 280.814 142.469 276.572 142.469 272.15V271.996C152.341 229.328 152.341 175.814 142.469 103.633C142.469 99.2122 144.225 94.9728 147.351 91.8471C150.476 88.7214 154.716 86.9655 159.136 86.9655H437.938C442.358 86.9655 446.597 88.7214 449.723 91.8471C452.849 94.9728 454.605 99.2122 454.605 103.633V103.786C442.681 159.265 442.681 216.645 454.605 272.124V272.252C454.578 276.657 452.811 280.873 449.689 283.98C446.567 287.088 442.343 288.836 437.938 288.842Z" fill="white"/>
<path d="M437.938 288.842H159.136C154.713 288.835 150.474 287.074 147.349 283.944C144.224 280.814 142.469 276.572 142.469 272.15V271.996C152.341 229.328 152.341 175.814 142.469 103.633C142.469 99.2122 144.225 94.9728 147.351 91.8471C150.476 88.7214 154.716 86.9655 159.136 86.9655H437.938C442.358 86.9655 446.597 88.7214 449.723 91.8471C452.849 94.9728 454.605 99.2122 454.605 103.633V103.786C442.681 159.265 442.681 216.645 454.605 272.124V272.252C454.578 276.657 452.811 280.873 449.689 283.98C446.567 287.088 442.343 288.836 437.938 288.842ZM143.879 272.226C143.926 276.276 145.568 280.143 148.448 282.989C151.328 285.836 155.215 287.432 159.264 287.432H437.938C441.987 287.432 445.873 285.836 448.754 282.989C451.634 280.143 453.275 276.276 453.323 272.226C441.374 216.603 441.374 159.076 453.323 103.453C453.269 99.4083 451.624 95.5476 448.745 92.7066C445.865 89.8655 441.983 88.2728 437.938 88.2732H159.136C155.087 88.2729 151.2 89.8692 148.32 92.7157C145.44 95.5622 143.798 99.4295 143.751 103.479C153.751 175.788 153.751 229.405 143.879 272.226Z" fill="#DCDEE1"/>
<path d="M408.706 136.634H183.419C182.201 136.634 181.034 136.15 180.173 135.289C179.312 134.428 178.829 133.261 178.829 132.044C178.829 130.826 179.312 129.659 180.173 128.798C181.034 127.937 182.201 127.454 183.419 127.454H408.706C409.924 127.454 411.091 127.937 411.952 128.798C412.813 129.659 413.296 130.826 413.296 132.044C413.296 133.261 412.813 134.428 411.952 135.289C411.091 136.15 409.924 136.634 408.706 136.634Z" fill="#DCDEE1"/>
<path d="M408.706 159.019H183.419C182.201 159.019 181.034 158.535 180.173 157.674C179.312 156.813 178.829 155.646 178.829 154.429C178.829 153.211 179.312 152.044 180.173 151.183C181.034 150.322 182.201 149.839 183.419 149.839H408.706C409.924 149.839 411.091 150.322 411.952 151.183C412.813 152.044 413.296 153.211 413.296 154.429C413.296 155.646 412.813 156.813 411.952 157.674C411.091 158.535 409.924 159.019 408.706 159.019Z" fill="#DCDEE1"/>
<path d="M408.706 181.147H183.419C182.201 181.147 181.034 180.664 180.173 179.803C179.312 178.942 178.829 177.775 178.829 176.558C178.829 175.34 179.312 174.173 180.173 173.312C181.034 172.451 182.201 171.968 183.419 171.968H408.706C409.309 171.968 409.906 172.086 410.463 172.317C411.02 172.548 411.526 172.886 411.952 173.312C412.378 173.738 412.716 174.244 412.947 174.801C413.177 175.358 413.296 175.955 413.296 176.558C413.296 177.16 413.177 177.757 412.947 178.314C412.716 178.871 412.378 179.377 411.952 179.803C411.526 180.229 411.02 180.567 410.463 180.798C409.906 181.029 409.309 181.147 408.706 181.147Z" fill="#DCDEE1"/>
<path d="M408.706 203.379H183.419C182.201 203.379 181.034 202.895 180.173 202.035C179.312 201.174 178.829 200.006 178.829 198.789C178.829 197.572 179.312 196.404 180.173 195.544C181.034 194.683 182.201 194.199 183.419 194.199H408.706C409.924 194.199 411.091 194.683 411.952 195.544C412.813 196.404 413.296 197.572 413.296 198.789C413.296 200.006 412.813 201.174 411.952 202.035C411.091 202.895 409.924 203.379 408.706 203.379Z" fill="#DCDEE1"/>
<path d="M408.706 225.687H183.419C182.201 225.687 181.034 225.203 180.173 224.342C179.312 223.481 178.829 222.314 178.829 221.097C178.829 219.879 179.312 218.712 180.173 217.851C181.034 216.99 182.201 216.507 183.419 216.507H408.706C409.924 216.507 411.091 216.99 411.952 217.851C412.813 218.712 413.296 219.879 413.296 221.097C413.296 222.314 412.813 223.481 411.952 224.342C411.091 225.203 409.924 225.687 408.706 225.687Z" fill="#DCDEE1"/>
<path d="M284.421 247.867H183.419C182.201 247.867 181.034 247.383 180.173 246.522C179.312 245.662 178.829 244.494 178.829 243.277C178.829 242.06 179.312 240.892 180.173 240.031C181.034 239.171 182.201 238.687 183.419 238.687H284.421C285.639 238.687 286.806 239.171 287.667 240.031C288.527 240.892 289.011 242.06 289.011 243.277C289.011 244.494 288.527 245.662 287.667 246.522C286.806 247.383 285.639 247.867 284.421 247.867Z" fill="#1A66FF"/>
<path d="M297.242 282.842H278.703C278.423 282.83 278.149 282.76 277.897 282.637C277.645 282.513 277.422 282.338 277.242 282.124C277.038 281.862 276.896 281.558 276.825 281.235C276.754 280.911 276.756 280.575 276.831 280.252L285.575 240.662C285.613 240.414 285.699 240.175 285.829 239.961C285.959 239.746 286.13 239.56 286.333 239.412C286.536 239.264 286.766 239.158 287.01 239.1C287.254 239.041 287.507 239.032 287.755 239.072C288.144 239.137 288.505 239.319 288.789 239.594C289.073 239.868 289.267 240.223 289.344 240.61L299.216 280.175C299.303 280.504 299.313 280.848 299.247 281.182C299.18 281.515 299.038 281.829 298.832 282.099C298.643 282.338 298.401 282.53 298.125 282.659C297.849 282.789 297.547 282.851 297.242 282.842Z" fill="#DCDEE1"/>
<path d="M530.889 297.663H66.1849C63.6551 297.663 61.2289 296.658 59.4401 294.869C57.6512 293.08 56.6462 290.654 56.6462 288.124C56.6462 285.594 57.6512 283.168 59.4401 281.379C61.2289 279.591 63.6551 278.586 66.1849 278.586H530.889C533.419 278.586 535.845 279.591 537.634 281.379C539.423 283.168 540.427 285.594 540.427 288.124C540.427 290.654 539.423 293.08 537.634 294.869C535.845 296.658 533.419 297.663 530.889 297.663Z" fill="#E9EBEE"/>
<path d="M472.041 273.79H465.246L462.041 247.636H472.041V273.79Z" fill="#FFB6B6"/>
<path d="M473.759 280.354H451.912V280.072C451.912 278.956 452.133 277.85 452.561 276.819C452.989 275.787 453.617 274.85 454.407 274.062C455.198 273.273 456.137 272.649 457.17 272.224C458.202 271.799 459.309 271.582 460.425 271.585L464.4 268.534L471.862 271.585H473.759V280.354Z" fill="#2F2E41"/>
<path d="M533.299 264.97L527.248 267.995L512.683 246.02L521.658 241.559L533.299 264.97Z" fill="#FFB6B6"/>
<path d="M537.684 270.072L518.119 279.842V279.585C517.114 277.566 516.952 275.229 517.668 273.09C518.385 270.95 519.921 269.182 521.94 268.175L524.171 263.688L532.197 263.072L533.889 262.226L537.684 270.072Z" fill="#2F2E41"/>
<path d="M469.041 154.993L506.427 156.301L509.222 161.429C509.222 161.429 512.145 182.66 510.658 184.173C509.17 185.686 508.401 185.66 509.145 188.302C509.888 190.943 511.709 215.995 511.709 215.995C511.709 215.995 527.094 248.021 527.914 249.893C528.735 251.765 529.402 251.021 528.658 251.79C527.993 252.498 527.368 253.243 526.786 254.021H514.606C514.606 254.021 508.042 237.431 502.016 230.944C496.71 225.303 493.341 218.117 492.401 210.43L487.272 186.43L476.529 223.123C476.529 223.123 474.657 259.508 475.041 261.38L475.4 263.252L461.015 263.406C461.015 263.406 459.502 260.252 460.246 259.124C460.99 257.996 460.964 258.303 460.041 256.56C459.487 254.972 459.303 253.28 459.502 251.611C459.502 251.611 464.913 177.865 464.913 176.737C464.94 176.165 464.835 175.595 464.605 175.07V173.532L466.041 168.122L469.041 154.993Z" fill="#2F2E41"/>
<path d="M485.17 87.2216C482.812 88.8315 481.125 91.2484 480.426 94.0166C478.892 99.0159 477.962 104.181 477.657 109.402L476.785 125.069C476.319 135.199 473.464 145.075 468.452 153.89C467.839 155.065 467.705 156.431 468.078 157.703C468.451 158.974 469.302 160.052 470.452 160.711C470.817 160.908 471.204 161.063 471.605 161.172C485.17 164.736 510.837 160.275 510.837 160.275C510.837 160.275 511.914 159.916 510.837 158.813C509.452 156.738 508.259 154.541 507.273 152.249L510.196 133.094L513.837 94.4782C510.168 90.6214 505.67 87.649 500.683 85.7857L498.401 81.683L487.042 82.6061L485.17 87.2216Z" fill="#1A66FF"/>
<path d="M492.375 79.2985C498.408 79.2985 503.298 74.4079 503.298 68.3751C503.298 62.3423 498.408 57.4518 492.375 57.4518C486.342 57.4518 481.452 62.3423 481.452 68.3751C481.452 74.4079 486.342 79.2985 492.375 79.2985Z" fill="#FFB8B8"/>
<path d="M505.811 67.7342C505.335 69.9393 504.466 72.041 503.247 73.9395C502.921 74.5882 502.436 75.1439 501.837 75.5549C501.531 75.7531 501.164 75.8361 500.803 75.7891C500.441 75.7422 500.108 75.5683 499.863 75.2985L499.606 75.0934C500.122 74.7692 500.582 74.362 500.965 73.8882C501.165 73.6553 501.305 73.3768 501.372 73.0773C501.439 72.7777 501.431 72.4662 501.35 72.1702C501.245 71.8836 501.037 71.6462 500.767 71.504C500.497 71.3619 500.184 71.3252 499.888 71.401C499.273 71.6574 498.863 72.5805 498.196 72.4523C497.529 72.3241 497.555 71.6061 497.555 71.042C497.555 68.1188 496.145 63.9649 494.991 64.0931C493.879 64.1429 492.768 63.9953 491.709 63.6572C490.655 63.2938 489.539 63.1456 488.426 63.2213H488.196C488.025 62.6629 487.784 62.1286 487.478 61.6315C487.541 62.2281 487.541 62.8298 487.478 63.4264C486.594 63.7822 485.685 64.0736 484.76 64.2982C483.734 64.4264 481.529 67.4521 481.426 67.1444C481.237 66.5892 480.987 66.0561 480.683 65.5547C480.747 66.1512 480.747 66.753 480.683 67.3496C480.195 66.7085 479.888 65.9136 480.067 66.5034C479.272 64.9538 478.997 63.1891 479.283 61.4709C479.569 59.7527 480.402 58.1726 481.657 56.9647C482.15 56.2907 482.814 55.7597 483.58 55.4262C483.97 55.2632 484.394 55.1989 484.814 55.2392C485.235 55.2794 485.639 55.4229 485.99 55.657C487.046 54.6863 488.342 54.0153 489.744 53.7133C491.146 53.4113 492.603 53.4892 493.965 53.939C496.657 54.8877 498.734 55.4518 499.093 58.2724C500.22 58.1513 501.359 58.349 502.379 58.8432C503.399 59.3373 504.259 60.108 504.863 61.0674C506.02 63.0867 506.359 65.4724 505.811 67.7342Z" fill="#2F2E41"/>
<path d="M517.478 138.659V116.736L502.093 117.89L506.632 131.71L492.683 156.737C491.65 156.96 490.705 157.48 489.963 158.233C489.221 158.985 488.715 159.937 488.505 160.973C488.296 162.009 488.393 163.083 488.785 164.064C489.177 165.046 489.846 165.892 490.711 166.499C491.576 167.106 492.599 167.448 493.655 167.483C494.711 167.517 495.754 167.244 496.657 166.695C497.56 166.146 498.283 165.346 498.739 164.393C499.194 163.439 499.362 162.374 499.222 161.327L517.478 138.659Z" fill="#FFB6B6"/>
<path d="M512.863 93.4271C518.889 95.9912 520.248 135.274 518.889 135.043C515.042 134.402 507.299 130.736 504.991 131.838C503.658 132.454 502.222 121.197 502.222 121.197C502.222 121.197 500.811 114.889 499.17 106.735C498.681 104.451 498.772 102.081 499.435 99.8414C500.098 97.6017 501.312 95.5639 502.965 93.9143C504.427 92.9704 506.111 92.4283 507.849 92.3428C509.586 92.2572 511.316 92.6312 512.863 93.4271Z" fill="#1A66FF"/>
<path d="M140.238 335.587C139.542 334.929 139.129 334.026 139.086 333.069C139.043 332.113 139.373 331.176 140.007 330.459C140.157 330.3 140.32 330.154 140.495 330.023L136.341 317.535L142.93 319.304L145.828 330.818C146.098 331.221 146.286 331.675 146.381 332.151C146.475 332.628 146.475 333.118 146.38 333.595C146.284 334.071 146.096 334.524 145.825 334.927C145.555 335.331 145.207 335.677 144.802 335.946C144.109 336.399 143.285 336.61 142.459 336.545C141.633 336.48 140.852 336.143 140.238 335.587Z" fill="#FFB6B6"/>
<path d="M152.161 267.791C153.264 268.406 159.854 266.867 161.008 267.303C160.315 271.56 164.11 269.868 159.982 275.56C154.204 284.565 149.415 294.168 145.7 304.202C143.802 310.484 145.7 319.305 145.392 322.151C145.241 323.857 145.241 325.573 145.392 327.279C143.166 327.463 140.931 327.506 138.7 327.407C136.53 320.224 134.817 312.91 133.571 305.509C132.546 300.33 132.546 302.612 132.956 300.048C133.366 297.484 133.597 299.304 132.956 296.74C132.315 294.176 134.571 290.945 136.546 289.048C137.417 286.483 138.52 284.304 139.366 281.868C145.648 276.406 146.059 273.278 152.161 267.791Z" fill="#3F3D56"/>
<path d="M210.188 327.664C209.707 327.736 209.215 327.713 208.743 327.595C208.27 327.477 207.825 327.266 207.435 326.975C207.044 326.684 206.714 326.319 206.465 325.9C206.216 325.482 206.052 325.018 205.983 324.536C205.97 324.322 205.97 324.108 205.983 323.895L193.727 319.151L199.214 315.176L210.009 320.305C210.913 320.411 211.747 320.846 212.352 321.527C212.957 322.208 213.291 323.087 213.291 323.997C213.291 324.908 212.957 325.787 212.352 326.467C211.747 327.148 210.913 327.583 210.009 327.69L210.188 327.664Z" fill="#FFB6B6"/>
<path d="M165.444 275.355C166.623 274.893 169.547 268.919 170.572 268.227C173.418 271.457 174.598 267.509 176.316 274.252C179.58 284.446 183.939 294.255 189.316 303.51C192.983 308.946 200.983 313.125 203.086 315.228C204.334 316.424 205.681 317.514 207.112 318.484C205.837 320.32 204.449 322.076 202.958 323.741C196.039 320.847 189.308 317.524 182.803 313.792C177.957 311.228 179.675 312.689 177.931 310.612C176.188 308.535 177.777 309.664 175.367 308.433C172.957 307.202 171.931 303.51 171.777 300.74C170.418 298.509 169.213 296.202 168.008 293.996C167.957 285.868 165.88 283.56 165.444 275.355Z" fill="#3F3D56"/>
<path d="M174.675 312.407L180.778 339.741L141.572 337.305L152.238 310.458L174.675 312.407Z" fill="#FFB6B6"/>
<path d="M168.136 438.487H172.546L174.649 421.512H168.136V438.487Z" fill="#FFB6B6"/>
<path d="M166.649 436.333L173.572 435.948V438.948L180.214 443.513C180.542 443.74 180.789 444.067 180.919 444.446C181.048 444.824 181.053 445.234 180.932 445.615C180.812 445.996 180.573 446.329 180.25 446.564C179.926 446.8 179.536 446.925 179.137 446.923H171.008L169.572 443.974L169.034 446.923H165.88L166.649 436.333Z" fill="#2F2E41"/>
<path d="M126.494 436.308L130.802 437.231L136.443 421.077L130.084 419.692L126.494 436.308Z" fill="#FFB6B6"/>
<path d="M125.494 433.871L132.392 434.923L131.751 437.846L137.264 443.641C137.535 443.933 137.706 444.304 137.751 444.7C137.797 445.095 137.715 445.495 137.518 445.842C137.32 446.188 137.018 446.462 136.654 446.624C136.29 446.786 135.884 446.828 135.494 446.743L127.417 445.051L126.648 441.872L125.494 444.641L122.417 443.974L125.494 433.871Z" fill="#2F2E41"/>
<path d="M181.803 362.588C178.701 379.537 177.931 386.922 177.931 386.922C177.931 386.922 180.239 389.614 178.701 391.152C177.162 392.691 178.701 395.794 178.701 395.794L175.213 433.384L172.418 432.948L165.675 431.846L163.11 431.461L164.675 396.306C164.675 396.306 163.11 393.229 163.905 392.434C164.7 391.64 163.11 387.05 163.11 387.05L161.187 350.356L149.213 390.511C149.521 390.897 149.688 391.377 149.688 391.87C149.688 392.364 149.521 392.843 149.213 393.229C147.877 395.386 146.76 397.671 145.879 400.05L138.751 424.974L138.135 427.076L134.417 426.384L130.392 425.615L129.648 425.487L128.315 425.23L127.468 425.076H127.186L125.776 424.82L126.212 422.922L126.417 421.948L132.546 395.127L132.699 394.511V393.87C132.488 393.364 132.413 392.812 132.48 392.268C132.548 391.724 132.756 391.207 133.084 390.768C133.407 390.431 133.646 390.025 133.784 389.58C133.922 389.134 133.955 388.663 133.879 388.204V388.075C133.738 387.885 133.642 387.666 133.597 387.434C133.544 387.071 133.586 386.699 133.721 386.357C133.856 386.015 134.079 385.715 134.366 385.486C134.582 385.257 134.764 384.998 134.905 384.716C135.799 382.488 136.394 380.152 136.674 377.767C136.674 377.767 137.725 340.459 141.135 334.741C141.315 334.459 144.956 328.741 145.136 328.612C149.007 326.305 179.085 329.484 179.085 329.484C179.085 329.484 180.906 334.382 180.983 334.895C183.138 343.973 183.418 353.397 181.803 362.588Z" fill="#2F2E41"/>
<path d="M172.649 272.688C172.649 272.688 173.29 269.303 167.059 263.047C163.418 262.258 159.649 262.258 156.008 263.047C146.802 275.201 148.469 273.047 146.059 279.842C145.419 281.363 145.181 283.023 145.366 284.663C146.822 296.381 147.678 308.166 147.931 319.971C147.572 321.458 144.982 323.305 147.572 323.305C150.161 323.305 183.47 322.715 182.624 321.612C181.778 320.51 172.649 272.688 172.649 272.688Z" fill="#3F3D56"/>
<path d="M162.29 260.919C168.11 260.919 172.829 256.2 172.829 250.38C172.829 244.56 168.11 239.841 162.29 239.841C156.47 239.841 151.751 244.56 151.751 250.38C151.751 256.2 156.47 260.919 162.29 260.919Z" fill="#FFB6B6"/>
<path d="M153.341 254.354C153.118 255.623 152.61 256.824 151.854 257.867C150.798 259.88 150.247 262.119 150.247 264.393C150.247 266.666 150.798 268.905 151.854 270.918C152.857 272.464 153.773 274.065 154.597 275.713C154.933 276.437 155.106 277.224 155.106 278.021C155.106 278.818 154.933 279.606 154.597 280.329C152.751 278.534 151.854 279.483 149.751 277.919C150.572 280.252 149.751 280.303 150.7 282.637L140.007 285.688C142.209 283.918 143.765 281.47 144.433 278.725C145.1 275.98 144.843 273.092 143.7 270.508C142.392 267.713 140.059 265.38 139.212 262.457C138.571 260.223 138.843 257.825 139.968 255.792C141.093 253.758 142.979 252.254 145.213 251.61C147.21 251.044 149.343 251.198 151.238 252.046C152.264 251.713 153.392 253.097 153.341 254.354Z" fill="#2F2E41"/>
<path d="M166.598 238.508C165.162 235.405 161.469 235.944 158.034 236.431C156.344 236.699 154.745 237.374 153.374 238.396C152.002 239.419 150.9 240.76 150.162 242.303C148.72 245.429 148.447 248.968 149.392 252.277C149.895 254.531 151.098 256.569 152.828 258.098C154.623 259.534 163.085 262.919 163.726 259.996C162.854 263.816 160.572 265.996 163.187 268.919C164.521 264.867 170.239 261.021 171.572 256.97C171.777 256.354 170.957 249.277 171.162 248.585C171.572 247.303 172.008 246.021 172.316 244.687C172.593 243.88 172.692 243.022 172.608 242.173C172.524 241.323 172.258 240.502 171.829 239.764C170.803 238.431 168.213 238.354 167.675 239.995" fill="#2F2E41"/>
<path d="M164.88 251.456L164.444 248.585C164.752 245.02 164.239 239.328 166.598 238.559L168.034 239.995C167.111 240.277 165.393 245.636 164.88 251.456Z" fill="#FF6584"/>
<path d="M267.652 447C267.655 447.11 267.636 447.219 267.597 447.322C267.557 447.424 267.497 447.518 267.421 447.597C267.344 447.676 267.252 447.738 267.151 447.781C267.05 447.824 266.941 447.846 266.831 447.846H68.8774C68.653 447.846 68.4378 447.757 68.2791 447.598C68.1204 447.44 68.0312 447.224 68.0312 447C68.0312 446.775 68.1204 446.56 68.2791 446.402C68.4378 446.243 68.653 446.154 68.8774 446.154H266.806C267.03 446.154 267.245 446.243 267.404 446.402C267.563 446.56 267.652 446.775 267.652 447Z" fill="#CCCCCC"/>
<path d="M371.269 394.768H225.804C222.805 394.768 219.929 395.96 217.808 398.08C215.688 400.201 214.496 403.077 214.496 406.076C214.496 409.075 215.688 411.951 217.808 414.072C219.929 416.193 222.805 417.384 225.804 417.384H371.269C374.268 417.384 377.145 416.193 379.265 414.072C381.386 411.951 382.577 409.075 382.577 406.076C382.577 403.077 381.386 400.201 379.265 398.08C377.145 395.96 374.268 394.768 371.269 394.768Z" fill="#DCDEE1"/>
</svg>
