<svg width="597" height="501" viewBox="0 0 597 501" fill="none" xmlns="http://www.w3.org/2000/svg">
<g clip-path="url(#clip0_6624_116020)">
<path d="M85.4968 445.783C132.653 445.783 170.88 442.866 170.88 439.268C170.88 435.669 132.653 432.752 85.4968 432.752C38.3411 432.752 0.11377 435.669 0.11377 439.268C0.11377 442.866 38.3411 445.783 85.4968 445.783Z" fill="#DCDEE1"/>
<path d="M113.135 153.615L78.9816 144.315C88.0716 135.716 92.0211 127.633 90.8301 120.066H113.03L113.135 153.615Z" fill="#9F616A"/>
<path d="M116.76 414.756L105.752 416.306L92.4852 294.511L71.3364 415.781L59.9871 416.306V262.512H130.159L116.76 414.756Z" fill="#2F2E41"/>
<path d="M65.6881 439.32C67.4176 439.37 69.1139 438.838 70.5049 437.809C71.8959 436.78 72.9011 435.314 73.3595 433.645L74.1739 421.666L72.545 413.154C70.8065 411.476 68.4849 410.539 66.0691 410.539C63.6532 410.539 61.3316 411.476 59.5931 413.154L58.2007 430.966C58.0744 432.994 58.7362 434.992 60.0482 436.544C61.3601 438.096 63.2206 439.081 65.2415 439.294L65.6881 439.32Z" fill="#2F2E41"/>
<path d="M111.112 439.32C112.841 439.37 114.538 438.838 115.929 437.809C117.32 436.78 118.325 435.314 118.783 433.645L119.598 421.666L117.969 413.154C116.23 411.476 113.909 410.539 111.493 410.539C109.077 410.539 106.755 411.476 105.017 413.154L103.625 430.966C103.499 433.002 104.168 435.008 105.491 436.561C106.814 438.114 108.688 439.094 110.718 439.294L111.112 439.32Z" fill="#2F2E41"/>
<path d="M108.485 136.066C119.323 136.066 128.11 127.28 128.11 116.441C128.11 105.603 119.323 96.8161 108.485 96.8161C97.646 96.8161 88.8596 105.603 88.8596 116.441C88.8596 127.28 97.646 136.066 108.485 136.066Z" fill="#9F616A"/>
<path d="M133.259 265.086H58.4371C68.1314 220.135 68.1051 183.933 60.3812 154.745C59.8793 152.854 60.0988 150.843 60.9971 149.105C61.8955 147.367 63.4084 146.025 65.2415 145.34L85.3656 137.616C91.4081 145.498 99.9464 148.834 113.24 143.79L123.749 145.97C126.316 146.492 128.606 147.928 130.195 150.01C131.785 152.092 132.565 154.68 132.392 157.294C131.604 168.748 131.919 180.281 131.262 190.238C129.134 221.107 128.294 245.146 133.259 265.086Z" fill="#DCDEE1"/>
<path d="M98.1598 90.6423C98.1598 90.6423 109.535 77.8742 123.039 90.1169L126.665 91.1677L124.037 93.2169C124.037 93.2169 137.436 99.417 136.411 112.316C135.397 112.035 134.326 112.035 133.311 112.316C132.287 112.842 131.761 118.517 131.761 118.517C131.192 116.919 130.508 115.365 129.712 113.866C129.187 113.341 121.831 119.541 110.087 110.267C110.087 110.267 106.488 119.541 102.363 118.517C101.142 118.102 99.8512 117.933 98.5647 118.021C97.2782 118.109 96.0219 118.451 94.8685 119.027C93.7152 119.604 92.6877 120.404 91.8457 121.38C91.0036 122.357 90.3637 123.491 89.9631 124.717C89.9631 124.717 75.9865 94.7669 98.1598 90.6423Z" fill="#2F2E41"/>
<path d="M136.884 253.737L130.264 262.617C129.578 263.53 129.079 264.57 128.797 265.676C128.514 266.783 128.452 267.934 128.616 269.064C128.78 270.195 129.165 271.282 129.75 272.263C130.335 273.244 131.107 274.099 132.024 274.781C133.225 275.66 134.633 276.215 136.111 276.392C137.589 276.569 139.088 276.363 140.464 275.792C141.839 275.222 143.044 274.308 143.963 273.136C144.882 271.965 145.484 270.577 145.712 269.106L147.603 257.257L151.229 206.159L148.601 180.36L132.234 186.639L136.884 208.839V253.737Z" fill="#9F616A"/>
<path d="M130.159 192.839L150.309 183.539L149.258 176.235C149.258 170.182 147.429 164.269 144.012 159.272C140.594 154.275 135.748 150.426 130.106 148.23L123.985 145.865L130.159 192.839Z" fill="#DCDEE1"/>
<path d="M56.8869 251.661L63.5074 260.541C64.8803 262.395 65.4656 264.716 65.1359 266.999C64.8063 269.281 63.5884 271.342 61.7472 272.731C60.82 273.403 59.7692 273.885 58.6553 274.149C57.5414 274.414 56.3862 274.456 55.2561 274.272C54.1259 274.089 53.0431 273.685 52.0696 273.082C51.0961 272.48 50.2513 271.691 49.5834 270.761C48.7963 269.658 48.2666 268.392 48.0334 267.057L46.1418 255.208L42.5426 204.11L45.1698 178.311L61.6947 184.485L57.0446 206.684L56.8869 251.661Z" fill="#9F616A"/>
<path d="M63.5862 190.842L43.462 181.568L44.4866 174.239C44.4712 168.171 46.2958 162.241 49.7198 157.232C53.1437 152.223 58.006 148.369 63.665 146.18L69.7863 143.79L63.5862 190.842Z" fill="#DCDEE1"/>
<path d="M590.676 388.248H246.122C244.68 388.248 243.297 387.675 242.277 386.655C241.257 385.635 240.684 384.252 240.684 382.81V233.061C240.691 231.621 241.266 230.242 242.284 229.223C243.303 228.205 244.682 227.63 246.122 227.623H590.676C592.114 227.637 593.489 228.214 594.506 229.231C595.523 230.248 596.1 231.623 596.114 233.061V382.81C596.107 384.25 595.532 385.629 594.513 386.648C593.495 387.666 592.116 388.241 590.676 388.248ZM246.254 229.777C245.39 229.777 244.561 230.12 243.95 230.731C243.339 231.342 242.996 232.171 242.996 233.035V382.784C242.992 383.212 243.074 383.637 243.237 384.034C243.399 384.431 243.639 384.792 243.942 385.095C244.245 385.398 244.606 385.638 245.003 385.8C245.4 385.963 245.825 386.045 246.254 386.041H590.676C591.103 386.041 591.527 385.957 591.922 385.793C592.317 385.63 592.677 385.39 592.979 385.087C593.282 384.785 593.522 384.425 593.685 384.03C593.849 383.635 593.933 383.211 593.933 382.784V233.035C593.926 232.173 593.581 231.348 592.971 230.739C592.362 230.129 591.537 229.784 590.676 229.777H246.254Z" fill="#DCDEE1"/>
<path d="M260.23 246.013C259.366 246.013 258.537 246.356 257.926 246.967C257.315 247.578 256.972 248.407 256.972 249.271C256.972 250.135 257.315 250.963 257.926 251.574C258.537 252.185 259.366 252.528 260.23 252.528H305.811C306.675 252.528 307.504 252.185 308.115 251.574C308.726 250.963 309.069 250.135 309.069 249.271C309.069 248.407 308.726 247.578 308.115 246.967C307.504 246.356 306.675 246.013 305.811 246.013H260.23Z" fill="#DCDEE1"/>
<path d="M572.285 268.712V329.137H264.906V297.348C267.034 295.982 269.162 294.721 271.343 293.302C280.564 287.654 290.442 282.373 301.214 280.429C306.303 279.465 311.521 279.394 316.635 280.219C322.021 281.269 327.298 282.817 332.398 284.843C337.403 286.832 342.549 288.448 347.793 289.677C352.939 290.674 358.217 290.781 363.399 289.992C373.277 288.494 382.577 284.527 391.825 280.928C401.072 277.329 410.714 273.914 420.724 273.467C430.658 273.368 440.534 274.995 449.912 278.275C469.169 284.212 488.794 293.013 509.154 286.971C529.515 280.928 548.877 263.169 571.786 268.423C571.981 268.457 572.158 268.56 572.285 268.712Z" fill="#DCDEE1"/>
<path d="M572.285 269.658C572.186 269.84 572.028 269.983 571.838 270.064C571.647 270.145 571.434 270.159 571.234 270.104C568.501 269.497 565.706 269.215 562.906 269.264C540.339 269.658 523.026 287.811 500.958 290.517C481.096 292.961 462.391 283.293 443.712 278.249C434.095 275.309 423.946 274.547 413.998 276.015C404.068 277.776 394.767 281.821 385.415 285.421C376.062 289.02 367.024 292.12 357.33 292.278C346.611 292.461 336.97 288.048 327.039 284.685C321.922 282.782 316.544 281.674 311.092 281.401C305.739 281.337 300.412 282.163 295.329 283.844C284.93 287.638 275.073 292.779 266.01 299.134C265.849 299.245 265.652 299.292 265.458 299.266C265.202 299.227 264.972 299.09 264.815 298.884C264.658 298.678 264.587 298.419 264.617 298.162C264.631 298.021 264.676 297.884 264.749 297.761C264.821 297.638 264.92 297.533 265.038 297.453L265.458 297.19C267.586 295.824 269.714 294.563 271.895 293.145C281.09 287.496 290.942 282.215 301.687 280.271C306.768 279.311 311.977 279.24 317.082 280.061C322.469 281.107 327.747 282.655 332.845 284.685C337.841 286.675 342.978 288.29 348.214 289.519C353.342 290.517 358.603 290.623 363.767 289.834C373.645 288.337 382.919 284.37 392.14 280.771C401.362 277.171 411.003 273.756 421.039 273.309C430.956 273.208 440.815 274.835 450.174 278.117C469.379 284.055 488.978 292.856 509.286 286.813C529.594 280.771 548.93 263.011 571.786 268.265C571.896 268.283 572.002 268.322 572.096 268.381C572.191 268.439 572.273 268.516 572.338 268.607C572.42 268.772 572.458 268.955 572.449 269.139C572.439 269.323 572.383 269.502 572.285 269.658Z" fill="#1A66FF"/>
<path d="M307.256 285.447C309.738 285.447 311.749 283.435 311.749 280.954C311.749 278.473 309.738 276.462 307.256 276.462C304.775 276.462 302.764 278.473 302.764 280.954C302.764 283.435 304.775 285.447 307.256 285.447Z" fill="#1A66FF"/>
<path d="M420.855 279.667C423.336 279.667 425.348 277.656 425.348 275.175C425.348 272.694 423.336 270.682 420.855 270.682C418.374 270.682 416.363 272.694 416.363 275.175C416.363 277.656 418.374 279.667 420.855 279.667Z" fill="#1A66FF"/>
<path d="M559.465 273.887C561.946 273.887 563.957 271.876 563.957 269.395C563.957 266.914 561.946 264.902 559.465 264.902C556.983 264.902 554.972 266.914 554.972 269.395C554.972 271.876 556.983 273.887 559.465 273.887Z" fill="#1A66FF"/>
<path d="M304.734 354.594C303.87 354.594 303.042 354.937 302.431 355.548C301.82 356.159 301.477 356.988 301.477 357.852C301.477 358.716 301.82 359.544 302.431 360.155C303.042 360.766 303.87 361.109 304.734 361.109H350.316C350.744 361.109 351.167 361.025 351.562 360.861C351.958 360.698 352.317 360.458 352.619 360.155C352.922 359.853 353.162 359.494 353.325 359.098C353.489 358.703 353.573 358.28 353.573 357.852C353.573 357.424 353.489 357 353.325 356.605C353.162 356.21 352.922 355.851 352.619 355.548C352.317 355.246 351.958 355.006 351.562 354.842C351.167 354.678 350.744 354.594 350.316 354.594H304.734Z" fill="#DCDEE1"/>
<path d="M275.415 369.779C282.205 369.779 287.71 364.274 287.71 357.484C287.71 350.693 282.205 345.189 275.415 345.189C268.624 345.189 263.12 350.693 263.12 357.484C263.12 364.274 268.624 369.779 275.415 369.779Z" fill="#1A66FF"/>
<path d="M414.655 354.594C414.227 354.594 413.804 354.678 413.408 354.842C413.013 355.006 412.654 355.246 412.351 355.548C412.049 355.851 411.809 356.21 411.645 356.605C411.482 357 411.397 357.424 411.397 357.852C411.397 358.28 411.482 358.703 411.645 359.098C411.809 359.494 412.049 359.853 412.351 360.155C412.654 360.458 413.013 360.698 413.408 360.861C413.804 361.025 414.227 361.109 414.655 361.109H460.236C460.664 361.109 461.088 361.025 461.483 360.861C461.878 360.698 462.237 360.458 462.54 360.155C462.842 359.853 463.082 359.494 463.246 359.098C463.41 358.703 463.494 358.28 463.494 357.852C463.494 357.424 463.41 357 463.246 356.605C463.082 356.21 462.842 355.851 462.54 355.548C462.237 355.246 461.878 355.006 461.483 354.842C461.088 354.678 460.664 354.594 460.236 354.594H414.655Z" fill="#DCDEE1"/>
<path d="M385.414 369.779C392.205 369.779 397.71 364.274 397.71 357.484C397.71 350.693 392.205 345.189 385.414 345.189C378.624 345.189 373.119 350.693 373.119 357.484C373.119 364.274 378.624 369.779 385.414 369.779Z" fill="#1A66FF"/>
<path d="M524.707 354.594C524.279 354.594 523.856 354.678 523.46 354.842C523.065 355.006 522.706 355.246 522.404 355.548C522.101 355.851 521.861 356.21 521.697 356.605C521.534 357 521.449 357.424 521.449 357.852C521.449 358.28 521.534 358.703 521.697 359.098C521.861 359.494 522.101 359.853 522.404 360.155C522.706 360.458 523.065 360.698 523.46 360.861C523.856 361.025 524.279 361.109 524.707 361.109H570.289C571.153 361.109 571.981 360.766 572.592 360.155C573.203 359.544 573.546 358.716 573.546 357.852C573.546 356.988 573.203 356.159 572.592 355.548C571.981 354.937 571.153 354.594 570.289 354.594H524.707Z" fill="#DCDEE1"/>
<path d="M495.388 369.779C502.178 369.779 507.683 364.274 507.683 357.484C507.683 350.693 502.178 345.189 495.388 345.189C488.597 345.189 483.093 350.693 483.093 357.484C483.093 364.274 488.597 369.779 495.388 369.779Z" fill="#1A66FF"/>
<path d="M567.031 187.164H397.053C393.743 187.164 391.037 185.247 391.037 182.908V145.97C391.037 143.606 393.664 141.688 397.053 141.688H567.031C570.341 141.688 573.021 143.606 573.021 145.97V182.961C572.968 185.247 570.289 187.164 567.031 187.164ZM397.053 143.396C395.056 143.396 393.454 144.552 393.454 146.023V182.961C393.454 184.353 395.056 185.588 397.053 185.588H567.031C569.001 185.588 570.63 184.432 570.63 182.961V145.97C570.63 144.552 569.001 143.343 567.031 143.343L397.053 143.396Z" fill="#DCDEE1"/>
<path d="M435.462 162.679C434.501 162.679 433.579 163.061 432.899 163.741C432.219 164.421 431.837 165.343 431.837 166.305V191.631C431.837 192.592 432.219 193.514 432.899 194.194C433.579 194.874 434.501 195.256 435.462 195.256H564.982C565.943 195.256 566.866 194.874 567.546 194.194C568.225 193.514 568.607 192.592 568.607 191.631V166.305C568.607 165.343 568.225 164.421 567.546 163.741C566.866 163.061 565.943 162.679 564.982 162.679H435.462Z" fill="#1A66FF"/>
<path d="M453.564 187.296C457.96 187.296 461.524 183.732 461.524 179.335C461.524 174.939 457.96 171.375 453.564 171.375C449.167 171.375 445.603 174.939 445.603 179.335C445.603 183.732 449.167 187.296 453.564 187.296Z" fill="white"/>
<path d="M489.818 175.868C488.954 175.868 488.126 176.211 487.515 176.822C486.904 177.433 486.561 178.261 486.561 179.125C486.561 179.989 486.904 180.818 487.515 181.429C488.126 182.04 488.954 182.383 489.818 182.383H535.505C536.369 182.383 537.197 182.04 537.808 181.429C538.419 180.818 538.763 179.989 538.763 179.125C538.763 178.261 538.419 177.433 537.808 176.822C537.197 176.211 536.369 175.868 535.505 175.868H489.818Z" fill="white"/>
<path d="M439.613 101.072H269.688C266.378 101.072 263.698 99.1543 263.698 96.7898V59.8518C263.698 57.5137 266.325 55.5958 269.688 55.5958H439.613C442.924 55.5958 445.603 57.5137 445.63 59.8518V96.7898C445.603 99.1543 442.924 101.046 439.613 101.072ZM269.688 57.3035C267.718 57.3035 266.089 58.4332 266.089 59.9306V96.7898C266.089 98.2085 267.718 99.417 269.688 99.417H439.613C441.61 99.417 443.213 98.2611 443.213 96.7898V59.8518C443.213 58.4332 441.61 57.2247 439.613 57.2247L269.688 57.3035Z" fill="#DCDEE1"/>
<path d="M308.123 76.5868C307.649 76.5834 307.178 76.6739 306.738 76.8532C306.298 77.0326 305.898 77.2971 305.561 77.6317C305.224 77.9663 304.957 78.3642 304.774 78.8026C304.592 79.241 304.498 79.7112 304.498 80.1861V105.512C304.498 106.474 304.88 107.396 305.56 108.076C306.24 108.755 307.162 109.137 308.123 109.137H437.643C438.118 109.137 438.588 109.044 439.026 108.861C439.465 108.678 439.863 108.411 440.197 108.074C440.532 107.737 440.796 107.337 440.976 106.897C441.155 106.458 441.246 105.987 441.242 105.512V80.1861C441.242 79.2315 440.863 78.316 440.188 77.641C439.513 76.966 438.597 76.5868 437.643 76.5868H308.123Z" fill="#1A66FF"/>
<path d="M326.198 101.177C330.595 101.177 334.159 97.6132 334.159 93.2168C334.159 88.8205 330.595 85.2565 326.198 85.2565C321.802 85.2565 318.238 88.8205 318.238 93.2168C318.238 97.6132 321.802 101.177 326.198 101.177Z" fill="white"/>
<path d="M362.48 89.7753C361.616 89.7753 360.787 90.1186 360.176 90.7295C359.565 91.3404 359.222 92.169 359.222 93.033C359.222 93.897 359.565 94.7256 360.176 95.3366C360.787 95.9475 361.616 96.2907 362.48 96.2907H408.061C408.925 96.2907 409.753 95.9475 410.364 95.3366C410.975 94.7256 411.319 93.897 411.319 93.033C411.319 92.169 410.975 91.3404 410.364 90.7295C409.753 90.1186 408.925 89.7753 408.061 89.7753H362.48Z" fill="white"/>
</g>
<defs>
<clipPath id="clip0_6624_116020">
<rect width="596" height="500" fill="white" transform="translate(0.11377 0.689453)"/>
</clipPath>
</defs>
</svg>
