<svg width="597" height="501" viewBox="0 0 597 501" fill="none" xmlns="http://www.w3.org/2000/svg">
<path d="M188.894 305.525C187.502 304.995 186.374 303.94 185.753 302.587C185.132 301.234 185.068 299.691 185.573 298.29C185.696 297.98 185.84 297.679 186.004 297.388L172.989 281.894L183.401 280.664L194.161 295.482C195.318 296.269 196.145 297.455 196.484 298.812C196.823 300.17 196.651 301.605 196 302.844C195.349 304.083 194.265 305.038 192.954 305.529C191.643 306.02 190.198 306.011 188.894 305.505V305.525Z" fill="#FFB6B6"/>
<path d="M135.278 449.895H142.185L145.485 423.189H135.278V449.895Z" fill="#FFB6B6"/>
<path d="M133.514 447.64H135.564L143.168 444.545L147.267 447.64C149.568 447.64 151.775 448.553 153.404 450.178C155.033 451.803 155.951 454.008 155.957 456.31V456.597H133.514V447.64Z" fill="#2F2E41"/>
<path d="M162.085 445.529L168.848 447.066L177.928 421.734L167.967 419.5L162.085 445.529Z" fill="#FFB6B6"/>
<path d="M160.876 442.947L162.761 443.377L170.959 442.025L174.239 445.939C175.353 446.189 176.407 446.656 177.34 447.313C178.273 447.971 179.067 448.807 179.677 449.772C180.286 450.738 180.699 451.814 180.891 452.94C181.083 454.065 181.051 455.217 180.797 456.33V456.597L159.031 451.678L160.876 442.947Z" fill="#2F2E41"/>
<path d="M122.674 312.637L128.822 382.69C128.822 382.69 126.527 424.788 134.09 439.709H145.055L150.486 378.96L151.183 338.174L174.691 372.484L159.709 438.622L173.215 439.811L197.543 368.077L170.899 300.709L122.674 312.637Z" fill="#2F2E41"/>
<path d="M129.149 200.916C138.057 200.916 145.279 193.695 145.279 184.786C145.279 175.878 138.057 168.657 129.149 168.657C120.24 168.657 113.019 175.878 113.019 184.786C113.019 193.695 120.24 200.916 129.149 200.916Z" fill="#FFB8B8"/>
<path d="M163.049 216.308L144.296 210.631L141.857 203.13L121.751 206.389L117.467 213.706L103.633 226.556L119.845 299.807L119.353 315.814C119.353 315.814 129.724 320.487 174.691 309.665C175.244 309.542 174.117 308.989 174.117 308.989L163.049 216.308Z" fill="#3F3D56"/>
<path d="M180.839 297.06L158.868 267.547L152.719 215.386H152.904C154.607 214.547 156.494 214.147 158.391 214.223C160.288 214.3 162.137 214.85 163.767 215.825C165.397 216.799 166.757 218.165 167.724 219.8C168.69 221.435 169.232 223.285 169.3 225.183L170.612 257.422L192.357 286.239L180.839 297.06Z" fill="#3F3D56"/>
<path d="M112.425 193.948L112.077 193.477L111.954 193.763L112.425 193.948Z" fill="#2F2E41"/>
<path d="M145.219 172.981C144.129 170.638 142.208 168.783 139.828 167.775C137.461 166.822 134.817 166.822 132.45 167.775C130.374 166.345 127.97 165.464 125.461 165.213C124.202 165.116 122.939 165.322 121.776 165.814C120.613 166.306 119.586 167.07 118.78 168.042C118.437 168.581 118.046 169.089 117.611 169.558C116.922 170.024 116.139 170.334 115.318 170.465C114.496 170.596 113.656 170.545 112.856 170.317L115.07 172.202L112.426 172.92L115.562 174.826C114.081 175.857 112.914 177.277 112.19 178.93C111.467 180.584 111.215 182.405 111.463 184.192C111.951 187.578 113.314 190.779 115.418 193.477C116.022 191.712 116.225 189.836 116.013 187.984C115.884 187.011 115.99 186.022 116.321 185.098C116.653 184.175 117.201 183.344 117.919 182.675C119.054 182.042 120.357 181.777 121.649 181.917C128.123 181.941 134.59 182.345 141.017 183.126C141.888 183.169 142.738 183.415 143.497 183.844C144.121 184.454 144.609 185.189 144.927 186.002C145.245 186.815 145.386 187.686 145.342 188.558C146.082 185.658 146.447 182.676 146.428 179.683C146.498 177.389 146.086 175.106 145.219 172.981Z" fill="#2F2E41"/>
<path d="M143.619 368.897C157.644 368.897 169.013 357.527 169.013 343.503C169.013 329.478 157.644 318.109 143.619 318.109C129.595 318.109 118.226 329.478 118.226 343.503C118.226 357.527 129.595 368.897 143.619 368.897Z" fill="#F0F0F0"/>
<path d="M143.619 317.535C142.315 317.539 141.014 317.635 139.725 317.822C139.069 317.925 138.413 318.048 137.675 318.191C132.979 319.266 128.675 321.626 125.245 325.009C121.814 328.391 119.394 332.662 118.253 337.342C117.113 342.023 117.298 346.929 118.788 351.51C120.278 356.091 123.014 360.167 126.689 363.281C127.12 363.65 127.55 363.998 128.022 364.347C131.318 366.809 135.152 368.454 139.209 369.144C143.265 369.834 147.427 369.55 151.352 368.316C155.277 367.082 158.853 364.933 161.785 362.046C164.717 359.159 166.92 355.616 168.214 351.71C169.508 347.804 169.855 343.647 169.227 339.581C168.599 335.514 167.014 331.655 164.602 328.322C162.19 324.988 159.02 322.275 155.354 320.407C151.688 318.539 147.631 317.569 143.516 317.576L143.619 317.535ZM143.619 368.343C138.34 368.334 133.201 366.647 128.944 363.527C128.493 363.179 128.042 362.83 127.612 362.461C124.043 359.454 121.394 355.501 119.969 351.057C118.545 346.613 118.402 341.857 119.558 337.335C120.713 332.814 123.12 328.709 126.502 325.493C129.885 322.278 134.105 320.081 138.679 319.154C139.308 319.031 139.943 318.929 140.585 318.847C141.592 318.724 142.605 318.663 143.619 318.663C150.207 318.663 156.525 321.28 161.184 325.938C165.842 330.597 168.459 336.915 168.459 343.503C168.459 350.091 165.842 356.409 161.184 361.068C156.525 365.726 150.207 368.343 143.619 368.343Z" fill="#3F3D56"/>
<path d="M156.04 338.42H131.199C130.752 338.415 130.324 338.233 130.01 337.915C129.695 337.596 129.519 337.167 129.519 336.719C129.519 336.273 129.696 335.846 130.011 335.531C130.326 335.215 130.753 335.038 131.199 335.038H156.04C156.487 335.038 156.917 335.215 157.235 335.529C157.554 335.844 157.735 336.271 157.741 336.719C157.741 336.942 157.697 337.164 157.611 337.37C157.526 337.576 157.4 337.764 157.242 337.922C157.085 338.08 156.897 338.205 156.691 338.291C156.484 338.376 156.263 338.42 156.04 338.42Z" fill="#1A66FF"/>
<path d="M156.04 345.184H131.199C130.753 345.184 130.326 345.007 130.011 344.691C129.696 344.376 129.519 343.949 129.519 343.503C129.519 343.055 129.695 342.626 130.01 342.307C130.324 341.989 130.752 341.807 131.199 341.802H156.04C156.491 341.802 156.923 341.981 157.242 342.3C157.562 342.619 157.741 343.052 157.741 343.503C157.735 343.951 157.554 344.378 157.235 344.693C156.917 345.007 156.487 345.184 156.04 345.184Z" fill="#1A66FF"/>
<path d="M156.04 351.968H131.199C130.752 351.962 130.324 351.781 130.01 351.462C129.695 351.144 129.519 350.714 129.519 350.266C129.519 349.821 129.696 349.393 130.011 349.078C130.326 348.763 130.753 348.586 131.199 348.586H156.04C156.487 348.586 156.917 348.762 157.235 349.077C157.554 349.391 157.735 349.819 157.741 350.266C157.741 350.49 157.697 350.711 157.611 350.917C157.526 351.124 157.4 351.311 157.242 351.469C157.085 351.627 156.897 351.753 156.691 351.838C156.484 351.924 156.263 351.968 156.04 351.968Z" fill="#1A66FF"/>
<path d="M145.218 325.303C143.73 325.061 142.398 324.24 141.514 323.018C140.631 321.797 140.267 320.275 140.504 318.786C140.564 318.459 140.646 318.137 140.75 317.822L124.866 305.382L134.786 302.061L148.353 314.359C149.747 314.823 150.907 315.808 151.591 317.108C152.276 318.407 152.432 319.921 152.028 321.333C151.623 322.745 150.689 323.946 149.42 324.686C148.151 325.425 146.646 325.647 145.218 325.303Z" fill="#FFB6B6"/>
<path d="M113.429 226.372L103.632 226.577C101.714 228.344 100.189 230.494 99.1546 232.887C98.1202 235.281 97.5997 237.865 97.627 240.473V286.71L134.334 317.453L146.222 305.955L118.881 276.135L113.429 226.372Z" fill="#3F3D56"/>
<path d="M552.114 116.332H188.668V349.098H552.114V116.332Z" fill="#DCDEE1"/>
<path d="M541.721 145.517H199.058V335.325H541.721V145.517Z" fill="white"/>
<path d="M551.949 116.127H188.504V131.56H551.949V116.127Z" fill="#1A66FF"/>
<path d="M199.982 126.887C201.567 126.887 202.851 125.602 202.851 124.018C202.851 122.433 201.567 121.148 199.982 121.148C198.397 121.148 197.113 122.433 197.113 124.018C197.113 125.602 198.397 126.887 199.982 126.887Z" fill="white"/>
<path d="M210.844 126.887C212.428 126.887 213.713 125.602 213.713 124.018C213.713 122.433 212.428 121.148 210.844 121.148C209.259 121.148 207.974 122.433 207.974 124.018C207.974 125.602 209.259 126.887 210.844 126.887Z" fill="white"/>
<path d="M221.707 126.887C223.292 126.887 224.577 125.602 224.577 124.018C224.577 122.433 223.292 121.148 221.707 121.148C220.123 121.148 218.838 122.433 218.838 124.018C218.838 125.602 220.123 126.887 221.707 126.887Z" fill="white"/>
<path d="M406.822 165.213H333.448V206.614H406.822V165.213Z" fill="#1A66FF"/>
<path d="M406.822 218.153H333.448V262.71H406.822V218.153Z" fill="#DCDEE1"/>
<path d="M510.59 165.213H422.542V230.758H510.59V165.213Z" fill="#DCDEE1"/>
<path d="M510.59 250.085H422.542V315.629H510.59V250.085Z" fill="#1A66FF"/>
<path d="M318.65 165.213H230.602V230.758H318.65V165.213Z" fill="#DCDEE1"/>
<path d="M394.812 89.2779L369.725 183.639L370.873 183.926L395.734 90.4666L394.812 89.2779Z" fill="#3F3D56"/>
<path d="M467.222 282.304L442.361 375.783L443.283 376.972L468.37 282.611L467.222 282.304Z" fill="#3F3D56"/>
<path d="M316.929 270.478H232.263C231.959 270.56 231.64 270.572 231.331 270.511C231.021 270.451 230.731 270.319 230.48 270.128C230.23 269.937 230.027 269.69 229.888 269.408C229.748 269.126 229.676 268.815 229.676 268.5C229.676 268.185 229.748 267.874 229.888 267.592C230.027 267.309 230.23 267.063 230.48 266.872C230.731 266.68 231.021 266.549 231.331 266.489C231.64 266.428 231.959 266.44 232.263 266.522H316.929C317.363 266.64 317.747 266.898 318.02 267.255C318.293 267.613 318.441 268.05 318.441 268.5C318.441 268.95 318.293 269.387 318.02 269.745C317.747 270.102 317.363 270.36 316.929 270.478Z" fill="#DCDEE1"/>
<path d="M316.929 259.185H232.263C231.959 259.268 231.64 259.279 231.331 259.218C231.021 259.158 230.731 259.027 230.48 258.835C230.23 258.644 230.027 258.398 229.888 258.115C229.748 257.833 229.676 257.522 229.676 257.207C229.676 256.892 229.748 256.581 229.888 256.299C230.027 256.017 230.23 255.77 230.48 255.579C230.731 255.388 231.021 255.256 231.331 255.196C231.64 255.135 231.959 255.147 232.263 255.229H316.929C317.363 255.347 317.747 255.605 318.02 255.962C318.293 256.32 318.441 256.757 318.441 257.207C318.441 257.657 318.293 258.094 318.02 258.452C317.747 258.809 317.363 259.067 316.929 259.185Z" fill="#DCDEE1"/>
<path d="M316.929 281.771H232.263C231.959 281.853 231.64 281.865 231.331 281.804C231.021 281.743 230.731 281.612 230.48 281.421C230.23 281.23 230.027 280.983 229.888 280.701C229.748 280.419 229.676 280.108 229.676 279.793C229.676 279.478 229.748 279.167 229.888 278.885C230.027 278.602 230.23 278.356 230.48 278.165C230.731 277.973 231.021 277.842 231.331 277.782C231.64 277.721 231.959 277.732 232.263 277.815H316.929C317.363 277.933 317.747 278.191 318.02 278.548C318.293 278.906 318.441 279.343 318.441 279.793C318.441 280.243 318.293 280.68 318.02 281.038C317.747 281.395 317.363 281.653 316.929 281.771Z" fill="#DCDEE1"/>
<path d="M316.929 293.064H232.263C231.959 293.146 231.64 293.158 231.331 293.097C231.021 293.037 230.731 292.905 230.48 292.714C230.23 292.523 230.027 292.276 229.888 291.994C229.748 291.712 229.676 291.401 229.676 291.086C229.676 290.771 229.748 290.46 229.888 290.178C230.027 289.895 230.23 289.649 230.48 289.458C230.731 289.266 231.021 289.135 231.331 289.075C231.64 289.014 231.959 289.026 232.263 289.108H316.929C317.363 289.226 317.747 289.484 318.02 289.841C318.293 290.199 318.441 290.636 318.441 291.086C318.441 291.536 318.293 291.973 318.02 292.331C317.747 292.688 317.363 292.946 316.929 293.064Z" fill="#DCDEE1"/>
<path d="M316.929 304.439H232.263C231.959 304.521 231.64 304.533 231.331 304.472C231.021 304.412 230.731 304.281 230.48 304.089C230.23 303.898 230.027 303.651 229.888 303.369C229.748 303.087 229.676 302.776 229.676 302.461C229.676 302.146 229.748 301.835 229.888 301.553C230.027 301.27 230.23 301.024 230.48 300.833C230.731 300.641 231.021 300.51 231.331 300.45C231.64 300.389 231.959 300.401 232.263 300.483H316.929C317.363 300.601 317.747 300.859 318.02 301.216C318.293 301.574 318.441 302.011 318.441 302.461C318.441 302.911 318.293 303.348 318.02 303.706C317.747 304.063 317.363 304.321 316.929 304.439Z" fill="#DCDEE1"/>
<path d="M316.928 315.629H232.262C231.956 315.718 231.634 315.735 231.321 315.678C231.008 315.621 230.713 315.492 230.458 315.301C230.204 315.11 229.997 314.863 229.855 314.578C229.712 314.294 229.638 313.98 229.638 313.662C229.638 313.343 229.712 313.03 229.855 312.745C229.997 312.46 230.204 312.213 230.458 312.022C230.713 311.831 231.008 311.702 231.321 311.645C231.634 311.588 231.956 311.605 232.262 311.694H316.928C317.354 311.818 317.728 312.077 317.994 312.432C318.26 312.787 318.404 313.218 318.404 313.662C318.404 314.105 318.26 314.537 317.994 314.891C317.728 315.246 317.354 315.505 316.928 315.629Z" fill="#DCDEE1"/>
<path d="M405.121 281.771H335.129C334.695 281.653 334.311 281.395 334.038 281.038C333.765 280.68 333.617 280.243 333.617 279.793C333.617 279.343 333.765 278.906 334.038 278.548C334.311 278.191 334.695 277.933 335.129 277.815H405.121C405.425 277.732 405.743 277.721 406.053 277.782C406.362 277.842 406.653 277.973 406.903 278.165C407.153 278.356 407.356 278.602 407.495 278.885C407.635 279.167 407.708 279.478 407.708 279.793C407.708 280.108 407.635 280.419 407.495 280.701C407.356 280.983 407.153 281.23 406.903 281.421C406.653 281.612 406.362 281.743 406.053 281.804C405.743 281.865 405.425 281.853 405.121 281.771Z" fill="#DCDEE1"/>
<path d="M405.121 293.064H335.129C334.695 292.946 334.311 292.688 334.038 292.331C333.765 291.973 333.617 291.536 333.617 291.086C333.617 290.636 333.765 290.199 334.038 289.841C334.311 289.484 334.695 289.226 335.129 289.108H405.121C405.425 289.026 405.743 289.014 406.053 289.075C406.362 289.135 406.653 289.266 406.903 289.458C407.153 289.649 407.356 289.895 407.495 290.178C407.635 290.46 407.708 290.771 407.708 291.086C407.708 291.401 407.635 291.712 407.495 291.994C407.356 292.276 407.153 292.523 406.903 292.714C406.653 292.905 406.362 293.037 406.053 293.097C405.743 293.158 405.425 293.146 405.121 293.064Z" fill="#DCDEE1"/>
<path d="M405.121 304.439H335.129C334.695 304.321 334.311 304.063 334.038 303.706C333.765 303.348 333.617 302.911 333.617 302.461C333.617 302.011 333.765 301.574 334.038 301.216C334.311 300.859 334.695 300.601 335.129 300.483H405.121C405.425 300.401 405.743 300.389 406.053 300.45C406.362 300.51 406.653 300.641 406.903 300.833C407.153 301.024 407.356 301.27 407.495 301.553C407.635 301.835 407.708 302.146 407.708 302.461C407.708 302.776 407.635 303.087 407.495 303.369C407.356 303.651 407.153 303.898 406.903 304.089C406.653 304.281 406.362 304.412 406.053 304.472C405.743 304.533 405.425 304.521 405.121 304.439Z" fill="#DCDEE1"/>
<path d="M405.121 315.629H335.129C334.703 315.505 334.329 315.246 334.063 314.891C333.797 314.537 333.653 314.105 333.653 313.662C333.653 313.218 333.797 312.787 334.063 312.432C334.329 312.077 334.703 311.818 335.129 311.694H405.121C405.426 311.605 405.748 311.588 406.061 311.645C406.374 311.702 406.67 311.831 406.924 312.022C407.179 312.213 407.385 312.46 407.528 312.745C407.67 313.03 407.744 313.343 407.744 313.662C407.744 313.98 407.67 314.294 407.528 314.578C407.385 314.863 407.179 315.11 406.924 315.301C406.67 315.492 406.374 315.621 406.061 315.678C405.748 315.735 405.426 315.718 405.121 315.629Z" fill="#DCDEE1"/>
<path d="M396.512 95.6724C410.537 95.6724 421.906 84.3032 421.906 70.2786C421.906 56.2539 410.537 44.8847 396.512 44.8847C382.488 44.8847 371.118 56.2539 371.118 70.2786C371.118 84.3032 382.488 95.6724 396.512 95.6724Z" fill="#F0F0F0"/>
<path d="M396.512 44.3109C395.208 44.3114 393.906 44.4141 392.618 44.6183C391.927 44.6953 391.242 44.8186 390.568 44.9873C385.875 46.0658 381.575 48.4279 378.147 51.8097C374.719 55.1914 372.299 59.4596 371.158 64.1375C370.016 68.8153 370.197 73.7185 371.681 78.2992C373.166 82.88 375.894 86.9578 379.562 90.0772C380.013 90.4461 380.444 90.7945 380.894 91.1224C384.19 93.5846 388.023 95.2286 392.079 95.919C396.134 96.6094 400.296 96.3264 404.22 95.0933C408.145 93.8603 411.72 91.7124 414.652 88.8268C417.584 85.9411 419.788 82.4002 421.084 78.4956C422.379 74.5911 422.728 70.4347 422.102 66.3688C421.476 62.303 419.893 58.444 417.484 55.1097C415.074 51.7755 411.907 49.0614 408.243 47.191C404.579 45.3207 400.523 44.3476 396.41 44.3519L396.512 44.3109ZM396.512 95.119C391.232 95.1194 386.09 93.4318 381.837 90.3026C381.375 89.9714 380.93 89.6156 380.505 89.2369C376.942 86.2284 374.299 82.2772 372.878 77.8358C371.457 73.3944 371.316 68.6425 372.471 64.1247C373.626 59.6069 376.031 55.5058 379.409 52.2915C382.787 49.0772 387.003 46.8796 391.573 45.9505C392.208 45.8071 392.843 45.7046 393.479 45.6226C394.485 45.4999 395.498 45.4383 396.512 45.4382C403.1 45.4382 409.418 48.0553 414.077 52.7138C418.735 57.3722 421.352 63.6905 421.352 70.2786C421.352 76.8667 418.735 83.185 414.077 87.8434C409.418 92.5019 403.1 95.119 396.512 95.119Z" fill="#3F3D56"/>
<path d="M408.932 65.1957H384.091C383.646 65.1957 383.218 65.0186 382.903 64.7035C382.588 64.3883 382.411 63.9608 382.411 63.5151C382.411 63.0675 382.587 62.6378 382.902 62.3194C383.216 62.001 383.644 61.8194 384.091 61.814H408.932C409.155 61.814 409.376 61.858 409.583 61.9435C409.789 62.0289 409.977 62.1543 410.135 62.3122C410.293 62.4702 410.418 62.6577 410.503 62.8641C410.589 63.0705 410.633 63.2917 410.633 63.5151C410.627 63.9627 410.446 64.3901 410.127 64.7047C409.809 65.0193 409.379 65.1957 408.932 65.1957Z" fill="#1A66FF"/>
<path d="M408.932 71.9797H384.091C383.644 71.9743 383.216 71.7927 382.902 71.4742C382.587 71.1558 382.411 70.7262 382.411 70.2786C382.411 69.8328 382.588 69.4054 382.903 69.0902C383.218 68.775 383.646 68.5979 384.091 68.5979H408.932C409.379 68.5979 409.809 68.7743 410.127 69.0889C410.446 69.4035 410.627 69.831 410.633 70.2786C410.633 70.5019 410.589 70.7232 410.503 70.9295C410.418 71.1359 410.293 71.3235 410.135 71.4814C409.977 71.6394 409.789 71.7647 409.583 71.8502C409.376 71.9357 409.155 71.9797 408.932 71.9797Z" fill="#1A66FF"/>
<path d="M408.932 78.7431H384.091C383.646 78.7431 383.218 78.5661 382.903 78.2509C382.588 77.9357 382.411 77.5082 382.411 77.0625C382.411 76.6149 382.587 76.1853 382.902 75.8668C383.216 75.5484 383.644 75.3668 384.091 75.3614H408.932C409.155 75.3614 409.376 75.4054 409.583 75.4909C409.789 75.5764 409.977 75.7017 410.135 75.8596C410.293 76.0176 410.418 76.2051 410.503 76.4115C410.589 76.6179 410.633 76.8391 410.633 77.0625C410.627 77.5101 410.446 77.9376 410.127 78.2522C409.809 78.5668 409.379 78.7432 408.932 78.7431Z" fill="#1A66FF"/>
<path d="M439.409 424.214C453.434 424.214 464.803 412.845 464.803 398.82C464.803 384.796 453.434 373.426 439.409 373.426C425.384 373.426 414.015 384.796 414.015 398.82C414.015 412.845 425.384 424.214 439.409 424.214Z" fill="#F0F0F0"/>
<path d="M439.409 372.852C438.106 372.856 436.804 372.952 435.515 373.139C434.859 373.139 434.223 373.365 433.568 373.508C428.872 374.583 424.567 376.944 421.137 380.326C417.707 383.709 415.286 387.979 414.146 392.66C413.006 397.34 413.191 402.246 414.681 406.827C416.171 411.408 418.907 415.484 422.582 418.598C423.008 418.976 423.452 419.331 423.914 419.664C427.21 422.127 431.045 423.771 435.101 424.461C439.157 425.151 443.32 424.867 447.245 423.633C451.17 422.399 454.746 420.25 457.677 417.363C460.609 414.476 462.813 410.933 464.107 407.027C465.401 403.122 465.748 398.964 465.12 394.898C464.492 390.831 462.907 386.972 460.495 383.639C458.083 380.305 454.913 377.593 451.247 375.724C447.581 373.856 443.523 372.886 439.409 372.893V372.852ZM439.409 423.661C434.129 423.661 428.987 421.973 424.734 418.844C424.283 418.496 423.832 418.147 423.402 417.778C419.833 414.771 417.184 410.819 415.759 406.374C414.335 401.93 414.192 397.174 415.348 392.652C416.503 388.131 418.91 384.026 422.292 380.811C425.675 377.595 429.895 375.398 434.469 374.472L436.375 374.164C437.382 374.041 438.395 373.98 439.409 373.98C445.997 373.98 452.315 376.597 456.974 381.255C461.632 385.914 464.249 392.232 464.249 398.82C464.249 405.408 461.632 411.726 456.974 416.385C452.315 421.043 445.997 423.661 439.409 423.661Z" fill="#3F3D56"/>
<path d="M451.829 393.737H427.009C426.786 393.737 426.565 393.693 426.358 393.608C426.152 393.522 425.965 393.397 425.807 393.239C425.649 393.081 425.523 392.894 425.438 392.687C425.352 392.481 425.308 392.26 425.308 392.036C425.314 391.589 425.495 391.161 425.814 390.846C426.132 390.532 426.562 390.355 427.009 390.355H451.829C452.277 390.355 452.707 390.532 453.025 390.846C453.344 391.161 453.525 391.589 453.531 392.036C453.531 392.487 453.351 392.92 453.032 393.239C452.713 393.558 452.281 393.737 451.829 393.737Z" fill="#1A66FF"/>
<path d="M451.829 400.501H427.009C426.562 400.501 426.132 400.324 425.814 400.01C425.495 399.695 425.314 399.268 425.308 398.82C425.308 398.597 425.352 398.375 425.438 398.169C425.523 397.963 425.649 397.775 425.807 397.617C425.965 397.459 426.152 397.334 426.358 397.248C426.565 397.163 426.786 397.119 427.009 397.119H451.829C452.281 397.119 452.713 397.298 453.032 397.617C453.351 397.936 453.531 398.369 453.531 398.82C453.525 399.268 453.344 399.695 453.025 400.01C452.707 400.324 452.277 400.501 451.829 400.501Z" fill="#1A66FF"/>
<path d="M451.829 407.285H427.009C426.786 407.285 426.565 407.241 426.358 407.155C426.152 407.07 425.965 406.944 425.807 406.786C425.649 406.629 425.523 406.441 425.438 406.235C425.352 406.028 425.308 405.807 425.308 405.584C425.314 405.136 425.495 404.709 425.814 404.394C426.132 404.079 426.562 403.903 427.009 403.903H451.829C452.277 403.903 452.707 404.079 453.025 404.394C453.344 404.709 453.525 405.136 453.531 405.584C453.531 405.807 453.487 406.028 453.401 406.235C453.316 406.441 453.19 406.629 453.032 406.786C452.874 406.944 452.687 407.07 452.48 407.155C452.274 407.241 452.053 407.285 451.829 407.285Z" fill="#1A66FF"/>
<path d="M240.296 457.068H44.7901C44.6107 457.068 44.4387 456.997 44.3119 456.87C44.185 456.743 44.1138 456.571 44.1138 456.392C44.1138 456.212 44.185 456.04 44.3119 455.913C44.4387 455.787 44.6107 455.715 44.7901 455.715H240.296C240.475 455.715 240.647 455.787 240.774 455.913C240.901 456.04 240.972 456.212 240.972 456.392C240.972 456.571 240.901 456.743 240.774 456.87C240.647 456.997 240.475 457.068 240.296 457.068Z" fill="#CACACA"/>
</svg>
