<?xml version="1.0" encoding="utf-8"?>
<!-- Generator: Adobe Illustrator 22.0.1, SVG Export Plug-In . SVG Version: 6.00 Build 0)  -->
<svg id="Warstwa_1" xmlns="http://www.w3.org/2000/svg"  xmlns:xlink="http://www.w3.org/1999/xlink" x="0px" y="0px"
	 viewBox="0 0 18 18" style="enable-background:new 0 0 18 18;" xml:space="preserve">
<style type="text/css">
	.st0{fill:#B9BDC5;}
	.st1{fill:none;stroke:#B9BDC5;stroke-width:2;stroke-miterlimit:10;}
	.st2{fill:#FFFFFF;}
</style>
<g id="Filled">
	<path class="st0" d="M15,18H3c-0.5,0-1-0.5-1-1V7c0-0.6,0.5-1,1-1h12c0.6,0,1,0.4,1,1v10C16,17.5,15.6,18,15,18z"/>
	<path class="st1" d="M13.1,9.5c0-0.3,0-3.9,0-4.3c0-2.4-1.9-4.3-4.3-4.3S5,2.6,5,5c0,0.3,0,3,0,4"/>
</g>
<circle class="st2" cx="5" cy="12" r="1"/>
<circle class="st2" cx="9" cy="12" r="1"/>
<circle class="st2" cx="13" cy="12" r="1"/>
</svg>
