<svg width="396" height="332" viewBox="0 0 396 332" fill="none" xmlns="http://www.w3.org/2000/svg">
<g clip-path="url(#clip0)">
<path d="M346.062 -104.483V203.22L-183.166 -104.483H346.062Z" fill="url(#paint0_linear)"/>
<path d="M477.54 119.759L346.062 203.22V-104.483H477.54V119.759Z" fill="url(#paint1_linear)"/>
<path d="M478 274.483L346.237 203.49L478 119.956V274.483Z" fill="url(#paint2_linear)" fill-opacity="0.1"/>
<path d="M421 229.5L280.5 319L392.5 381.5" stroke="#1062FE" stroke-width="2"/>
<path d="M-69 83.5L85 180.5L-25 254.5" stroke="#1062FE" stroke-width="2"/>
<path d="M33.6313 173.64L73.5862 194.323L49.1924 205.722L9.19327 185.025L33.6313 173.64Z" fill="url(#paint3_linear)" fill-opacity="0.1"/>
<path d="M45.261 180C45.261 180.5 44.5762 184 40.056 186.3C32.5881 190.1 20.4809 190.8 13.0129 187C9.61833 185.3 6.78955 182 6.78955 181V155C7.129 152.8 8.93943 150.6 12.334 148.9C19.802 145.2 32.0223 145.2 39.6034 148.9C42.998 150.6 44.9216 152.8 45.1479 155H45.261V180Z" fill="#D1D3D5"/>
<path d="M12.4472 148.3C19.9152 144.5 32.1355 144.5 39.7167 148.3C47.2978 152.1 47.1847 158.3 39.7167 162.1C32.2487 165.9 20.0283 165.9 12.5603 162.1C4.86604 158.3 4.86604 152.1 12.4472 148.3Z" fill="#EFF0F3"/>
<path d="M14.8234 149.7C21.0467 146.7 31.004 146.7 37.2273 149.7C43.4506 152.7 43.4506 157.6 37.2273 160.6C31.004 163.6 21.0467 163.6 14.8234 160.6C8.71318 157.7 8.71318 152.8 14.8234 149.7Z" fill="#1F5C3A"/>
<path d="M17.8786 152.9C17.8786 152.9 4.1873 145.7 8.03444 139.4C12.6736 131.7 12.9 133.3 8.03444 123.9C4.75305 117.5 8.93965 110.9 14.1446 108.4C23.423 103.9 18.4444 110.5 16.7471 116.4C15.0498 122.5 20.7074 122 21.0468 129.9C21.3863 138.1 26.0255 137.9 25.4598 142.9C25.1203 147.3 22.1784 151 17.8786 152.9Z" fill="#5BD682"/>
<path d="M26.8175 154.3C26.8175 154.3 21.0467 141.2 28.2884 138.3C37.3405 134.7 30.7778 133.2 37.9063 125C43.3376 118.9 49.674 120.6 51.9371 115.9C54.7658 110 59.2919 124.9 52.7291 127.3C44.8085 130.3 47.1847 131.9 42.4323 138.6C37.68 145.3 43.4507 146.8 39.4904 150.6C36.4353 153.8 31.5698 155.2 26.8175 154.3Z" fill="#35B65E"/>
<path d="M25.4597 158.9C17.6523 158.9 14.7104 149 17.0865 139.4C19.3496 130.4 27.2702 130.5 27.7228 122.6C28.2885 112 46.5059 132.2 38.2459 137.3C30.2121 142.3 41.0746 146.1 36.888 150.8C34.8513 153 36.3223 158.9 25.4597 158.9Z" fill="#31854C"/>
<path fill-rule="evenodd" clip-rule="evenodd" d="M385.122 299.758C385.151 299.563 385.122 299.365 385.038 299.187C384.955 299.009 384.822 298.86 384.655 298.758L372.941 289.76C372.469 289.432 371.915 289.241 371.341 289.21C370.725 289.159 370.105 289.257 369.534 289.496L330.664 306.407C330.438 306.474 330.231 306.593 330.059 306.754C329.886 306.915 329.753 307.114 329.67 307.336C329.634 307.551 329.669 307.772 329.769 307.966C329.87 308.159 330.03 308.314 330.227 308.407L341.95 317.405C342.42 317.739 342.976 317.93 343.551 317.953C344.166 318.016 344.787 317.924 345.358 317.685L384.221 300.694C384.43 300.615 384.62 300.49 384.776 300.328C384.932 300.166 385.05 299.971 385.122 299.758Z" fill="#F9A000"/>
<path fill-rule="evenodd" clip-rule="evenodd" d="M322.725 309.406C322.515 309.339 322.331 309.205 322.201 309.026C322.07 308.846 322 308.629 322 308.407C322 308.184 322.07 307.967 322.201 307.788C322.331 307.608 322.515 307.475 322.725 307.407L357.142 287.411C357.676 287.141 358.265 287 358.862 287C359.459 287 360.048 287.141 360.581 287.411L374.354 295.41C374.565 295.477 374.748 295.611 374.879 295.791C375.009 295.97 375.079 296.187 375.079 296.409C375.079 296.632 375.009 296.849 374.879 297.028C374.748 297.208 374.565 297.341 374.354 297.409L339.937 317.405C339.409 317.688 338.817 317.829 338.219 317.814C337.617 317.829 337.021 317.688 336.489 317.405L322.725 309.406Z" fill="#FBB900"/>
<path fill-rule="evenodd" clip-rule="evenodd" d="M325.308 307.905C325.208 307.947 325.122 308.016 325.059 308.104C324.996 308.193 324.958 308.297 324.95 308.405C324.961 308.513 324.999 308.615 325.062 308.703C325.125 308.791 325.21 308.861 325.308 308.905L337.35 315.903C337.616 316.041 337.91 316.113 338.209 316.113C338.509 316.113 338.803 316.041 339.069 315.903L347.673 310.904C347.77 310.859 347.854 310.789 347.917 310.701C347.98 310.614 348.019 310.512 348.031 310.404C348.021 310.297 347.983 310.193 347.92 310.106C347.857 310.018 347.772 309.948 347.673 309.905L335.63 302.906C335.365 302.762 335.067 302.689 334.766 302.696C334.468 302.69 334.174 302.762 333.914 302.906L325.308 307.905Z" fill="#F9A000"/>
<path fill-rule="evenodd" clip-rule="evenodd" d="M337.35 300.907C337.252 300.951 337.167 301.02 337.104 301.108C337.041 301.196 337.002 301.299 336.992 301.407C337.004 301.514 337.043 301.616 337.106 301.704C337.169 301.791 337.253 301.861 337.35 301.906L349.392 308.905C349.659 309.042 349.956 309.114 350.256 309.114C350.557 309.114 350.853 309.042 351.121 308.905L359.725 303.906C359.822 303.86 359.906 303.79 359.969 303.703C360.031 303.615 360.071 303.513 360.083 303.406C360.073 303.298 360.034 303.195 359.972 303.107C359.909 303.02 359.824 302.95 359.725 302.906L347.674 295.908C347.408 295.77 347.114 295.698 346.815 295.698C346.516 295.698 346.221 295.77 345.956 295.908L337.35 300.907Z" fill="#FFD251"/>
<path fill-rule="evenodd" clip-rule="evenodd" d="M349.392 293.909C349.295 293.953 349.211 294.023 349.15 294.111C349.089 294.199 349.052 294.302 349.044 294.409C349.053 294.515 349.09 294.618 349.151 294.705C349.212 294.793 349.295 294.863 349.392 294.908L361.443 301.907C361.709 302.045 362.004 302.117 362.303 302.117C362.602 302.117 362.897 302.045 363.163 301.907L371.767 296.908C371.864 296.862 371.948 296.792 372.01 296.705C372.073 296.617 372.112 296.515 372.125 296.408C372.115 296.3 372.076 296.197 372.013 296.109C371.951 296.022 371.866 295.952 371.767 295.908L359.724 288.91C359.456 288.773 359.16 288.701 358.86 288.701C358.56 288.701 358.264 288.773 357.996 288.91L349.392 293.909Z" fill="white"/>
<path d="M146.703 237.379C146.448 237.442 146.188 237.486 145.927 237.51C145.313 237.59 144.691 237.569 144.083 237.448C143.871 237.401 143.677 237.286 143.527 237.119C143.319 236.863 143.168 236.559 143.085 236.231C142.937 235.601 142.872 234.951 142.893 234.301V205.97C142.896 205.789 142.839 205.613 142.732 205.472C142.625 205.332 142.475 205.237 142.309 205.205C141.953 205.136 141.547 205.09 141.113 205.052C140.335 204.983 139.554 204.983 138.776 205.052C138.342 205.052 137.936 205.136 137.587 205.205C137.421 205.237 137.271 205.332 137.164 205.472C137.057 205.613 137 205.789 137.003 205.97V235.373C136.974 236.589 137.16 237.8 137.551 238.941C137.883 239.871 138.424 240.697 139.125 241.346C139.785 241.948 140.561 242.384 141.397 242.624C142.26 242.882 143.152 243.008 144.047 243C144.581 243 145.165 243 145.785 242.923C146.376 242.885 146.96 242.764 147.523 242.563C147.662 242.511 147.782 242.414 147.867 242.285C147.953 242.156 147.999 242.002 148 241.843C148.007 240.522 147.861 239.205 147.565 237.923C147.517 237.729 147.399 237.563 147.238 237.461C147.077 237.36 146.885 237.33 146.703 237.379Z" fill="black"/>
<path d="M161.323 216C159.997 216.003 158.673 216.102 157.363 216.297C156.072 216.471 154.798 216.749 153.555 217.128C153.394 217.177 153.255 217.276 153.158 217.41C153.062 217.544 153.014 217.706 153.022 217.87C152.988 219.309 153.342 220.731 154.05 221.995C154.137 222.141 154.273 222.254 154.435 222.315C154.597 222.375 154.775 222.38 154.941 222.329C155.863 222.051 156.801 221.828 157.751 221.661C158.757 221.493 159.776 221.411 160.797 221.416C162.137 221.32 163.472 221.648 164.605 222.351C165.367 222.93 165.77 224.043 165.77 225.66V225.727L164.902 225.653C164.224 225.608 163.379 225.578 162.29 225.578C160.873 225.574 159.463 225.751 158.094 226.105C156.801 226.437 155.579 226.99 154.484 227.737C153.427 228.474 152.559 229.439 151.948 230.557C151.3 231.77 150.975 233.122 151.003 234.489C150.965 235.828 151.241 237.158 151.811 238.377C152.33 239.446 153.115 240.372 154.095 241.07C155.161 241.792 156.366 242.297 157.637 242.554C159.11 242.864 160.615 243.014 162.122 242.999C163.83 243 165.534 242.861 167.217 242.584C168.839 242.316 170.263 242.049 171.406 241.79C171.578 241.752 171.731 241.657 171.839 241.522C171.947 241.387 172.004 241.219 172 241.048V225.808C172 222.44 171.055 219.925 169.205 218.345C167.354 216.764 164.765 216 161.323 216ZM165.778 230.883V237.375C165.302 237.468 164.822 237.537 164.338 237.583C163.004 237.72 161.659 237.72 160.325 237.583C159.792 237.538 159.274 237.389 158.802 237.145C158.365 236.912 157.997 236.572 157.736 236.158C157.423 235.598 157.278 234.963 157.317 234.326C157.275 233.806 157.369 233.284 157.59 232.809C157.811 232.335 158.152 231.922 158.581 231.61C159.84 230.893 161.291 230.559 162.747 230.653C163.242 230.653 163.859 230.653 164.582 230.75L165.778 230.883Z" fill="black"/>
<path d="M201.071 216.428C199.767 216.416 198.468 216.593 197.218 216.951C196.377 217.193 195.574 217.545 194.83 217.997C193.97 217.438 193.041 216.988 192.065 216.656C190.711 216.205 189.288 215.983 187.857 216.001C186.313 215.991 184.78 216.24 183.324 216.738C182.057 217.159 180.893 217.828 179.901 218.704C178.981 219.526 178.252 220.531 177.763 221.65C177.261 222.798 177.004 224.034 177.008 225.281C176.984 226.76 177.348 228.22 178.065 229.524C178.584 230.458 179.269 231.293 180.09 231.991C179.473 232.538 178.936 233.165 178.496 233.855C177.875 234.885 177.561 236.063 177.589 237.258C177.55 238.213 177.814 239.157 178.345 239.961C178.613 240.342 178.925 240.693 179.274 241.007C178.465 241.579 177.764 242.284 177.204 243.091C176.411 244.234 175.994 245.586 176.01 246.965C175.945 248.053 176.192 249.137 176.725 250.095C177.258 251.053 178.054 251.846 179.025 252.386C180.876 253.454 183.558 253.999 187.003 253.999C188.845 254.012 190.682 253.806 192.473 253.388C194.047 253.027 195.552 252.422 196.93 251.598C198.135 250.854 199.163 249.867 199.945 248.704C200.7 247.55 201.094 246.206 201.078 244.837C201.124 243.865 200.953 242.896 200.576 241.995C200.199 241.094 199.625 240.285 198.895 239.622C197.452 238.363 195.253 237.714 192.171 237.648L185.741 237.552C184.011 237.552 183.565 237.191 183.475 237.096C183.342 236.969 183.236 236.818 183.165 236.651C183.094 236.484 183.058 236.304 183.059 236.123C183.068 235.675 183.239 235.245 183.543 234.908C183.795 234.598 184.087 234.321 184.412 234.083C185.544 234.337 186.703 234.46 187.864 234.452C189.305 234.463 190.738 234.252 192.11 233.825C193.363 233.437 194.525 232.814 195.533 231.991C196.502 231.185 197.276 230.178 197.799 229.045C198.328 227.849 198.586 226.555 198.555 225.252C198.566 224.448 198.459 223.647 198.237 222.873C198.147 222.598 198.049 222.333 197.943 222.077H201.04C201.22 222.08 201.395 222.02 201.534 221.908C201.672 221.796 201.765 221.639 201.796 221.466C201.864 221.068 201.909 220.671 201.947 220.273C201.985 219.875 202 219.492 202 219.124C202.003 218.409 201.932 217.696 201.788 216.995C201.75 216.837 201.659 216.695 201.529 216.592C201.399 216.49 201.238 216.432 201.071 216.428ZM185.636 242.811L191.143 242.907C192.956 242.907 193.727 243.268 194.059 243.533C194.285 243.736 194.46 243.986 194.572 244.264C194.685 244.542 194.732 244.841 194.709 245.139C194.709 246.126 194.112 246.943 192.904 247.643C191.15 248.494 189.201 248.887 187.245 248.785C186.486 248.789 185.729 248.737 184.978 248.63C184.403 248.553 183.844 248.387 183.324 248.137C182.94 247.957 182.614 247.68 182.379 247.334C182.148 246.94 182.038 246.49 182.062 246.037C182.039 245.175 182.362 244.337 182.961 243.703C183.29 243.386 183.685 243.143 184.119 242.989C184.553 242.835 185.016 242.775 185.477 242.811H185.636ZM184.608 222.041C185.28 221.253 186.353 220.87 187.872 220.87C188.476 220.814 189.086 220.89 189.656 221.094C190.226 221.298 190.742 221.624 191.166 222.048C191.915 222.957 192.297 224.102 192.239 225.267C192.298 226.411 191.915 227.536 191.166 228.419C190.471 229.2 189.368 229.553 187.857 229.553C186.346 229.553 185.265 229.178 184.585 228.397C183.849 227.508 183.475 226.386 183.535 225.245C183.483 224.085 183.864 222.947 184.608 222.041Z" fill="black"/>
<path d="M224.967 219.187C223.895 217.88 222.543 216.829 221.011 216.112C219.267 215.378 217.393 215 215.5 215C213.607 215 211.733 215.378 209.989 216.112C208.465 216.832 207.122 217.883 206.056 219.187C204.99 220.501 204.205 222.019 203.747 223.647C202.751 227.2 202.751 230.958 203.747 234.511C204.205 236.139 204.99 237.657 206.056 238.971C207.131 240.235 208.474 241.244 209.989 241.923C213.509 243.359 217.452 243.359 220.973 241.923C222.504 241.237 223.862 240.215 224.944 238.932C226.013 237.62 226.799 236.102 227.253 234.473C228.249 230.92 228.249 227.162 227.253 223.608C226.804 221.993 226.026 220.488 224.967 219.187ZM215.515 237.641C214.667 237.708 213.817 237.548 213.051 237.178C212.285 236.808 211.632 236.24 211.159 235.534C210.181 233.996 209.681 231.866 209.681 229.114C209.681 226.361 210.181 224.208 211.159 222.717C212.136 221.225 213.468 220.625 215.515 220.625C216.366 220.559 217.218 220.719 217.987 221.087C218.756 221.456 219.414 222.021 219.895 222.724C220.888 224.208 221.396 226.361 221.396 229.114C221.396 231.866 220.888 234.019 219.895 235.526C219.409 236.222 218.749 236.777 217.98 237.136C217.211 237.495 216.361 237.645 215.515 237.572V237.641Z" fill="black"/>
<path d="M265.854 217.732C264.388 215.952 262.036 215.05 258.927 215.05C257.144 215.012 255.396 215.539 253.941 216.552C253.301 217.001 252.722 217.525 252.215 218.115C252.039 218.318 251.871 218.52 251.718 218.716C251.201 217.791 250.494 216.982 249.641 216.342C248.168 215.382 246.419 214.915 244.654 215.013C243.696 215.004 242.742 215.146 241.829 215.433C241.013 215.691 240.241 216.065 239.538 216.545C238.93 216.958 238.381 217.448 237.903 218.002C237.812 217.251 237.712 216.658 237.621 216.192C237.591 216.044 237.517 215.909 237.408 215.803C237.299 215.697 237.16 215.626 237.01 215.599C236.628 215.531 236.246 215.486 235.948 215.448C235.214 215.381 234.475 215.381 233.741 215.448C233.382 215.448 232.978 215.531 232.626 215.599C232.448 215.631 232.288 215.724 232.173 215.861C232.058 215.999 231.997 216.172 232 216.35V241.039C231.997 241.216 232.058 241.39 232.173 241.527C232.288 241.665 232.448 241.758 232.626 241.79C233.058 241.866 233.494 241.919 233.932 241.947C234.773 242.015 235.619 242.015 236.46 241.947C236.89 241.918 237.319 241.865 237.743 241.79C237.921 241.758 238.081 241.665 238.196 241.527C238.311 241.39 238.372 241.216 238.369 241.039V228.442C238.35 227.254 238.497 226.069 238.804 224.92C239.034 224.052 239.422 223.232 239.95 222.501C240.373 221.93 240.925 221.462 241.561 221.134C242.169 220.839 242.838 220.685 243.516 220.684C244.006 220.64 244.499 220.734 244.937 220.955C245.375 221.176 245.74 221.514 245.991 221.93C246.663 223.315 246.963 224.846 246.861 226.377V241.039C246.858 241.216 246.92 241.39 247.034 241.527C247.149 241.665 247.31 241.758 247.487 241.79C247.909 241.865 248.335 241.918 248.763 241.947C249.599 242.015 250.439 242.015 251.275 241.947C251.703 241.918 252.129 241.865 252.551 241.79C252.729 241.758 252.889 241.665 253.004 241.527C253.119 241.39 253.18 241.216 253.177 241.039V227.098C253.177 224.987 253.635 223.388 254.536 222.343C254.956 221.85 255.486 221.458 256.085 221.198C256.683 220.937 257.334 220.815 257.988 220.841C258.518 220.785 259.054 220.874 259.536 221.098C260.019 221.322 260.429 221.672 260.722 222.111C261.426 223.537 261.742 225.118 261.638 226.7V241.039C261.635 241.216 261.697 241.39 261.812 241.527C261.926 241.665 262.087 241.758 262.265 241.79C262.686 241.866 263.112 241.919 263.54 241.947C263.998 241.947 264.418 242 264.792 242C265.167 242 265.594 242 266.068 241.947C266.506 241.923 266.942 241.87 267.374 241.79C267.552 241.758 267.712 241.665 267.827 241.527C267.942 241.39 268.003 241.216 268 241.039V225.318C268 222.021 267.305 219.467 265.854 217.732Z" fill="black"/>
<path d="M164.254 167.55L198.042 186.973C198.266 187.103 198.5 187.215 198.742 187.307C199.864 187.77 201.068 188.004 202.282 187.995C203.76 188.021 205.22 187.669 206.523 186.973L240.301 167.55C240.878 167.333 241.376 166.945 241.727 166.439C242.078 165.933 242.266 165.333 242.266 164.718C242.266 164.103 242.078 163.502 241.727 162.996C241.376 162.49 240.878 162.103 240.301 161.885L214.12 146.829C213.559 146.511 212.924 146.343 212.279 146.341C211.414 146.338 210.575 146.638 209.911 147.191C209.248 147.743 208.802 148.512 208.652 149.36L202.963 180.964V108.356C202.916 106.887 202.493 105.453 201.735 104.191C201.02 102.905 199.982 101.825 198.723 101.058L164.935 81.616C164.44 81.2666 163.86 81.0573 163.255 81.0102C162.65 80.9631 162.044 81.08 161.501 81.3485C160.996 81.6855 160.591 82.1516 160.33 82.6979C160.068 83.2442 159.959 83.8506 160.014 84.4534V160.232C160.06 161.707 160.486 163.144 161.251 164.407C161.966 165.693 163 166.775 164.254 167.55Z" fill="#1062FE"/>
<path d="M254.756 106H245.405V105.057L250.521 99.2529C251.369 98.2754 251.957 97.4688 252.285 96.833C252.613 96.1973 252.777 95.5786 252.777 94.9771C252.777 94.0337 252.5 93.2886 251.947 92.7417C251.393 92.188 250.631 91.9111 249.66 91.9111C248.655 91.9111 247.842 92.2324 247.22 92.875C246.604 93.5176 246.297 94.3516 246.297 95.377H245.077C245.077 94.5361 245.265 93.7705 245.641 93.0801C246.023 92.3896 246.563 91.8496 247.261 91.46C247.965 91.0635 248.765 90.8652 249.66 90.8652C251.027 90.8652 252.094 91.2241 252.859 91.9419C253.632 92.6597 254.018 93.6372 254.018 94.8745C254.018 95.5718 253.799 96.334 253.362 97.1611C252.931 97.9883 252.169 99.0205 251.075 100.258L246.912 104.964H254.756V106Z" fill="white"/>
<rect x="232.5" y="81.5" width="35" height="35" rx="17.5" stroke="white"/>
</g>
<defs>
<linearGradient id="paint0_linear" x1="-183.166" y1="48.9834" x2="346.062" y2="48.9834" gradientUnits="userSpaceOnUse">
<stop stop-color="#1062FE"/>
<stop offset="0.239583" stop-color="#009AFF"/>
</linearGradient>
<linearGradient id="paint1_linear" x1="346.062" y1="48.9834" x2="477.54" y2="48.9834" gradientUnits="userSpaceOnUse">
<stop stop-color="#1062FE"/>
<stop offset="1" stop-color="#009AFF"/>
</linearGradient>
<linearGradient id="paint2_linear" x1="348.824" y1="203.772" x2="402.409" y2="276.14" gradientUnits="userSpaceOnUse">
<stop stop-color="#2B2D2F"/>
<stop offset="1" stop-color="#1B1D1F" stop-opacity="0"/>
</linearGradient>
<linearGradient id="paint3_linear" x1="13.125" y1="187.015" x2="33.8375" y2="228.455" gradientUnits="userSpaceOnUse">
<stop/>
<stop offset="0.671875" stop-opacity="0"/>
</linearGradient>
<clipPath id="clip0">
<rect width="456" height="571" fill="white" transform="translate(0 -119)"/>
</clipPath>
</defs>
</svg>
