<svg width="20" height="15" viewBox="0 0 20 15" fill="none" xmlns="http://www.w3.org/2000/svg">
<g clip-path="url(#clip0_5309:185346)">
<path fill-rule="evenodd" clip-rule="evenodd" d="M-1.25 0H21.25V15H-1.25V0Z" fill="#199D00"/>
<path fill-rule="evenodd" clip-rule="evenodd" d="M4.41903 4.25094C4.39559 4.6025 4.36043 5.21774 4.66219 5.28219C5.02254 5.31735 4.82332 4.67282 4.95516 4.55563C4.9786 4.49703 5.02254 4.49703 5.02547 4.57028V5.11813C5.02547 5.29391 5.14266 5.34664 5.23055 5.3818C5.3243 5.37594 5.38875 5.3818 5.42391 5.46969L5.47078 6.41598C5.47078 6.41598 5.68758 6.48043 5.6993 5.88571C5.70809 5.53414 5.62899 5.2441 5.67586 5.17672C5.67586 5.10934 5.76375 5.10641 5.82235 5.13864C5.9161 5.20309 5.95711 5.28512 6.1036 5.25582C6.32625 5.19137 6.46102 5.08297 6.46395 4.91305C6.45955 4.74606 6.42481 4.58127 6.36141 4.42672C6.37313 4.39742 6.32039 4.31832 6.33211 4.28903C6.3702 4.35348 6.43172 4.34762 6.44344 4.28903C6.40535 4.16598 6.34676 4.04586 6.25301 3.99606C6.17391 3.92574 6.05672 3.93746 6.01864 4.08395C5.9952 4.25094 6.07723 4.44723 6.19735 4.61129C6.22371 4.67282 6.25887 4.77828 6.24422 4.87203C6.17977 4.91012 6.11532 4.89254 6.05965 4.83688C6.05965 4.83688 5.88387 4.70504 5.88387 4.67282C5.93075 4.37399 5.89266 4.33883 5.86629 4.25387C5.84871 4.13961 5.79305 4.10153 5.7491 4.02535C5.70516 3.97848 5.64657 3.97848 5.61727 4.02535C5.53817 4.16012 5.57625 4.45016 5.63192 4.58199C5.67293 4.70211 5.73446 4.77828 5.70516 4.77828C5.68172 4.84567 5.63192 4.82809 5.59383 4.74899C5.55096 4.58252 5.53027 4.41111 5.53231 4.23922C5.51766 4.10446 5.50008 3.81735 5.40926 3.74117C5.35653 3.67086 5.27742 3.70602 5.24813 3.77047C5.24039 3.90135 5.24333 4.03265 5.25692 4.16305C5.31551 4.37985 5.33602 4.57321 5.36532 4.79293C5.3741 5.08883 5.19539 4.92184 5.20418 4.77242C5.24262 4.58459 5.23962 4.39063 5.19539 4.20407C5.1661 4.12789 5.13387 4.11032 5.06063 4.12203C5.00496 4.12203 4.86141 4.27731 4.82039 4.54098C4.82039 4.54098 4.78524 4.67574 4.77059 4.79586C4.75008 4.93063 4.66219 5.03024 4.59774 4.77828C4.545 4.59371 4.50985 4.14547 4.42196 4.25094H4.41903Z" fill="white"/>
<path fill-rule="evenodd" clip-rule="evenodd" d="M5.40039 5.68945L4.46289 6.14062C4.47168 5.92676 4.90527 5.54297 5.2041 5.54004C5.39453 5.54297 5.34766 5.61328 5.39746 5.68945H5.40039Z" fill="white"/>
<path fill-rule="evenodd" clip-rule="evenodd" d="M5.23332 5.98246C4.74113 7.25687 6.39055 7.43558 6.57512 6.03519C6.59269 5.9766 6.66301 5.92093 6.67472 6.01468C6.63664 7.28324 5.39738 7.3682 5.18644 6.96976C5.13682 6.83266 5.11202 6.68782 5.1132 6.54203C5.0839 6.293 4.95207 6.38968 4.93156 6.63578C4.91105 6.77347 4.91691 6.81156 4.91691 6.94339C4.98137 7.94535 6.57805 7.51468 6.83879 6.68851C6.97648 6.23148 6.81535 5.89456 6.88859 5.89456C7.0468 6.06449 7.26945 5.918 7.31926 5.85941C7.33976 5.83011 7.3925 5.8096 7.42765 5.84769C7.5507 5.93558 7.7675 5.89456 7.81437 5.73929C7.84074 5.58402 7.86125 5.42581 7.86711 5.26468C7.76457 5.29398 7.69133 5.31449 7.68254 5.35843L7.66203 5.4932C7.65324 5.53714 7.56828 5.53714 7.56242 5.48148C7.52433 5.3057 7.36613 5.28519 7.26945 5.55472C7.20793 5.60746 7.09074 5.61917 7.07902 5.54007C7.09367 5.35843 7.02043 5.33499 6.87394 5.41995L6.73332 4.35941C6.79191 4.35941 6.85051 4.40335 6.90617 4.33304C6.84758 4.14261 6.71574 3.75589 6.6425 3.72659C6.61027 3.68558 6.58097 3.71195 6.5341 3.72366C6.45793 3.7471 6.38762 3.81156 6.41105 3.94046C6.49894 4.49124 6.55754 4.91019 6.64836 5.4639C6.66301 5.52542 6.61027 5.61038 6.53996 5.6016C6.42277 5.52249 6.39347 5.36136 6.1884 5.36722C6.04191 5.36722 5.87785 5.52835 5.85734 5.6807C5.83097 5.80374 5.82219 5.93558 5.85734 6.04105C5.95988 6.1641 6.08293 6.15238 6.19133 6.12601C6.27922 6.08792 6.35246 6.00003 6.38469 6.02054C6.40519 6.04691 6.38762 6.33988 5.96574 6.56253C5.71086 6.67972 5.50578 6.70316 5.39738 6.49515C5.33 6.36331 5.40324 5.8682 5.23332 5.98246V5.98246Z" fill="white"/>
<path fill-rule="evenodd" clip-rule="evenodd" d="M7.33417 4.68752C7.43085 4.65237 7.8996 4.11331 7.8996 4.11331L7.82929 4.05471C7.80292 4.0342 7.80585 4.01077 7.82929 3.99026C7.94648 3.91995 7.90839 3.77346 7.8498 3.70315C7.81002 3.68376 7.76626 3.67393 7.72201 3.67443C7.67776 3.67494 7.63424 3.68578 7.59491 3.70608C7.51288 3.78518 7.49531 3.91116 7.55976 3.98733C7.62128 4.01663 7.68281 4.08108 7.64179 4.11624C7.44843 4.32131 6.92402 4.67581 6.98554 4.68752C6.99726 4.7051 7.32245 4.7051 7.33124 4.68752H7.33417ZM4.49237 6.59182C4.31659 6.87307 4.30195 7.29202 4.39862 7.41799C4.45136 7.47659 4.53632 7.50295 4.59784 7.48245C4.70917 7.43557 4.75898 7.20999 4.73261 7.13088C4.69452 7.07229 4.66523 7.0635 4.62714 7.11038C4.55097 7.26858 4.51874 7.16018 4.50995 7.07229C4.50156 6.92344 4.50941 6.77412 4.53339 6.62698C4.5539 6.50393 4.53339 6.53909 4.49237 6.59182V6.59182ZM12.0246 6.14358C11.8547 5.77444 11.6174 5.41116 11.5441 5.27346C11.3158 4.91254 11.0735 4.5607 10.8176 4.21877C10.6359 4.00198 11.1164 4.30959 10.759 3.876L10.4982 3.65627C10.4396 3.61526 10.299 3.53909 10.2756 3.66213C10.2639 3.77346 10.2697 3.83206 10.2873 3.92288C10.3019 3.98147 10.3898 4.08401 10.4338 4.1426C11.0344 4.93815 11.5619 5.78632 12.01 6.67678C12.0861 6.6387 12.0686 6.2051 12.0246 6.14358V6.14358Z" fill="white"/>
<path fill-rule="evenodd" clip-rule="evenodd" d="M11.2772 7.3682C11.242 7.40628 11.3592 7.56742 11.5115 7.56742C11.7635 7.53812 11.9861 7.39749 12.1912 7.02249C12.2745 6.89775 12.3277 6.75532 12.3465 6.60648C12.3713 5.89527 12.3143 5.18357 12.1766 4.48539C12.1678 4.42679 12.1766 4.35648 12.1824 4.3389C12.2 4.31839 12.2557 4.3389 12.285 4.2891C12.3289 4.24515 12.1678 3.87894 12.0799 3.74124C12.0506 3.67679 12.0359 3.63578 11.9832 3.7471C11.9196 3.86995 11.8893 4.00733 11.8953 4.14554C12.0154 4.9805 12.0535 5.70999 12.1297 6.54495C12.1385 6.62699 12.1268 6.74417 12.0711 6.79105C11.85 7.03718 11.5795 7.23385 11.2772 7.3682V7.3682ZM14.6902 7.36527C14.5086 7.47074 14.5086 7.59085 14.6551 7.59378C14.907 7.56449 15.2059 7.54398 15.4109 7.23343C15.4834 7.08716 15.5252 6.92767 15.534 6.76468C15.5709 6.06442 15.5246 5.36226 15.3963 4.67288C15.3904 4.61429 15.3641 4.4766 15.3729 4.45902C15.3904 4.418 15.4725 4.46195 15.5018 4.41507C15.5428 4.37113 15.2879 4.043 15.1971 3.90238C15.1678 3.83792 15.1561 3.79691 15.1004 3.90824C15.0414 4.03221 15.0229 4.17162 15.0477 4.30667C15.1824 5.21488 15.282 5.89456 15.3025 6.6973C15.2908 6.77347 15.2879 6.81449 15.2527 6.91117C15.1736 7.01077 15.0857 7.13968 15.0037 7.2012C14.9217 7.2598 14.7459 7.31839 14.6902 7.36527V7.36527Z" fill="white"/>
<path fill-rule="evenodd" clip-rule="evenodd" d="M14.8251 6.55371C14.8251 6.33985 14.828 6.15821 14.8222 5.99707C14.8203 5.86061 14.7904 5.72599 14.7343 5.60157C14.6816 5.48145 14.7138 5.38477 14.6874 5.25586C14.664 5.12696 14.6698 4.9336 14.6347 4.78418C14.623 4.72559 14.5937 4.53516 14.6025 4.51465C14.6171 4.47364 14.6728 4.51465 14.7021 4.46778C14.7431 4.42383 14.5556 3.94043 14.4618 3.80274C14.4296 3.74122 14.3651 3.76172 14.2919 3.86133C14.2187 3.92872 14.245 4.07813 14.2743 4.22168C14.453 5.16797 14.5907 6.02637 14.5614 6.92578C14.5497 7.00196 14.8251 6.69727 14.8251 6.55371V6.55371ZM13.4862 5.38184C13.372 5.37598 13.1347 5.15625 13.0644 5.03028C13.0529 4.99949 13.0479 4.96662 13.05 4.93382C13.052 4.90101 13.0609 4.86899 13.0761 4.83985C13.12 4.81055 13.1845 4.78125 13.2343 4.81055C13.2343 4.81055 13.2841 4.88086 13.2753 4.88965C13.3339 4.91895 13.3632 4.9043 13.3691 4.87793C13.372 4.83399 13.3515 4.80762 13.3515 4.76075C13.3778 4.62598 13.5273 4.60547 13.5858 4.69043C13.6269 4.74317 13.6444 4.85157 13.6474 4.92481C13.6474 4.96289 13.5888 4.91895 13.5507 4.92481C13.5185 4.93653 13.5097 4.97754 13.5067 5.0127C13.5009 5.10938 13.4892 5.26465 13.4862 5.37891V5.38184ZM11.3827 6.78809C11.412 6.50098 11.371 5.98828 11.3681 5.81836C11.3524 5.38136 11.3162 4.94533 11.2597 4.51172C11.2245 4.26563 11.3593 4.53809 11.3417 4.39454C11.2978 4.15137 11.163 3.98438 11.0019 3.76465C10.9521 3.69141 10.9521 3.67676 10.873 3.78223C10.7851 3.97852 10.8612 4.11622 10.8847 4.27149C10.9989 4.77539 11.0663 5.23828 11.0985 5.69825C11.1323 6.17605 11.1362 6.6555 11.1103 7.13379C11.1981 7.13672 11.3329 6.9961 11.3827 6.78809Z" fill="white"/>
<path fill-rule="evenodd" clip-rule="evenodd" d="M15.215 6.32811C15.0129 5.98827 14.7111 5.62499 14.6291 5.48729C14.3574 5.10792 14.0721 4.73854 13.7736 4.37987C13.5246 4.1162 13.8908 4.33593 13.7268 4.13085C13.5891 3.98143 13.551 3.93163 13.4309 3.84081C13.3723 3.80272 13.3371 3.72948 13.3137 3.85546C13.3043 3.96458 13.3024 4.0742 13.3078 4.18358C13.3078 4.23339 13.3605 4.33007 13.4074 4.38866C14.0139 5.13573 14.6789 5.89745 15.2121 6.85546C15.2883 6.81737 15.2619 6.38671 15.2121 6.32811H15.215Z" fill="white"/>
<path fill-rule="evenodd" clip-rule="evenodd" d="M6.09199 5.70409C6.07734 5.73045 6.04512 5.76268 6.05684 5.79491C6.07734 5.8242 6.09785 5.83299 6.13301 5.83299C6.16524 5.83299 6.21211 5.84178 6.2209 5.8242C6.23848 5.8037 6.2502 5.76561 6.23848 5.72752C6.20332 5.63963 6.10957 5.67479 6.09199 5.70409V5.70409Z" fill="#1BA400"/>
<path fill-rule="evenodd" clip-rule="evenodd" d="M12.877 10.62C13.1465 10.6318 13.3223 10.6347 13.5596 10.6611L13.8408 10.6318C14.1514 10.6025 14.1631 11.0741 14.1631 11.0741C14.1631 11.3525 14.0547 11.3671 13.917 11.3964C13.8379 11.4081 13.7998 11.3495 13.7559 11.2909C13.6896 11.3122 13.619 11.3162 13.5508 11.3027C13.4365 11.2968 13.3252 11.2968 13.2139 11.288C13.0967 11.2792 13.0322 11.3027 12.9121 11.2909C12.8887 11.329 12.8535 11.3818 12.7832 11.3671C12.7246 11.3583 12.6514 11.1913 12.6719 11.0595C12.7158 10.9657 12.7012 10.998 12.7012 10.957C11.5996 10.9277 10.4893 10.8778 9.41113 10.8925C8.56738 10.8954 7.73535 10.9306 6.90039 10.9657C6.45508 10.9599 6.11523 10.8896 5.88086 10.5468C5.9043 10.5468 7.01758 10.6083 7.34277 10.5878C7.94336 10.582 8.49414 10.5321 9.10645 10.5146C10.3135 10.5351 11.5117 10.5351 12.7187 10.62C12.6016 10.5409 12.6016 10.3564 12.7773 10.3095C12.792 10.2978 12.8008 10.4003 12.8271 10.3974C12.9707 10.3886 12.9063 10.582 12.877 10.62V10.62ZM8.02539 3.96379C7.84375 4.48527 8.13086 5.05949 8.33008 5.00383C8.47656 5.06242 8.56445 4.78703 8.62305 4.4882C8.66699 4.40324 8.69629 4.39445 8.7168 4.4384C8.71094 4.83683 8.74609 4.92765 8.84863 5.04777C9.07715 5.22355 9.26758 5.07121 9.28223 5.05656L9.45801 4.87785C9.49902 4.8339 9.55176 4.8339 9.60742 4.86906C9.66309 4.91887 9.6543 5.00383 9.77148 5.06242C9.87109 5.10344 10.0791 5.07414 10.1289 4.98918C10.1934 4.87492 10.2109 4.83683 10.2402 4.79582C10.2871 4.7343 10.3662 4.76066 10.3662 4.78117C10.3574 4.81633 10.3105 4.84855 10.3428 4.91301C10.4014 4.95402 10.4131 4.92765 10.4453 4.91887C10.5625 4.86027 10.6504 4.60832 10.6504 4.60832C10.6533 4.51457 10.6006 4.52043 10.5654 4.54387L10.4746 4.60539C10.416 4.61418 10.3076 4.65226 10.252 4.5673C10.1963 4.46769 10.1963 4.32414 10.1553 4.2216C10.1553 4.21574 10.0791 4.06047 10.1494 4.05168C10.1846 4.05754 10.2578 4.07805 10.2695 4.01652C10.3047 3.955 10.1934 3.78215 10.1143 3.69426C10.0469 3.62101 9.95312 3.61223 9.8623 3.6884C9.79785 3.74699 9.80664 3.81144 9.79492 3.87297C9.78381 3.91706 9.78333 3.96316 9.79351 4.00747C9.8037 4.05178 9.82426 4.09304 9.85352 4.12785C9.91797 4.2509 10.0322 4.41203 9.99414 4.64055C9.99414 4.64055 9.92676 4.74601 9.80957 4.73137C9.75977 4.72258 9.68066 4.70207 9.63965 4.38566C9.60742 4.15129 9.64551 3.8173 9.5459 3.66203C9.50781 3.56535 9.48145 3.47453 9.39355 3.63566C9.37012 3.70012 9.26758 3.7968 9.34082 3.99308C9.41013 4.16997 9.43037 4.36229 9.39941 4.54973C9.35547 4.61418 9.34668 4.63469 9.29102 4.69621C9.21484 4.7841 9.12988 4.76066 9.06543 4.72844C9.00684 4.69035 8.95996 4.66984 8.93066 4.53801C8.93652 4.33293 8.94824 3.99601 8.91016 3.9257C8.85449 3.81437 8.76367 3.85539 8.72559 3.89055C8.55131 4.08415 8.43461 4.32261 8.38867 4.57902C8.33594 4.74894 8.28027 4.69914 8.24219 4.63176C8.14844 4.54387 8.13965 3.84953 8.02539 3.96379V3.96379Z" fill="white"/>
<path fill-rule="evenodd" clip-rule="evenodd" d="M8.57608 5.10053C8.66104 5.04194 8.62296 5.00093 8.74601 5.12397C8.90483 5.40499 8.99704 5.7187 9.01554 6.04097C9.00968 6.11714 9.06241 6.16401 9.08878 6.14643C9.1005 5.97065 9.53116 5.72456 9.92667 5.6894C9.98526 5.67475 9.95597 5.5605 9.96476 5.5019C9.94132 5.28218 10.0878 5.08296 10.2929 5.06831C10.5741 5.10932 10.6679 5.25874 10.6737 5.48432C10.6415 5.92378 10.1845 5.99702 9.9296 6.03218C9.89151 6.04682 9.87394 6.0644 9.9296 6.08491L11.0019 6.09077L11.0575 6.12007C11.0634 6.14936 11.04 6.12593 10.9989 6.19624C10.9399 6.29986 10.903 6.41457 10.8905 6.53315C10.5712 6.63862 10.2401 6.67964 9.90616 6.72358C9.78897 6.78218 9.73038 6.86128 9.75382 6.94917C9.79483 7.04585 10.0526 7.14546 10.0526 7.14839C10.1025 7.17769 10.1581 7.25093 10.038 7.40034C9.51651 7.3769 9.10929 7.15425 8.96866 6.84077C8.92765 6.80854 8.88077 6.84077 8.85147 6.88179C8.6464 7.14546 8.44718 7.37983 8.09854 7.50874C7.89347 7.56147 7.6796 7.47651 7.57999 7.34175C7.51261 7.26265 7.51554 7.17769 7.4921 7.16011C7.37784 7.20991 6.41104 7.62007 6.53409 7.42671C6.76847 7.17769 7.17862 6.99019 7.53604 6.74409C7.56241 6.65913 7.60929 6.37788 7.74991 6.28706C7.7587 6.28706 7.7294 6.45112 7.73233 6.52144C7.73233 6.58003 7.72647 6.60054 7.73819 6.58589C7.76456 6.57124 8.19815 6.22847 8.23624 6.123C8.27726 6.0644 8.24503 5.91206 8.24503 5.9062C8.163 5.69526 8.04874 5.67768 8.00772 5.57221C7.96964 5.43452 7.98722 5.27632 8.06632 5.22944C8.13663 5.16792 8.21866 5.17378 8.29776 5.24409C8.38565 5.32319 8.46183 5.47846 8.48526 5.59272C8.47062 5.63667 8.36808 5.56343 8.33878 5.58393C8.39517 5.64873 8.43267 5.72778 8.44718 5.81245C8.50577 6.05268 8.48819 6.14643 8.4296 6.30171C8.23624 6.70894 7.99015 6.82905 7.77335 6.9814C7.76749 6.9814 7.76456 7.08394 7.84366 7.1396C7.87296 7.1689 7.98722 7.18354 8.11905 7.1396C8.40071 6.98318 8.62845 6.74522 8.77237 6.45698C8.79727 6.23765 8.77325 6.01553 8.70206 5.80659C8.6171 5.6103 8.51749 5.33198 8.51749 5.32612C8.51456 5.20307 8.52335 5.16206 8.57608 5.10053V5.10053ZM5.76944 3.96967C5.89249 4.02827 6.12687 4.0019 6.11515 3.80268L6.10929 3.71186C6.08585 3.65327 6.01554 3.66792 6.00089 3.72651C5.99503 3.74702 6.00968 3.77924 5.9921 3.78803C5.98038 3.79975 5.94229 3.79389 5.94229 3.73823C5.94229 3.72065 5.93058 3.70307 5.92179 3.69135C5.91593 3.68549 5.91007 3.68549 5.89542 3.68549C5.87784 3.68549 5.87784 3.68842 5.86905 3.70307C5.86612 3.71772 5.86026 3.73237 5.86026 3.74995C5.86026 3.77046 5.84855 3.77631 5.83683 3.77924C5.81925 3.77924 5.82218 3.77924 5.80753 3.77339C5.80167 3.7646 5.79288 3.76167 5.79288 3.74409L5.78409 3.69721C5.77823 3.68842 5.76651 3.68256 5.75479 3.67963C5.68741 3.67963 5.68155 3.75874 5.68741 3.78803C5.68155 3.79389 5.67862 3.93159 5.76944 3.96967V3.96967Z" fill="white"/>
<path fill-rule="evenodd" clip-rule="evenodd" d="M9.38762 5.499C9.51066 5.55759 9.80656 5.52537 9.73332 5.33494L9.72746 5.24119C9.70109 5.18259 9.63371 5.19724 9.61906 5.25876C9.6132 5.27634 9.62785 5.30857 9.60734 5.31736C9.59855 5.32908 9.55754 5.32322 9.56047 5.27048C9.56047 5.25291 9.54875 5.2324 9.53996 5.22068C9.53117 5.21775 9.52824 5.21482 9.51066 5.21482C9.49602 5.21482 9.49602 5.22068 9.48723 5.23533C9.48137 5.24998 9.47844 5.26462 9.47844 5.2822C9.47551 5.29978 9.46672 5.30564 9.45207 5.3115C9.43742 5.3115 9.44035 5.3115 9.42863 5.30271C9.41984 5.29392 9.41105 5.29099 9.41105 5.27634L9.40227 5.22947C9.39641 5.22068 9.38469 5.21482 9.37297 5.21189C9.30559 5.21189 9.29973 5.28806 9.30266 5.31736C9.29973 5.32322 9.2968 5.46384 9.39055 5.499H9.38762ZM11.497 4.86619C11.62 4.92478 11.8515 4.89841 11.8427 4.70212L11.8368 4.60837C11.8105 4.54978 11.7431 4.56443 11.7284 4.62302C11.7226 4.64353 11.7372 4.67576 11.7167 4.68748C11.7079 4.69626 11.6669 4.69041 11.6698 4.63474C11.6698 4.61716 11.6581 4.59959 11.6493 4.58787C11.6405 4.58201 11.6376 4.58201 11.62 4.58201C11.6054 4.58201 11.6054 4.58787 11.5966 4.60251L11.5878 4.64646C11.5849 4.66697 11.5761 4.67576 11.5614 4.67576C11.5468 4.67576 11.5497 4.67576 11.538 4.6699C11.5292 4.66111 11.5204 4.65818 11.5204 4.64353C11.5204 4.62888 11.5175 4.60544 11.5116 4.59373C11.5058 4.58494 11.4941 4.58201 11.4823 4.57908C11.415 4.57908 11.4091 4.65525 11.412 4.68455C11.4091 4.69041 11.4062 4.8281 11.4999 4.86619H11.497ZM12.5898 6.45701C12.3759 6.70017 12.4696 7.10154 12.5195 7.18943C12.5898 7.33005 12.6454 7.42088 12.7831 7.49119C12.9091 7.58201 13.0087 7.52634 13.0614 7.46189C13.1874 7.33006 13.1903 6.99314 13.2489 6.92869C13.29 6.80564 13.3954 6.82615 13.4452 6.88181C13.4918 6.94796 13.5543 7.00135 13.6269 7.03709C13.7441 7.13963 13.8847 7.16013 14.0253 7.06638C14.1191 7.01072 14.1806 6.94334 14.2362 6.80564C14.2948 6.64158 14.2655 5.87986 14.2509 5.42869L14.1278 4.7988C14.1278 4.79294 14.1132 4.49998 14.0986 4.43259C14.0986 4.4033 14.0898 4.39451 14.1191 4.39744C14.1513 4.42673 14.1542 4.42673 14.1777 4.43552C14.2069 4.44138 14.2362 4.38572 14.2157 4.33884L13.9228 3.79392C13.8993 3.77048 13.8671 3.74705 13.829 3.79978C13.8066 3.82012 13.7887 3.84501 13.7765 3.87279C13.7644 3.90057 13.7583 3.93061 13.7587 3.96091C13.7675 4.08982 13.788 4.22165 13.7968 4.35056L13.914 5.01267C13.9521 5.48142 13.9609 5.86814 13.9989 6.33982C13.9931 6.53904 13.9316 6.71189 13.873 6.73826C13.873 6.73826 13.7851 6.78806 13.7265 6.7324C13.6825 6.71482 13.5097 6.44236 13.5097 6.44236C13.4218 6.36326 13.3632 6.38377 13.3017 6.44236C13.1259 6.61228 13.0497 6.92283 12.9296 7.13963C12.9003 7.18943 12.8124 7.22752 12.7187 7.1367C12.4784 6.80564 12.6191 6.33689 12.5898 6.45701V6.45701ZM11.5527 3.71189C11.664 3.75583 11.7402 3.98142 11.7167 4.09275C11.6933 4.22458 11.6347 4.37107 11.5937 4.35349C11.5468 4.33591 11.623 4.21873 11.579 4.09568C11.5556 4.01365 11.4032 3.86716 11.4208 3.82615C11.3915 3.73533 11.4853 3.69431 11.5527 3.70896V3.71189Z" fill="white"/>
<path fill-rule="evenodd" clip-rule="evenodd" d="M12.9475 6.59178C12.968 6.32225 12.9299 6.15819 12.924 5.99999C12.9182 5.84178 12.7453 4.63475 12.7102 4.51757C12.6662 4.28905 12.8772 4.48827 12.8537 4.3535C12.7805 4.18944 12.6018 3.94628 12.5461 3.80272C12.5109 3.74413 12.5256 3.68553 12.4494 3.78807C12.3838 3.96786 12.3608 4.16039 12.382 4.35057C12.5637 5.29686 12.7482 6.08202 12.7189 6.98143C12.8068 6.98143 12.9035 6.78514 12.9475 6.59178V6.59178ZM14.8342 4.09276C14.9367 4.14257 14.9953 4.42382 14.9836 4.50292C14.9631 4.6494 14.9104 4.8076 14.8723 4.7871C14.8283 4.76952 14.8811 4.5703 14.8605 4.50878C14.8371 4.42089 14.6994 4.26268 14.7141 4.21581C14.6848 4.1162 14.7727 4.07518 14.8342 4.09276V4.09276ZM7.34297 6.08202C7.43965 6.12011 7.49824 6.32518 7.48946 6.38378C7.46602 6.49218 7.41621 6.60936 7.37813 6.59178C7.34004 6.58007 7.38692 6.43358 7.36934 6.38671C7.36055 6.27831 7.22578 6.21971 7.22871 6.17284C7.20528 6.08495 7.28731 6.0703 7.3459 6.08202H7.34297Z" fill="white"/>
<path fill-rule="evenodd" clip-rule="evenodd" d="M9.67481 6.39258C9.79785 6.39844 9.85938 6.49805 9.74512 6.53906C9.62793 6.57715 9.51953 6.60938 9.5166 6.77344C9.56055 7.00781 9.45801 6.92578 9.39941 6.89648C9.3291 6.84375 9.12988 6.7207 9.10059 6.45703C9.09766 6.39551 9.14746 6.33984 9.22656 6.33984C9.34375 6.37207 9.51953 6.375 9.67481 6.39258V6.39258Z" fill="#1B9D00"/>
<path fill-rule="evenodd" clip-rule="evenodd" d="M4.76777 3.64455C4.90839 3.68557 4.91718 3.89651 4.90839 3.95803C4.88788 4.06936 4.83808 4.18947 4.80292 4.17483C4.76191 4.16018 4.80292 4.00783 4.78241 3.96096C4.76191 3.89651 4.64179 3.77346 4.65351 3.7383C4.62714 3.66506 4.7121 3.6299 4.76777 3.64455V3.64455ZM7.57733 4.62893C7.46601 4.68752 7.42499 4.8633 7.49237 4.96877C7.55683 5.05666 7.65644 5.02444 7.66815 5.02444C7.77655 5.03615 7.84101 4.82229 7.84101 4.82229C7.84101 4.82229 7.84394 4.76369 7.71796 4.87795C7.6623 4.88674 7.65937 4.86623 7.64472 4.83694C7.6313 4.78116 7.63645 4.72253 7.65937 4.66994C7.67987 4.61721 7.63886 4.59377 7.57733 4.62893ZM8.39765 3.56252C8.33905 3.60061 8.23065 3.71487 8.22773 3.84377C8.2248 3.91701 8.21015 3.91701 8.25702 3.96096C8.29511 4.01369 8.32733 4.01076 8.39765 3.97268C8.41517 3.96165 8.4302 3.9471 8.4418 3.92995C8.4534 3.9128 8.46131 3.89343 8.46503 3.87307C8.48261 3.79104 8.37714 3.91408 8.36542 3.82033C8.34198 3.73244 8.40937 3.69729 8.47382 3.61526C8.47382 3.55666 8.47382 3.51858 8.39472 3.56252H8.39765ZM9.0539 3.67971C9.02807 3.78639 9.01237 3.89527 9.00702 4.0049C8.98944 4.08694 9.09491 4.12209 9.13886 4.01662C9.20917 3.82619 9.20917 3.74416 9.21503 3.66506C9.19452 3.53908 9.10956 3.54201 9.0539 3.67971ZM13.2141 5.79787C13.2258 5.78322 13.8 5.376 13.8 5.376C13.8586 5.35549 13.8439 5.58694 13.8176 5.58401C13.6395 5.75563 13.4347 5.89713 13.2111 6.00295C13.1818 6.02346 13.1555 5.84768 13.2111 5.79787H13.2141ZM13.7326 5.79201C13.8351 5.84182 13.8762 6.13772 13.8644 6.21682C13.8644 6.37502 13.7678 6.49807 13.7267 6.48049C13.6857 6.45998 13.7326 6.2842 13.7121 6.22268C13.6887 6.13479 13.6037 5.97365 13.6183 5.92678C13.5891 5.82717 13.6711 5.77444 13.7355 5.79201H13.7326ZM10.3342 7.0635C10.3817 7.00803 10.4369 6.95968 10.4982 6.91994C10.5568 6.89065 10.6096 6.94338 10.6066 6.94045C10.6154 6.99905 10.5715 7.04885 10.5861 7.12502C10.5978 7.15432 10.6066 7.18948 10.6623 7.17776C10.7531 7.10451 10.8381 7.09865 10.926 7.09573C10.9992 7.09865 11.0021 7.21877 10.9553 7.21877C10.7883 7.25393 10.715 7.3008 10.5949 7.34475C10.5363 7.37991 10.4894 7.33596 10.4894 7.33303C10.4894 7.3301 10.4572 7.3008 10.4777 7.22463C10.4836 7.16604 10.4601 7.13088 10.4074 7.13674C10.3723 7.16018 10.3371 7.1719 10.3195 7.12795C10.3107 7.09866 10.3078 7.08108 10.3342 7.0635V7.0635ZM14.3361 7.2217C14.3596 7.251 14.3771 7.2803 14.3332 7.33303L14.2248 7.42678C14.2072 7.45608 14.1955 7.50881 14.2541 7.52346C14.3596 7.55276 14.6057 7.39162 14.6057 7.38869C14.6467 7.3594 14.6349 7.3008 14.6291 7.3008C14.6057 7.27444 14.5529 7.29201 14.5178 7.28615C14.5002 7.28615 14.4445 7.2803 14.4709 7.22756C14.4906 7.20167 14.5064 7.17305 14.5178 7.1426C14.5324 7.10744 14.5178 7.08401 14.4592 7.0635C14.3976 7.05178 14.3713 7.05764 14.3039 7.0635C14.2687 7.06936 14.257 7.08694 14.2482 7.13088C14.2512 7.19826 14.2922 7.19533 14.3361 7.21877V7.2217Z" fill="white"/>
<path fill-rule="evenodd" clip-rule="evenodd" d="M10.3545 5.5576C10.3398 5.5869 10.2871 5.5869 10.2373 5.5576C10.1875 5.5283 10.1582 5.48143 10.1758 5.45506C10.1933 5.42869 10.2432 5.42869 10.293 5.45506C10.3428 5.48143 10.3691 5.53123 10.3545 5.5576ZM7.74706 3.98729C7.71776 3.99608 7.67674 3.96971 7.65917 3.92869C7.64159 3.88768 7.65038 3.85252 7.67967 3.84373C7.70897 3.83494 7.74706 3.86424 7.76756 3.90233C7.78807 3.94041 7.77635 3.98143 7.74413 3.99022L7.74706 3.98729Z" fill="#259F00"/>
<path fill-rule="evenodd" clip-rule="evenodd" d="M12.9063 10.9863C13.1817 10.998 13.4395 10.9863 13.7119 11.001C13.7617 11.0449 13.7266 11.1475 13.6943 11.1416L13.4658 11.1328C13.4629 11.0449 13.2402 11.0596 13.2461 11.1357C13.126 11.1504 13.0176 11.1328 12.8945 11.1269C12.8594 11.083 12.8652 11.0039 12.9063 10.9863V10.9863Z" fill="#209000"/>
</g>
<defs>
<clipPath id="clip0_5309:185346">
<rect width="20" height="15" fill="white"/>
</clipPath>
</defs>
</svg>
