<svg width="20" height="15" viewBox="0 0 20 15" fill="none" xmlns="http://www.w3.org/2000/svg">
<path d="M8 0H20V15H8V0Z" fill="#FF0000"/>
<path d="M0 0H8V15H0V0Z" fill="#006600"/>
<path fill-rule="evenodd" clip-rule="evenodd" d="M10.6094 9.56861C9.6 9.53736 4.98438 6.6561 4.95312 6.1936L5.20625 5.77173C5.66563 6.43735 10.3844 9.24048 10.85 9.14048L10.6094 9.56861Z" fill="#FFFF00"/>
<path fill-rule="evenodd" clip-rule="evenodd" d="M5.20543 5.74672C5.21392 5.74645 5.22197 5.75051 5.2268 5.7575C5.28193 5.83738 5.40323 5.95198 5.57721 6.0922C5.75045 6.23182 5.97372 6.39514 6.23058 6.57237C6.74426 6.9268 7.39122 7.33616 8.03855 7.72171C8.68589 8.10727 9.3332 8.46877 9.84754 8.72755C10.1048 8.85697 10.3283 8.96047 10.5017 9.02844C10.5885 9.06244 10.6622 9.08734 10.721 9.10217C10.781 9.11731 10.8218 9.12095 10.8447 9.11601C10.8543 9.11395 10.8643 9.11771 10.8701 9.12562C10.8759 9.13354 10.8766 9.14413 10.8718 9.1527L10.6311 9.58083C10.6266 9.58895 10.6179 9.59386 10.6086 9.59357C10.4781 9.58953 10.2923 9.53981 10.0691 9.457C9.84516 9.37392 9.58112 9.25662 9.29313 9.11554C8.7171 8.83337 8.04385 8.45543 7.40142 8.06415C6.75901 7.67288 6.14691 7.26796 5.69324 6.93173C5.46648 6.76367 5.2788 6.6124 5.14661 6.48833C5.08056 6.42634 5.0278 6.37062 4.99087 6.3226C4.95482 6.27572 4.93065 6.2322 4.92816 6.19526C4.92781 6.19017 4.92904 6.18509 4.93166 6.18072L5.18479 5.75884C5.18916 5.75155 5.19694 5.74699 5.20543 5.74672ZM5.20849 5.81652L4.97899 6.19902C4.98301 6.22002 4.99881 6.2509 5.0305 6.29212C5.06511 6.33712 5.1157 6.39076 5.18082 6.45188C5.31097 6.57402 5.4969 6.72398 5.72302 6.89156C6.17511 7.22662 6.78586 7.63069 7.42743 8.02145C8.06899 8.4122 8.74086 8.78934 9.31512 9.07064C9.60228 9.21131 9.86468 9.32784 10.0865 9.41012C10.3 9.48933 10.4737 9.53596 10.5951 9.54292L10.8061 9.16756C10.778 9.16586 10.7452 9.15984 10.7088 9.15066C10.6471 9.13509 10.5712 9.10937 10.4835 9.07499C10.308 9.00621 10.0829 8.90192 9.82507 8.77221C9.30933 8.51273 8.66093 8.1506 8.01296 7.76467C7.36498 7.37873 6.71702 6.96876 6.20218 6.61352C5.94479 6.43592 5.7204 6.27182 5.54584 6.13113C5.3917 6.0069 5.27466 5.89957 5.20849 5.81652Z" fill="black"/>
<path fill-rule="evenodd" clip-rule="evenodd" d="M5.15322 5.7124C5.06259 5.95615 6.35947 6.75615 7.91572 7.70615C9.47509 8.65303 10.8188 9.2374 10.9157 9.15615L10.9626 9.06865C10.9438 9.0999 10.9001 9.10927 10.8282 9.0874C10.4063 8.96552 9.30947 8.4624 7.95009 7.6374C6.58759 6.8124 5.40634 6.05303 5.22197 5.73115C5.2076 5.70098 5.20114 5.66764 5.20322 5.63428H5.19697L5.15947 5.70303L5.15322 5.7124V5.7124ZM10.6313 9.58115C10.6157 9.6124 10.5813 9.6124 10.522 9.60615C10.147 9.56552 9.00322 9.00927 7.65009 8.1999C6.07509 7.25615 4.77509 6.3999 4.91884 6.1749L4.95634 6.10615L4.96259 6.10928C4.83759 6.49053 7.52822 8.02803 7.68759 8.12803C9.24384 9.09052 10.5563 9.65615 10.672 9.50927L10.6313 9.58115V9.58115Z" fill="#FFFF00"/>
<path fill-rule="evenodd" clip-rule="evenodd" d="M5.17502 5.62228C5.1794 5.61425 5.18782 5.60925 5.19697 5.60925H5.20322C5.21012 5.60925 5.21671 5.6121 5.22144 5.61713C5.22616 5.62216 5.2286 5.62892 5.22817 5.6358C5.22638 5.66462 5.23187 5.69341 5.24414 5.71953C5.28798 5.7955 5.39277 5.90045 5.55026 6.02941C5.70741 6.15809 5.91425 6.30851 6.15832 6.47492C6.64641 6.80773 7.28187 7.20353 7.96305 7.61599C9.32198 8.44073 10.4166 8.94243 10.8352 9.06336C10.8692 9.07372 10.8944 9.07592 10.9114 9.07323C10.9276 9.07067 10.9362 9.06403 10.9412 9.05576C10.9481 9.04413 10.9631 9.04018 10.9749 9.04688C10.9867 9.05358 10.991 9.06847 10.9846 9.08043L10.933 9.17676L10.9318 9.17528C10.9185 9.18646 10.8996 9.18868 10.8831 9.18863C10.8652 9.18858 10.8432 9.18566 10.8179 9.18048C10.7672 9.17008 10.6994 9.14978 10.617 9.12056C10.452 9.06202 10.2254 8.96663 9.95356 8.83931C9.40972 8.58461 8.68314 8.20136 7.90275 7.7275C7.12481 7.25261 6.41082 6.81469 5.90272 6.465C5.64879 6.29024 5.44529 6.13686 5.31073 6.01143C5.24357 5.94882 5.19247 5.89216 5.16096 5.84245C5.13017 5.79388 5.11416 5.74568 5.12979 5.70367L5.15322 5.71238L5.13242 5.69851L5.13805 5.69006L5.17502 5.62228ZM5.17583 5.72353C5.17006 5.74257 5.17553 5.77205 5.20319 5.81568C5.23133 5.86008 5.27884 5.91334 5.34483 5.97485C5.47658 6.09766 5.67757 6.24935 5.93107 6.42381C6.43779 6.77256 7.1504 7.20966 7.9287 7.68476C8.70767 8.15776 9.43267 8.54014 9.97476 8.79403C10.2459 8.92101 10.4708 9.01566 10.6337 9.07343C10.7153 9.10236 10.7806 9.12178 10.828 9.13149C10.8518 9.13637 10.8701 9.13859 10.8833 9.13863C10.8906 9.13866 10.8949 9.138 10.8974 9.13745L10.9045 9.12411C10.8803 9.1253 10.8523 9.12083 10.8211 9.11135C10.3958 8.98844 9.29678 8.48391 7.93715 7.65876C7.93714 7.65876 7.93716 7.65877 7.93715 7.65876C7.25583 7.24622 6.61941 6.84984 6.13015 6.51624C5.88555 6.34945 5.67735 6.19811 5.51858 6.0681C5.36073 5.93884 5.24892 5.82846 5.20028 5.74355L5.19933 5.74191C5.19388 5.73045 5.18949 5.71855 5.18609 5.70641L5.21892 5.64622L5.20322 5.63766V5.63425L5.17827 5.6327C5.17672 5.65762 5.17939 5.68254 5.18609 5.70641L5.18035 5.71693L5.17583 5.72353ZM4.9344 6.09416C4.94084 6.08234 4.95549 6.07775 4.96753 6.08377L4.97378 6.08689C4.98486 6.09244 4.99021 6.10526 4.98635 6.11704C4.98106 6.13318 4.98236 6.15509 4.99406 6.18438C5.00571 6.21353 5.02672 6.24751 5.05691 6.2859C5.11725 6.36261 5.21119 6.45304 5.32931 6.55232C5.56532 6.75066 5.89391 6.98107 6.23218 7.2032C6.77001 7.55637 7.32864 7.88633 7.57655 8.03277C7.64075 8.07069 7.68412 8.09631 7.70088 8.10682C8.47829 8.58763 9.19439 8.96904 9.73034 9.21187C9.99843 9.33334 10.2207 9.4198 10.3827 9.46673C10.4638 9.49024 10.5287 9.50348 10.576 9.5066C10.5997 9.50816 10.6179 9.50709 10.631 9.50413C10.6442 9.50114 10.65 9.49678 10.6523 9.49379C10.6604 9.48352 10.675 9.48121 10.6859 9.48849C10.6968 9.49576 10.7002 9.51017 10.6937 9.52155L10.6534 9.59292C10.6413 9.61665 10.6212 9.62817 10.5974 9.63232C10.5754 9.63613 10.5486 9.63406 10.5194 9.63099C10.4221 9.62045 10.2776 9.57698 10.0963 9.50637C9.91429 9.43553 9.6932 9.33658 9.44185 9.21374C8.93912 8.96805 8.31427 8.62628 7.63726 8.22133C6.84968 7.74941 6.13018 7.29896 5.6254 6.93818C5.37318 6.75792 5.17356 6.59932 5.04577 6.47114C4.98203 6.40721 4.93485 6.34955 4.90826 6.29951C4.8823 6.25067 4.87244 6.20193 4.89728 6.1622L4.9344 6.09416ZM10.6313 9.58113L10.6096 9.56882L10.6165 9.55659C10.6031 9.55762 10.5884 9.55752 10.5727 9.55649C10.5201 9.55303 10.4513 9.53866 10.3688 9.51476C10.2035 9.46686 9.97872 9.3793 9.7097 9.25741C9.17143 9.01353 8.45329 8.63095 7.67445 8.14926C7.6587 8.13938 7.61679 8.11463 7.55456 8.07787C7.30895 7.93282 6.7447 7.59957 6.20473 7.24499C5.86604 7.02259 5.53546 6.79089 5.29715 6.5906C5.17811 6.49056 5.08111 6.39754 5.01761 6.31681C4.98588 6.27647 4.96174 6.23824 4.94763 6.20293C4.94532 6.19715 4.94325 6.19138 4.94146 6.18563L4.93996 6.18837C4.9295 6.20475 4.92881 6.23164 4.95241 6.27605C4.97555 6.31959 5.01865 6.37311 5.08118 6.43584C5.20593 6.56098 5.40279 6.71762 5.65448 6.89751C6.15751 7.25704 6.87552 7.7066 7.66293 8.17842C8.33905 8.58284 8.96264 8.92389 9.46381 9.16882C9.71441 9.29129 9.93415 9.38961 10.1144 9.45978C10.2952 9.53019 10.4344 9.57149 10.5247 9.58127C10.5548 9.58444 10.5748 9.58549 10.5888 9.58306C10.6006 9.58099 10.6054 9.57705 10.609 9.56994L10.6313 9.58113Z" fill="black"/>
<path fill-rule="evenodd" clip-rule="evenodd" d="M8.00615 6.475C9.0124 6.46562 10.2562 6.3375 10.9749 6.05L10.8187 5.8C10.3968 6.03438 9.14678 6.19063 7.99678 6.2125C6.64053 6.2 5.68115 6.07188 5.1999 5.75L5.05615 6.01875C5.9374 6.39375 6.84365 6.47187 8.00615 6.475" fill="#FFFF00"/>
<path fill-rule="evenodd" clip-rule="evenodd" d="M5.19381 5.72572C5.20066 5.72401 5.20791 5.72527 5.21378 5.7292C5.44988 5.88711 5.80575 5.99891 6.27407 6.07254C6.74181 6.14609 7.31923 6.18122 7.99663 6.18747C8.57067 6.17654 9.16952 6.13208 9.67728 6.06115C9.93122 6.02568 10.1621 5.98364 10.3555 5.93596C10.5493 5.88817 10.7039 5.83509 10.8065 5.77812C10.8181 5.77166 10.8328 5.77544 10.8398 5.78673L10.9961 6.03673C11 6.04301 11.0009 6.0507 10.9986 6.05774C10.9963 6.06478 10.991 6.07044 10.9842 6.07319C10.2609 6.36248 9.01339 6.49057 8.00665 6.49997M5.19381 5.72572C5.18697 5.72743 5.18116 5.73196 5.17783 5.73818ZM5.20906 5.78582C5.45376 5.94168 5.81012 6.05021 6.26631 6.12194C6.73755 6.19604 7.31783 6.23122 7.99652 6.23747L7.99723 6.23747C8.57308 6.22652 9.17409 6.18192 9.68419 6.11067C9.93924 6.07505 10.1719 6.03272 10.3674 5.9845C10.5504 5.9394 10.7022 5.88882 10.8098 5.83306L10.9377 6.03772C10.2195 6.31571 8.99877 6.44071 8.00605 6.44998C6.85553 6.44688 5.95965 6.37016 5.0911 6.00635L5.20906 5.78582ZM5.17783 5.73818L5.03408 6.00693ZM8.00606 6.49998C6.84277 6.49685 5.93237 6.41876 5.04634 6.04173C5.03988 6.03898 5.03488 6.03365 5.03255 6.02703C5.03022 6.02041 5.03077 6.01312 5.03408 6.00693M8.00606 6.49998C8.00616 6.49998 8.00626 6.49998 8.00636 6.49997Z" fill="black"/>
<path fill-rule="evenodd" clip-rule="evenodd" d="M11.0157 6.05605C10.9907 6.09668 10.522 6.25605 9.83447 6.3748C9.22842 6.46664 8.61619 6.51157 8.00322 6.50918C7.41594 6.51138 6.82918 6.4738 6.24697 6.39668C5.5251 6.28418 5.15322 6.12793 5.0126 6.07168L5.04697 6.00293C5.44385 6.15918 5.81885 6.25293 6.25635 6.32168C6.8343 6.39972 7.4169 6.43835 8.0001 6.4373C8.60989 6.43794 9.21888 6.39303 9.82197 6.30293C10.5251 6.1873 10.9095 6.04043 10.9657 5.9748L11.0157 6.05918V6.05605ZM10.8782 5.80293C10.8032 5.86543 10.422 5.9998 9.75322 6.10605C9.17574 6.1896 8.59297 6.23138 8.00947 6.23105C7.32197 6.23105 6.75635 6.18105 6.32822 6.11855C5.64697 6.03105 5.28447 5.86855 5.15322 5.8248L5.19385 5.75605C5.29697 5.80918 5.64385 5.9498 6.33447 6.04668C6.88965 6.12104 7.44935 6.15655 8.00947 6.15293C8.58882 6.15311 9.16742 6.11133 9.74072 6.02793C10.4126 5.93418 10.7751 5.76543 10.8313 5.72168L10.8782 5.80293V5.80293ZM4.69697 7.6873C5.31572 8.02168 6.69385 8.1873 7.99697 8.1998C9.18447 8.20293 10.7282 8.01855 11.3063 7.7123L11.2907 7.37793C11.1095 7.65918 9.45322 7.93105 7.98447 7.92168C6.51572 7.90918 5.1501 7.68418 4.69385 7.39043V7.6873" fill="#FFFF00"/>
<path fill-rule="evenodd" clip-rule="evenodd" d="M10.8361 5.69712C10.8432 5.69851 10.8494 5.7029 10.853 5.70916L10.8999 5.79041L10.8782 5.80291L10.8942 5.82211C10.8722 5.84043 10.8311 5.86174 10.7742 5.88486C10.7165 5.90831 10.64 5.93456 10.5453 5.96207C10.3559 6.0171 10.0923 6.07746 9.75712 6.13072L9.75678 6.13077M8.00943 6.25603C7.32086 6.25603 6.7541 6.20596 6.3248 6.1433C5.7404 6.06822 5.38866 5.93794 5.21744 5.87452C5.18822 5.86369 5.16426 5.85482 5.14529 5.8485C5.13813 5.84611 5.13242 5.84061 5.12978 5.83353C5.12714 5.82646 5.12783 5.81856 5.13168 5.81206L5.1723 5.74331C5.17904 5.73191 5.1935 5.72774 5.20527 5.73381C5.30519 5.78528 5.64914 5.92527 6.33785 6.02189C6.89185 6.09609 7.45035 6.13152 8.00929 6.12791L8.00946 6.12791C8.58759 6.12808 9.16499 6.0864 9.7371 6.00317L9.73725 6.00314C10.0718 5.95647 10.3289 5.89117 10.5091 5.83227C10.5992 5.80281 10.67 5.775 10.7215 5.75196C10.7737 5.72861 10.8045 5.71087 10.816 5.70192C10.8217 5.69748 10.829 5.69573 10.8361 5.69712M10.8451 5.7956L10.8229 5.75703C10.8036 5.76835 10.7764 5.78217 10.7419 5.7976C10.6886 5.82144 10.6162 5.84987 10.5246 5.87979C10.3416 5.93964 10.0815 6.00558 9.74423 6.05266C9.16977 6.13622 8.59002 6.17808 8.00952 6.17791C7.44826 6.18153 6.88743 6.14595 6.33113 6.07143L6.33098 6.07141C5.67897 5.97996 5.33078 5.8494 5.20354 5.78872L5.19023 5.81125C5.20346 5.81603 5.21823 5.82149 5.2346 5.82755C5.40624 5.89109 5.75295 6.01944 6.33138 6.09373L6.33181 6.09379L6.33181 6.09379C6.75873 6.15612 7.32315 6.20603 8.00945 6.20603H8.00946C8.5917 6.20635 9.17321 6.16467 9.74945 6.08131C10.0829 6.02833 10.3443 5.96839 10.5314 5.91405C10.625 5.88687 10.6997 5.86117 10.7554 5.83853C10.7965 5.82183 10.8261 5.80728 10.8451 5.7956ZM10.9679 5.94987C10.9759 5.95057 10.9831 5.9551 10.9872 5.96204L11.0314 6.03654C11.0371 6.04118 11.0407 6.04828 11.0407 6.05603V6.05916C11.0407 6.06983 11.0339 6.07925 11.024 6.08274C11.0226 6.08378 11.0213 6.08472 11.0201 6.08559C11.0139 6.08986 11.0062 6.09427 10.9974 6.09877C10.9797 6.10781 10.9558 6.11819 10.9263 6.12959C10.8672 6.15245 10.784 6.18011 10.6805 6.21012C10.4733 6.27016 10.1833 6.33989 9.83871 6.39942L9.8382 6.3995C9.2309 6.49153 8.61742 6.53654 8.0032 6.53416C7.41481 6.53636 6.82696 6.4987 6.24367 6.42144L6.2431 6.42136L6.2431 6.42136C5.54515 6.31259 5.17266 6.16291 5.01976 6.10147C5.01395 6.09914 5.00847 6.09694 5.00329 6.09487C4.9968 6.09227 4.99169 6.08707 4.98921 6.08054C4.98672 6.074 4.98709 6.06673 4.99021 6.06047L5.02459 5.99173C5.03038 5.98014 5.04406 5.9749 5.05611 5.97964C5.45088 6.13507 5.82399 6.2284 6.25994 6.29692C6.83668 6.37478 7.41805 6.41332 8.00003 6.41228H8.0001C8.60858 6.41292 9.21627 6.3681 9.81807 6.27821C10.1687 6.22055 10.4393 6.15517 10.629 6.09622C10.7239 6.06673 10.7981 6.03895 10.8518 6.01469C10.8787 6.00256 10.9001 5.99145 10.9162 5.98163C10.9328 5.97156 10.9423 5.96372 10.9467 5.95851C10.952 5.95239 10.9598 5.94918 10.9679 5.94987ZM8.0032 6.53416C8.00316 6.53416 8.00313 6.53416 8.0031 6.53416L8.0032 6.50916L8.00329 6.53416C8.00326 6.53416 8.00323 6.53416 8.0032 6.53416ZM10.9815 6.05056C10.9794 6.05172 10.9771 6.05296 10.9746 6.05427C10.9591 6.06219 10.937 6.07185 10.9082 6.08296C10.8509 6.10512 10.7693 6.13234 10.6666 6.1621C10.4613 6.22158 10.1732 6.29088 9.83045 6.3501C9.22576 6.44172 8.61489 6.48654 8.0033 6.48416H8.00311C7.41704 6.48635 6.83151 6.44885 6.25051 6.37191C5.57102 6.26599 5.20336 6.12132 5.04707 6.05856L5.0591 6.03451C5.45014 6.18656 5.82133 6.27861 6.25244 6.34635L6.25244 6.34636L6.25298 6.34643C6.83205 6.42462 7.41577 6.46333 8.00009 6.46228C8.00008 6.46228 8.00006 6.46228 8.00005 6.46228L8.00007 6.43728L8.00012 6.46228C8.00011 6.46228 8.0001 6.46228 8.00009 6.46228C8.61111 6.46292 9.22133 6.41791 9.82564 6.32763L9.82601 6.32757C10.1785 6.26962 10.4515 6.20375 10.6438 6.14397C10.74 6.11408 10.8163 6.08562 10.8724 6.06026C10.9005 6.04759 10.9238 6.03555 10.9423 6.02433C10.9484 6.02061 10.9541 6.01688 10.9594 6.01314L10.9815 6.05056ZM10.9952 6.04173C10.9953 6.04166 10.9953 6.04163 10.9953 6.04164C10.9953 6.04165 10.9949 6.04207 10.9944 6.04293C10.9947 6.04252 10.9949 6.04212 10.9952 6.04173ZM11.2972 7.35376C11.3077 7.35659 11.3152 7.36588 11.3157 7.37674L11.3313 7.71111C11.3317 7.72078 11.3266 7.72984 11.318 7.73437C11.0247 7.88976 10.4903 8.01282 9.88358 8.09681C9.27578 8.18095 8.5918 8.22635 7.99688 8.22478L7.99671 8.22478C7.34427 8.21852 6.67282 8.17393 6.08672 8.08897C5.50458 8.00459 5.00395 7.88002 4.69015 7.71201C4.67809 7.71024 4.66882 7.69984 4.66882 7.68728V7.39041C4.66882 7.38126 4.67382 7.37284 4.68185 7.36846C4.68988 7.36408 4.69966 7.36443 4.70736 7.36939C4.93068 7.51317 5.38146 7.6423 5.96346 7.73682C6.54408 7.83113 7.2514 7.89042 7.98466 7.89666C8.71761 7.90133 9.49743 7.83582 10.1163 7.7341C10.4259 7.68322 10.6945 7.6234 10.8966 7.55902C10.9977 7.52681 11.0815 7.49367 11.1452 7.46026C11.2097 7.42646 11.2506 7.39392 11.2697 7.36436C11.2756 7.35522 11.2867 7.35094 11.2972 7.35376ZM4.71882 7.67063C5.02488 7.83296 5.516 7.95572 6.09389 8.03949C6.67731 8.12406 7.34645 8.16854 7.99712 8.17478C8.58968 8.17633 9.27128 8.1311 9.87672 8.04728C10.4735 7.96466 10.9928 7.845 11.2806 7.69749L11.2685 7.4393C11.242 7.46207 11.2081 7.48377 11.1684 7.50455C11.1012 7.5398 11.0144 7.57397 10.9118 7.60666C10.7065 7.67206 10.4352 7.73235 10.1244 7.78343C9.50273 7.88562 8.72007 7.95135 7.98429 7.94665L7.98424 7.94665C7.24875 7.94039 6.53888 7.88093 5.95544 7.78618C5.40392 7.6966 4.96185 7.57496 4.71882 7.43487V7.67063Z" fill="black"/>
<path fill-rule="evenodd" clip-rule="evenodd" d="M11.3375 7.64043V7.71855C11.25 7.82481 10.7062 7.98106 10.025 8.09356C9.34819 8.19084 8.66499 8.23681 7.98125 8.23106C7.33291 8.23658 6.68512 8.19165 6.04375 8.09668C5.56517 8.04138 5.09753 7.91499 4.65625 7.72168V7.63105C4.95937 7.83106 5.77812 7.98105 6.05312 8.02481C6.54687 8.09981 7.18125 8.15606 7.98125 8.15606C8.82187 8.15606 9.49375 8.09668 10.0125 8.01856C10.5031 7.94668 11.2 7.76231 11.3375 7.64043V7.64043ZM11.3375 7.35918V7.4373C11.25 7.54043 10.7062 7.69668 10.025 7.80918C9.34827 7.90751 8.66507 7.95452 7.98125 7.94981C7.33296 7.95362 6.6853 7.9087 6.04375 7.81543C5.56517 7.76013 5.09753 7.63373 4.65625 7.44043V7.34668C4.95937 7.5498 5.78125 7.69668 6.05312 7.74043C6.69151 7.83394 7.33607 7.87886 7.98125 7.87481C8.82187 7.87481 9.49687 7.81231 10.0125 7.73418C10.5031 7.66543 11.2 7.48105 11.3375 7.35918V7.35918ZM7.99375 9.50918C6.56875 9.50293 5.34688 9.12168 5.0875 9.05918L5.275 9.35293C6.15153 9.66338 7.07648 9.81471 8.00625 9.79981C9.09063 9.76856 10.0375 9.68418 10.7031 9.35918L10.8969 9.05293C10.4438 9.26856 8.89687 9.50918 7.99062 9.50918" fill="#FFFF00"/>
<path fill-rule="evenodd" clip-rule="evenodd" d="M4.64446 7.3246C4.6526 7.32025 4.66247 7.32075 4.67014 7.32589C4.81752 7.42464 5.09456 7.51133 5.3723 7.57901C5.64862 7.64634 5.92122 7.69386 6.0569 7.7157C6.69397 7.80901 7.33721 7.85383 7.98107 7.84978C8.82045 7.84978 9.49435 7.78737 10.0087 7.70944C10.2528 7.67523 10.5489 7.61215 10.8007 7.54248C10.9266 7.50765 11.0411 7.47127 11.1325 7.43616C11.2249 7.40061 11.2903 7.36758 11.3209 7.34045L11.3375 7.35916H11.3625V7.43728C11.3625 7.4432 11.3604 7.44894 11.3565 7.45345C11.3429 7.46953 11.322 7.48494 11.2965 7.49984C11.2707 7.51494 11.2385 7.53042 11.2009 7.54614C11.1257 7.57757 11.0273 7.61059 10.9107 7.64375C10.6776 7.71008 10.3704 7.77746 10.029 7.83382C9.35112 7.93233 8.66624 7.9795 7.98121 7.97478C7.33185 7.9786 6.68311 7.93361 6.04049 7.8402C5.55957 7.78459 5.08964 7.65756 4.64619 7.4633C4.6371 7.45932 4.63123 7.45033 4.63123 7.44041V7.34666C4.63123 7.33742 4.63631 7.32895 4.64446 7.3246ZM11.3125 7.40766C11.2719 7.43233 11.2159 7.45765 11.1504 7.48283C11.0571 7.51872 10.9409 7.55558 10.8141 7.59067C10.5605 7.66084 10.2626 7.72435 10.0161 7.75889C9.49924 7.8372 8.82306 7.89978 7.98131 7.89978C7.33488 7.90384 6.68909 7.85883 6.04948 7.76514C5.91322 7.74322 5.63871 7.69538 5.36046 7.62759C5.10521 7.56539 4.84272 7.4855 4.68123 7.39165V7.42403C5.11583 7.61266 5.5759 7.73618 6.0466 7.79057C6.68691 7.88366 7.33404 7.92859 7.98108 7.92478C8.66356 7.92949 9.34574 7.88258 10.0211 7.78445C10.361 7.72832 10.6662 7.66134 10.897 7.59566C11.0125 7.56279 11.109 7.53039 11.1816 7.50001C11.218 7.48481 11.248 7.47029 11.2713 7.45667C11.2901 7.44567 11.3036 7.43581 11.3125 7.42734V7.40766ZM4.64438 7.60902C4.65248 7.60466 4.66232 7.6051 4.66999 7.61016C4.81746 7.70746 5.09384 7.79416 5.37117 7.86222C5.64717 7.92996 5.91983 7.97826 6.05694 8.00008C6.54936 8.07487 7.18245 8.13103 7.98123 8.13103C8.82067 8.13103 9.4913 8.07174 10.0088 7.99381C10.2529 7.95804 10.5489 7.89419 10.8007 7.82413C10.9266 7.7891 11.0411 7.75263 11.1324 7.71747C11.2249 7.68187 11.2903 7.64883 11.3209 7.6217L11.3375 7.64041H11.3625V7.71853C11.3625 7.72433 11.3605 7.72995 11.3568 7.73442C11.3432 7.75096 11.3222 7.76677 11.2967 7.782C11.2708 7.79744 11.2386 7.8132 11.201 7.82914C11.1258 7.86104 11.0273 7.89437 10.9108 7.92772C10.6776 7.99446 10.3704 8.06183 10.029 8.1182C9.35106 8.21565 8.66616 8.26178 7.98123 8.25603C7.33179 8.26155 6.68291 8.21656 6.04046 8.12145C5.55955 8.06583 5.08963 7.9388 4.64619 7.74456C4.6371 7.74057 4.63123 7.73158 4.63123 7.72166V7.63103C4.63123 7.62183 4.63628 7.61338 4.64438 7.60902ZM11.3125 7.68891C11.2719 7.71358 11.2159 7.73891 11.1504 7.76413C11.0571 7.80006 10.9409 7.83702 10.8141 7.8723C10.5605 7.94287 10.2626 8.00716 10.0161 8.04326C9.4961 8.12158 8.82299 8.18103 7.98123 8.18103C7.18005 8.18103 6.54441 8.1247 6.04935 8.0495C5.91143 8.02756 5.63709 7.97897 5.35925 7.91078C5.10427 7.8482 4.84252 7.76827 4.68123 7.6757V7.63103H4.65623L4.64246 7.6519C4.65462 7.65992 4.66756 7.66785 4.68123 7.6757V7.70528C4.67623 7.70312 4.67124 7.70094 4.66626 7.69876L4.65623 7.72166H4.68123V7.70528C5.11583 7.89391 5.5759 8.01743 6.0466 8.07182C6.68668 8.1666 7.33397 8.21155 7.98101 8.20603C8.66341 8.21177 9.34569 8.1659 10.0212 8.06882C10.361 8.01269 10.6662 7.94571 10.897 7.87965C11.0125 7.8466 11.1089 7.81391 11.1815 7.78311C11.2178 7.76771 11.2478 7.75295 11.2711 7.73907C11.2901 7.72775 11.3036 7.71758 11.3125 7.70883V7.71853H11.3375L11.3182 7.70264C11.3166 7.70461 11.3147 7.70668 11.3125 7.70883V7.68891ZM10.9156 9.03632C10.9229 9.04465 10.9239 9.05686 10.918 9.06627L10.716 9.38555L10.7141 9.38162C10.0429 9.70932 9.09076 9.79354 8.00695 9.82477C7.0742 9.83973 6.14597 9.68791 5.26663 9.37647C5.26138 9.37461 5.2569 9.37105 5.2539 9.36636L5.0664 9.07261C5.06092 9.06401 5.0612 9.05294 5.06712 9.04464C5.07304 9.03634 5.08342 9.03246 5.09333 9.03485C5.12527 9.04255 5.17156 9.055 5.23081 9.07094C5.65552 9.1852 6.74636 9.47865 7.99358 9.48416C8.44468 9.48389 9.05511 9.42399 9.60978 9.33719C10.1668 9.25003 10.6633 9.13637 10.8861 9.03033C10.8962 9.02555 10.9082 9.02799 10.9156 9.03632ZM7.98958 9.53414C7.98992 9.53415 7.99026 9.53416 7.9906 9.53416C7.99156 9.53416 7.99252 9.53416 7.99349 9.53416M7.98958 9.53414C6.73654 9.52802 5.64045 9.23299 5.21746 9.11914C5.18953 9.11162 5.16454 9.10489 5.14262 9.09909L5.29142 9.3322C6.16269 9.6397 7.08179 9.78958 8.00566 9.77479C9.08705 9.74362 10.026 9.65952 10.6858 9.33979L10.8326 9.10765C10.5786 9.20714 10.1196 9.30803 9.61751 9.38659C9.0615 9.4736 8.44802 9.53386 7.99349 9.53416C7.99337 9.53416 7.9936 9.53416 7.99349 9.53416" fill="black"/>
<path fill-rule="evenodd" clip-rule="evenodd" d="M10.7781 9.29058C10.7497 9.33274 10.7205 9.37441 10.6906 9.41558C10.3781 9.52808 9.87812 9.64683 9.67188 9.67808C9.11843 9.7812 8.55672 9.83351 7.99375 9.83433C6.73125 9.81558 5.69688 9.5687 5.2125 9.3562L5.17188 9.29058L5.17812 9.27808L5.24375 9.3062C6.13314 9.60051 7.0632 9.75342 8 9.75933C8.5875 9.75933 9.17188 9.6937 9.64375 9.60933C10.3688 9.46245 10.6625 9.35308 10.7531 9.30308L10.775 9.29058H10.7781ZM10.9438 9.01558C10.9232 9.05218 10.9023 9.08864 10.8813 9.12495C10.7125 9.18745 10.2562 9.3187 9.59062 9.41245C9.15312 9.47183 8.88125 9.5312 8.00937 9.54683C7.01269 9.53682 6.02214 9.3896 5.06563 9.10933L5.03125 9.0312C6.00308 9.29979 7.00448 9.44675 8.0125 9.4687C8.80937 9.45308 9.15 9.3937 9.58438 9.33433C10.3594 9.21558 10.75 9.08433 10.8656 9.04995C10.8657 9.04787 10.8657 9.04578 10.8656 9.0437L10.9469 9.01245L10.9438 9.01558Z" fill="#FFFF00"/>
<path fill-rule="evenodd" clip-rule="evenodd" d="M10.9678 8.9988C10.9742 9.0087 10.9729 9.02175 10.9645 9.0301C10.9444 9.0658 10.9234 9.10206 10.9028 9.13749C10.8999 9.14251 10.8954 9.14636 10.8899 9.14837C10.7191 9.21163 10.2611 9.34325 9.59409 9.43719C9.52641 9.44637 9.46253 9.45558 9.39987 9.46461C9.05767 9.51395 8.74816 9.55857 8.0098 9.5718C7.01082 9.56177 6.01729 9.41422 5.05857 9.1333C5.05149 9.13122 5.04569 9.12613 5.04272 9.11937L5.00834 9.04125C5.00446 9.03241 5.006 9.02213 5.01232 9.01483C5.01863 9.00753 5.02858 9.00451 5.03789 9.00708C6.00755 9.27508 7.00672 9.42173 8.0125 9.44367C8.72093 9.42976 9.06749 9.38125 9.44188 9.32885C9.48753 9.32246 9.53359 9.31601 9.58076 9.30956C10.2861 9.20148 10.6719 9.08311 10.8217 9.03714C10.8301 9.03458 10.8377 9.03225 10.8446 9.03015C10.8474 9.02579 10.8515 9.0223 10.8566 9.02035L10.9379 8.9891C10.9489 8.98486 10.9614 8.98891 10.9678 8.9988ZM10.8889 9.06149L10.8875 9.06206C10.8844 9.06765 10.8791 9.07198 10.8727 9.07389C10.8626 9.0769 10.8504 9.08066 10.8359 9.08508C10.6854 9.13126 10.297 9.2504 9.58814 9.35902C9.54097 9.36546 9.49448 9.37197 9.44879 9.37837C9.07369 9.43087 8.72473 9.47972 8.01297 9.49367L8.01193 9.4937C7.01936 9.47208 6.03319 9.32949 5.07525 9.06917L5.08379 9.08858C6.03454 9.36606 7.01886 9.51183 8.00925 9.5218C8.74424 9.50862 9.05131 9.46435 9.39282 9.41511C9.45551 9.40607 9.51937 9.39687 9.58724 9.38766C10.2406 9.29563 10.6909 9.1675 10.8641 9.10457C10.8724 9.09023 10.8807 9.07587 10.8889 9.06149ZM5.15574 9.26687C5.16166 9.25503 5.17578 9.24986 5.18795 9.25508L5.25259 9.28278C6.13916 9.57604 7.06626 9.7284 8.00006 9.7343C8.58568 9.7343 9.16841 9.66888 9.63904 9.58475C10.3634 9.43798 10.6538 9.32925 10.7409 9.28126C10.7409 9.28123 10.7408 9.28129 10.7409 9.28126L10.775 9.26176V9.26555H10.7781C10.7873 9.26555 10.7958 9.27066 10.8002 9.27882C10.8045 9.28698 10.804 9.29688 10.7988 9.30454C10.7702 9.34694 10.7409 9.38884 10.7108 9.43024C10.7079 9.4343 10.7038 9.43738 10.6991 9.43908C10.3852 9.55207 9.88406 9.67113 9.67601 9.70271C9.12121 9.80606 8.55811 9.85848 7.99376 9.8593C6.72889 9.84052 5.69063 9.59325 5.20243 9.37907C5.1978 9.37704 5.19388 9.37364 5.19122 9.36934L5.15059 9.30371C5.14603 9.29634 5.14561 9.28713 5.14949 9.27937L5.15574 9.26687ZM10.7039 9.35409C10.5655 9.41291 10.2583 9.51031 9.64869 9.63381C9.17564 9.71839 8.58921 9.7843 7.99998 9.7843C7.06056 9.77838 6.12774 9.62505 5.23587 9.32991L5.23384 9.32924L5.222 9.32407L5.22963 9.33639C5.71316 9.54651 6.74004 9.79066 7.99389 9.8093C8.55527 9.80847 9.11539 9.75631 9.66727 9.65348C9.8704 9.6227 10.3635 9.50578 10.6749 9.39463C10.6846 9.38117 10.6943 9.36766 10.7039 9.35409Z" fill="black"/>
<path fill-rule="evenodd" clip-rule="evenodd" d="M10.9625 7.425C10.9656 8.3625 10.4844 9.20625 10.1 9.575C9.53227 10.1287 8.77414 10.444 7.98123 10.4563C7.03436 10.4719 6.14373 9.85625 5.90311 9.58438C5.3648 9.01352 5.05843 8.26262 5.04373 7.47813C5.09998 6.45313 5.50311 5.74062 6.08436 5.25C6.64899 4.78518 7.35928 4.53403 8.0906 4.54063C8.51752 4.56132 8.9354 4.67097 9.31747 4.86255C9.69955 5.05412 10.0374 5.3234 10.3094 5.65312C10.7 6.12812 10.8719 6.64375 10.9625 7.425V7.425ZM7.98748 4.21875C8.8617 4.21873 9.70047 4.56429 10.321 5.1801C10.9415 5.79592 11.2934 6.63206 11.3 7.50625C11.3 7.94002 11.2145 8.36955 11.0485 8.7703C10.8825 9.17105 10.6392 9.53519 10.3325 9.84191C10.0258 10.1486 9.66166 10.3919 9.26091 10.5579C8.86015 10.7239 8.43063 10.8094 7.99685 10.8094C7.56308 10.8094 7.13356 10.7239 6.7328 10.5579C6.33205 10.3919 5.96792 10.1486 5.66119 9.84191C5.35447 9.53519 5.11116 9.17105 4.94517 8.7703C4.77917 8.36955 4.69373 7.94002 4.69373 7.50625C4.69061 5.69375 6.17186 4.21875 7.98748 4.21875" fill="#FFFF00"/>
<path fill-rule="evenodd" clip-rule="evenodd" d="M7.99695 4.20312C9.8157 4.20312 11.2969 5.68438 11.2969 7.50313C11.2969 9.32188 9.8157 10.8031 8.00007 10.8031C6.18445 10.8031 4.70007 9.32188 4.70007 7.50313C4.70007 5.68438 6.18132 4.20312 8.00007 4.20312H7.99695ZM4.76882 7.5C4.76882 9.275 6.2282 10.7281 7.99695 10.7281C9.7657 10.7281 11.2251 9.275 11.2251 7.5C11.2251 5.725 9.7657 4.27187 7.99695 4.27187C6.2282 4.27187 4.76882 5.725 4.76882 7.5Z" fill="#FFFF00"/>
<path fill-rule="evenodd" clip-rule="evenodd" d="M8.00017 4.2281C6.19523 4.2281 4.72517 5.69816 4.72517 7.5031C4.72517 9.30803 6.19834 10.7781 8.00017 10.7781C9.80197 10.7781 11.272 9.30806 11.272 7.5031C11.272 5.69816 9.80199 4.2281 7.99705 4.2281C7.98324 4.2281 7.97205 4.21691 7.97205 4.2031C7.97205 4.18939 7.98308 4.17826 7.99675 4.1781C7.99685 4.1781 7.99695 4.1781 7.99705 4.1781V4.1781C7.99757 4.1781 7.99809 4.1781 7.99861 4.1781C7.99913 4.1781 7.99965 4.1781 8.00017 4.1781V4.1781C9.8313 4.1798 11.322 5.67159 11.322 7.5031C11.322 9.33564 9.82962 10.8281 8.00017 10.8281C6.17075 10.8281 4.67517 9.33567 4.67517 7.5031C4.67517 5.67168 6.16576 4.17996 7.99675 4.1781C7.99685 4.1781 7.99695 4.1781 7.99705 4.1781H8.00017C8.01398 4.1781 8.02517 4.18929 8.02517 4.2031C8.02517 4.21691 8.01398 4.2281 8.00017 4.2281ZM4.74392 7.49998C4.74392 5.71114 6.21452 4.24685 7.99705 4.24685C9.77957 4.24685 11.2502 5.71114 11.2502 7.49998C11.2502 9.28881 9.77957 10.7531 7.99705 10.7531C6.21452 10.7531 4.74392 9.28881 4.74392 7.49998ZM7.99705 4.29685C6.24207 4.29685 4.79392 5.73881 4.79392 7.49998C4.79392 9.26114 6.24207 10.7031 7.99705 10.7031C9.75202 10.7031 11.2002 9.26114 11.2002 7.49998C11.2002 5.73881 9.75202 4.29685 7.99705 4.29685Z" fill="black"/>
<path fill-rule="evenodd" clip-rule="evenodd" d="M7.9999 4.47803C8.80059 4.4805 9.56778 4.79967 10.134 5.36584C10.7001 5.93202 11.0193 6.69921 11.0218 7.4999C11.0193 8.30088 10.7002 9.0684 10.1342 9.63507C9.56806 10.2017 8.80088 10.5216 7.9999 10.5249C6.34365 10.5249 4.97803 9.1624 4.97803 7.4999C4.98132 6.69946 5.30075 5.93275 5.86675 5.36675C6.43275 4.80075 7.19946 4.48132 7.9999 4.47803V4.47803ZM5.0499 7.4999C5.0499 9.1249 6.38115 10.4499 7.9999 10.4499C9.61865 10.4499 10.9499 9.12178 10.9499 7.4999C10.9499 5.8749 9.61865 4.5499 7.9999 4.5499C7.21853 4.55319 6.47009 4.86505 5.91757 5.41757C5.36505 5.97009 5.05319 6.71853 5.0499 7.4999V7.4999Z" fill="#FFFF00"/>
<path fill-rule="evenodd" clip-rule="evenodd" d="M10.1163 5.3835C9.55477 4.82201 8.79394 4.50548 7.99989 4.503C7.20608 4.50629 6.44572 4.82309 5.8844 5.3844C5.32308 5.94573 5.00628 6.7061 5.003 7.49993C5.00303 9.1486 6.35745 10.4999 7.99988 10.4999C8.79422 10.4966 9.55504 10.1794 10.1164 9.61738C10.6778 9.05539 10.9943 8.29423 10.9968 7.49988C10.9943 6.70582 10.6777 5.94499 10.1163 5.3835ZM7.99988 4.478L7.99995 4.453C8.80725 4.4555 9.58077 4.7773 10.1516 5.34814C10.7225 5.91899 11.0443 6.69251 11.0468 7.4998L11.0468 7.49995C11.0443 8.30753 10.7226 9.08137 10.1518 9.65271C9.58106 10.2241 8.80756 10.5466 7.99998 10.5499L7.99988 10.5499C6.32982 10.5499 4.953 9.17618 4.953 7.49988L4.953 7.49977C4.95632 6.69274 5.27838 5.91971 5.84905 5.34905C6.41971 4.77838 7.19274 4.45632 7.99977 4.453L7.99988 4.478ZM7.99988 4.52488C9.6324 4.52488 10.9749 5.86104 10.9749 7.49988C10.9749 9.13558 9.63242 10.4749 7.99988 10.4749C6.36735 10.4749 5.02488 9.13872 5.02488 7.49988H5.04991L5.02488 7.49977C5.0282 6.7118 5.34269 5.95705 5.89987 5.39987C6.45705 4.84269 7.2118 4.5282 7.99977 4.52488L7.99988 4.52488ZM5.07488 7.49993C5.07491 9.11106 6.39492 10.4249 7.99988 10.4249C9.60484 10.4249 10.9249 9.10793 10.9249 7.49988C10.9249 5.88874 9.60488 4.57491 7.99993 4.57488C7.22517 4.57815 6.48307 4.88738 5.93523 5.43522C5.38738 5.98307 5.07815 6.72517 5.07488 7.49993Z" fill="black"/>
<path fill-rule="evenodd" clip-rule="evenodd" d="M8.13447 4.1875H7.8501V10.8219H8.13134L8.13447 4.1875Z" fill="#FFFF00"/>
<path fill-rule="evenodd" clip-rule="evenodd" d="M7.82507 4.18748C7.82507 4.17367 7.83627 4.16248 7.85007 4.16248H8.13444C8.14108 4.16248 8.14744 4.16511 8.15213 4.1698C8.15682 4.17449 8.15945 4.18085 8.15944 4.18749L8.15632 10.8219C8.15631 10.8357 8.14512 10.8469 8.13132 10.8469H7.85007C7.83627 10.8469 7.82507 10.8357 7.82507 10.8219V4.18748ZM7.87507 4.21248V10.7969H8.10633L8.10943 4.21248H7.87507Z" fill="black"/>
<path fill-rule="evenodd" clip-rule="evenodd" d="M8.10303 4.1499H8.1749V10.8593H8.10615V4.1499H8.10303ZM7.82178 4.1499H7.89678V10.8593H7.8249V4.1499H7.82178Z" fill="#FFFF00"/>
<path fill-rule="evenodd" clip-rule="evenodd" d="M7.79675 4.14988C7.79675 4.13607 7.80795 4.12488 7.82175 4.12488H7.89675C7.91056 4.12488 7.92175 4.13607 7.92175 4.14988V10.8593C7.92175 10.8731 7.91056 10.8843 7.89675 10.8843H7.82488C7.81107 10.8843 7.79988 10.8731 7.79988 10.8593V4.16199C7.79789 4.1584 7.79675 4.15427 7.79675 4.14988ZM7.84988 4.17488V10.8343H7.87175V4.17488H7.84988ZM8.078 4.14988C8.078 4.13607 8.0892 4.12488 8.103 4.12488H8.17488C8.18869 4.12488 8.19988 4.13607 8.19988 4.14988V10.8593C8.19988 10.8731 8.18869 10.8843 8.17488 10.8843H8.10613C8.09232 10.8843 8.08113 10.8731 8.08113 10.8593V4.16199C8.07914 4.1584 8.078 4.15427 8.078 4.14988ZM8.13113 4.17488V10.8343H8.14988V4.17488H8.13113Z" fill="black"/>
<path fill-rule="evenodd" clip-rule="evenodd" d="M11.3001 7.63125V7.3875L11.1001 7.2L9.9657 6.9L8.33445 6.73438L6.3657 6.83437L4.9657 7.16562L4.68445 7.375V7.62187L5.40007 7.3L7.10007 7.03437H8.73445L9.93445 7.16562L10.7657 7.36562L11.3001 7.63125Z" fill="#FFFF00"/>
<path fill-rule="evenodd" clip-rule="evenodd" d="M8.33707 6.70947L9.97227 6.8755L11.1196 7.17925L11.1173 7.18173L11.3173 7.36923C11.3223 7.37395 11.3252 7.38056 11.3252 7.38747V7.63122C11.3252 7.63987 11.3207 7.64791 11.3133 7.65247C11.306 7.65703 11.2968 7.65746 11.289 7.6536L10.7572 7.38924L9.93025 7.19027L8.73318 7.05934H7.10211L5.40736 7.32415L4.6948 7.64464C4.68706 7.64812 4.67809 7.64744 4.67097 7.64283C4.66385 7.63823 4.65955 7.63032 4.65955 7.62184V7.37497C4.65955 7.36707 4.66328 7.35963 4.66962 7.35491L4.95953 7.13909L4.96004 7.14126L6.36451 6.80896L8.33707 6.70947ZM6.36934 6.8592L4.97658 7.18873L4.70955 7.38752V7.58318L5.39617 7.27436L7.10017 7.00904L8.73728 7.00934L9.94044 7.14109L10.7772 7.34263L11.2752 7.59087V7.3983L11.0877 7.22252L9.96131 6.92464L8.33391 6.75941L6.36934 6.8592Z" fill="black"/>
<path fill-rule="evenodd" clip-rule="evenodd" d="M8 6.99354C8.77812 6.99354 9.53125 7.06542 10.1344 7.18104C10.7531 7.30604 11.1875 7.46229 11.3375 7.63417V7.72167C11.1562 7.50292 10.5719 7.34667 10.1187 7.25292C9.525 7.14042 8.775 7.06542 7.99687 7.06542C7.18125 7.06542 6.41875 7.14667 5.83125 7.25917C5.3625 7.35292 4.73438 7.54042 4.65625 7.72167V7.63104C4.69687 7.50604 5.16563 7.31854 5.82188 7.18417C6.4125 7.06854 7.175 6.99354 7.99687 6.99354H8ZM8 6.70917C8.71563 6.70773 9.42995 6.77049 10.1344 6.89667C10.7531 7.02167 11.1875 7.17792 11.3375 7.35292V7.43729C11.1562 7.22167 10.5719 7.06229 10.1187 6.97167C9.525 6.85604 8.775 6.78417 7.99687 6.78417C7.27161 6.78187 6.54768 6.84673 5.83437 6.97792C5.38125 7.06229 4.72812 7.25604 4.65625 7.43729V7.34979C4.7 7.22479 5.175 7.02792 5.82188 6.90292C6.41563 6.78729 7.175 6.70917 8 6.70917V6.70917ZM7.98125 5.26542C9.20937 5.25917 10.2813 5.43729 10.7719 5.68729L10.95 5.99979C10.525 5.76854 9.36875 5.53104 7.98438 5.56229C6.85625 5.57167 5.65 5.68729 5.04688 6.01229L5.25938 5.65604C5.75625 5.39667 6.925 5.26542 7.98125 5.26542" fill="#FFFF00"/>
<path fill-rule="evenodd" clip-rule="evenodd" d="M9.64926 5.40506C9.1679 5.33029 8.59424 5.2874 7.98135 5.29052C7.98131 5.29052 7.9814 5.29052 7.98135 5.29052C7.45416 5.29052 6.89891 5.32328 6.41385 5.38834C5.93202 5.45297 5.52223 5.54912 5.27717 5.67506L5.11239 5.95132C5.41512 5.80798 5.83878 5.70931 6.31534 5.64426C6.83464 5.57338 7.41929 5.54209 7.98396 5.53739C8.6776 5.52175 9.31424 5.57341 9.83097 5.65803C10.2926 5.73362 10.6603 5.83579 10.8875 5.94073L10.7539 5.7063C10.5116 5.58452 10.1268 5.47924 9.64926 5.40506ZM7.98116 5.24052C7.45213 5.24052 6.89478 5.27338 6.4072 5.33878C5.92049 5.40407 5.50035 5.50214 5.24778 5.63398L5.24576 5.63012L5.02538 5.99958C5.01962 6.00924 5.02102 6.02156 5.02879 6.02968C5.03657 6.0378 5.04881 6.03973 5.05871 6.0344C5.35619 5.8741 5.80486 5.76441 6.32211 5.6938C6.8387 5.62329 7.42117 5.59207 7.98456 5.58739C8.67523 5.5718 9.3092 5.62325 9.82289 5.70738C10.3373 5.79162 10.7293 5.90827 10.938 6.02185C10.9478 6.02719 10.96 6.02537 10.9678 6.01739C10.9756 6.00942 10.9772 5.99722 10.9717 5.98751L10.7936 5.67501C10.7912 5.67077 10.7875 5.66733 10.7832 5.66512C10.5344 5.53832 10.1407 5.4308 9.65694 5.35566C9.17269 5.28043 8.59638 5.23739 7.98116 5.24052ZM10.1297 6.92133C9.42681 6.79544 8.71407 6.73284 8.00003 6.73427C7.1765 6.73427 6.41868 6.81226 5.82663 6.92756C5.50433 6.98984 5.22535 7.06994 5.022 7.14973C4.92025 7.18965 4.8381 7.22924 4.77909 7.26611C4.74958 7.28455 4.72641 7.30198 4.7096 7.31802C4.69441 7.3325 4.68555 7.34479 4.68123 7.35461V7.36067C4.68478 7.35721 4.68847 7.35379 4.69228 7.3504C4.71961 7.32607 4.75435 7.30234 4.79447 7.27933C4.87471 7.23332 4.97879 7.18889 5.09392 7.14783C5.32432 7.06566 5.6022 6.99582 5.82977 6.95344C6.54459 6.82198 7.27009 6.75697 7.99689 6.75927C8.77639 6.75927 9.528 6.83126 10.1235 6.94723C10.3506 6.99266 10.6114 7.05544 10.8382 7.13408C10.9517 7.1734 11.0572 7.21686 11.1461 7.26437C11.2109 7.299 11.2677 7.33623 11.3125 7.37621V7.36246C11.24 7.28241 11.1013 7.20376 10.9029 7.12956C10.7 7.05365 10.4382 6.98367 10.1297 6.92133ZM10.1139 6.9963C10.3399 7.04149 10.598 7.10373 10.8219 7.18133C10.9338 7.22013 11.0367 7.26261 11.1225 7.30847C11.2086 7.35449 11.276 7.40308 11.3183 7.45348C11.3251 7.46152 11.3362 7.46448 11.346 7.46088C11.3559 7.45728 11.3625 7.4479 11.3625 7.43739V7.35302C11.3625 7.34705 11.3603 7.34128 11.3565 7.33675C11.2771 7.24415 11.1258 7.15954 10.9205 7.08273C10.7141 7.00553 10.4494 6.93491 10.1393 6.87226C9.43342 6.74582 8.71709 6.68283 7.99998 6.68427M7.99685 7.01864C7.17641 7.01864 6.41558 7.09352 5.82676 7.20878C5.49962 7.27577 5.21983 7.35588 5.01722 7.43453C4.91583 7.47388 4.83449 7.51259 4.77641 7.54871C4.74736 7.56677 4.72472 7.58383 4.70842 7.59956C4.69362 7.61383 4.6852 7.62591 4.68123 7.63555V7.64623C4.71067 7.61758 4.74967 7.59035 4.79437 7.56457C4.87337 7.51899 4.97539 7.47506 5.08876 7.43419C5.31564 7.3524 5.59113 7.28179 5.82632 7.23475C6.4154 7.12195 7.17968 7.04052 7.99685 7.04052C8.77645 7.04052 9.52801 7.11565 10.1234 7.22845C10.3504 7.27542 10.6114 7.33826 10.8382 7.4169C10.9517 7.45622 11.0572 7.49968 11.1461 7.5474C11.2109 7.58216 11.2677 7.61963 11.3125 7.66004V7.64384C11.24 7.56522 11.1012 7.48734 10.903 7.41356C10.7 7.33801 10.4381 7.26802 10.1295 7.20567C9.52813 7.09039 8.77664 7.01864 7.99998 7.01864H7.99685ZM5.81705 7.15973C6.40946 7.04376 7.17359 6.96864 7.99685 6.96864H7.99998C8.7795 6.96864 9.53422 7.04064 10.1391 7.15659C10.4492 7.21924 10.7141 7.2899 10.9204 7.3667C11.1257 7.44311 11.277 7.5269 11.3563 7.61783C11.3603 7.62238 11.3625 7.62822 11.3625 7.63427V7.72177C11.3625 7.73231 11.3559 7.74171 11.346 7.74529C11.336 7.74886 11.3249 7.74583 11.3182 7.73772C11.2759 7.6866 11.2086 7.63765 11.1225 7.59145C11.0367 7.54542 10.9338 7.50294 10.8219 7.46414C10.598 7.38655 10.3399 7.32432 10.1139 7.27754C9.52177 7.16537 8.77341 7.09052 7.99685 7.09052C7.18282 7.09052 6.42194 7.17161 5.83603 7.2838C5.6025 7.33051 5.32959 7.40052 5.10572 7.48122C4.9937 7.5216 4.89475 7.56438 4.81935 7.60788C4.74258 7.65216 4.69523 7.69443 4.67918 7.73166C4.67449 7.74255 4.66279 7.74865 4.65117 7.74625C4.63956 7.74386 4.63123 7.73363 4.63123 7.72177V7.62302L4.63245 7.62342C4.63931 7.6023 4.65427 7.58232 4.6737 7.56357C4.69337 7.5446 4.71914 7.52544 4.75001 7.50625C4.81175 7.46786 4.89623 7.42785 4.99913 7.38791C5.2051 7.30797 5.48798 7.22711 5.81705 7.15973Z" fill="black"/>
<path fill-rule="evenodd" clip-rule="evenodd" d="M7.9999 5.52173C8.64113 5.51091 9.28209 5.55587 9.91553 5.65611C10.4155 5.74986 10.8937 5.88736 10.9624 5.96236L11.0155 6.05611C10.8499 5.94986 10.4343 5.82798 9.90303 5.72798C9.37178 5.62798 8.69365 5.59361 7.99678 5.59673C7.20615 5.59361 6.59053 5.63423 6.06553 5.72798C5.70362 5.7787 5.35225 5.88739 5.0249 6.04986L5.07803 5.95298C5.26553 5.85923 5.55615 5.74361 6.0499 5.65298C6.59678 5.55298 7.21865 5.52486 7.9999 5.52173V5.52173ZM7.9999 5.24048C8.66865 5.23423 9.33115 5.27173 9.84678 5.36548C10.1808 5.41508 10.5041 5.52073 10.803 5.67798L10.8812 5.80298C10.7499 5.65611 10.2562 5.51548 9.81553 5.44048C9.30303 5.34986 8.66865 5.31548 7.9999 5.30923C7.37738 5.30368 6.75546 5.34967 6.14053 5.44673C5.81899 5.49153 5.5067 5.58754 5.21553 5.73111L5.28428 5.62798C5.46553 5.53423 5.75928 5.44673 6.12803 5.37486C6.74702 5.27652 7.37319 5.23053 7.9999 5.23736V5.24048ZM9.6374 8.87486C9.09575 8.78108 8.54638 8.73922 7.99678 8.74986C5.9499 8.77486 5.29053 9.17173 5.20928 9.29048L5.05303 9.04048C5.57803 8.66548 6.69053 8.45298 8.00928 8.47173C8.69365 8.48423 9.28428 8.53111 9.77803 8.62798L9.6374 8.87798" fill="#FFFF00"/>
<path fill-rule="evenodd" clip-rule="evenodd" d="M6.13236 5.39945C5.76838 5.47042 5.47988 5.55627 5.30145 5.64723L5.28646 5.66972C5.55628 5.54648 5.84272 5.46298 6.13683 5.42198C6.75306 5.32473 7.37627 5.27865 8.0001 5.28421C8.66925 5.29046 9.30524 5.32485 9.81978 5.41583C10.0409 5.45347 10.2757 5.50763 10.472 5.57096C10.5702 5.60263 10.6591 5.63673 10.7322 5.67244C10.7521 5.68217 10.771 5.69211 10.7887 5.70223L10.7854 5.69695C10.4907 5.54274 10.1721 5.43904 9.84308 5.39019C9.32962 5.29683 8.66805 5.25921 8.00011 5.26546C7.99567 5.2655 7.99135 5.26436 7.98755 5.26221C7.36641 5.25611 6.74585 5.30202 6.13236 5.39945ZM8.0118 5.21535C8.00833 5.21347 8.00437 5.21238 8.00015 5.21233C7.37203 5.20549 6.74446 5.25159 6.12408 5.35014C5.75467 5.42214 5.45724 5.51033 5.27277 5.60575L5.27113 5.60258L5.1947 5.71721C5.18843 5.72662 5.18925 5.73907 5.19672 5.74757C5.20418 5.75607 5.21641 5.75851 5.22656 5.7535C5.51534 5.61112 5.82506 5.5159 6.14395 5.47147C6.75753 5.37462 7.37851 5.32867 7.99966 5.33421C8.66797 5.34045 9.3007 5.37481 9.81115 5.46508C10.0306 5.50243 10.2631 5.55611 10.4567 5.61855C10.5534 5.64977 10.64 5.68305 10.7102 5.71736C10.781 5.75193 10.8329 5.78655 10.8625 5.81961C10.8711 5.82929 10.8858 5.83074 10.8961 5.82295C10.9065 5.81516 10.9092 5.80071 10.9023 5.78971L10.8242 5.66471L10.8275 5.66262L10.8146 5.65583C10.5134 5.49733 10.1875 5.39082 9.85083 5.34079C9.33624 5.24727 8.67707 5.20966 8.0118 5.21535ZM9.91125 5.68072C9.27935 5.58075 8.63996 5.53591 8.0003 5.5467C7.21934 5.54983 6.59898 5.57797 6.05439 5.67755C5.56893 5.76665 5.28166 5.87983 5.09616 5.97184L5.08433 5.99341C5.39366 5.8486 5.72304 5.75076 6.06157 5.70326C6.58849 5.60921 7.2056 5.56858 7.99675 5.57171C8.69415 5.56858 9.37409 5.60296 9.90763 5.70339C10.1738 5.7535 10.4114 5.80915 10.6034 5.86569C10.7454 5.90751 10.8637 5.95015 10.9504 5.99191L10.9422 5.97743C10.936 5.97138 10.9245 5.96328 10.9063 5.95349C10.8868 5.94298 10.8615 5.93149 10.8308 5.91924C10.7696 5.89475 10.6886 5.86786 10.5937 5.84024C10.404 5.78506 10.1605 5.72746 9.91125 5.68072ZM7.99962 5.49671C7.21817 5.49984 6.5945 5.52795 6.04538 5.62836C5.54947 5.71939 5.25656 5.83573 5.06682 5.9306C5.06227 5.93287 5.05853 5.93648 5.05608 5.94094L5.00296 6.03781C4.99771 6.04739 4.99928 6.05926 5.00684 6.06714C5.01441 6.07502 5.02621 6.07708 5.03599 6.07223C5.36093 5.91095 5.70973 5.80306 6.06897 5.75271C6.59193 5.65933 7.20683 5.61858 7.99666 5.62171C8.69296 5.61858 9.36945 5.65296 9.89838 5.75253C10.1634 5.80242 10.3993 5.8577 10.5893 5.91366C10.78 5.96981 10.9224 6.02605 11.002 6.07712C11.0117 6.08333 11.0243 6.08214 11.0327 6.07424C11.041 6.06633 11.0429 6.05376 11.0373 6.04376L10.9841 5.95001L10.9808 5.94544C10.9693 5.93288 10.9513 5.92093 10.93 5.90948C10.9083 5.89775 10.881 5.88546 10.8494 5.87281C10.786 5.84749 10.7034 5.82009 10.6076 5.79223C10.4161 5.7365 10.1708 5.67851 9.92011 5.63151C9.28529 5.53106 8.64224 5.48587 7.99962 5.49671ZM5.08677 9.04732L5.21257 9.2486C5.24472 9.21715 5.29934 9.17869 5.37977 9.13718C5.48689 9.08191 5.64261 9.01981 5.85933 8.96086C6.29277 8.84298 6.97151 8.73736 7.99636 8.72483C8.54218 8.71428 9.08777 8.75534 9.62584 8.84748L9.73921 8.64593C9.25441 8.55388 8.67682 8.5089 8.00885 8.4967C7.35084 8.48735 6.74478 8.5357 6.23819 8.63298C5.74345 8.72797 5.34567 8.86923 5.08677 9.04732ZM9.6218 8.89751C9.62283 8.89833 9.62394 8.89908 9.62512 8.89975C9.63716 8.90651 9.6524 8.90225 9.65917 8.89021L9.79979 8.64021C9.80373 8.63322 9.80407 8.62477 9.8007 8.61748C9.79734 8.6102 9.79069 8.60497 9.78282 8.60342C9.28705 8.50615 8.6948 8.45922 8.00971 8.44671C7.34899 8.43732 6.73934 8.48583 6.22876 8.58387C5.71873 8.6818 5.30525 8.82955 5.03847 9.02011C5.02772 9.02779 5.0248 9.0425 5.0318 9.05371L5.18805 9.30371C5.19252 9.31086 5.2003 9.31528 5.20874 9.31545C5.21717 9.31562 5.22512 9.31153 5.22989 9.30457C5.24653 9.28025 5.29825 9.23551 5.4027 9.18162C5.50603 9.1283 5.65831 9.06735 5.87246 9.00911C6.30073 8.89263 6.97508 8.78731 7.99706 8.77483C8.54125 8.7643 9.08538 8.80538 9.6218 8.89751Z" fill="black"/>
<path fill-rule="evenodd" clip-rule="evenodd" d="M7.98757 8.71548C8.55632 8.72486 9.11257 8.74674 9.6532 8.84674L9.6157 8.91549C9.1157 8.82173 8.5782 8.79048 7.9907 8.79048C7.23132 8.78423 6.46882 8.85611 5.8032 9.04674C5.59382 9.10611 5.24695 9.24049 5.20945 9.35299L5.17195 9.29049C5.18445 9.22174 5.3907 9.08424 5.78445 8.97799C6.54695 8.75923 7.25945 8.71861 7.98757 8.71548ZM8.01257 8.42798C8.61288 8.42737 9.21207 8.47966 9.8032 8.58423L9.76257 8.65611C9.18534 8.55022 8.59942 8.49896 8.01257 8.50298C7.25632 8.50298 6.4532 8.55923 5.72195 8.77174C5.48757 8.84049 5.0782 8.99049 5.0657 9.10611L5.0282 9.03736C5.03445 8.93111 5.38757 8.79048 5.70632 8.69986C6.4407 8.48423 7.24695 8.43111 8.01257 8.42798V8.42798Z" fill="#FFFF00"/>
<path fill-rule="evenodd" clip-rule="evenodd" d="M9.76402 8.60273C9.18565 8.50247 8.59968 8.45236 8.01264 8.45296C7.2478 8.45608 6.44435 8.50919 5.71337 8.72382C5.5547 8.76893 5.38788 8.82639 5.26059 8.88541C5.19682 8.91497 5.14397 8.94447 5.10707 8.97244C5.08862 8.98643 5.07494 8.99946 5.0659 9.01125C5.05931 9.01986 5.05578 9.02701 5.0542 9.03279L5.06412 9.05099C5.06561 9.04905 5.06715 9.04715 5.06873 9.04527C5.0834 9.02779 5.10314 9.01079 5.12599 8.99441C5.17172 8.96163 5.23307 8.92911 5.30028 8.89856C5.43491 8.83736 5.59705 8.78229 5.71491 8.74772C6.44944 8.53427 7.2553 8.47796 8.01249 8.47796C8.59494 8.47397 9.17648 8.5243 9.74956 8.6283L9.76402 8.60273ZM8.01255 8.40296C8.61432 8.40234 9.21498 8.45476 9.80756 8.55959C9.81555 8.56101 9.82235 8.56621 9.82581 8.57355C9.82927 8.58089 9.82896 8.58945 9.82497 8.59651L9.78434 8.66839C9.7791 8.67766 9.76855 8.6826 9.75806 8.68067C9.18238 8.57507 8.59802 8.52394 8.01275 8.52796C7.25747 8.52796 6.4569 8.58417 5.72897 8.79571C5.61245 8.82989 5.45273 8.88419 5.32097 8.94408C5.25497 8.97408 5.19699 9.00503 5.15512 9.03505C5.13418 9.05006 5.11804 9.06429 5.10702 9.07742C5.09585 9.09073 5.09138 9.10117 5.09056 9.10877C5.08938 9.11964 5.08129 9.12848 5.07057 9.13061C5.05985 9.13274 5.04899 9.12765 5.04375 9.11806L4.99878 9.03561L5.00324 9.03587C5.00442 9.01585 5.01358 8.99733 5.02622 8.98084C5.03893 8.96425 5.05635 8.94815 5.07687 8.9326C5.1179 8.90149 5.17442 8.87025 5.23956 8.84005C5.37006 8.77954 5.53934 8.72133 5.69939 8.67582C6.43712 8.45922 7.24618 8.40609 8.01255 8.40296ZM7.98799 8.69046C8.5569 8.69984 9.11493 8.72172 9.65775 8.82213C9.66563 8.82359 9.67233 8.82873 9.67577 8.83597C9.67922 8.8432 9.67899 8.85165 9.67515 8.85868L9.63765 8.92743C9.63246 8.93694 9.62174 8.94203 9.61109 8.94003C9.11321 8.84668 8.57742 8.81546 7.9907 8.81546C7.23283 8.80922 6.47268 8.88099 5.81008 9.07075C5.70639 9.10015 5.56858 9.14817 5.45248 9.20255C5.39438 9.22977 5.34247 9.25823 5.30314 9.28634C5.26267 9.31526 5.23985 9.34081 5.23317 9.36087C5.23008 9.37013 5.22188 9.37675 5.21218 9.37781C5.20247 9.37888 5.19304 9.3742 5.18801 9.36583L5.15051 9.30332C5.14739 9.29812 5.14627 9.29196 5.14735 9.28599C5.15207 9.26004 5.17297 9.23375 5.20095 9.20889C5.23004 9.18303 5.271 9.15505 5.32319 9.12637C5.42766 9.06895 5.57955 9.00737 5.77775 8.95388C6.54345 8.73423 7.25909 8.69359 7.98799 8.69046ZM7.98742 8.74046C7.26022 8.74359 6.55048 8.78421 5.79135 9.00199C5.59589 9.05473 5.44746 9.11512 5.34727 9.17018C5.29712 9.19775 5.25957 9.22368 5.23417 9.24626C5.2141 9.26409 5.20374 9.27798 5.19923 9.28733L5.20923 9.30401C5.22588 9.28333 5.24866 9.26381 5.27407 9.24566C5.31686 9.21508 5.37179 9.18514 5.43127 9.15728C5.55032 9.10151 5.6907 9.05263 5.79638 9.02266C6.46501 8.83117 7.22996 8.75921 7.9908 8.76546C8.57207 8.76546 9.10543 8.79601 9.60244 8.88757L9.61468 8.86512C9.08699 8.7708 8.54397 8.74964 7.98742 8.74046Z" fill="black"/>
<path fill-rule="evenodd" clip-rule="evenodd" d="M10.9187 9.07803L10.6749 9.4624L9.96553 8.83428L8.13428 7.5999L6.06553 6.46553L4.99365 6.0999L5.22178 5.6749L5.2999 5.63428L5.96553 5.7999L8.16553 6.93428L9.43428 7.73428L10.4999 8.4999L10.9343 8.9999L10.9187 9.07803Z" fill="#FFFF00"/>
<path fill-rule="evenodd" clip-rule="evenodd" d="M5.28834 5.61207C5.29375 5.60926 5.3 5.60852 5.30592 5.60999L5.97728 5.77705L8.17889 6.91303L9.44887 7.71391L10.5193 8.48303L10.9531 8.98348C10.9582 8.98932 10.9603 8.99719 10.9588 9.00478L10.9413 9.09235L10.9397 9.09139L10.696 9.47576C10.6921 9.48195 10.6856 9.4861 10.6784 9.48713C10.6711 9.48816 10.6638 9.48595 10.6583 9.48109L9.95017 8.85406L8.12123 7.62125L6.05538 6.48846L4.98556 6.12354C4.97861 6.12117 4.97305 6.11586 4.97036 6.10903C4.96767 6.10219 4.96813 6.09452 4.9716 6.08805L5.19973 5.66305C5.2021 5.65863 5.20576 5.65502 5.21022 5.6527L5.28834 5.61207ZM5.30302 5.6608L5.24013 5.6935L5.02959 6.08573L6.07771 6.44325L8.14829 7.57906L9.98223 8.81537L10.6695 9.42421L10.895 9.06854L10.9073 9.00701L10.4829 8.51848L9.42028 7.755L8.15309 6.95598L5.95664 5.82343L5.30302 5.6608Z" fill="black"/>
<path fill-rule="evenodd" clip-rule="evenodd" d="M4.95615 6.10918C5.14365 5.98418 6.5249 6.59668 7.9749 7.47168C9.41553 8.34668 10.7968 9.33418 10.6718 9.51855L10.6312 9.58418L10.6124 9.5998C10.6155 9.59668 10.6374 9.56855 10.6124 9.50293C10.5499 9.2998 9.56865 8.51855 7.94678 7.5373C6.3624 6.59668 5.04365 6.02793 4.91553 6.19043L4.95615 6.10918V6.10918ZM10.9687 9.0748C11.0874 8.8373 9.80615 7.87168 8.21553 6.93105C6.59053 6.00918 5.41553 5.46543 5.1999 5.62793L5.15615 5.71855C5.15615 5.72168 5.15615 5.7123 5.16865 5.70293C5.20615 5.67168 5.27178 5.67168 5.2999 5.67168C5.66865 5.67793 6.72178 6.1623 8.1999 7.00918C8.8499 7.38418 10.9374 8.72793 10.928 9.10293C10.928 9.13418 10.9312 9.14043 10.9187 9.15918L10.9718 9.07793L10.9687 9.0748Z" fill="#FFFF00"/>
<path fill-rule="evenodd" clip-rule="evenodd" d="M6.18926 5.84995C6.71424 6.08131 7.41509 6.4482 8.22784 6.90928C9.02371 7.37993 9.74299 7.85729 10.2483 8.24677C10.5009 8.44141 10.7009 8.61477 10.8306 8.75492C10.8953 8.82487 10.9435 8.88762 10.9718 8.94143C10.9966 8.98855 11.0089 9.03443 10.9963 9.07307C10.9975 9.0793 10.9964 9.08596 10.9927 9.09159L10.9396 9.17284L10.9186 9.15916L10.8978 9.14529M10.8988 9.14385L10.9436 9.07523C10.9436 9.07129 10.9444 9.0673 10.9463 9.0636C10.9467 9.06267 10.9472 9.0617 10.9476 9.0607C10.9479 9.06205 10.9483 9.06341 10.9486 9.06476C10.9488 9.06547 10.9489 9.06618 10.9491 9.06689L10.9508 9.06422L10.9718 9.0779L10.9541 9.09558L10.9529 9.09441C10.953 9.09735 10.9531 9.10028 10.953 9.10318M5.21473 5.65464C5.22126 5.65308 5.22769 5.65185 5.23385 5.65087C5.26041 5.64665 5.28545 5.64665 5.29955 5.64665C5.39586 5.64829 5.53467 5.68085 5.70882 5.74053C5.88358 5.80043 6.09682 5.8884 6.34433 6.00246C6.83938 6.23062 7.47289 6.56382 8.21231 6.98746C8.538 7.17536 9.22312 7.60553 9.82573 8.03568C10.127 8.25072 10.4083 8.46621 10.6138 8.65173C10.7166 8.74443 10.8011 8.83024 10.8598 8.90524C10.8892 8.94274 10.9126 8.9781 10.9285 9.01073C10.9368 9.02773 10.9434 9.04445 10.9476 9.0607C10.9551 9.0421 10.9522 9.01161 10.9275 8.96468C10.9023 8.91655 10.8574 8.85755 10.7939 8.78888C10.667 8.65178 10.4696 8.48041 10.2178 8.28638C9.71463 7.89855 8.99765 7.42261 8.20298 6.95267C7.39081 6.49192 6.69173 6.12604 6.1691 5.8957C5.90764 5.78047 5.69122 5.69957 5.52731 5.65754C5.44531 5.63651 5.37745 5.62549 5.32422 5.62443C5.27418 5.62343 5.24037 5.63131 5.21956 5.64465L5.22239 5.63877L5.19988 5.6279L5.21493 5.64787C5.21639 5.64676 5.21793 5.64569 5.21956 5.64465L5.21473 5.65464ZM5.18113 5.71853H5.15613L5.17864 5.7294L5.21473 5.65464C5.19357 5.65972 5.17128 5.66832 5.1531 5.6833C5.15328 5.68317 5.15292 5.68344 5.1531 5.6833L5.16271 5.69501C5.16244 5.69494 5.16299 5.69508 5.16271 5.69501L5.1531 5.6833C5.15328 5.68317 5.15292 5.68344 5.1531 5.6833M10.8988 9.14385C10.9025 9.13799 10.9029 9.13575 10.9031 9.13323C10.9034 9.13094 10.9034 9.12796 10.9033 9.1227C10.9033 9.12152 10.9033 9.12023 10.9032 9.11885C10.9031 9.11446 10.903 9.10908 10.903 9.1029C10.9035 9.08506 10.8976 9.06136 10.8836 9.0327C10.8697 9.00426 10.8485 8.97193 10.8205 8.93607C10.7643 8.86433 10.6822 8.78072 10.5803 8.68885C10.3769 8.50522 10.0974 8.29102 9.79668 8.07638C9.19539 7.64716 8.51169 7.21791 8.18739 7.03081C7.44868 6.60757 6.81663 6.27519 6.3234 6.04787C6.07677 5.93421 5.8652 5.84698 5.69261 5.78783C5.51953 5.72852 5.38773 5.69819 5.29967 5.69665C5.28557 5.69665 5.26403 5.69671 5.24169 5.70025C5.21878 5.70389 5.19828 5.71074 5.18464 5.72211L5.18365 5.72293C5.18215 5.72406 5.18124 5.72497 5.18075 5.72557L5.18006 5.72657C5.18009 5.72651 5.18011 5.72643 5.18006 5.72657L5.17949 5.72816C5.17943 5.72834 5.17865 5.73039 5.17723 5.73262C5.17721 5.73263 5.17724 5.73259 5.17723 5.73262C5.17672 5.73341 5.174 5.73769 5.16871 5.74076C5.16544 5.74266 5.16006 5.74475 5.15332 5.74398C5.14646 5.7432 5.14148 5.73982 5.13848 5.73681C5.13376 5.7321 5.13233 5.72681 5.13208 5.72587C5.13207 5.72584 5.13208 5.72589 5.13208 5.72587C5.1316 5.72417 5.1314 5.72271 5.13133 5.72215L5.13115 5.71973L5.13113 5.71853V5.70646L5.13362 5.70766L5.18296 5.60545L5.18483 5.60794C5.21847 5.58259 5.26727 5.57328 5.32522 5.57444C5.38386 5.57561 5.45587 5.5876 5.53973 5.60911C5.70757 5.65214 5.92689 5.73432 6.18926 5.84995M4.97513 6.12706L4.96866 6.14C4.98378 6.13798 5.00048 6.13742 5.01845 6.13806C5.07266 6.13999 5.143 6.15311 5.22694 6.1759C5.39511 6.22154 5.62279 6.30737 5.89511 6.42729C6.44003 6.66725 7.16672 7.04511 7.95952 7.51578C8.771 8.00674 9.42269 8.44794 9.87937 8.79192C10.1077 8.96388 10.2876 9.11181 10.4146 9.22975C10.4781 9.2887 10.5287 9.34048 10.5655 9.38427C10.6015 9.42697 10.6265 9.46438 10.636 9.49477C10.639 9.5026 10.6414 9.51004 10.6432 9.51709L10.651 9.50449C10.654 9.5002 10.6561 9.49302 10.6534 9.47979C10.6506 9.46624 10.6431 9.4486 10.6296 9.42666C10.6025 9.38289 10.5549 9.32744 10.4882 9.2618C10.355 9.13083 10.1501 8.96358 9.8955 8.77413C9.38657 8.39545 8.68181 7.93028 7.96192 7.49303C7.23763 7.05597 6.53074 6.6846 5.98183 6.43821C5.70728 6.31498 5.47285 6.22328 5.29583 6.17021C5.20723 6.14365 5.13386 6.12703 5.07745 6.12077C5.04925 6.11764 5.026 6.11719 5.0076 6.11911C4.99288 6.12064 4.98237 6.12358 4.97513 6.12706ZM4.95613 6.10915L4.94226 6.08835C4.95866 6.07742 4.97952 6.07177 5.00241 6.06938C5.02555 6.06696 5.05261 6.06771 5.08296 6.07107C5.14364 6.0778 5.22027 6.09536 5.31018 6.12232C5.49019 6.17628 5.72686 6.26896 6.00231 6.3926C6.55339 6.63996 7.2621 7.01233 7.9878 7.45025C8.70853 7.888 9.41476 8.35411 9.92535 8.73402C10.1805 8.92387 10.3876 9.09275 10.5232 9.22614C10.5909 9.29268 10.6419 9.35146 10.6721 9.4004C10.6872 9.42482 10.698 9.44815 10.7024 9.46975C10.7068 9.49148 10.7052 9.51342 10.6928 9.53208L10.648 9.6044L10.6471 9.60336L10.6284 9.61899C10.6181 9.62754 10.6029 9.62651 10.5939 9.61664C10.5849 9.60677 10.5853 9.59155 10.5947 9.5821C10.5942 9.58262 10.594 9.58289 10.594 9.58288C10.5939 9.58282 10.6087 9.56349 10.589 9.51181L10.5884 9.51027C10.5822 9.49003 10.563 9.45885 10.5273 9.41648C10.4922 9.37483 10.4432 9.32458 10.3806 9.26639C10.2553 9.15005 10.0769 9.00326 9.84929 8.83186C9.39428 8.48913 8.74426 8.049 7.93391 7.55872C7.14236 7.0888 6.41753 6.71198 5.87496 6.47305C5.60353 6.35352 5.37848 6.26884 5.21384 6.22415C5.13137 6.20177 5.06528 6.18976 5.01666 6.18803C4.99235 6.18716 4.97352 6.18891 4.95967 6.19258C4.9458 6.19626 4.9387 6.20137 4.93514 6.20588C4.9272 6.21595 4.91293 6.21838 4.90211 6.21151C4.89128 6.20464 4.88741 6.19069 4.89315 6.17922L4.93377 6.09797L4.95613 6.10915Z" fill="black"/>
<path d="M6.02002 7.86783C6.02051 8.12658 6.07233 8.38267 6.17246 8.62126C6.27258 8.85986 6.41904 9.07622 6.60335 9.25783C6.78542 9.4427 7.00226 9.58971 7.2414 9.6904C7.48053 9.79109 7.73723 9.84346 7.99669 9.8445C8.52181 9.84447 9.0254 9.63583 9.39669 9.2645C9.58036 9.08189 9.72614 8.86479 9.82567 8.62568C9.9252 8.38658 9.97653 8.13016 9.9767 7.87116V5.23115L6.02002 5.22449V7.86783V7.86783Z" fill="white"/>
<path fill-rule="evenodd" clip-rule="evenodd" d="M5.995 5.19946L10.0017 5.20621V7.87118C10.0015 8.13347 9.94953 8.39316 9.84873 8.63531C9.74794 8.87743 9.60032 9.09727 9.41435 9.2822C9.03837 9.65822 8.52841 9.86948 7.99667 9.86952C7.73391 9.86847 7.47385 9.81543 7.23167 9.71346C6.98956 9.61152 6.77001 9.46269 6.58566 9.27554C6.39905 9.09163 6.25076 8.87254 6.14938 8.63096C6.04797 8.38931 5.9955 8.12995 5.995 7.8679L5.995 5.19946ZM6.045 7.8678C6.04548 8.12325 6.09663 8.37606 6.19548 8.61161C6.29433 8.84715 6.43892 9.06075 6.62088 9.24005C6.80062 9.42256 7.01498 9.56797 7.25108 9.66738C7.48717 9.76679 7.7406 9.81849 7.99677 9.81952C8.51522 9.81946 9.01241 9.61346 9.37899 9.24684C9.56032 9.06655 9.7043 8.85216 9.80257 8.61609C9.90083 8.38002 9.95151 8.12687 9.95167 7.87117V5.25613L6.045 5.24955L6.045 7.8678Z" fill="black"/>
<path d="M6.09326 7.87117C6.09397 8.11938 6.14381 8.36499 6.23993 8.59384C6.33604 8.82268 6.47652 9.03023 6.65326 9.2045C7.00815 9.56125 7.49007 9.76265 7.99327 9.76451C8.49559 9.76478 8.9775 9.56578 9.33327 9.21117C9.50941 9.03662 9.64928 8.82895 9.74481 8.60012C9.84035 8.37128 9.88967 8.12581 9.88994 7.87783V5.31116H6.09993V7.87117H6.09326ZM9.13327 6.08116V7.71117L9.12994 7.88117C9.13106 8.03008 9.10212 8.17769 9.04484 8.31516C8.98757 8.45262 8.90313 8.57711 8.7966 8.68117C8.58463 8.89388 8.2969 9.01377 7.9966 9.0145C7.68327 9.0145 7.4066 8.88117 7.19993 8.6745C6.98722 8.46253 6.86733 8.1748 6.8666 7.8745V6.07449L9.13327 6.08116Z" fill="#FF0000"/>
<path fill-rule="evenodd" clip-rule="evenodd" d="M6.07485 5.28613H9.91487V7.87781C9.9146 8.12908 9.86462 8.37785 9.76781 8.60972C9.67101 8.84158 9.5293 9.05199 9.35085 9.22885C8.99038 9.58814 8.50212 9.78976 7.99318 9.78948C7.4834 9.7876 6.9951 9.58359 6.63555 9.2222C6.4565 9.04562 6.31418 8.83535 6.2168 8.60349C6.11941 8.3716 6.0689 8.12272 6.06819 7.87121L6.06812 7.84614H6.07485V5.28613ZM6.11843 7.89614C6.12229 8.13251 6.1713 8.36604 6.2629 8.58413C6.35774 8.80993 6.49635 9.01472 6.67074 9.18668C7.02094 9.53871 7.49665 9.73763 7.99321 9.73948M6.11843 7.89614H6.12485V5.33613H9.86487V7.87778C9.8646 8.12246 9.81593 8.36467 9.72167 8.59046C9.6274 8.81625 9.48939 9.02116 9.3156 9.19339C8.96454 9.54331 8.48888 9.73973 7.99321 9.73948M6.84152 6.04939L9.1582 6.05621V7.71114L9.15487 7.8813C9.15597 8.03346 9.12637 8.18428 9.06784 8.32475C9.00929 8.46526 8.923 8.59252 8.81412 8.69891C8.59748 8.91624 8.30345 9.03873 7.99659 9.03948C7.67583 9.03948 7.39294 8.90292 7.18218 8.69216C6.96479 8.47551 6.84227 8.18144 6.84152 7.87454L6.84152 6.04939ZM6.89152 6.09954L9.1082 6.10606V7.71089L9.10487 7.88065C9.10597 8.0262 9.07767 8.17116 9.02169 8.30552C8.96571 8.43987 8.88318 8.56155 8.77906 8.66326C8.57176 8.87128 8.29014 8.98876 7.99646 8.98948C7.69058 8.98946 7.42009 8.85936 7.21753 8.6568C7.00953 8.44951 6.89225 8.16812 6.89152 7.87446V6.09954Z" fill="black"/>
<path d="M6.34009 5.9813C6.34342 5.79797 6.47342 5.75464 6.47342 5.75464C6.47675 5.75464 6.61675 5.8013 6.61675 5.98464H6.34009" fill="#FFFF00"/>
<path d="M6.22667 5.75797L6.20334 5.96797H6.34334C6.34334 5.79464 6.47667 5.76797 6.47667 5.76797C6.48001 5.76797 6.61001 5.80464 6.61334 5.96797H6.75334L6.72668 5.75464H6.22667V5.75797ZM6.19334 5.97131H6.76001C6.77001 5.97131 6.78001 5.98131 6.78001 5.99464C6.78001 6.01131 6.77001 6.02131 6.76001 6.02131H6.19334C6.18334 6.02131 6.17334 6.01131 6.17334 5.99464C6.17334 5.98131 6.18334 5.97131 6.19667 5.97131H6.19334Z" fill="#FFFF00"/>
<path fill-rule="evenodd" clip-rule="evenodd" d="M6.20165 5.72961H6.74872L6.77621 5.94954C6.79361 5.95685 6.80498 5.97547 6.80498 5.99462C6.80498 6.02016 6.78825 6.04628 6.75998 6.04628H6.19332C6.16505 6.04628 6.14832 6.02017 6.14832 5.99462C6.14832 5.97326 6.16144 5.95558 6.18027 5.94902L6.20165 5.75656V5.72961ZM6.2494 5.77961L6.23125 5.94295H6.31922C6.32506 5.86361 6.3585 5.8139 6.39379 5.7839C6.39553 5.78242 6.39727 5.78099 6.39901 5.77961H6.2494ZM6.47639 5.79389C6.47361 5.79476 6.46986 5.79606 6.46543 5.7979C6.45477 5.80234 6.44047 5.80985 6.42617 5.822C6.40101 5.84338 6.37402 5.88067 6.36911 5.94628H6.58696C6.5806 5.88545 6.55398 5.8481 6.52839 5.8254C6.51383 5.81247 6.49927 5.80402 6.48828 5.79884C6.48344 5.79656 6.47936 5.79495 6.47639 5.79389ZM6.725 5.94295L6.70458 5.77961H6.55155C6.55487 5.78223 6.55823 5.78502 6.56158 5.788C6.59607 5.81861 6.6295 5.86774 6.63688 5.94295H6.725ZM6.19841 5.99628C6.19841 5.99628 6.19841 5.99628 6.19841 5.99628Z" fill="black"/>
<path d="M6.4001 5.96787C6.4001 5.85787 6.47677 5.82787 6.47677 5.82787C6.47677 5.82787 6.55343 5.86121 6.55343 5.96787H6.4001ZM6.20677 5.66787H6.7501C6.7601 5.66787 6.7701 5.68121 6.7701 5.69454C6.7701 5.70454 6.7601 5.71454 6.7501 5.71454H6.20677C6.19677 5.71454 6.18677 5.70454 6.18677 5.69121C6.18677 5.68121 6.19677 5.67121 6.20677 5.67121V5.66787ZM6.2201 5.71787H6.73343C6.74343 5.71787 6.75343 5.72787 6.75343 5.74121C6.75343 5.75454 6.74343 5.76454 6.73343 5.76454H6.21677C6.20343 5.76454 6.19677 5.75454 6.19677 5.74121C6.19677 5.72787 6.20343 5.71787 6.21677 5.71787H6.2201ZM6.38677 5.36454H6.42677V5.39121H6.45677V5.36454H6.5001V5.39454H6.5301V5.36121H6.5701V5.42787C6.5701 5.44121 6.56343 5.44787 6.55343 5.44787H6.40677C6.39677 5.44787 6.38677 5.44121 6.38677 5.43121V5.36454ZM6.5401 5.45454L6.5501 5.66787H6.40677L6.41677 5.45121H6.5401" fill="#FFFF00"/>
<path fill-rule="evenodd" clip-rule="evenodd" d="M6.50508 5.33618H6.59508V5.42785C6.59508 5.43841 6.59244 5.45002 6.58431 5.45931C6.57904 5.46534 6.57259 5.46909 6.56588 5.47108L6.57393 5.64285H6.75008C6.76608 5.64285 6.77762 5.65291 6.78383 5.66118C6.7905 5.67008 6.79508 5.68193 6.79508 5.69452C6.79508 5.70765 6.78876 5.71869 6.7815 5.72594C6.78016 5.72729 6.77868 5.7286 6.77709 5.72985C6.77796 5.73355 6.77841 5.73736 6.77841 5.74118C6.77841 5.76578 6.75963 5.78952 6.73341 5.78952H6.21674C6.20317 5.78952 6.19071 5.78408 6.18222 5.77347C6.17433 5.7636 6.17174 5.75166 6.17174 5.74118C6.17174 5.73578 6.17243 5.73 6.17417 5.7243C6.16635 5.71533 6.16174 5.70336 6.16174 5.69118C6.16174 5.67805 6.16806 5.66701 6.17532 5.65975C6.17721 5.65786 6.17936 5.65603 6.18174 5.65436V5.64285H6.38287L6.39084 5.47014C6.38613 5.4685 6.38165 5.46611 6.37764 5.463C6.36899 5.45627 6.36174 5.44529 6.36174 5.43118V5.33951H6.50508V5.33618ZM6.41174 5.41618V5.42285H6.54508V5.41952H6.47508V5.41618H6.41174ZM6.44062 5.47618L6.43292 5.64285H6.52388L6.51606 5.47618H6.44062ZM6.48671 5.80492L6.47674 5.82785L6.46763 5.80457L6.47725 5.80081L6.48671 5.80492ZM6.47634 5.85654C6.47094 5.86013 6.46398 5.86557 6.45697 5.87334C6.44458 5.88709 6.4312 5.90895 6.42668 5.94285H6.5267C6.52209 5.91037 6.50887 5.88857 6.49635 5.87441C6.48911 5.86623 6.48191 5.8604 6.47634 5.85654ZM6.46763 5.80457L6.47674 5.82785L6.48671 5.80492L6.48844 5.80572L6.49182 5.80744C6.49456 5.8089 6.49826 5.81104 6.50259 5.81392C6.51124 5.81969 6.52254 5.82856 6.5338 5.84129C6.55664 5.8671 6.57841 5.90788 6.57841 5.96785V5.99285H6.37508V5.96785C6.37508 5.90639 6.39672 5.86549 6.41985 5.83986C6.43122 5.82725 6.44266 5.81864 6.45143 5.81311C6.45583 5.81034 6.45958 5.80832 6.46238 5.80694L6.46583 5.80532L6.46763 5.80457Z" fill="black"/>
<path d="M6.36649 5.55444V5.66778H6.23315V5.55444H6.36649Z" fill="#FFFF00"/>
<path fill-rule="evenodd" clip-rule="evenodd" d="M6.20813 5.52942H6.39146V5.69275H6.20813V5.52942ZM6.25813 5.57942V5.64275H6.34146V5.57942H6.25813Z" fill="black"/>
<path d="M6.21008 5.46777H6.25008V5.50111H6.28008V5.46777H6.32009V5.50111H6.35009V5.46777H6.39009V5.53444C6.39009 5.54777 6.38342 5.55444 6.37342 5.55444H6.23008C6.22478 5.55444 6.21969 5.55233 6.21594 5.54858C6.21219 5.54483 6.21008 5.53974 6.21008 5.53444V5.46777V5.46777Z" fill="#FFFF00"/>
<path fill-rule="evenodd" clip-rule="evenodd" d="M6.23506 5.52608V5.52942H6.36506V5.52608H6.23506ZM6.41506 5.44275V5.53442C6.41506 5.54498 6.41242 5.55659 6.40429 5.56588C6.39578 5.57561 6.38421 5.57942 6.3734 5.57942H6.23006C6.21812 5.57942 6.20668 5.57468 6.19824 5.56624C6.1898 5.5578 6.18506 5.54635 6.18506 5.53442V5.46775H6.21006V5.44275H6.41506Z" fill="black"/>
<path d="M6.46326 5.5211C6.46326 5.5011 6.49326 5.5011 6.49326 5.5211V5.57444H6.46326V5.5211Z" fill="black"/>
<path d="M6.28674 5.59459C6.28674 5.57459 6.31342 5.57459 6.31342 5.59459V5.63459H6.28674V5.59459Z" fill="black"/>
<path d="M7.75355 7.58131C7.75295 7.65167 7.77917 7.71961 7.82688 7.77131C7.84915 7.79621 7.87636 7.81618 7.90678 7.82995C7.9372 7.84373 7.97016 7.851 8.00355 7.85131C8.07355 7.85131 8.13688 7.81798 8.18022 7.77131C8.22793 7.71961 8.25416 7.65167 8.25355 7.58131V7.22131H7.75355V7.58131Z" fill="#003399"/>
<path d="M7.87031 7.40799C7.89793 7.40799 7.92031 7.3856 7.92031 7.35799C7.92031 7.33037 7.89793 7.30798 7.87031 7.30798C7.8427 7.30798 7.82031 7.33037 7.82031 7.35799C7.82031 7.3856 7.8427 7.40799 7.87031 7.40799Z" fill="white"/>
<path d="M8.1468 7.40799C8.17442 7.40799 8.1968 7.3856 8.1968 7.35799C8.1968 7.33037 8.17442 7.30798 8.1468 7.30798C8.11919 7.30798 8.0968 7.33037 8.0968 7.35799C8.0968 7.3856 8.11919 7.40799 8.1468 7.40799Z" fill="white"/>
<path d="M8.00679 7.54141C8.0344 7.54141 8.05679 7.51902 8.05679 7.49141C8.05679 7.46379 8.0344 7.44141 8.00679 7.44141C7.97917 7.44141 7.95679 7.46379 7.95679 7.49141C7.95679 7.51902 7.97917 7.54141 8.00679 7.54141Z" fill="white"/>
<path d="M7.87031 7.6813C7.89793 7.6813 7.92031 7.65891 7.92031 7.6313C7.92031 7.60368 7.89793 7.5813 7.87031 7.5813C7.8427 7.5813 7.82031 7.60368 7.82031 7.6313C7.82031 7.65891 7.8427 7.6813 7.87031 7.6813Z" fill="white"/>
<path d="M8.1468 7.6813C8.17442 7.6813 8.1968 7.65891 8.1968 7.6313C8.1968 7.60368 8.17442 7.5813 8.1468 7.5813C8.11919 7.5813 8.0968 7.60368 8.0968 7.6313C8.0968 7.65891 8.11919 7.6813 8.1468 7.6813Z" fill="white"/>
</svg>
