<svg id="layout-left-wide_thumb-sm"  width="288" height="240" viewBox="0 0 144 120">
  <metadata><?xpacket begin="﻿" id="W5M0MpCehiHzreSzNTczkc9d"?>
<x:xmpmeta xmlns:x="adobe:ns:meta/" x:xmptk="Adobe XMP Core 5.6-c142 79.160924, 2017/07/13-01:06:39        ">
   <rdf:RDF xmlns:rdf="http://www.w3.org/1999/02/22-rdf-syntax-ns#">
      <rdf:Description rdf:about=""/>
   </rdf:RDF>
</x:xmpmeta>
                                                                                                    
                                                                                                    
                                                                                                    
                                                                                                    
                                                                                                    
                                                                                                    
                                                                                                    
                                                                                                    
                                                                                                    
                                                                                                    
                                                                                                    
                                                                                                    
                                                                                                    
                                                                                                    
                                                                                                    
                                                                                                    
                                                                                                    
                                                                                                    
                                                                                                    
                                                                                                    
                           
<?xpacket end="w"?></metadata>
<defs>
    <style>
      .cls-1, .cls-3 {
        fill: #fff;
      }

      .cls-2 {
        fill: #b8dafc;
        opacity: 0.64;
      }

      .cls-2, .cls-3, .cls-4 {
        fill-rule: evenodd;
      }

      .cls-4 {
        fill: #d2e7fd;
      }
    </style>
  </defs>
  <rect id="Prostokąt_zaokrąglony_1563_kopia_4" data-name="Prostokąt zaokrąglony 1563 kopia 4" class="cls-1" width="144" height="120"/>
  <path id="Prostokąt_1564_kopia" data-name="Prostokąt 1564 kopia" class="cls-2" d="M2028,206V190.994h33V206h111v1H2061V310.994h-33V207m63,95h-22V215h22v87Zm72-63h-64V215h64v24Zm-36,32h-28V247h28v24Zm0,31h-28V279h28v23Zm36-31h-28V247h28v24Zm0,31h-28V279h28v23Z" transform="translate(-2028 -191)"/>
  <path id="Prostokąt_1564" data-name="Prostokąt 1564" class="cls-3" d="M2034,219h21v2h-21v-2Zm0,10h21v2h-21v-2Zm0,10h21v2h-21v-2Zm0,10h21v2h-21v-2Zm0,10h21v2h-21v-2Z" transform="translate(-2028 -191)"/>
  <rect id="Prostokąt_1564_kopia_3" data-name="Prostokąt 1564 kopia 3" class="cls-1" x="6" y="7" width="20" height="8"/>
  <path id="Prostokąt_1564_kopia_2" data-name="Prostokąt 1564 kopia 2" class="cls-4" d="M2122,198h12v2h-12v-2Zm29,0h12v2h-12v-2Zm-38-2h6v6h-6v-6Zm29,0h6v6h-6v-6Z" transform="translate(-2028 -191)"/>
</svg>
