<?xml version="1.0" encoding="utf-8"?>
<!-- Generator: Adobe Illustrator 22.0.1, SVG Export Plug-In . SVG Version: 6.00 Build 0)  -->
<svg id="Warstwa_1" xmlns="http://www.w3.org/2000/svg"  xmlns:xlink="http://www.w3.org/1999/xlink" x="0px" y="0px"
	 viewBox="0 0 12 12" style="enable-background:new 0 0 12 12;" xml:space="preserve">
<style type="text/css">
	.st0{fill:#B9BDC5;}
	.st1{fill:none;stroke:#B9BDC5;stroke-width:2;stroke-miterlimit:10;}
	.st2{fill:#FFFFFF;}
</style>
<g id="Filled">
	<path class="st0" d="M10,12H2c-0.5,0-1-0.5-1-1V5c0-0.6,0.5-1,1-1h8c0.6,0,1,0.4,1,1v6C11,11.5,10.6,12,10,12z"/>
	<path class="st1" d="M9,7V4.2c0-1.6-1.1-3-2.7-3.1C4.2,0.8,3,2.1,3,4.1C3,4.3,3,7,3,7"/>
</g>
<circle class="st2" cx="3" cy="8" r="1"/>
<circle class="st2" cx="6" cy="8" r="1"/>
<circle class="st2" cx="9" cy="8" r="1"/>
</svg>
