<svg width="76" height="76" viewBox="0 0 76 76" fill="none" xmlns="http://www.w3.org/2000/svg">
<path d="M60.1667 9.5H15.8333C12.3355 9.5 9.5 12.3355 9.5 15.8333V60.1667C9.5 63.6645 12.3355 66.5 15.8333 66.5H60.1667C63.6645 66.5 66.5 63.6645 66.5 60.1667V15.8333C66.5 12.3355 63.6645 9.5 60.1667 9.5Z" stroke="#E3EFFC" stroke-width="4" stroke-linecap="round" stroke-linejoin="round"/>
<path d="M26.9165 31.6667C29.5399 31.6667 31.6665 29.54 31.6665 26.9167C31.6665 24.2933 29.5399 22.1667 26.9165 22.1667C24.2932 22.1667 22.1665 24.2933 22.1665 26.9167C22.1665 29.54 24.2932 31.6667 26.9165 31.6667Z" stroke="#E3EFFC" stroke-width="4" stroke-linecap="round" stroke-linejoin="round"/>
<path d="M66.5002 47.5L50.6668 31.6667L15.8335 66.5" stroke="#E3EFFC" stroke-width="4" stroke-linecap="round" stroke-linejoin="round"/>
</svg>
