<svg width="18" height="18" viewBox="0 0 12 12" fill="none" xmlns="http://www.w3.org/2000/svg">
<g clip-path="url(#clip0_8755_138648)">
<path fill-rule="evenodd" clip-rule="evenodd" d="M6 12C9.31371 12 12 9.31371 12 6C12 2.68629 9.31371 0 6 0C2.68629 0 0 2.68629 0 6C0 9.31371 2.68629 12 6 12ZM8.76527 3.43193L9.23193 3.8986C9.26318 3.92959 9.28797 3.96645 9.3049 4.00707C9.32182 4.04769 9.33053 4.09126 9.33053 4.13527C9.33053 4.17927 9.32182 4.22284 9.3049 4.26346C9.28797 4.30408 9.26318 4.34095 9.23193 4.37193L5.0386 8.56527C5.00884 8.59729 4.9727 8.62273 4.93251 8.63996C4.89233 8.65718 4.84898 8.6658 4.80527 8.66527H4.52527C4.48155 8.6658 4.4382 8.65718 4.39802 8.63996C4.35783 8.62273 4.3217 8.59729 4.29193 8.56527L2.76527 7.0386C2.73402 7.00761 2.70923 6.97074 2.6923 6.93013C2.67538 6.88951 2.66667 6.84594 2.66667 6.80193C2.66667 6.75793 2.67538 6.71436 2.6923 6.67374C2.70923 6.63312 2.73402 6.59625 2.76527 6.56527L3.23193 6.0986C3.26292 6.06736 3.29979 6.04256 3.34041 6.02564C3.38103 6.00871 3.4246 6 3.4686 6C3.5126 6 3.55617 6.00871 3.59679 6.02564C3.63741 6.04256 3.67428 6.06736 3.70527 6.0986L4.66527 7.0586L8.29193 3.43193C8.32292 3.40069 8.35979 3.37589 8.40041 3.35897C8.44103 3.34205 8.4846 3.33333 8.5286 3.33333C8.5726 3.33333 8.61617 3.34205 8.65679 3.35897C8.69741 3.37589 8.73428 3.40069 8.76527 3.43193Z" fill="#36C055"/>
</g>
<defs>
<clipPath id="clip0_8755_138648">
<rect width="18" height="18" fill="white"/>
</clipPath>
</defs>
</svg>