<svg width="18" height="18" viewBox="0 0 18 18" fill="none" xmlns="http://www.w3.org/2000/svg">
    <rect width="18" height="18" fill="#B9BDC5"/>
    <path d="M14.5 10H8V8H13V5.5C13 5.22386 13.2239 5 13.5 5H14.5C14.7761 5 15 5.22386 15 5.5V9.5C15 9.77614 14.7761 10 14.5 10Z" fill="white"/>
    <path d="M3.03291 8.84745C3.05462 8.79929 3.08638 8.75591 3.12623 8.72L6.87528 5.12003C6.91248 5.0816 6.95764 5.05107 7.00786 5.0304C7.05808 5.00973 7.11225 4.99939 7.16688 5.00003L7.58344 5.00003C7.69392 5.00003 7.79987 5.04217 7.87799 5.11718C7.95611 5.1922 8 5.29394 8 5.40003L8 7.40001L8 10.6L8 12.6C8 12.7061 7.95611 12.8078 7.87799 12.8828C7.79987 12.9578 7.69392 13 7.58344 13L7.16688 13C7.11225 13.0006 7.05808 12.9903 7.00786 12.9696C6.95764 12.9489 6.91248 12.9184 6.87528 12.88L3.12623 9.28C3.08638 9.24409 3.05462 9.20071 3.03291 9.15256C3.0112 9.1044 3 9.05248 3 9C3 8.94752 3.0112 8.8956 3.03291 8.84745Z" fill="white"/>
</svg>
