<svg width="24" height="24" viewBox="0 0 24 24" fill="none" xmlns="http://www.w3.org/2000/svg">
<path d="M20.309 17.708C22.196 15.66 22.006 13.03 22 13V5C22 4.73478 21.8946 4.48043 21.7071 4.29289C21.5196 4.10536 21.2652 4 21 4H15C13.897 4 13 4.897 13 6V13C13 13.2652 13.1054 13.5196 13.2929 13.7071C13.4804 13.8946 13.7348 14 14 14H17.078C17.0569 14.4944 16.9092 14.9751 16.649 15.396C16.141 16.197 15.184 16.744 13.803 17.02L13 17.18V20H14C16.783 20 18.906 19.229 20.309 17.708ZM9.30199 17.708C11.19 15.66 10.999 13.03 10.993 13V5C10.993 4.73478 10.8876 4.48043 10.7001 4.29289C10.5126 4.10536 10.2582 4 9.99299 4H3.99299C2.88999 4 1.99299 4.897 1.99299 6V13.6667C1.99299 13.6667 1.98101 13.8564 2.06777 13.9323C2.14788 14.0024 2.33731 14 2.33731 14C2.60253 14 6.07099 14 6.07099 14C6.04987 14.4944 5.90215 14.9751 5.64199 15.396C5.13399 16.197 4.17699 16.744 2.79599 17.02L1.99299 17.18V20H2.99299C5.77599 20 7.89899 19.229 9.30199 17.708Z" fill="#1062FE"/>
</svg>
