<svg width="20" height="20" viewBox="0 0 20 20" fill="none" xmlns="http://www.w3.org/2000/svg">
<circle cx="10" cy="10" r="10" fill="#1062FE"/>
<path d="M7.43323 13.6553L10.8742 15.5976C10.897 15.6107 10.9209 15.6219 10.9455 15.6311C11.0598 15.6774 11.1824 15.7008 11.3061 15.6999C11.4566 15.7025 11.6053 15.6673 11.7379 15.5976L15.1779 13.6553C15.2367 13.6336 15.2874 13.5948 15.3231 13.5442C15.3589 13.4936 15.378 13.4336 15.378 13.3721C15.378 13.3106 15.3589 13.2505 15.3231 13.1999C15.2874 13.1493 15.2367 13.1105 15.1779 13.0888L12.5117 11.5831C12.4545 11.5513 12.3899 11.5345 12.3241 11.5344C12.236 11.534 12.1506 11.5641 12.083 11.6193C12.0154 11.6746 11.97 11.7514 11.9548 11.8363L11.3754 14.9967V7.73574C11.3706 7.58875 11.3276 7.44539 11.2504 7.31919C11.1775 7.19057 11.0718 7.08261 10.9436 7.00582L7.5026 5.0616C7.45221 5.02666 7.39308 5.00573 7.33149 5.00102C7.26991 4.99631 7.20817 5.008 7.15284 5.03485C7.10142 5.06855 7.06023 5.11517 7.03359 5.1698C7.00695 5.22443 6.99583 5.28507 7.0014 5.34535V12.9235C7.0061 13.0709 7.0495 13.2147 7.12743 13.341C7.20022 13.4696 7.3055 13.5778 7.43323 13.6553Z" fill="white"/>
</svg>
