<svg xmlns="http://www.w3.org/2000/svg" width="18" height="14" viewBox="0 0 18 14">
  <defs>
    <style>
      .cls-1 {
        fill: #fff;
        fill-rule: evenodd;
      }
    </style>
  </defs>
  <path id="logo-twitter" class="cls-1" d="M250.661,640.5a10.2,10.2,0,0,0,10.507-10.058c0-.153,0-0.306-0.01-0.457a7.365,7.365,0,0,0,1.842-1.83,7.632,7.632,0,0,1-2.121.556,3.574,3.574,0,0,0,1.623-1.955,7.587,7.587,0,0,1-2.345.858,3.814,3.814,0,0,0-5.225-.154,3.443,3.443,0,0,0-1.068,3.378,10.648,10.648,0,0,1-7.611-3.693,3.448,3.448,0,0,0,1.143,4.719,3.8,3.8,0,0,1-1.676-.443v0.045a3.578,3.578,0,0,0,2.963,3.465,3.849,3.849,0,0,1-1.668.061,3.684,3.684,0,0,0,3.451,2.455,7.629,7.629,0,0,1-4.587,1.516,8.066,8.066,0,0,1-.879-0.051,10.8,10.8,0,0,0,5.661,1.585" transform="translate(-245 -626.5)"/>
</svg>
