<?xml version="1.0" encoding="utf-8"?>
<!-- Generator: Adobe Illustrator 25.0.0, SVG Export Plug-In . SVG Version: 6.00 Build 0)  -->
<svg  id="Warstwa_1" xmlns="http://www.w3.org/2000/svg" xmlns:xlink="http://www.w3.org/1999/xlink" x="0px" y="0px"
	 viewBox="0 0 17.64 18" style="enable-background:new 0 0 17.64 18;" xml:space="preserve">
<style type="text/css">
	.st0{clip-path:url(#SVGID_2_);fill:#3E82F1;}
	.st1{clip-path:url(#SVGID_4_);fill:#32A753;}
	.st2{clip-path:url(#SVGID_6_);fill:#F9BB00;}
	.st3{clip-path:url(#SVGID_8_);fill:#E74235;}
</style>
<g>
	<defs>
		<path id="SVGID_1_" d="M17.64,9.2c0-0.64-0.06-1.25-0.16-1.84H9v3.48h4.84c-0.21,1.12-0.84,2.08-1.8,2.72v2.26h2.91
			C16.66,14.25,17.64,11.95,17.64,9.2L17.64,9.2L17.64,9.2z M17.64,9.2"/>
	</defs>
	<clipPath id="SVGID_2_">
		<use xlink:href="#SVGID_1_"  style="overflow:visible;"/>
	</clipPath>
	<rect x="4" y="2.36" class="st0" width="18.64" height="18.46"/>
</g>
<g>
	<defs>
		<path id="SVGID_3_" d="M9,18c2.43,0,4.47-0.81,5.96-2.18l-2.91-2.26c-0.81,0.54-1.84,0.86-3.05,0.86c-2.34,0-4.33-1.58-5.04-3.71
			H0.96v2.33C2.44,15.98,5.48,18,9,18L9,18L9,18z M9,18"/>
	</defs>
	<clipPath id="SVGID_4_">
		<use xlink:href="#SVGID_3_"  style="overflow:visible;"/>
	</clipPath>
	<rect x="-4.04" y="5.71" class="st1" width="24" height="17.29"/>
</g>
<g>
	<defs>
		<path id="SVGID_5_" d="M3.96,10.71C3.78,10.17,3.68,9.59,3.68,9c0-0.59,0.1-1.17,0.28-1.71V4.96H0.96C0.35,6.17,0,7.55,0,9
			s0.35,2.83,0.96,4.04L3.96,10.71L3.96,10.71L3.96,10.71z M3.96,10.71"/>
	</defs>
	<clipPath id="SVGID_6_">
		<use xlink:href="#SVGID_5_"  style="overflow:visible;"/>
	</clipPath>
	<rect x="-5" y="-0.04" class="st2" width="13.96" height="18.08"/>
</g>
<g>
	<defs>
		<path id="SVGID_7_" d="M9,3.58c1.32,0,2.51,0.45,3.44,1.35l2.58-2.58C13.46,0.89,11.43,0,9,0C5.48,0,2.44,2.02,0.96,4.96
			l3.01,2.33C4.67,5.16,6.66,3.58,9,3.58L9,3.58L9,3.58z M9,3.58"/>
	</defs>
	<clipPath id="SVGID_8_">
		<use xlink:href="#SVGID_7_"  style="overflow:visible;"/>
	</clipPath>
	<rect x="-4.04" y="-5" class="st3" width="24.06" height="17.29"/>
</g>
</svg>
