<svg width="20" height="15" viewBox="0 0 20 15" fill="none" xmlns="http://www.w3.org/2000/svg">
<g clip-path="url(#clip0_1016:57096)">
<path d="M0 0H20V15H0V0Z" fill="#DE2910"/>
<path d="M2.39999 5.55L3.74997 1.5L5.09996 5.55L1.5 3.075H5.99995L2.39999 5.55Z" fill="#FFDE00"/>
<path d="M8.25528 1.57758L6.86598 1.88546L7.79269 0.805566L7.7018 2.25896L6.93083 0.972269L8.25528 1.57758Z" fill="#FFDE00"/>
<path d="M9.65743 3.35459L8.25748 3.09954L9.53047 2.46359L8.88302 3.76798L8.67141 2.28298L9.65743 3.35459Z" fill="#FFDE00"/>
<path d="M9.45319 5.84766L8.27898 5.0438L9.70065 4.98235L8.57751 5.90925L8.98995 4.46707L9.45319 5.84766Z" fill="#FFDE00"/>
<path d="M7.68715 7.47634L6.91452 6.28133L8.24962 6.77375L6.85564 7.19493L7.79308 6.02396L7.68715 7.47634Z" fill="#FFDE00"/>
</g>
<defs>
<clipPath id="clip0_1016:57096">
<rect width="20" height="15" fill="white"/>
</clipPath>
</defs>
</svg>
