<svg width="20" height="15" viewBox="0 0 20 15" fill="none" xmlns="http://www.w3.org/2000/svg">
<path fill-rule="evenodd" clip-rule="evenodd" d="M0 0H20V15H0V0Z" fill="#229E45"/>
<path fill-rule="evenodd" clip-rule="evenodd" d="M10.0436 13.625L19.4654 7.50938L9.98731 1.375L0.53418 7.52187L10.0436 13.625Z" fill="#F8E509"/>
<path fill-rule="evenodd" clip-rule="evenodd" d="M14.15 7.5C14.15 9.69687 12.3656 11.4781 10.1625 11.4781C9.37522 11.4769 8.60598 11.2423 7.95202 10.8039C7.29806 10.3656 6.78875 9.74315 6.48847 9.01538C6.18819 8.28761 6.11042 7.48715 6.26499 6.71519C6.41957 5.94323 6.79955 5.23443 7.3569 4.6784C7.91425 4.12236 8.62394 3.74405 9.39626 3.59129C10.1686 3.43853 10.9689 3.51818 11.6959 3.82018C12.423 4.12217 13.0442 4.63295 13.481 5.28793C13.9178 5.94292 14.1506 6.71271 14.15 7.5V7.5Z" fill="#2B49A3"/>
<path fill-rule="evenodd" clip-rule="evenodd" d="M8.85332 9.88433L8.72832 9.81245L8.60332 9.87495L8.63145 9.73433L8.53145 9.62808L8.67207 9.61245L8.74082 9.48745L8.8002 9.6187L8.9377 9.6437L8.83457 9.73745L8.85332 9.88433ZM11.5221 10.5593L11.4002 10.4875L11.2752 10.55L11.3002 10.4093L11.2033 10.3062L11.3439 10.2906L11.4096 10.1625L11.4721 10.2937L11.6096 10.3187L11.5033 10.4156L11.5221 10.5593ZM10.3721 9.47808L10.2658 9.41558L10.1564 9.47183L10.1814 9.34995L10.0939 9.25933L10.2189 9.24683L10.2752 9.13433L10.3252 9.24995L10.4471 9.27183L10.3533 9.3562L10.3721 9.47808ZM13.0721 9.09058L12.9658 9.02808L12.8564 9.08433L12.8814 8.96245L12.7971 8.87495L12.9189 8.86245L12.9752 8.75308L13.0252 8.86558L13.1439 8.88745L13.0533 8.9687L13.0721 9.09058ZM10.3252 8.2812L10.2002 8.21245L10.0752 8.27495L10.1002 8.1312L10.0033 8.02808L10.1439 8.01245L10.2096 7.88433L10.2721 8.01558L10.4096 8.04058L10.3033 8.14058L10.3252 8.2812ZM7.03457 7.04683L6.90957 6.97808L6.78457 7.04058L6.81582 6.89683L6.7127 6.7937L6.85645 6.77808L6.91895 6.64995L6.98145 6.7812L7.11895 6.8062L7.01582 6.90308L7.03457 7.04683ZM7.43145 8.69058L7.30645 8.6187L7.18145 8.6812L7.20957 8.54058L7.10957 8.43745L7.2502 8.4187L7.31582 8.2937L7.37832 8.42495L7.51582 8.44995L7.4127 8.54683L7.43145 8.69058ZM11.5377 6.4437L11.4252 6.3812L11.3127 6.43745L11.3377 6.31245L11.2502 6.2187L11.3752 6.20308L11.4346 6.09058L11.4877 6.20933L11.6127 6.2312L11.5189 6.31558L11.5377 6.4437ZM11.3096 7.51245L11.2252 7.46245L11.1346 7.5062L11.1533 7.4062L11.0846 7.33433L11.1846 7.32183L11.2314 7.23433L11.2721 7.32808L11.3658 7.3437L11.2971 7.41245L11.3096 7.51245ZM6.85332 8.98745L6.76895 8.94058L6.68457 8.9812L6.70332 8.88745L6.6377 8.8187L6.73145 8.8062L6.7752 8.72183L6.81582 8.80933L6.90957 8.82808L6.8377 8.89058L6.85332 8.98745ZM13.0939 9.3687L13.0252 9.33433L12.9564 9.36558L12.9721 9.2937L12.9189 9.2437L12.9939 9.23433L13.0314 9.17183L13.0627 9.23433L13.1408 9.24995L13.0814 9.29683" fill="#FFFFEF"/>
<path fill-rule="evenodd" clip-rule="evenodd" d="M6.85332 8.98755L6.76895 8.94067L6.68457 8.9813L6.70332 8.88755L6.6377 8.8188L6.73145 8.8063L6.7752 8.72192L6.81582 8.80942L6.90957 8.82817L6.8377 8.89067" fill="#FFFFEF"/>
<path fill-rule="evenodd" clip-rule="evenodd" d="M6.85332 8.98745L6.76895 8.94058L6.68457 8.9812L6.70332 8.88745L6.6377 8.8187L6.73145 8.8062L6.7752 8.72183L6.81582 8.80933L6.90957 8.82808L6.8377 8.89058L6.85332 8.98745ZM8.15957 8.98433L8.07832 8.94058L7.99395 8.9812L8.0127 8.88745L7.94707 8.8187L8.04082 8.8062L8.08457 8.72183L8.1252 8.80933L8.21895 8.82495L8.14707 8.89058L8.15957 8.98433ZM7.99707 9.42183L7.91582 9.37495L7.83145 9.4187L7.8502 9.32495L7.78457 9.25308L7.87832 9.24058L7.92207 9.1562L7.9627 9.2437L8.05645 9.26245L7.98457 9.32495L7.99707 9.42183ZM10.7158 8.6312L10.6346 8.5812L10.5471 8.62495L10.5658 8.5312L10.5033 8.45933L10.5971 8.44995L10.6408 8.36558L10.6783 8.45308L10.7721 8.4687L10.7033 8.53433L10.7158 8.6312ZM9.91895 8.62808L9.83457 8.5812L9.7502 8.62495L9.76895 8.5312L9.70645 8.45933L9.8002 8.44995L9.84395 8.36245L9.88145 8.45308L9.9752 8.4687L9.90645 8.53433L9.91895 8.62808ZM7.75645 8.35308L7.70332 8.32183L7.6502 8.34683L7.6627 8.28745L7.62207 8.2437L7.68145 8.23745L7.70645 8.18433L7.73145 8.24058L7.79082 8.24995L7.74707 8.29058L7.75645 8.35308ZM12.9908 9.70933L12.9096 9.66245L12.8252 9.7062L12.844 9.61245L12.7783 9.54058L12.8721 9.52808L12.9158 9.4437L12.9565 9.5312L13.0502 9.54995L12.9783 9.61245L12.9908 9.70933ZM12.3283 9.79995L12.2596 9.7562L12.1877 9.7937L12.2033 9.71245L12.1502 9.6562L12.2283 9.64683L12.2658 9.57495L12.2971 9.64995L12.3752 9.66245L12.3158 9.7187L12.3283 9.79995ZM12.6408 9.79058L12.5783 9.75308L12.5127 9.78433L12.5252 9.71245L12.4752 9.65933L12.5471 9.64995L12.5815 9.58745L12.6127 9.64995L12.6846 9.66558L12.6315 9.71558L12.6408 9.79058ZM13.5408 9.00308L13.4783 8.97183L13.4158 9.00308L13.4315 8.9312L13.3815 8.87808L13.4533 8.8687L13.4846 8.8062L13.5158 8.87183L13.5815 8.88433L13.5315 8.93433L13.5408 9.00308ZM12.319 10.2406L12.2408 10.1968L12.1565 10.2343L12.1752 10.1468L12.1127 10.0843L12.2065 10.075L12.2471 9.99683L12.2846 10.0781L12.3783 10.0937L12.3065 10.1531L12.319 10.2406ZM12.3252 10.5968L12.2502 10.5531L12.1752 10.5937L12.194 10.5062L12.1346 10.4437L12.219 10.4312L12.2565 10.3531L12.2908 10.4343L12.3752 10.45L12.3127 10.5125L12.3252 10.5968ZM11.719 9.79058L11.6596 9.75308L11.5971 9.78433L11.6096 9.71558L11.5627 9.66245L11.6315 9.6562L11.6627 9.5937L11.694 9.6562L11.7627 9.6687L11.7127 9.7187L11.719 9.79058ZM11.1564 9.79058L11.0939 9.75308L11.0314 9.78433L11.0471 9.71558L10.9971 9.66245L11.069 9.6562L11.1002 9.5937L11.1315 9.6562L11.1971 9.6687L11.1471 9.7187L11.1564 9.79058ZM10.1971 8.94995L10.1346 8.91558L10.0721 8.94683L10.0877 8.87495L10.0377 8.82495L10.1064 8.81558L10.1377 8.75308L10.1689 8.81558L10.2377 8.8312L10.1877 8.87808L10.1971 8.94995ZM10.3033 10.6593L10.2533 10.6312L10.1971 10.6593L10.2096 10.5968L10.1689 10.5531L10.2283 10.5468L10.2564 10.4937L10.2814 10.55L10.3408 10.5593L10.2971 10.6L10.3033 10.6593ZM8.85332 7.8937L8.72832 7.82183L8.60332 7.88433L8.63145 7.7437L8.53145 7.64058L8.67207 7.62183L8.74082 7.49683L8.8002 7.62808L8.9377 7.65308L8.83457 7.74995" fill="#FFFFEF"/>
<path fill-rule="evenodd" clip-rule="evenodd" d="M13.8875 8.93119C13.9649 8.73031 14.0255 8.52335 14.0688 8.31244C11.95 6.45307 9.59063 5.49994 6.60938 5.69682C6.50125 5.90604 6.41234 6.12465 6.34375 6.34994C9.875 6.01244 12.4687 7.57494 13.8875 8.93119Z" fill="white"/>
<path d="M12.9376 7.8875L13.0095 7.92812C12.9987 7.94935 12.9954 7.97355 13.0001 7.99687C13.0074 8.01949 13.0231 8.03848 13.0438 8.05C13.0657 8.06562 13.0876 8.075 13.1063 8.07187C13.1251 8.07187 13.1376 8.0625 13.147 8.05C13.1524 8.0417 13.1546 8.0317 13.1532 8.02187C13.1507 8.01033 13.1453 7.9996 13.1376 7.99062C13.1314 7.98125 13.1157 7.95937 13.0907 7.93437C13.065 7.90785 13.0458 7.87578 13.0345 7.84062C13.0267 7.81402 13.0287 7.7855 13.0402 7.76026C13.0516 7.73502 13.0718 7.71474 13.097 7.70312C13.1197 7.69364 13.1448 7.69145 13.1689 7.69687C13.1982 7.70364 13.2259 7.71641 13.2501 7.73437C13.2939 7.76562 13.322 7.79687 13.3314 7.83437C13.3357 7.85191 13.3362 7.87017 13.333 7.88794C13.3298 7.90571 13.3228 7.9226 13.3126 7.9375L13.2376 7.89062C13.247 7.87187 13.2501 7.85312 13.2438 7.8375C13.2407 7.82187 13.2282 7.80625 13.2064 7.79375C13.1903 7.78084 13.1707 7.7732 13.1501 7.77187C13.1444 7.77168 13.1388 7.77304 13.1339 7.77579C13.1289 7.77854 13.1248 7.78259 13.122 7.7875C13.1157 7.79687 13.1157 7.80625 13.1188 7.81875C13.122 7.83125 13.1376 7.85625 13.1689 7.8875C13.2001 7.91875 13.2189 7.94687 13.2314 7.96562C13.2425 7.9861 13.2476 8.00936 13.2459 8.03262C13.2442 8.05589 13.2359 8.07819 13.222 8.09687C13.2074 8.11812 13.1867 8.13446 13.1626 8.14375C13.1392 8.15454 13.113 8.15781 13.0876 8.15312C13.0595 8.14687 13.0314 8.13437 13.0001 8.1125C12.9532 8.08125 12.9251 8.04687 12.9157 8.00937C12.9055 7.96685 12.9123 7.92204 12.9345 7.88437L12.9376 7.8875ZM12.5751 7.65L12.6532 7.69062C12.6435 7.71221 12.6413 7.7364 12.647 7.75937C12.655 7.78082 12.6705 7.79861 12.6907 7.80937C12.7157 7.825 12.7345 7.83125 12.7532 7.82812C12.772 7.82812 12.7845 7.81875 12.7938 7.80312C12.7986 7.79569 12.8008 7.78691 12.8001 7.77812C12.8001 7.76875 12.7939 7.75625 12.7845 7.74687C12.7685 7.72755 12.7518 7.70879 12.7345 7.69062C12.7001 7.65625 12.6782 7.62812 12.672 7.60312C12.6669 7.58704 12.6653 7.57004 12.6675 7.5533C12.6697 7.53657 12.6754 7.52051 12.6845 7.50625C12.6964 7.48696 12.7138 7.47172 12.7345 7.4625C12.7559 7.4526 12.7799 7.44933 12.8032 7.45312C12.8321 7.45799 12.8598 7.46862 12.8845 7.48437C12.9313 7.51562 12.9595 7.54687 12.9689 7.58125C12.9745 7.59881 12.9764 7.6174 12.9742 7.63574C12.9721 7.65408 12.966 7.67174 12.9564 7.6875L12.8782 7.64375C12.8876 7.62187 12.8907 7.60625 12.8845 7.59062C12.8782 7.575 12.8657 7.55937 12.8439 7.54687C12.8266 7.53446 12.8058 7.5279 12.7845 7.52812C12.7793 7.52847 12.7744 7.53008 12.77 7.5328C12.7657 7.53553 12.762 7.53929 12.7595 7.54375C12.7532 7.55312 12.7532 7.5625 12.7564 7.575C12.7595 7.5875 12.7782 7.6125 12.8095 7.64375C12.8407 7.675 12.8626 7.7 12.872 7.71875C12.8845 7.73835 12.8912 7.76112 12.8912 7.78437C12.8912 7.80763 12.8845 7.8304 12.872 7.85C12.8585 7.8718 12.839 7.88918 12.8157 7.9C12.7923 7.91079 12.7661 7.91406 12.7407 7.90937C12.7086 7.90394 12.6778 7.89226 12.6501 7.875C12.6097 7.85346 12.5786 7.8179 12.5626 7.775C12.5505 7.73328 12.555 7.6885 12.5751 7.65V7.65ZM12.1313 7.53125L12.3595 7.15625L12.6345 7.32812L12.597 7.39062L12.397 7.26562L12.347 7.35L12.5345 7.46562L12.4938 7.52812L12.3063 7.4125L12.2438 7.51562L12.4532 7.64062L12.4157 7.70312L12.1345 7.53125H12.1313ZM11.4845 7L11.5188 6.9375L11.6876 7.02187L11.6095 7.17812C11.5845 7.18437 11.5532 7.1875 11.5157 7.18437C11.4797 7.18041 11.4448 7.16981 11.4126 7.15312C11.3748 7.1347 11.3425 7.10669 11.3188 7.07187C11.2974 7.03953 11.2864 7.00131 11.2876 6.9625C11.2892 6.9221 11.2999 6.88257 11.3188 6.84687C11.3376 6.80929 11.3656 6.77705 11.4001 6.75312C11.4331 6.73028 11.4724 6.71827 11.5126 6.71875C11.5438 6.71875 11.5751 6.72812 11.6126 6.75C11.6626 6.77187 11.6938 6.80312 11.7095 6.8375C11.7257 6.87162 11.7291 6.91048 11.7188 6.94687L11.6345 6.92187C11.6396 6.90094 11.6374 6.87887 11.6282 6.85937C11.6188 6.84062 11.6032 6.82812 11.5782 6.81562C11.5637 6.80731 11.5475 6.80217 11.5308 6.80056C11.5141 6.79894 11.4972 6.80088 11.4813 6.80625C11.4501 6.81562 11.422 6.84375 11.4001 6.8875C11.3782 6.93125 11.3688 6.97187 11.3782 7.00625C11.3825 7.02255 11.3904 7.03771 11.4012 7.05067C11.412 7.06363 11.4255 7.07406 11.4407 7.08125C11.4563 7.09062 11.4751 7.09687 11.4938 7.09687C11.5125 7.0997 11.5315 7.0997 11.5501 7.09687L11.5751 7.04687L11.4845 7V7ZM8.66572 6.30312L8.72822 5.86562L8.85947 5.8875L8.89385 6.19375L9.01572 5.9125L9.14697 5.93125L9.08447 6.3625L9.0001 6.35L9.05322 6.00937L8.91572 6.3375L8.83135 6.325L8.79697 5.97188L8.74697 6.31562L8.66572 6.30312V6.30312ZM8.2251 6.25L8.26572 5.8125L8.5876 5.84375L8.58135 5.91875L8.34697 5.89687L8.3376 5.99062L8.55635 6.0125L8.54697 6.0875L8.32822 6.06563L8.31885 6.18437L8.5626 6.20625L8.55635 6.28125L8.2251 6.25V6.25Z" fill="#309E3A"/>
<path d="M6.76564 5.97817C6.76564 5.9313 6.77501 5.89692 6.78751 5.86567C6.79847 5.84345 6.81328 5.82335 6.83126 5.8063C6.84729 5.79013 6.86642 5.77738 6.88751 5.7688C6.91876 5.75942 6.95001 5.75317 6.98126 5.75317C7.04689 5.75317 7.09689 5.77817 7.13751 5.81567C7.15685 5.83956 7.17123 5.86707 7.17981 5.89658C7.1884 5.92609 7.19102 5.95701 7.18751 5.98755C7.18751 6.0563 7.16564 6.11255 7.12501 6.15317C7.10413 6.17247 7.07944 6.18717 7.05252 6.19632C7.02561 6.20547 6.99707 6.20887 6.96876 6.2063C6.94083 6.20658 6.91313 6.20119 6.88735 6.19044C6.86156 6.1797 6.83823 6.16383 6.81876 6.1438C6.77987 6.09777 6.76078 6.03823 6.76564 5.97817V5.97817Z" fill="#309E3A"/>
<path d="M6.85645 5.97818C6.85645 6.02506 6.86582 6.06256 6.8877 6.09068C6.90957 6.11568 6.9377 6.13131 6.9752 6.13131C6.99142 6.13244 7.00769 6.12995 7.02283 6.124C7.03796 6.11805 7.05158 6.10881 7.0627 6.09693C7.08457 6.07193 7.09395 6.03443 7.09707 5.98131C7.09707 5.93131 7.09082 5.89381 7.06582 5.86881C7.05564 5.85621 7.04279 5.84603 7.0282 5.83901C7.01361 5.83198 6.99764 5.82829 6.98145 5.82818C6.96501 5.82766 6.94865 5.83074 6.93353 5.83722C6.91842 5.8437 6.9049 5.85342 6.89395 5.86568C6.86895 5.89068 6.85957 5.92818 6.85645 5.97818V5.97818Z" fill="#F7FFFF"/>
<path d="M7.28125 6.20312L7.2875 5.76562H7.475C7.52187 5.76562 7.55312 5.77187 7.575 5.78125C7.59687 5.7875 7.6125 5.80313 7.625 5.82188C7.6375 5.84063 7.64375 5.86563 7.64375 5.89375C7.64399 5.92381 7.63283 5.95285 7.6125 5.975C7.5894 5.99664 7.55967 6.00985 7.52812 6.0125L7.575 6.05C7.5875 6.0625 7.60312 6.0875 7.62187 6.12187L7.675 6.20937H7.56875L7.50625 6.10938L7.4625 6.04688C7.45492 6.03828 7.44523 6.03181 7.43437 6.02812C7.42016 6.02398 7.40543 6.02187 7.39062 6.02187H7.37187V6.20312H7.28125V6.20312Z" fill="#309E3A"/>
<path d="M7.375 5.95308H7.4375C7.48125 5.95308 7.50938 5.95308 7.51875 5.94683C7.52813 5.94683 7.5375 5.93745 7.54375 5.9312C7.55 5.92495 7.55312 5.90933 7.55312 5.89995C7.55312 5.8812 7.55 5.8687 7.54063 5.86245C7.53438 5.85308 7.52188 5.84683 7.50938 5.8437H7.44688L7.375 5.84058V5.94995V5.95308Z" fill="white"/>
<path d="M7.78115 5.7876L7.94365 5.79697C7.97803 5.79697 8.00615 5.8001 8.0249 5.80635C8.04922 5.81517 8.07078 5.83026 8.0874 5.8501C8.1054 5.87195 8.11822 5.89759 8.1249 5.9251C8.13427 5.95322 8.1374 5.9876 8.13427 6.02822C8.13425 6.06012 8.12897 6.09179 8.11865 6.12197C8.10615 6.15322 8.0874 6.17822 8.06553 6.19697C8.04732 6.21197 8.02595 6.22266 8.00303 6.22822C7.98428 6.23447 7.95615 6.23447 7.9249 6.23447L7.75928 6.2251L7.78115 5.7876V5.7876Z" fill="#309E3A"/>
<path d="M7.86572 5.86572L7.8501 6.15635H7.96885C7.98447 6.15635 7.99697 6.1501 8.00635 6.14072C8.01572 6.13135 8.02509 6.11885 8.03134 6.1001C8.03759 6.08135 8.04384 6.05322 8.04384 6.01885L8.04072 5.94072C8.03626 5.92424 8.02765 5.90918 8.01572 5.89697C8.00534 5.88653 7.99241 5.87899 7.97822 5.8751C7.95459 5.86984 7.93054 5.8667 7.90635 5.86572H7.86572V5.86572Z" fill="white"/>
<path d="M9.9248 6.5688L10.0279 6.1438L10.1654 6.17505L10.2654 6.2063C10.2873 6.2188 10.3061 6.23755 10.3154 6.26567C10.3279 6.29067 10.3279 6.3188 10.3217 6.35317C10.3154 6.37817 10.3061 6.40005 10.2904 6.41567C10.279 6.4294 10.2646 6.44043 10.2484 6.44799C10.2322 6.45555 10.2146 6.45945 10.1967 6.45942C10.1748 6.45942 10.1436 6.45317 10.1029 6.4438L10.0498 6.42817L10.0123 6.59067L9.9248 6.5688V6.5688Z" fill="#309E3A"/>
<path d="M10.0934 6.23755L10.0684 6.3563L10.1152 6.3688C10.1465 6.37505 10.1715 6.3813 10.184 6.37817C10.1961 6.37649 10.2075 6.37107 10.2164 6.36268C10.2254 6.35428 10.2315 6.34332 10.234 6.3313C10.234 6.31567 10.234 6.30317 10.2277 6.29067C10.2209 6.27797 10.2098 6.26803 10.1965 6.26255L10.1371 6.24692L10.0965 6.23755H10.0934Z" fill="white"/>
<path d="M10.3311 6.69058L10.4779 6.27808L10.6498 6.34058C10.6967 6.3562 10.7248 6.37183 10.7436 6.38433C10.7592 6.39995 10.7717 6.41558 10.7748 6.44058C10.7779 6.46558 10.7811 6.48745 10.7748 6.51245C10.7623 6.5437 10.7436 6.56558 10.7186 6.5812C10.6936 6.5937 10.6623 6.59683 10.6248 6.59058C10.6373 6.6062 10.6498 6.62183 10.6561 6.64058L10.6811 6.72495L10.6998 6.82183L10.6029 6.78745L10.5717 6.67495C10.566 6.64951 10.5587 6.62446 10.5498 6.59995C10.5457 6.59023 10.5392 6.58165 10.5311 6.57495C10.5248 6.56558 10.5123 6.55933 10.4904 6.55308L10.4748 6.54683L10.4123 6.72183L10.3311 6.69058V6.69058Z" fill="#309E3A"/>
<path d="M10.4997 6.4813L10.5591 6.50317C10.5997 6.5188 10.6247 6.52505 10.6372 6.52505C10.6466 6.52505 10.656 6.52505 10.6653 6.51567C10.6747 6.50942 10.681 6.50005 10.6841 6.48755C10.6903 6.47505 10.6903 6.46255 10.6841 6.45005C10.6795 6.43794 10.6706 6.42793 10.6591 6.42192L10.5966 6.40005L10.5341 6.37817L10.4966 6.4813H10.4997Z" fill="white"/>
<path d="M10.8439 6.6751C10.8547 6.63851 10.8728 6.60449 10.8971 6.5751C10.9129 6.55624 10.9319 6.54037 10.9533 6.52822C10.9727 6.51728 10.9939 6.50987 11.0158 6.50635C11.0471 6.50635 11.0783 6.50635 11.1127 6.51885C11.1406 6.52576 11.1668 6.53853 11.1894 6.55631C11.212 6.57408 11.2306 6.59647 11.2439 6.62197C11.2689 6.67197 11.2689 6.73135 11.2502 6.8001C11.2347 6.85916 11.1965 6.90971 11.1439 6.94073C11.0971 6.96885 11.0408 6.97198 10.9814 6.95323C10.9536 6.94613 10.9275 6.93329 10.9049 6.91553C10.8823 6.89777 10.8637 6.87549 10.8502 6.8501C10.8377 6.82278 10.8307 6.79325 10.8296 6.76322C10.8285 6.73319 10.8334 6.70324 10.8439 6.6751V6.6751Z" fill="#309E3A"/>
<path d="M10.9314 6.70001C10.9189 6.74688 10.9157 6.78751 10.9314 6.81876C10.947 6.85001 10.9689 6.86876 11.0032 6.88126C11.0345 6.89063 11.0657 6.88751 11.097 6.86876C11.1282 6.85313 11.147 6.81876 11.1626 6.76876C11.1782 6.72188 11.1782 6.68438 11.1626 6.65313C11.1564 6.6383 11.1471 6.62502 11.1352 6.61422C11.1233 6.60342 11.1092 6.59536 11.0939 6.59063C11.0785 6.58532 11.0621 6.58341 11.0459 6.58503C11.0298 6.58665 11.0141 6.59176 11.0001 6.60001C10.9689 6.61876 10.947 6.65001 10.9314 6.70001V6.70001Z" fill="white"/>
<path d="M11.6968 7.28447L11.8968 6.89697L12.0624 6.98135C12.0936 6.99633 12.1221 7.01639 12.1468 7.04072C12.1624 7.05635 12.1718 7.0751 12.1718 7.1001C12.1718 7.1251 12.1718 7.14697 12.1593 7.16885C12.1473 7.19695 12.1249 7.21933 12.0968 7.23135C12.0655 7.2376 12.0343 7.2376 11.9999 7.2251C12.0124 7.24385 12.0187 7.2626 12.0249 7.27822C12.0312 7.29697 12.0343 7.3251 12.0374 7.36572L12.0437 7.46572L11.9499 7.41885L11.9374 7.30322C11.9359 7.27701 11.9328 7.25092 11.928 7.2251C11.9259 7.21341 11.9205 7.20257 11.9124 7.19385L11.8749 7.17197L11.8593 7.1626L11.7749 7.3251L11.6968 7.28447V7.28447Z" fill="#309E3A"/>
<path d="M11.8906 7.1L11.95 7.13125C11.9875 7.15 12.0125 7.1625 12.0219 7.1625C12.0312 7.1625 12.0437 7.1625 12.0531 7.15625C12.0625 7.15312 12.0687 7.14375 12.075 7.13125C12.0812 7.11875 12.0844 7.10625 12.0812 7.09375C12.0774 7.08131 12.0697 7.07038 12.0594 7.0625C12.0411 7.05127 12.0223 7.04085 12.0031 7.03125L11.9406 7L11.8906 7.1V7.1Z" fill="white"/>
<path d="M13.3158 8.08428C13.336 8.05215 13.3626 8.0245 13.3939 8.00303C13.415 7.98957 13.4383 7.98005 13.4627 7.97491C13.4854 7.97028 13.5088 7.97028 13.5314 7.97491C13.5627 7.98116 13.5908 7.99366 13.6189 8.01241C13.6433 8.02756 13.6642 8.04761 13.6803 8.07128C13.6964 8.09496 13.7075 8.12173 13.7127 8.14991C13.7221 8.20303 13.7064 8.26241 13.6689 8.32178C13.6376 8.37342 13.587 8.41051 13.5283 8.42491C13.5003 8.43095 13.4714 8.43101 13.4434 8.42509C13.4154 8.41917 13.3889 8.40739 13.3658 8.39053C13.3415 8.37538 13.3206 8.35533 13.3045 8.33166C13.2883 8.30798 13.2773 8.28121 13.2721 8.25303C13.2627 8.19678 13.2783 8.14053 13.3158 8.08428Z" fill="#309E3A"/>
<path d="M13.3937 8.13418C13.3625 8.17481 13.3531 8.21231 13.3594 8.24668C13.3617 8.26251 13.3673 8.27766 13.3759 8.29114C13.3846 8.30461 13.396 8.31609 13.4094 8.32481C13.4406 8.34668 13.4719 8.35293 13.5031 8.34356C13.5344 8.33418 13.5656 8.31231 13.5937 8.26856C13.6219 8.22481 13.6344 8.18731 13.6281 8.15606C13.625 8.12481 13.6062 8.09668 13.5781 8.07481C13.55 8.05293 13.5156 8.04981 13.4844 8.05918C13.4531 8.06543 13.4219 8.09043 13.3906 8.13418H13.3937Z" fill="white"/>
<path d="M9.43115 6.39072L9.50303 6.08447L9.72803 6.1376L9.71865 6.1876L9.55303 6.1501L9.5374 6.21885L9.69053 6.25322L9.67803 6.30635L9.5249 6.26885L9.50615 6.35322L9.67803 6.39385L9.66553 6.44385L9.43115 6.39072V6.39072Z" fill="#309E3A"/>
</svg>
