<?xml version="1.0" encoding="utf-8"?>
<!-- Generator: Adobe Illustrator 22.0.1, SVG Export Plug-In . SVG Version: 6.00 Build 0)  -->
<svg id="Warstwa_1" xmlns="http://www.w3.org/2000/svg"  xmlns:xlink="http://www.w3.org/1999/xlink" x="0px" y="0px"
	 viewBox="0 0 18 18" style="enable-background:new 0 0 18 18;" xml:space="preserve">
<style type="text/css">
	.st0{fill:#B9BDC5;}
	.st1{fill:#FFFFFF;}
	.st2{fill:none;stroke:#B9BDC5;stroke-width:2;stroke-miterlimit:10;}
</style>
<g id="Filled">
	<path class="st0" d="M15,18H3c-0.5,0-1-0.5-1-1V7c0-0.6,0.5-1,1-1h12c0.6,0,1,0.4,1,1v10C16,17.5,15.6,18,15,18z"/>
	<g id="done">
		<path class="st1" d="M12.9,9.8l-0.7-0.7C12,9,11.6,9,11.4,9.1c0,0,0,0,0,0L8,12.6l-1.4-1.4C6.4,11,6,11,5.9,11.1c0,0,0,0,0,0
			l-0.7,0.7C5,12,5,12.4,5.1,12.6c0,0,0,0,0,0l2.3,2.3C7.5,14.9,7.7,15,7.8,15h0.4c0.1,0,0.3-0.1,0.3-0.1l4.3-4.3
			C13,10.4,13,10,12.9,9.8C12.9,9.9,12.9,9.9,12.9,9.8z"/>
	</g>
	<path class="st2" d="M13.1,9.5c0-0.3,0-3.9,0-4.3c0-2.4-1.9-4.3-4.3-4.3S5,2.6,5,5c0,0.3,0,3,0,4"/>
</g>
</svg>
