<svg id="vpn-map" xmlns="http://www.w3.org/2000/svg" width="1013" height="512.03" viewBox="0 0 1013 512.03">
  <defs>
    <style>
      .cls-1 {
        fill: #e6e8ec;
      }

      .cls-1, .cls-2, .cls-3, .cls-4 {
        fill-rule: evenodd;
      }

      .cls-2 {
        fill: none;
        stroke: #a4e0ff;
        stroke-width: 2px;
      }

      .cls-3 {
        fill: #2d71e1;
      }

      .cls-4 {
        fill: #fff;
      }
    </style>
  </defs>
  <path id="Kształt_1736" data-name="Kształt 1736" class="cls-1" d="M843.176,5215.25c-4.234-1.58-5.419-3.13-4.413-5.77,0.466-1.23,1.361-2.23,1.989-2.23s3.377,1.44,6.109,3.21a52.39,52.39,0,0,0,7.423,4.09l2.456,0.9-3.022.06c-1.662.04-4.1,0.22-5.418,0.41a12.477,12.477,0,0,1-5.124-.67h0Zm-9.611-8.12a4.29,4.29,0,0,0-2.954-.34c-1.041.33-1.846-.16-2.617-1.6a5.915,5.915,0,0,0-2.438-2.53c-1.673-.57-5.178-6.25-7.13-11.54-0.985-2.67-2.311-4.51-3.884-5.41-2.792-1.58-2.992-2.3-.831-2.99,2.472-.78,2.932-5.13.851-8.05-0.993-1.4-1.515-3.03-1.216-3.81,0.353-.92-0.622-2.53-2.981-4.93-2.979-3.04-3.53-4.14-3.663-7.33-0.086-2.07-.591-4.28-1.12-4.92-0.668-.8-0.8-3.69-0.444-9.39a51.879,51.879,0,0,0-.913-15.3c-1.6-7.89-2.414-22.6-2-36.01a35.8,35.8,0,0,0-.825-8.73c-1.321-4.73-7.4-10.69-14.912-14.63-5.374-2.82-6.129-3.55-8.23-7.88a58.458,58.458,0,0,0-5.4-8.71,29.055,29.055,0,0,1-4.105-7.08c-1.774-5.47-4.9-10.97-7.031-12.36a8.554,8.554,0,0,1-2.875-4.29c-0.723-2.62-.533-3.35,1.731-6.63,2.454-3.56,2.483-3.71.825-4.14-4.076-1.07-2.362-6.51,4.954-15.73,4.862-6.13,6.287-10.8,4.94-16.19-0.514-2.05-.973-4.2-1.022-4.78a1.031,1.031,0,0,0-.812-1.04c-0.4,0-.321-0.75.17-1.67,0.758-1.41.567-1.81-1.254-2.64-2.654-1.21-6.662-.02-6.677,1.99-0.019,2.4-1.077,2.58-4.564.76a17.872,17.872,0,0,0-4.311-1.77c-0.5,0-2.461-1.33-4.351-2.95s-3.9-3.33-4.477-3.78a3.962,3.962,0,0,1-1.042-2.75,5.328,5.328,0,0,0-1.636-3.39,12.105,12.105,0,0,1-2.591-4.37c-0.69-2.09-1.207-2.64-1.865-1.98-1.373,1.37-3.407,1.11-8.342-1.07a17.45,17.45,0,0,1-6.341-4.59,14.724,14.724,0,0,0-4.351-3.9c-2.258-1.17-2.823-1.16-6.112.09l-3.624,1.39-11.12-5.39c-6.839-3.31-12.147-6.46-13.792-8.2-2.549-2.69-2.631-2.98-1.783-6.32,0.777-3.06.645-4.01-1.045-7.49a37.431,37.431,0,0,0-5.166-7.5c-1.777-1.92-3.029-3.82-2.782-4.22s-1.006-3.09-2.782-5.97a26.654,26.654,0,0,1-3.8-9.36c-0.454-3.3-.983-4.31-2.656-5.07-1.774-.81-2.27-0.7-3.285.68-1.431,1.96-1.024,4.02,2.139,10.84a41.625,41.625,0,0,1,2.951,9.14,28.517,28.517,0,0,0,2.22,7.24c2.09,4.09.741,4.02-2.556-.14-1.944-2.45-2.469-3.8-2.083-5.33,0.412-1.65.006-2.44-2.015-3.93-3.065-2.26-3.713-3.72-2.587-5.82,0.656-1.23.355-2.57-1.312-5.86-1.693-3.34-2.048-4.95-1.628-7.43,0.685-4.05-1.135-7.72-4.527-9.12-1.959-.81-2.634-1.72-3.033-4.07-0.283-1.67-.824-4.25-1.2-5.73-0.394-1.55-.365-2.9.067-3.17,0.415-.25.143-1.4-0.6-2.54-1.1-1.68-1.177-2.47-.4-4.18,0.529-1.16.729-2.49,0.444-2.95s0.425-1.83,1.579-3.06a21.233,21.233,0,0,0,3.413-5.41,32.111,32.111,0,0,1,4.955-7.24,38.623,38.623,0,0,0,5.639-8.65c1.526-3.53,2.421-4.62,3.782-4.63,0.981-.01,1.731.45,1.668,1.02-0.266,2.39,1.623,1.66,3.744-1.45,1.25-1.83,1.924-3.46,1.5-3.61a1.666,1.666,0,0,1-.774-1.53c0-.69-1.726-2.93-3.835-4.98-3.5-3.39-3.723-3.84-2.56-5.13a2.146,2.146,0,0,0,.425-2.92c-1.105-1.97.638-6.39,2.528-6.41,0.781,0,1-.27.524-0.62-1.075-.79-1.562-2.58-1.411-5.19,0.241-4.17-.672-5.91-3.776-7.21a31.245,31.245,0,0,1-5.675-3.27,9.579,9.579,0,0,0-4.082-2.01,65.048,65.048,0,0,1-8.054-1.68c-5.839-1.49-6.869-1.55-8.891-.51-4.192,2.15-8.634,3.03-10.444,2.06-1.358-.72-2.841-0.27-8.009,2.43a53.382,53.382,0,0,1-9.259,3.94,35.479,35.479,0,0,0-6.825,2.59c-6.094,3.07-14.825,6.16-17.24,6.11-1.559-.04-0.5-0.72,3.642-2.36,7.047-2.79,14.289-6.43,14.959-7.51,0.825-1.33-.966-1.81-3.117-0.83-1.584.72-2.56,0.65-4.388-.31l-2.35-1.23,2.557-1.32c2.89-1.49,3.8-3.18,3.135-5.82-0.643-2.56,2.9-4.44,10.543-5.59,4.105-.62,7.226-1.65,9.327-3.08,3.7-2.52,3.068-4.42-.926-2.77-1.892.78-3.269,0.79-6.069,0.04-3.4-.92-3.525-1.05-2-2.16,2.548-1.86,7.816-2.98,11.277-2.39a8.764,8.764,0,0,0,5.825-.84l2.661-1.38-1.752-1.86a8.1,8.1,0,0,1-1.751-2.35c0-.77,5.018-2.32,7.527-2.32a31.349,31.349,0,0,0,7.63-2.01,89.067,89.067,0,0,1,15.094-3.36c8.689-1.2,10.529-1.21,17.045-.14,4.017,0.67,9.554,1.46,12.305,1.77a84.241,84.241,0,0,1,10.82,2.15c7.432,2.03,12.273,2.01,20.576-.11,3.667-.93,7.372-1.48,8.235-1.2a4.9,4.9,0,0,0,3.26-.41c1.281-.68,2.275-0.6,4.1.34a10.946,10.946,0,0,0,6.468.78,19.68,19.68,0,0,1,9.238,1.27,33.692,33.692,0,0,0,7.037,1.75c1.805,0,1.811.03,0.234,1.19-1.546,1.14-1.55,1.22-.1,1.78a21.067,21.067,0,0,0,6.446.07c4.894-.51,4.936-0.49,6.3,2.14l1.373,2.66,1.784-2.24a13,13,0,0,1,5.725-3.42c3.424-1.03,4.463-1.02,7.9.03a18.719,18.719,0,0,0,7.509.7c2.771-.4,4.057-0.15,5.865,1.13,2.282,1.63,2.346,1.63,4.37.06a17.916,17.916,0,0,1,5.166-2.45c4.1-1.15,5.487-3.57,3.026-5.3-1.74-1.21-1.664-1.31,2.91-3.55,3.411-1.67,4.947-2.05,5.612-1.38s0.658,1.39-.025,2.67c-1.163,2.17.285,5.45,2.1,4.75a3.88,3.88,0,0,1,2.406.02c1.053,0.4,1.036.74-.124,2.51-3.205,4.89,3.98,3.5,8.845-1.7a7.159,7.159,0,0,1,7.914-1.66c1.855,0.71,1.681,1.29-1.391,4.66-3.66,4.01-5.533,4.83-11.031,4.83a18.8,18.8,0,0,0-7.256,1.33c-2.024,1.04-3.01,1.13-4.606.4-2.975-1.35-4.011-.23-1.877,2.04l1.822,1.94-3.635,1.03a36.338,36.338,0,0,1-7.385,1.15c-2.992.1-3.753,0.42-3.757,1.61,0,1.01-1.46,2.07-4.585,3.35-10.126,4.13-18.716,11.58-15.606,13.54a7.939,7.939,0,0,1,2.055,2.93,4.6,4.6,0,0,0,3.317,2.73,42.647,42.647,0,0,1,7.322,2.93,45.83,45.83,0,0,0,7.5,3c3.786,0.82,3.819.91,2.056,5.38-1.509,3.82-1.54,4.37-.37,6.63,0.7,1.35,1.733,2.44,2.294,2.43,2.732-.08,5.293-2.6,6.884-6.77,1.517-3.97,2.208-4.71,6.562-7.04,6.424-3.42,9.1-6.8,8.384-10.59-0.463-2.47-.223-3.05,1.893-4.55a14.623,14.623,0,0,0,3.924-5.05c1.842-4.08,4.8-5.49,9.8-4.68,4.427,0.72,9.663,3.53,10.3,5.52a4.938,4.938,0,0,1-.479,3.26c-0.793,1.48-.643,2.11.9,3.74l1.848,1.97,3.017-1.57a50.228,50.228,0,0,0,5.91-3.72l2.893-2.16,0.68,1.83a5.176,5.176,0,0,1,.235,2.99,3.969,3.969,0,0,0,.422,2.77,3.133,3.133,0,0,1,.11,2.97c-0.528.94-.176,2.37,1.166,4.73,1.922,3.38,1.922,3.39.234,4.57-2.221,1.55-.8,3.2,1.642,1.89a6.078,6.078,0,0,1,6.9.42q3.791,3.435-6.28,8.17c-7.294,3.43-10.545,4.11-20.066,4.19-7.03.06-7.961,0.29-14.8,3.56-4.012,1.92-7.294,3.82-7.294,4.22,0,1.72,1.264,1.57,6.114-.72,2.857-1.35,6.541-2.43,8.295-2.43,3,0,3.105.09,2.17,1.84a12.2,12.2,0,0,1-2.6,3.14c-1.394,1.13-1.476,1.61-.6,3.52,1.309,2.87,4.727,4.25,8.815,3.56l3.231-.54-2.484,1.71a17.052,17.052,0,0,1-5,2.25,34.411,34.411,0,0,0-6.323,2.46c-2.125,1.07-4.259,1.63-4.833,1.28-1.319-.81.074-2.03,4.36-3.82,3.812-1.59,3.2-3.28-.906-2.51a85.829,85.829,0,0,0-11.53,4.33c-7.4,3.26-8.693,4.12-9.123,6.08-0.53,2.41-2.337,3.55-8.69,5.48a16.267,16.267,0,0,0-5.835,3.3,33.3,33.3,0,0,1-5.033,4.01,8.187,8.187,0,0,0-3.372,3.88c-0.445,1.88-.548,1.93-1.105.48-1.043-2.71-2.615-.06-2.7,4.56-0.093,4.74-2.5,7.97-7.768,10.44-5.4,2.54-13.1,8.53-14.654,11.42-1.376,2.55-1.434,3.55-.586,10.11,0.791,6.11.744,7.65-.3,9.66-0.777,1.5-1.684,2.22-2.438,1.93-1.789-.69-3.977-8.04-3.363-11.3,0.425-2.27.143-3.13-1.548-4.72-1.364-1.28-2.622-1.76-3.692-1.42-0.893.28-3.418-.26-5.614-1.2-3.364-1.44-4.437-1.56-6.839-.77a6.781,6.781,0,0,0-3.776,2.97c-0.788,1.73-1.31,1.95-3.487,1.49a24.283,24.283,0,0,1-4.811-1.7c-3.049-1.56-4.757-1.45-8.182.52-1.6.92-4.857,2.67-7.244,3.9-2.743,1.41-4.627,3.02-5.121,4.37-0.43,1.17-1.967,5.75-3.416,10.17l-2.634,8.03,1.345,5.18c2.472,9.53,5.911,12.38,13.077,10.85,5.4-1.16,8.646-3.5,9.838-7.11,0.757-2.29,1.574-3.05,4.02-3.73,3.68-1.02,5.217-1.06,6.63-.16,1.167,0.74.757,1.95-4.466,13.25-3.584,7.75-3.325,8.44,2.814,7.56,5.594-.81,10.707-0.19,11.3,1.36,0.233,0.61-.146,4.7-0.842,9.09-1.244,7.86-1.235,8.03.556,10.93a13.3,13.3,0,0,0,4.173,4.16c2.065,1.06,2.713,1.06,5.311-.02,4.129-1.73,6.371-1.54,9.238.75,2.293,1.83,2.618,1.88,4.419.7a11.587,11.587,0,0,0,3.243-3.85c1.609-3.21,4.321-5.46,6.6-5.48a6.611,6.611,0,0,0,3.688-2.1c2.187-2.33,6.037-3.08,4.155-.82-1.579,1.9-2.482,8.02-1.464,9.92,0.847,1.58.915,1.57,2.458-.33,1.1-1.36,1.319-2.23.719-2.83-1.432-1.43-1-2.61,1.664-4.58,2.766-2.04,4.9-1.83,7.292.71,1.75,1.87,11.094,4.39,13.772,3.72,4.079-1.02,15.1,5.67,19.238,11.69,1.972,2.86,8.269,5.74,11.039,5.05,5.7-1.43,13.507,4.27,15.333,11.19,0.544,2.06,1.364,3.98,1.822,4.26,1.217,0.76-.605,3.75-4.588,7.53-2.544,2.42-3.151,3.46-2.436,4.18s1.893,0.09,4.718-2.52c4.109-3.78,5.48-4.16,7.539-2.11,1.252,1.25,1.214,1.51-.5,3.33a6.432,6.432,0,0,1-3.172,2.03c-0.761.03-.453,0.4,0.732,0.87,1.629,0.65,2.478.47,4.168-.9,4.4-3.55,5.436-3.72,9.346-1.54,2.541,1.42,3.559,2.5,3.431,3.64-0.356,3.18.393,3.88,2.6,2.44,1.752-1.15,2.954-1.2,8.814-.4,6.234,0.85,7.05,1.19,10.041,4.18a17.7,17.7,0,0,0,7.855,4.59c4.213,1.22,4.671,1.59,5.435,4.43,1.107,4.1-.191,8.66-3.7,12.99a43.627,43.627,0,0,0-4.084,6.04,22.829,22.829,0,0,1-3.529,4.84c-2.022,2.02-2.135,2.53-1.631,7.32,0.985,9.37-3.6,26.84-8.027,30.58-1.441,1.22-2.673,1.5-4.958,1.15-1.878-.29-3.267-0.1-3.634.49A12.686,12.686,0,0,1,885.2,5099a31.2,31.2,0,0,0-6.279,3.93c-2.692,2.3-2.783,2.55-1.877,5.3a11.488,11.488,0,0,1-1.9,10.09,8.1,8.1,0,0,0-1.316,3.91,9.71,9.71,0,0,1-1.933,4.6,85,85,0,0,0-4.557,7.21c-3.551,6.26-5.686,7.35-10.834,5.51-4.468-1.6-6.85-1.79-6.85-.55,0,0.47.89,1.25,1.979,1.75s2.785,2.51,3.769,4.48c1.467,2.93,1.622,3.95.858,5.63-1.184,2.59-5.712,4.77-9.92,4.77-3.727,0-4.652.91-3.364,3.31,0.794,1.49.26,3.87-1.277,5.7-0.124.15-1.43-.35-2.9-1.11-3.511-1.81-4.754-.66-2.98,2.77a6.9,6.9,0,0,0,3.05,3.09c1.642,0.52,1.66.63,0.325,2.1a3.3,3.3,0,0,0-.9,2.9c0.3,0.8-.375,2.51-1.663,4.19-2.1,2.75-2.125,2.94-.782,4.99a7.782,7.782,0,0,0,2.662,2.61c2.51,0.96,2.926,4.25,1.012,8s-2.212,7.51-.728,9.3c1.35,1.62-3.191,4.79-5.233,3.65h0Zm-61.434-360.6c2.227-4.65,6.372-8.11,9.71-8.11,2.4,0,2.43.39,0.231,3.18l-1.73,2.2,1.775,1.44c1.43,1.15,2.167,1.25,3.8.51a5.135,5.135,0,0,0,2.535-2.53c0.382-1.2,1-1.48,2.472-1.12,1.359,0.34,2.21.05,2.769-.95,1.693-3.02-2.617-6.88-5.79-5.19-2.27,1.22-5.237-1.2-4.6-3.75a5.142,5.142,0,0,0-1.084-3.68c-1.723-2.27-4.344-2.51-10.081-.92a25.375,25.375,0,0,1-5.228.98c-0.812-.03-1.259.29-0.992,0.72s0.18,0.8-.191.81a8.789,8.789,0,0,0-2.748,1.61l-2.075,1.59,2.33,0.88c1.821,0.69,2.894.59,4.917-.45,2.377-1.23,2.817-1.23,5.412.01a8.621,8.621,0,0,0,4.777.85c1.074-.27,2.182-0.11,2.463.34,0.288,0.47-.886,1.06-2.681,1.37-4.879.82-7.413,2.85-10.952,8.76-2.955,4.94-3.125,5.54-1.947,6.85,1.156,1.28,1.475,1.3,3.061.19,0.974-.68,2.708-3.19,3.854-5.59h0Zm15.145,5.14c2.967-1.51,3.253-1.89,2.207-2.93s-1.706-.98-5.108.52c-4,1.77-5.263,4.15-2.208,4.15A15.691,15.691,0,0,0,787.276,4851.67Zm14.78-6.29c1.737-1.21,1.8-1.45.577-2.14-1.8-1-7.161.73-7.161,2.32C795.472,4847.2,799.615,4847.09,802.056,4845.38Zm62.6,359.54a3.31,3.31,0,0,1,1-1.67c0.551-.54.686-0.99,0.3-0.99a3.233,3.233,0,0,0-1.7,1.36c-0.789,1.08-1.335,1.17-2.592.44-0.9-.52-1.118-0.93-0.5-0.95,0.6-.01.859-0.4,0.576-0.85-0.545-.88.886-1.12,5-0.84,3.673,0.25,4.042.78,1.772,2.57-2.115,1.66-3.856,2.08-3.856.93h0Zm675.361-31.29q-3.585-2.265,14.89-9.99a64.586,64.586,0,0,0,11.64-6.69c5.05-3.81,5.46-3.97,6.46-2.55,1.52,2.17.63,3.73-3.08,5.4a17.144,17.144,0,0,0-4.94,3.43,5.676,5.676,0,0,1-3.4,1.99c-0.92,0-3.08,1.26-4.8,2.8-5.89,5.28-13.35,7.78-16.77,5.61h0Zm-37.55-.42c-0.86-.55-0.91-1.11-0.2-2.43a11.125,11.125,0,0,0,.91-4.33c0-2.34.19-2.54,1.88-1.95a19.736,19.736,0,0,0,4.79.77c1.61,0.06,3.21.17,3.57,0.23,1.38,0.26-2.32,4.46-5.63,6.4-3.96,2.31-3.79,2.27-5.32,1.31h0Zm75.53-17.68c-0.29-.29.4-1.25,1.53-2.14,1.7-1.33,1.9-1.9,1.15-3.29-1.07-2,.53-4.16,4.23-5.69,2.87-1.19,3.59-3.59,2.82-9.41-0.53-3.99-.47-4.24.82-3.18,1.02,0.84,1.27,1.89.9,3.82-0.39,2.1-.04,3.2,1.72,5.29,1.9,2.25,2.47,2.5,3.95,1.71s1.64-.72,1.18.49a9.219,9.219,0,0,0-.54,1.74,9.8,9.8,0,0,1-2.71,1.71,45.688,45.688,0,0,0-6.46,4.48c-3.36,2.77-6.81,5-7.73,5a1.776,1.776,0,0,1-.86-0.53h0Zm-67.35-.35c-1.76-1.87-2.08-1.94-3.77-.84-2.15,1.41-6.18.59-9.42-1.92-1.73-1.33-1.85-1.76-.96-3.42a3.8,3.8,0,0,0,.1-3.92,10.938,10.938,0,0,1-.92-3.64c0-2.02-1.31-2.11-2.39-.18-0.45.8-1.06,1.21-1.35,0.92s0.68-1.9,2.15-3.57c3.62-4.12,2.21-5.24-2.58-2.04-2.06,1.38-3.88,2.89-4.04,3.35s-1.16-.97-2.21-3.17a15.678,15.678,0,0,0-4.86-5.96c-2.65-1.74-3.54-1.89-8.63-1.38-7.46.74-14.66,2.58-19.37,4.95a33.278,33.278,0,0,1-9.55,2.51,54.321,54.321,0,0,0-11.15,2.64c-4.55,1.71-5.84,1.89-8.15,1.13-3.09-1.02-4.38-3.13-2.38-3.89,0.73-.28,2.04-2.19,2.92-4.25,1.42-3.29,1.5-4.32.66-8.57-0.7-3.52-.71-6.86-0.07-12.28,0.48-4.09.67-8.24,0.41-9.23s0.14-3.39.89-5.35c1.33-3.46,1.65-3.69,10.59-7.47,5.07-2.15,10.26-3.9,11.54-3.9,3.44,0,7.71-3.28,10.06-7.73,1.46-2.75,2.46-3.79,3.34-3.46,2.43,0.94,2.91.76,2.72-1.04a2,2,0,0,1,1.37-2.32,9.869,9.869,0,0,0,3.53-3.37,13.152,13.152,0,0,1,5.2-4.17c3.04-1.22,3.35-1.21,5,.3,3.06,2.77,5.22,3.58,6.26,2.33a1.4,1.4,0,0,0,.38-1.62c-0.96-.96,3.41-6.43,5.54-6.95a33.39,33.39,0,0,0,5.23-2.09c2.7-1.35,3.65-1.44,6.67-.63,6.52,1.75,6.74,2.03,4.31,5.69-3.12,4.71-2.29,6.55,5.36,11.92,3.53,2.48,6.86,4.37,7.4,4.19s2.26-2.09,3.82-4.23a15.256,15.256,0,0,0,3.28-8.47c0.48-4.88,2.82-11.66,4.01-11.66,0.4,0,1.31,2.01,2.02,4.46a16.966,16.966,0,0,0,3.32,6.35c2.61,2.45,4.12,9.27,2.95,13.31-0.78,2.67-.63,3.1,2.03,5.83a38.261,38.261,0,0,1,5.53,8.77,65.6,65.6,0,0,0,5.89,10.08l3.22,4.25-0.91,6.56a29.886,29.886,0,0,1-3.74,11.57c-3.15,5.56-7.84,10.86-10.32,11.65-0.89.28-2.95,2.37-4.58,4.63s-3.34,4.13-3.79,4.13-2.35,1.94-4.23,4.32c-3.14,3.97-3.72,4.33-6.99,4.39a10.279,10.279,0,0,0-6.49,2.3l-2.93,2.23-1.92-2.04h0Zm-406.47-17.51c-1.77-1.76-2.06-2.66-1.67-5.09,0.37-2.29.02-3.63-1.57-5.96a13.332,13.332,0,0,1-2.04-3.92c0-.5-1.48-2.88-3.28-5.29-2.78-3.73-3.36-5.22-3.82-9.93a65.951,65.951,0,0,0-7.04-23.86,38.267,38.267,0,0,1-3.75-9.26c-0.66-4.01.97-9.97,4.69-17.2l2.48-4.81-1.39-4.18c-0.78-2.34-1.16-5.11-.86-6.28a6.372,6.372,0,0,0-1.08-4.75,37.014,37.014,0,0,1-2.91-7.23,16.932,16.932,0,0,0-5.05-8.24c-5.28-5.18-5.97-7.21-4.33-12.85,3.34-11.47-.27-18.15-9.08-16.83-3.42.51-3.56,0.45-4.04-1.97-0.37-1.86-1.38-2.95-3.91-4.24-3.29-1.68-4.7-1.68-8.73-.04-0.92.37-4.67,1.66-8.34,2.87-5.51,1.82-7.17,2.05-9.57,1.35-2.27-.65-4.19-0.48-8.84.79-4.81,1.32-6.56,1.46-9.15.74-5.43-1.49-14.741-9.88-16.066-14.46-1.025-3.54-7.4-11.8-9.572-12.39-1.38-.38-1.549-0.67-0.7-1.22s0.7-.82-0.625-1.17c-2.106-.55-2.316-2.27-0.279-2.29,1.247-.01,1.277-0.13.209-0.81-0.788-.51-0.875-0.82-0.237-0.82,0.662-.01.41-1.04-0.726-2.96-1.6-2.71-1.632-3.07-.411-4.41,3.73-4.12,4.547-12.98,1.712-18.57-1.353-2.66-.483-6.34,2.4-10.17a74.41,74.41,0,0,0,4.718-7.79c2.637-4.98,8.515-11.9,10.107-11.9,1.76,0,7.44-6.1,7.44-7.99,0-4.27,2.55-8.52,6.72-11.19a22.273,22.273,0,0,0,5.83-5.45c1.98-3.2,2.26-3.3,4.56-1.7a15.2,15.2,0,0,0,4.99,1.71c2.81,0.47,4.16.13,8.34-2.11,7.2-3.84,11.65-4.8,19.88-4.29,5.43,0.34,7.88.12,10.51-.93,3.88-1.55,7.23-.63,6.32,1.73a2.606,2.606,0,0,0,.37,2.33c0.6,0.72.6,1.76-.01,3.36-0.77,2.01-.6,2.61,1.3,4.59a10.87,10.87,0,0,0,4.78,2.79c6.7,1.34,8.6,2.21,9.98,4.55a6.025,6.025,0,0,0,4.54,3,24.01,24.01,0,0,1,5.52,1.83c2.24,1.16,2.53,1.12,4.41-.64,1.26-1.18,1.83-2.44,1.53-3.37a4.824,4.824,0,0,1,.44-3.17c1.29-2.41,4.95-2.18,10.67.68,6.23,3.12,18.04,5.34,22.23,4.19a10.088,10.088,0,0,1,5.71-.03c5.76,1.77,8.71.39,9.5-4.45,0.26-1.61.71-2.92,0.99-2.92,0.54,0,.82-2.42.9-7.7,0.03-1.72.43-3.13,0.9-3.13,0.56,0,.54-0.6-0.08-1.75-1.02-1.91-3.1-1.87-8.08.17-2.36.97-3.01,0.93-5.13-.32-2.74-1.61-5.55-1.86-6.36-.55-0.6.98-4.87,0.3-7.18-1.15-1.66-1.03-3.21-4.12-3.21-6.38a4.374,4.374,0,0,0-1.88-2.9c-1.59-1.12-1.69-1.44-.62-2.13a4.706,4.706,0,0,1,3.14-.38c1.33,0.31,2.55-.21,4.09-1.75a7.761,7.761,0,0,1,5.19-2.35,12.613,12.613,0,0,0,5.31-1.68c2.75-1.81,9-1.31,13.86,1.12,6.54,3.27,12.35,3.08,14.69-.49,1.22-1.85,1.22-2.24.07-4-0.71-1.08-4.08-3.55-7.51-5.49l-6.23-3.54,1.16-2.26c0.65-1.24.96-2.46,0.71-2.72a1.486,1.486,0,0,1,.21-1.56,6.929,6.929,0,0,0,.85-2.17c0.19-1.27-1.15-.92-7.78,2.01-3.85,1.7-4.42,2.22-3.57,3.25a4.244,4.244,0,0,0,2.79,1.26c1.37,0.03,1.05.42-1.41,1.72-2.99,1.57-3.33,1.59-5.27.32-1.66-1.09-1.88-1.59-1.09-2.54s0.66-1.3-.57-1.77a6.348,6.348,0,0,1-2.45-1.77c-2.39-3.18-9.96,5.18-12.16,13.43-1.04,3.87-1,4.07.94,5.54l2.02,1.52-3.7.76a16.246,16.246,0,0,1-6.11.11c-2.43-.66-5.52.34-5.52,1.79,0,0.43-.57.56-1.26,0.3a2.753,2.753,0,0,0-2.45.5c-1.01.84-.89,1.52,0.78,4.67,1.82,3.41,1.88,3.88.74,6.15-1.42,2.84-2.74,2.63-4.74-.76-1.4-2.36-1.39-2.42.46-2.68,2.33-.33,2.48-1.82.22-2.18-5.16-.82-7.92-3.54-7.92-7.81,0-3.34-3.09-7.01-6.84-8.13a10.579,10.579,0,0,1-4.72-2.73,11.34,11.34,0,0,0-4.16-2.91,11.157,11.157,0,0,1-4.11-2.83c-0.87-1.24-1.45-1.39-2.72-.71a2.927,2.927,0,0,0-1.62,2.05c0,2.17,10.62,11.95,15.82,14.56,5.5,2.78,6.36,3.77,2.54,2.93-3.41-.75-4.34,0-3.18,2.56,0.82,1.8.69,2.34-.96,3.93l-1.92,1.83,0.44-2.48c0.69-3.93-4.5-9.59-8.81-9.59-1.58,0-7.65-5.88-9.24-8.95-1.7-3.28-3.59-3.92-6.27-2.1-4.04,2.73-7.06,3.65-10.23,3.12-4.2-.71-6.84.75-6.17,3.42,0.34,1.39.15,2.01-.64,2.01a8.738,8.738,0,0,0-3.55,2.08,10.992,10.992,0,0,1-3.06,2.09c-1.03,0-3.94,5.26-3.95,7.13,0,1.78-3.26,5.3-6.41,6.92a14.121,14.121,0,0,1-5.18.93c-2.54,0-3.58.42-4.28,1.72-0.91,1.71-.94,1.7-3.08-0.43-2-2-3.15-2.5-7.2-3.13-2.12-.33-2.48-5.13-0.89-11.98,0.68-2.92,1.01-6.2.74-7.28-0.79-3.15,1.68-5,5.82-4.37,9.55,1.47,15.14,1.55,16.45.24,1.79-1.79,2.61-7.72,1.51-11.05-0.72-2.16-1.7-3.05-4.64-4.17-4.33-1.65-4.42-3.24-.19-3.29a11.161,11.161,0,0,0,5.16-1.49c1.23-.8,2.59-1.24,3.02-0.98,1.18,0.73,5.64-1.84,7.12-4.1a6.488,6.488,0,0,1,3.14-2.45c1.01-.25,3.71-2.21,6-4.34,3.25-3.02,4.95-3.97,7.74-4.3,3.45-.42,6.92-3.25,5.29-4.33-1.01-.67-1.86-4.7-1.29-6.17a7.9,7.9,0,0,1,2.62-2.66l2.14-1.4-0.55,3.43c-0.48,2.97-.36,3.39.92,3.18a13.252,13.252,0,0,0,3.35-1.28c1.59-.87,1.97-0.83,2.39.26,0.71,1.85-1.27,4.04-2.64,2.9-0.76-.62-1.24-0.6-1.66.08-0.44.71-.78,0.67-1.28-0.14-0.38-.61-0.88-0.91-1.11-0.68s0.43,1.5,1.48,2.81c1.77,2.21,2.1,2.32,4.62,1.44,2.16-.75,3.19-0.7,5.03.25,2.07,1.07,2.77,1.02,6.76-.49,3.49-1.33,4.87-1.5,6.41-.79a3.891,3.891,0,0,0,3.8-.05c3.75-1.94,4.78-3.39,4.32-6.07-0.69-3.97.57-5.27,3.9-4.02,2.27,0.86,2.93.82,3.95-.2,1.09-1.08.99-1.48-.78-3.37-1.71-1.82-1.83-2.27-.79-2.97,0.67-.46,3.21-0.62,5.63-0.36,4.42,0.46,9.94-1.26,8.98-2.82-0.84-1.36-5.92-1.75-10.23-.79-3.82.85-4.82,0.79-7.75-.53-4.54-2.05-5.08-4.44-1.96-8.78,4.01-5.59,4.75-7.37,3.6-8.75-1.69-2.03-3.35-1.37-7.22,2.89-2.04,2.25-4.82,4.55-6.18,5.11a8.578,8.578,0,0,0-3.74,3.47c-1.14,2.19-1.13,2.65.02,4.4a6.9,6.9,0,0,0,2.97,2.49c2.55,0.81,2.05,2.33-1.61,4.83a11.881,11.881,0,0,0-3.33,4.83,9.433,9.433,0,0,1-4.35,5.2c-2.97,1.71-3.1,1.72-4.75.24a8.621,8.621,0,0,1-2.19-3.81,14.72,14.72,0,0,0-2.78-5.01l-2.28-2.73-2.89,1.76a11.65,11.65,0,0,1-4.56,1.75c-2.64-.02-5.71-2.88-5.91-5.51a15.587,15.587,0,0,0-.76-3.8c-0.74-1.87,2.99-5.37,6.87-6.44s11.79-6.6,13.13-9.19a25.37,25.37,0,0,1,4.51-5.16c1.88-1.68,3.42-3.43,3.42-3.88s1.78-1.46,3.96-2.24,5.83-2.18,8.12-3.12a30.676,30.676,0,0,1,10.84-1.89c7.87-.2,13.01.84,17.26,3.49,2.13,1.34,3.81,1.79,5.42,1.47,2.88-.58,18.22,4.17,18.86,5.84s-3.76,3.25-7.54,2.7c-1.74-.25-5.32-0.91-7.97-1.48-3.57-.76-5.06-0.79-5.76-0.09s-0.34,1.2,1.34,1.97a8.645,8.645,0,0,1,3.48,3.36c1.69,3.26,7.09,5.92,9.88,4.86,2.68-1.02,2.66-1.34-.17-2.87-2.61-1.42-1.41-1.72,1.88-.48,2.62,1,5.59-.24,4.9-2.04-0.32-.84.59-1.45,3.16-2.11,5.5-1.41,5.9-1.61,5.44-2.72-1.72-4.22-1.75-4.1.76-3.81,1.34,0.15,2.32.73,2.21,1.29s0.59,1.44,1.55,1.95c1.45,0.78,2.59.5,6.57-1.58,5.83-3.06,10.37-4.05,12.07-2.65,0.94,0.78,2.51.79,7.04,0.03,3.21-.54,6.19-0.76,6.64-0.49a0.987,0.987,0,0,0,1.35-.38c0.66-1.06-1.16-3.47-2.15-2.86-1.2.75-5.14-.58-4.28-1.44s24.06,4.54,25.45,5.92c0.93,0.94,3.89-.31,3.89-1.64,0-.44-1.65-1.61-3.67-2.59-6.27-3.05-6.67-7.92-.78-9.4,3.42-.86,4.9.13,9.64,6.45,6.14,8.19,5.98,7.77,3.98,10.59-1.49,2.08-1.58,2.57-.55,2.97,1.96,0.75,6.14-1.88,6.73-4.22,0.69-2.74-.6-5.08-3.68-6.67-2.41-1.25-4.16-3.54-4.16-5.45,0-.65.9-0.81,2.71-0.49,2.7,0.5,4.93-.48,11.05-4.84a11.772,11.772,0,0,1,6.15-1.7c4.84-.11,6.41-0.93,5.02-2.6-0.55-.66-0.82-1.37-0.61-1.58,1.06-1.06,14.79-2.98,17.95-2.51,3.04,0.46,3.98.21,6.48-1.69,1.61-1.23,2.93-2.56,2.93-2.97,0-1.02-7.29-.92-7.92.1-0.87,1.41-2.01.92-1.69-.73,0.27-1.4-.43-1.62-6.51-2.09-16.58-1.29-17.92-1.6-15.93-3.58,1.75-1.75,6.03-1.72,9.62.07a14.451,14.451,0,0,0,5.42,1.34c1.51,0,2.97.37,3.25,0.83s1.75,0.83,3.25.83c4.16,0,12.19,1.79,11.69,2.61-0.25.4,0.53,0.72,1.73,0.72a12.756,12.756,0,0,1,4.84,1.43c1.97,1.07,4.73,1.45,10.59,1.47,6.29,0.03,8.39.35,10.21,1.58,1.26,0.85,2.29,1.78,2.28,2.07s-1.93,1.59-4.28,2.88c-5.66,3.12-4.46,4.48,2.39,2.7,4.43-1.14,5.45-1.15,9.13-.06,3.01,0.89,4.89,1.01,6.94.42s4.13-.46,7.68.46c3.71,0.96,5.63,1.06,7.98.41,5.37-1.49,11.96-1.07,15.79,1,1.9,1.03,5.41,2.94,7.8,4.24,4.22,2.3,4.41,2.33,7.34,1.02,2.46-1.1,3.83-1.2,7.45-.5,3.6,0.68,4.91.6,6.93-.45,1.99-1.02,2.31-1.53,1.55-2.44-1.46-1.76,3.73-2.41,10.11-1.27,2.92,0.52,6.63,1.04,8.23,1.16a25.826,25.826,0,0,1,6.97,2.03c3.39,1.53,5.96,1.87,15.89,2.14,9.43,0.26,12.44.64,14.71,1.85,2.31,1.23,4.94,1.54,13.7,1.63,8.05,0.08,11.66.46,14.05,1.48,3.85,1.66,5.4,1.05,3.3-1.3-1.51-1.68-1.5-1.69,4.32-1.11,9.76,0.97,21.46,3.1,25.42,4.63a44,44,0,0,0,8.74,2.06,32.327,32.327,0,0,1,8.89,2.59c3.27,1.65,4.33,1.83,6.42,1.1,2.86-.99,4.72-0.28,9.1,3.52l2.71,2.36-2.04.51c-2.06.51-7.52-.83-9.4-2.32a1.723,1.723,0,0,0-1.72-.36c-0.4.25-2.35-.11-4.33-0.8-4.66-1.6-6.73-1-4.61,1.34,1.45,1.6,1.42,1.64-1.34,1.44-5.17-.36-3.75,1.17,3.84,4.12,4.12,1.61,7.68,3.1,7.89,3.31,0.78,0.75-1.79,1.69-3.67,1.33-2.06-.39-7.14,1.82-7.14,3.11a5.727,5.727,0,0,1-1.78,2.43c-1.64,1.53-1.98,1.56-4.17.43-2.05-1.06-2.71-1.07-4.68-.08a26.18,26.18,0,0,1-4.79,1.76,10.836,10.836,0,0,0-3.53,1.46c-1.68,1.39,1.28,5.44,5.45,7.45,2.27,1.1,3.91,2.57,4.4,3.94a34.2,34.2,0,0,0,2.02,4.39c1.11,1.97,1.1,2.25-.1,2.71a1.316,1.316,0,0,0-.75,1.96,16.156,16.156,0,0,1,.8,3.53,14.308,14.308,0,0,0,.82,3.46c0.43,0.99.07,1.55-1.24,1.97-1.46.46-2.45-.1-4.85-2.75a47.918,47.918,0,0,0-6.16-5.61,42.608,42.608,0,0,1-6.86-7.23c-3.62-4.81-3.69-5.03-2.49-7.35a11.789,11.789,0,0,0,1.26-4.3,10.349,10.349,0,0,1,1.18-3.99c1.2-2.17.74-3.9-1.83-6.85-1.69-1.94-4.7-.49-3.94,1.9,0.7,2.2-1.45,2.91-3.91,1.3a17.151,17.151,0,0,0-5.47-1.83c-3.33-.53-3.57-0.43-4.44,1.83a9.888,9.888,0,0,0-.46,4.62c0.38,1.91.11,2.31-1.86,2.74a10.65,10.65,0,0,1-5.5-.84,8.713,8.713,0,0,0-5.38-.72,52.476,52.476,0,0,1-8.98.69c-5.94.06-7.08,0.31-8.88,2.01a13.987,13.987,0,0,0-3.04,5.82,24.42,24.42,0,0,1-2.17,5.74c-1.15,1.77-1.04,1.94,2.23,3.61,3.55,1.8,7.41,2.28,10.34,1.27,2.26-.78,9.16,4.59,11.31,8.81a11,11,0,0,0,3.24,4.01c3.41,1.82,4.1,13.76,1.25,21.57-1.97,5.41-4.18,7.17-7.42,5.94a20.265,20.265,0,0,0-2.53-.85,17.678,17.678,0,0,0-2.06,3.41c-1.28,2.47-1.53,3.71-.9,4.48,1.22,1.46.32,3.36-2.11,4.47-1.12.51-2.04,1.29-2.04,1.73s2.61,2.6,5.79,4.79c4.06,2.79,6.23,4.93,7.22,7.13,0.78,1.73,1.27,3.28,1.08,3.45s-1.89,1.09-3.78,2.04l-3.45,1.74-2.08-4.76c-2.32-5.32-4.31-7.46-7.82-8.4-1.76-.48-2.38-1.15-2.38-2.61,0-1.34-.86-2.47-2.7-3.55-2.68-1.56-2.73-1.56-5.58.2s-2.88,1.76-3.76.12a7.74,7.74,0,0,1-.88-2.92,2.856,2.856,0,0,0-1.56-2.1c-1.27-.69-2.07-0.27-4.42,2.26a27.173,27.173,0,0,1-4.48,4.01c-1.38.78-1.45,1.11-.5,2.26a21.942,21.942,0,0,0,4.71,3.35c3.15,1.76,3.75,1.86,4.81.8,1.01-1.01,1.83-1.05,4.87-.22l3.66,0.99-2.04,1.36c-3.78,2.53-4.98,3.85-5.52,6.13-0.44,1.87-.17,2.43,1.51,3.19,1.12,0.52,2.82,2.55,3.78,4.53a13.817,13.817,0,0,0,4.28,5.08c3.05,1.8,3.93,3.72,2.17,4.7-1.64.92-.86,2.29,1.31,2.29,2.6,0,2.61,1.55.1,10.48-3.04,10.81-5.78,14.42-12.96,17.04a36.385,36.385,0,0,1-7.64,2.01,10.167,10.167,0,0,0-7.84,4.28l-1.72,2.18-0.8-2.1c-1.04-2.75-3.44-3.44-6.87-1.98a9.939,9.939,0,0,0-6.07,6.2c-0.75,2.45,1.9,6.77,6.3,10.25,3.61,2.86,7.66,10.02,8.61,15.23,0.83,4.53-.64,7.51-4.57,9.28-1.79.81-3.47,2.13-3.72,2.94-0.62,1.95-4.32,4.37-5,3.27a3.432,3.432,0,0,1-.03-2.37,5.064,5.064,0,0,0-.03-2.89c-0.41-1.07-.86-1.17-2.18-0.46-1.37.73-1.9,0.54-3.01-1.06-2.72-3.94-10.6-10.27-12.79-10.27-0.77,0-1.06.92-.93,2.91a29.93,29.93,0,0,1-.73,6.95c-0.82,3.61-.74,4.27.81,6.37a15.371,15.371,0,0,1,2.26,4.43c0.3,1.17,2.71,3.84,5.46,6.04,4.6,3.69,5.08,4.41,7.02,10.53a73.619,73.619,0,0,1,2.07,7.35c0,1.42-1.74.84-5.37-1.76-3.76-2.7-6.16-6.96-8.16-14.5a10.09,10.09,0,0,0-4.52-6.66c-3.32-2.43-3.42-2.64-3.15-6.67,0.15-2.29.53-5.54,0.83-7.22,0.44-2.36.08-4.05-1.58-7.49a51.329,51.329,0,0,1-3.1-8.34c-1.17-4.79-2.83-5.59-5.76-2.79a10.347,10.347,0,0,1-2.72,2.11c-1.33,0-3.15-2.82-2.72-4.2,0.8-2.5-4.09-11.21-6.94-12.39a8.145,8.145,0,0,1-3.95-4.34c-1.67-3.68-3.53-5.09-5.39-4.07a34.764,34.764,0,0,1-6.02,1.65c-4.82.99-6.55,2.45-5.89,4.97,0.24,0.93-.6,1.83-2.62,2.79a9.218,9.218,0,0,0-3.93,3.49,5.232,5.232,0,0,1-2.55,2.58,7.261,7.261,0,0,0-3.01,2.83,25.63,25.63,0,0,1-5.15,5.2c-2.81,2.15-3.69,3.36-3.55,4.88,0.81,8.88-.44,16.31-3.5,20.72-2.99,4.3-3.2,4.42-5.72,3.27a4.7,4.7,0,0,1-2.6-3.75,60.839,60.839,0,0,0-3.73-9.69c-10.66-22.86-12.24-27.22-11.33-31.35,0.61-2.79-.86-7-2.28-6.53a1.745,1.745,0,0,0-1.06,1.53c-0.07,3.8-4.34,4.38-7.68,1.05l-2.22-2.21,1.91-.7c2.14-.8,1.94-2.93-0.24-2.54-0.77.14-2.54-.7-3.93-1.87a10.714,10.714,0,0,0-3.25-2.13,2.288,2.288,0,0,1-1.24-1.67c-0.77-2.42-5.19-4.52-7.41-3.53-1.99.9-20.09,0.71-23.12-.24a13.312,13.312,0,0,1-4.48-3.48c-2.48-2.84-2.52-2.85-6.25-1.84-3.53.95-4.05,0.86-8.81-1.54-4.11-2.08-5.34-3.19-6.61-6-1.62-3.59-5.21-6.19-7.4-5.35-0.69.26-1.49,1.57-1.79,2.91-0.42,1.93.01,3.18,2.05,5.95a24.609,24.609,0,0,1,3.45,6.7c1.01,3.76,3.01,4.88,4.67,2.61,1.01-1.37,1.28-1.41,1.95-.34a3.007,3.007,0,0,1,.52,2.08c-0.46,1.43,4.35,3.8,6.59,3.24,1.14-.28,3.56-2.21,5.39-4.29,2.88-3.27,3.89-3.49,3.39-.74-0.33,1.85,1.13,4.01,3.53,5.25,3.72,1.92,8.91,6.2,8.91,7.35,0,0.53-.98,1.88-2.17,2.99a22.7,22.7,0,0,0-3.81,5.22c-2.19,4.27-8.56,10.53-10.71,10.53-2.5,0-6.2,2.1-7.68,4.35a12.119,12.119,0,0,1-4.08,3.34c-7.92,3.95-17.46,7.96-20.15,8.46-2.87.54-3.1,0.41-4.62-2.59a29.3,29.3,0,0,1-2.22-7.73,12.592,12.592,0,0,0-3.02-7.31,11.387,11.387,0,0,1-2.39-3.54c0-.44-1.51-2.35-3.35-4.24a18.546,18.546,0,0,1-4.69-8.12,24.926,24.926,0,0,0-3.37-7.18c-7.65-9.49-9.92-12.83-11.06-16.33-1.51-4.63-2.79-5.38-3.38-1.97l-0.42,2.41-2.82-3.56c-4.34-5.48-4.89-2.99-.81,3.7,1.93,3.17,5.01,8.76,6.84,12.42a81.731,81.731,0,0,0,5.27,9.24,10.148,10.148,0,0,1,1.95,5.26c0,3.13.93,5.09,4.62,9.64a18.321,18.321,0,0,1,3.25,5.95c0.39,1.84,2,3.77,5.46,6.54,5.25,4.21,8.66,8.61,9.51,12.27a5.867,5.867,0,0,0,3.04,3.58c2.33,1.2,3.15,1.16,10.49-.43a63.85,63.85,0,0,0,10.32-2.93l2.35-1.22,0.55,3.3c0.51,2.99-.03,4.44-5.97,15.8-6.38,12.23-6.68,12.63-13.02,17.63a59.589,59.589,0,0,0-8.31,7.66c-0.99,1.4-4.18,5.18-7.08,8.39-8.46,9.39-9.61,17.64-4,28.7,1.42,2.81,1.98,4.94,1.64,6.29a18.484,18.484,0,0,0,.4,6.27c0.79,3.68.7,4.66-.66,7.33-1.97,3.86-3.54,5.25-9.05,8.01-2.41,1.2-4.38,2.54-4.38,2.98s-1.68,2.69-3.75,5.01-3.75,4.59-3.75,5.05a18.12,18.12,0,0,0,1.72,4.2c2.83,5.55.93,9.57-5.86,12.38-2.87,1.19-3.81,3.61-3.1,7.97,0.37,2.28.14,3.04-1.16,3.73a13.871,13.871,0,0,0-3.59,3.96c-3.42,5.36-13.24,14.84-17.71,17.09-3.72,1.88-4.67,2.04-7.41,1.29-2.41-.67-4.36-0.56-8.4.45-6.55,1.65-5.86,1.71-8.39-.82h0Zm109.79-265.55c2.15-1.11,2.46-1.72,2.46-4.89,0-2.28-.48-4.03-1.3-4.71a13.87,13.87,0,0,1-2.59-3.55c-1.16-2.25-1.16-2.43.06-1.96,1.6,0.61,3.83-.13,3.83-1.27a9.854,9.854,0,0,0-1.72-3.24c-1.43-2.01-2-2.27-3.34-1.56-1.08.58-1.61,0.58-1.61,0.02,0-.47-1.48-1.61-3.3-2.53-4.03-2.05-5.46-4.33-4.2-6.67,0.95-1.77,4.34-3.01,5.79-2.12,1.95,1.21,2.53-.57.92-2.83-3.91-5.49-9.36-5.12-16.11,1.07-4.36,3.99-4.73,5.05-2.27,6.37a3.026,3.026,0,0,1,1.67,2.13c0,0.68,1.48,2.84,3.29,4.81,4.18,4.52,4.94,6.59,4.43,11.94l-0.42,4.31,5.73,2.93c3.15,1.62,5.84,2.96,5.97,2.98a16.658,16.658,0,0,0,2.71-1.23h0Zm-22.96,232.56c-2.36-1.33-2.69-2.03-3.31-6.95-0.49-3.93-.28-4.78,2.07-8.6,2.39-3.88,2.56-4.62,2.04-8.84-0.77-6.09.53-9.28,4.07-10.06,3.34-.73,10.56-7.1,12.29-10.83l1.32-2.86,0.92,2.02c2.31,5.06,2.07,7.29-1.95,18.4-2.15,5.95-4.46,13.07-5.13,15.81-2.14,8.8-3.36,10.92-6.87,11.97-3.74,1.11-3.38,1.12-5.45-.06h0Zm400.22-14.47c-2.66-2.91-4.25-5.4-4.25-6.66,0-2.8.45-2.55,2.86,1.55a33.167,33.167,0,0,0,4.62,5.98c1.39,1.33,2.52,2.72,2.52,3.1,0,1.6-1.77.37-5.75-3.97h0Zm-399.39-31.99c-0.28-.46-0.12-0.83.37-0.83a0.859,0.859,0,0,1,.88.83,0.752,0.752,0,0,1-.37.83A1.708,1.708,0,0,1,1191.84,5058.22Zm365.94-7.82c-5.27-1.66-7.66-3.21-9.74-6.29-2.37-3.52-6.71-6.18-8.93-5.48-0.89.28-2.4,1.83-3.35,3.43-1.61,2.73-1.92,2.88-4.85,2.36a12.268,12.268,0,0,1-5.35-2.62c-1.55-1.44-2.73-1.89-3.94-1.51a4.465,4.465,0,0,1-3.06-.2c-1.15-.64-1.04-0.94.8-2.14,2.12-1.39,2.12-1.4.7-4.39-1.15-2.39-2.72-3.64-7.88-6.23-3.55-1.79-7.57-3.24-8.92-3.24-3.1,0-4.38-2.86-2.05-4.56,1.39-1.02,1.19-1.27-2.43-3.03-3.85-1.87-3.91-1.94-2.07-2.96a9.535,9.535,0,0,1,3.72-1.08c1.95-.03,4.42,2.78,4.42,5.04a8.24,8.24,0,0,0,1.8,3.65c1.78,2.26,1.82,2.27,3.13.64a23.075,23.075,0,0,1,5.17-3.85l3.84-2.2,5.33,2.4c2.93,1.32,7.08,3.03,9.24,3.81a58.415,58.415,0,0,1,9.57,5.12c5.94,3.89,8.52,7.18,7.04,8.96-1.21,1.45,3.53,8.07,8.44,11.78,5.39,4.08,5.3,4.46-.63,2.59h0Zm36.28-.07c-0.66-.79-0.72-1.27-0.17-1.27,1.01,0,2.19,1.58,1.61,2.16-0.21.21-.86-0.19-1.44-0.89h0ZM1454,5046.94c-1.21-.66-1.56-1.16-0.83-1.17,1.49-.02,3.87,1.37,3.31,1.93C1456.26,5047.92,1455.15,5047.58,1454,5046.94Zm14.1-1.1c2.36-3.31,6.06-4.73,9.48-3.64,2.49,0.8,2.53.87,0.55,0.95-1.17.05-3.9,1.21-6.07,2.58-4.95,3.14-6.14,3.17-3.96.11h0Zm120.94,1.14c-1.12-1.35-.85-1.52,1.19-0.74a1.908,1.908,0,0,1,1.31,1.25C1591.54,5048.64,1590.19,5048.37,1589.04,5046.98Zm3.91-.73a8.564,8.564,0,0,1-.52-2.88c0.04-.92.33-0.71,0.86,0.63a5.923,5.923,0,0,1,.52,2.87c-0.16.47-.55,0.19-0.86-0.62h0Zm-148.75-2.72a0.861,0.861,0,0,1-.57-1.2c0.63-1.03,5.98-.97,6.62.07,0.29,0.46.03,0.84-.57,0.85a16.357,16.357,0,0,0-2.76.37,5.516,5.516,0,0,1-2.72-.09h0Zm12.38-.62c-1.52-1.82.23-2.38,4.16-1.32,3.95,1.06,3.94,1.23-.16,1.97C1458.45,5043.94,1457.28,5043.75,1456.58,5042.91Zm125.16-.51c-0.58-.92-0.68-1.66-0.23-1.66a3.043,3.043,0,0,1,1.7,1.66c0.49,0.92.59,1.67,0.23,1.67A3.551,3.551,0,0,1,1581.74,5042.4Zm5.22-.84c-2.23-2.46-1.04-2.84,1.25-.4,1.08,1.14,1.58,2.07,1.11,2.07a5.007,5.007,0,0,1-2.36-1.67h0Zm-156.3-.14a65.947,65.947,0,0,1-9.33-2.03c-2.16-.71-4.7-1.04-5.65-0.74-1.91.6-10.02-1.78-10.02-2.95,0-2.66,7.47-2.86,11.44-.31,1.48,0.96,2.65,1.02,5.78.32,3.48-.78,4.2-0.68,6.24.82a9.258,9.258,0,0,0,3.15,1.71c1.65,0,6.65,2.78,6.23,3.47a1.608,1.608,0,0,1-1.43.58c-0.54-.07-3.43-0.46-6.41-0.87h0Zm149.63-4.01c-0.83-.92-1.13-1.67-0.67-1.67a5.073,5.073,0,0,1,2.34,1.67c0.83,0.91,1.13,1.66.67,1.66a5.06,5.06,0,0,1-2.34-1.66h0Zm-5.26-1.06a10.318,10.318,0,0,1-1.39-3.53c-0.48-2.21-.43-2.3.46-0.83a25.95,25.95,0,0,0,2.19,3.04c0.7,0.81.86,1.58,0.4,1.87A1.429,1.429,0,0,1,1575.03,5036.35Zm-17.65-2.65-2.07-1.14,3.21-.6a15.2,15.2,0,0,0,6.03-3.08c1.69-1.48,2.82-2.02,2.81-1.34-0.02,1.69-1.05,3-4.16,5.29-3.26,2.4-3.1,2.38-5.82.87h0Zm-156.37-3.24c-3.06-1.74-8.58-8.48-10.38-12.67a47.978,47.978,0,0,0-4.94-8.27,59.91,59.91,0,0,1-4.46-6.66,28.6,28.6,0,0,0-4.75-5.83c-4.03-3.86-6.5-7.92-4.81-7.89,2.18,0.03,7.81,3.16,10.23,5.68,6.66,6.94,8.03,8.18,11.17,10.12,3.04,1.86,4.47,3.81,4.62,6.24a8.317,8.317,0,0,0,1.91,2.91c1.03,1.15,2.97,3.3,4.31,4.79a14.073,14.073,0,0,1,2.98,5.15c0.97,4.42-2.58,8.31-5.88,6.43h0Zm52.57-.55a3.642,3.642,0,0,1-.01-2.46,4.943,4.943,0,0,0-.76-3.58c-1.16-1.77-1.15-2.14.11-3.94a18.844,18.844,0,0,0,2.02-6.55c0.42-3.09,1.25-5.18,2.58-6.51,1.82-1.82,2.28-1.9,6.37-1.12,3.51,0.66,4.89.58,6.8-.41,3.2-1.65,3.44-1.58,2.37.75-1.35,2.97-4.05,3.91-6.9,2.42-5.08-2.66-11.82,1.3-8.26,4.85,1.3,1.31,2.03,1.42,4.45.73,4.15-1.19,5.79-.97,3.21.43-2.92,1.58-3.47,3.34-1.97,6.25a11.9,11.9,0,0,1,1.25,4.55c0,1.9-.2,2.05-1.67,1.26a9.124,9.124,0,0,1-2.94-3.93c-1.27-3.03-1.29-3.04-2.91-1.42-1.42,1.42-1.51,2.05-.74,4.85,0.71,2.54.66,3.38-.22,3.94-1.47.93-2.15,0.9-2.78-.11h0Zm114.37-4.44a12.522,12.522,0,0,0-4-3.51c-1.41-.73-2.38-1.51-2.15-1.74,1.29-1.3,8.53,4.58,7.91,6.43-0.19.57-.94,0.06-1.76-1.18h0Zm-130.9-2.78a6.136,6.136,0,0,0-3.77-.72c-2.07.65-10.31-1.02-11.13-2.27-0.65-.99-2.55-7.09-3.58-11.43a4.868,4.868,0,0,1,.66-3.65c0.95-1.3,1.45-1.4,2.96-.59,1.59,0.85,1.93.71,2.81-1.21a9.91,9.91,0,0,1,4.04-3.73,9.262,9.262,0,0,0,4.09-4.06,5.925,5.925,0,0,1,3.88-3.45,12.462,12.462,0,0,0,5.01-3.78c1.2-1.56,2.62-2.85,3.17-2.85s2.18,1.24,3.65,2.75l2.67,2.75-2.14,2.87c-2.43,3.27-2.3,6.07.45,9.93l1.67,2.34-2.08,1.36c-1.14.74-2.07,1.81-2.07,2.38,0.01,1.9-5.34,12.9-6.68,13.73-0.93.58-2.01,0.47-3.61-.37h0Zm48.42-.01c-1.72-.45-1.96-1.92-0.31-1.92a27.843,27.843,0,0,1,3.92.55c2.35,0.47,2.52.65,1.15,1.19a6.134,6.134,0,0,1-4.76.18h0Zm-2.92-12.88c-0.67-.66-0.7-1.43-0.13-2.51a2.892,2.892,0,0,0,.34-2.35c-0.75-1.22,1.13-4.17,2.66-4.17,1.23,0,1.22.15-.05,1.55-1.1,1.22-1.23,2.02-.57,3.74,1.32,3.48-.12,5.87-2.25,3.74h0Zm-418.66-2.73a1.708,1.708,0,0,1,.83-0.88c0.46-.29.83-0.12,0.83,0.36a0.853,0.853,0,0,1-.83.88A0.764,0.764,0,0,1,1063.89,5007.07Zm5-9.99a1.718,1.718,0,0,1,.83-0.89c0.46-.28.83-0.11,0.83,0.37a0.853,0.853,0,0,1-.83.88A0.764,0.764,0,0,1,1068.89,4997.08Zm400.96-12.52c-1.59-3.71-1.8-3.87-4.25-3.34s-2.52.47-1.61-1.23c0.76-1.41,1.46-1.69,3.25-1.3,1.73,0.38,2.84-.01,4.53-1.57,1.23-1.14,2.25-2.75,2.26-3.57,0.02-2.1,3.12,4.94,3.83,8.71,0.53,2.86.46,3.02-.84,1.94-1.93-1.6-3.79.06-2.21,1.97,0.64,0.76.72,1.28,0.2,1.28a8.082,8.082,0,0,0-2.18.5c-0.96.38-1.75-.51-2.98-3.39h0Zm-151.99,1.47c-0.93-1.51-1.46-8.3-.79-10.1,0.72-1.91.77-1.88,2.9,1.25,2.54,3.76,3.36,6.17,2.52,7.45-0.81,1.24-4.11,2.23-4.63,1.4h0Zm127.81-9.22c0-.35,1.67-2.51,3.71-4.78,2.99-3.34,3.72-3.81,3.75-2.43,0.02,0.94-1.23,3.09-2.78,4.78C1447.72,4977.25,1445.67,4978.32,1445.67,4976.81Zm18.05-2.22a3.578,3.578,0,0,1,.14-2.66c0.59-1.05.83-1.06,1.65-.07,0.74,0.88.71,1.52-.13,2.66C1464.34,4975.94,1464.24,4975.94,1463.72,4974.59Zm-638.349-3.24a1.437,1.437,0,0,0,.38-1.67c-0.3-.3.229-0.54,1.18-0.54,1.318,0,1.624.39,1.292,1.66a2.225,2.225,0,0,1-2.108,1.67c-1.3,0-1.468-.25-0.744-1.12h0Zm643.949-.22a22.269,22.269,0,0,0-.91-2.2c-0.18-.35.02-0.63,0.45-0.63,0.83,0,2,3.42,1.38,4.04C1470.04,4972.54,1469.63,4972,1469.32,4971.13Zm-8.45-2.17a1.823,1.823,0,0,1,1.72-3.03c1.1,0.25,1.14.59,0.26,2.22C1462,4969.72,1461.63,4969.87,1460.87,4968.96Zm9.85-2.87c-0.95-1.21-1.6-2.34-1.43-2.51,0.68-.68,3.03.81,4.27,2.71C1475.48,4969.21,1473.05,4969.05,1470.72,4966.09Zm-13.7-3.22a4.491,4.491,0,0,1-1.35-2.3c0-.53.82-0.14,1.83,0.86s1.61,2.05,1.35,2.31S1457.76,4963.61,1457.02,4962.87Zm-654.324-.12a2.271,2.271,0,0,1-.556-1.41c0-.52.389-0.47,0.987,0.12,0.542,0.54.792,1.18,0.555,1.42A0.72,0.72,0,0,1,802.7,4962.75Zm-4.724-1.11a0.763,0.763,0,0,1,.368-0.83,1.718,1.718,0,0,1,.883.83c0.283,0.46.118,0.84-.368,0.84A0.867,0.867,0,0,1,797.972,4961.64Zm39.179-1.66a0.763,0.763,0,0,1,.367-0.83,1.711,1.711,0,0,1,.883.83c0.284,0.46.118,0.83-.367,0.83A0.858,0.858,0,0,1,837.151,4959.98Zm628.249-.13a5.532,5.532,0,0,0-3.52-.35c-1.61.4-2.72-.25-5.74-3.35-4.27-4.39-5.1-6.24-3.85-8.57a10.643,10.643,0,0,0,.88-4.15c0-4.52,3.03-4.34,5.25.32,1.23,2.57,1.24,3.13.08,5.89-1.24,2.98-1.22,3.11,1,5.43,1.61,1.67,2.81,2.24,4.08,1.92a2.882,2.882,0,0,1,2.86.82c1.5,1.81.85,3.1-1.04,2.04h0Zm-633.251-5.23a1.735,1.735,0,0,1,.834-0.89c0.458-.28.833-0.11,0.833,0.37a0.856,0.856,0,0,1-.833.88A0.772,0.772,0,0,1,832.149,4954.62Zm-2.5-6.2a1.838,1.838,0,0,1,.833-1.35c0.459-.28.834-0.14,0.834,0.32a1.836,1.836,0,0,1-.834,1.35C830.024,4949.02,829.649,4948.88,829.649,4948.42Zm-7.08-3.42c-0.292-.47.043-0.61,0.784-0.33,1.444,0.56,1.709,1.15.51,1.15A1.777,1.777,0,0,1,822.569,4945Zm3.328-1.67c-0.283-.46-0.117-0.84.368-0.84a0.866,0.866,0,0,1,.883.84,0.772,0.772,0,0,1-.368.83A1.764,1.764,0,0,1,825.9,4943.33Zm3.752,0a0.779,0.779,0,0,1,.367-0.84,1.747,1.747,0,0,1,.883.84c0.283,0.45.118,0.83-.368,0.83A0.864,0.864,0,0,1,829.649,4943.33Zm-57.309-2.22a1.575,1.575,0,0,1-1.042-1.18c0-1.2,3.679-.89,5.467.46,1.537,1.16,1.493,1.22-.883,1.18A13.356,13.356,0,0,1,772.34,4941.11Zm21.093-.47a6.3,6.3,0,0,0-3.67-.26,8.694,8.694,0,0,1-4.345-.3c-1.8-.72-1.639-0.8,1.376-0.73,4.432,0.1,5.615-.62,4.483-2.73-0.8-1.51-.563-1.62,3.414-1.62,3.847,0,9.4,1.76,10.337,3.28,0.625,1.01-10.1,3.19-11.6,2.36h0Zm15.99,0.52c-0.988-.98.239-2,2.422-2,1.311,0,1.975.4,1.761,1.04C813.222,4941.37,810.3,4942.04,809.423,4941.16Zm603.077-1.32c-2.21-2.2-.02-4.84,4.01-4.84,1.79,0,1.79.02,0.26,2.64C1414.98,4940.7,1413.91,4941.25,1412.5,4939.84Zm-596.189-.17a2.3,2.3,0,0,1,1.251-.81c0.687-.26,1.25-0.11,1.25.33a1.113,1.113,0,0,1-1.25.81A1.475,1.475,0,0,1,816.311,4939.67Zm-36.034-5.97a10.573,10.573,0,0,0-3.91-.51c-2.612-.04-3.239-0.3-2.6-1.07,0.619-.74-0.27-1.74-3.335-3.72-6.008-3.89-9.363-4.65-13.4-3.03-3.785,1.51-4.075,1.55-4.075.6,0-1.74,6.634-3.66,11.411-3.3,4.569,0.35,7.127,1.32,16.1,6.11,7.373,3.94,7.381,3.95,5,4.63C782.766,4934.18,780.862,4934.29,780.277,4933.7Zm6.025-7.03c1.616-1.04,2.5-1.04,2.5,0,0,0.46-.844.83-1.876,0.82C785.411,4927.48,785.291,4927.33,786.3,4926.67Zm663.868-1.47a8.343,8.343,0,0,1-1.93-2.52c-0.84-1.59-.75-2.36.51-4.51,1.94-3.33,3.26-3.74,3.89-1.23,0.66,2.64-1.26,9.06-2.47,8.26h0Zm-658.4-1.11c0.557-.9,3.7-1,3.7-0.12,0,0.34-.936.68-2.078,0.74s-1.871-.21-1.618-0.62h0Zm-16.484-8.03c-1.333-1.52-1.139-3.54.341-3.54,0.474,0,.67.73,0.436,1.63a1.631,1.631,0,0,0,.528,1.96c0.524,0.19.732,0.59,0.462,0.88S775.993,4916.87,775.291,4916.06Zm4.843-6.54a2.246,2.246,0,0,1-.123-1.82c0.229-.23.66,0.22,0.956,0.99a2.246,2.246,0,0,1,.123,1.82C780.861,4910.74,780.43,4910.3,780.134,4909.52Zm-5.224-.75a1.452,1.452,0,0,1,1.588-1.24c1.411,0,1.448.13,0.337,1.24a5.383,5.383,0,0,1-1.588,1.25A1.446,1.446,0,0,1,774.91,4908.77Zm699.1-18.25a8.59,8.59,0,0,0-2.02-3.58c-2.65-3.14-1.71-5.23,1.42-3.19,2.25,1.48,3.42,4.48,2.59,6.64C1475.37,4892.03,1474.01,4892.12,1474.01,4890.52Zm4.64-6.03c-0.54-1.41.74-2.74,2.65-2.76,1.33-.02,1.35,1.84.04,3.15-1.35,1.36-2.05,1.26-2.69-.39h0Zm7.62-3.04c-1.62-2.47-3.9-2.81-9.14-1.35-2.13.59-3.59,0.59-4.58,0.02-0.8-.47-1.02-0.86-0.48-0.88a9.76,9.76,0,0,0,3.49-2.13c1.78-1.5,3.09-1.97,4.49-1.62,1.5,0.38,3.11-.34,6.49-2.88,6.6-4.95,7.2-6.51,4.51-11.8-2.57-5.07-1.85-6.71,1.96-4.46,2.78,1.64,5.4,6.34,4.63,8.32-0.27.71,0.14,2.94,0.91,4.96,1.09,2.86,1.2,4.06.47,5.42-1.07,2-4.05,3.34-7.44,3.34-1.9,0-2.46.48-3.09,2.64l-0.76,2.65-1.46-2.23h0Zm-337.69-2.84c-1-1-.47-1.89,1.12-1.89a2.759,2.759,0,0,0,2.13-.83c0.77-1.25,2.1-1,1.59.3-0.51,1.34-4.12,3.14-4.84,2.42h0Zm-28.43-1.44-2.5-1.15,3.34-.05c4.15-.07,7.21.71,6.61,1.68-0.67,1.08-4.58.83-7.45-.48h0Zm-33.67-8.31c-3.34-1.7-3.49-1.92-1.75-2.37,2.08-.55,6.7.13,6.61,0.97a12.2,12.2,0,0,1-.63,1.9C1090.2,4870.6,1089.79,4870.56,1086.48,4868.86Zm-16.71-9.01c-0.72-2.06-.66-2.85.27-3.79,1.7-1.69,3.02-.5,3.02,2.72,0,3.81-2.1,4.49-3.29,1.07h0Zm-19.55.7c0.6-1.54,3.13-1.8,2.62-.27a2.429,2.429,0,0,1-1.73,1.31c-0.97.18-1.24-.13-0.89-1.04h0Zm435.55-9.51c-1.52-2.14-1.56-2.53-.44-4.14,1.11-1.58,1.11-2.05-.03-4.25-1.88-3.62-1.62-3.84,1.64-1.37a25.947,25.947,0,0,0,7.04,3.45c4.69,1.4,5.83,2.49,3.38,3.26a2.284,2.284,0,0,0-1.68,1.74c0,0.91-.57,1.07-2.29.63-4.4-1.13-5.65-.85-5.37,1.18,0.35,2.48-.21,2.36-2.25-0.5h0Zm-414.66.98a1.872,1.872,0,0,1,.69-3.08c0.91-.34,1.26.1,1.26,1.58C1073.06,4852.52,1072.24,4853.15,1071.11,4852.02Zm409.37-17.55a44.131,44.131,0,0,1-3.78-6.46,65.235,65.235,0,0,0-8.09-11.21c-3.43-3.82-5.17-6.36-4.52-6.57,0.58-.2,1.83.67,2.78,1.93a43.634,43.634,0,0,0,9.57,8.98c3.7,2.72,5.53,5.24,3.14,4.32-2.75-1.05-2.06,1.45,1.5,5.45a37.66,37.66,0,0,1,3.77,4.63c0,1.01-3.23.22-4.37-1.07h0Zm-609.986-1.46a1.107,1.107,0,0,1,.808-1.25c0.444,0,.591.56,0.327,1.25a2.258,2.258,0,0,1-.807,1.25A1.471,1.471,0,0,1,870.494,4833.01Zm-4.356-2.69-3.105-.32,5.844-5.78c3.214-3.18,6.263-5.78,6.777-5.78,0.542,0,.379.61-0.387,1.46-1.735,1.91-.552,4.07,2.619,4.76a4.988,4.988,0,0,1,3.3,2.53c0.856,1.88.711,2.07-2.177,2.87-3.03.84-6.647,0.92-12.869,0.26h0Zm-203.118-5.97c-2.888-2.69-3.21-3.83-1.295-4.56,1.715-.66,4.88,1.48,6.08,4.11,1.259,2.76,1.236,2.87-.617,2.87C666.319,4826.77,664.444,4825.68,663.02,4824.35Zm367.11-4.23c0.91-.45,2.72-1.2,4.01-1.66,2.83-1.03,2.36-2.12-1.23-2.83-2.46-.5-2.55-0.62-1.14-1.65,0.84-.61,1.28-1.51.98-1.99-0.3-.5.56-1.26,1.96-1.75,1.38-.48,2.5-1.24,2.5-1.69,0-1.93-1.74-5.16-2.7-5.03-2.23.29-3.26-.11-2.9-1.11a3.675,3.675,0,0,0-.38-2.49c-1.07-2.09,1.4-6.4,3.69-6.44,0.34-.01.53,0.44,0.42,1s0.67,1.16,1.74,1.32l1.96,0.3-1.87,1.99-1.87,1.98,2.11,0.8c2.26,0.86,4.44,3.66,6.66,8.55,1.06,2.35,1.76,2.96,3,2.64,2.55-.67,2.85,1.06.46,2.62-1.61,1.06-1.92,1.66-1.21,2.37s-0.69,1.18-5.54,1.88c-3.57.51-7.8,1.18-9.4,1.47-2.24.42-2.53,0.35-1.25-.28h0Zm-14.06-4.6a5.8,5.8,0,0,1,.72-3.75c0.78-1.51.94-2.58,0.41-2.91-1.44-.89-0.9-2.03,1.22-2.56a6.643,6.643,0,0,0,3.02-1.68c1.11-1.33,6.25-1.58,7.02-.33,0.28,0.45-.07,1.66-0.79,2.68a8.389,8.389,0,0,0-1.3,4.06c0,1.86-.57,2.42-3.54,3.45-1.95.67-4.15,1.49-4.89,1.81A1.262,1.262,0,0,1,1016.07,4815.52Zm15.31-8.27a1.708,1.708,0,0,1,.83-0.88c0.46-.28.83-0.12,0.83,0.37a0.859,0.859,0,0,1-.83.88A0.766,0.766,0,0,1,1031.38,4807.25Zm-369.949-4.01c-0.816-.98-0.764-1.44.26-2.29,1.694-1.41,2.534-.45,1.549,1.75-0.68,1.53-.928,1.6-1.809.54h0Zm-1.3-6.26a1.674,1.674,0,0,1,.729-1.86c1.355-1.12,1.638-.24.5,1.55C660.921,4797.36,660.438,4797.48,660.128,4796.98Zm-53.88-.53c0-.59,2.528-1.61,6.113-2.48,1.36-.33,2.163-0.25,1.893.19a5.491,5.491,0,0,1-2.779,1.22,29.457,29.457,0,0,0-3.768,1.03c-0.8.31-1.459,0.33-1.459,0.04h0Zm495.362-9.37c-1.54-.62-1.27-1.57.48-1.7a1.276,1.276,0,0,1,1.53,1.07c0,1.24-.29,1.33-2.01.63h0Zm-183.185-4.25c-5.275-2.87-7.8-7.29-6.268-10.97,0.724-1.75.746-2.85,0.082-4.08-1.38-2.58.421-5.6,5.027-8.43,2.187-1.34,4.371-3.18,4.853-4.08,1.336-2.49.146-6.76-2.177-7.82-1.176-.53-1.816-1.38-1.557-2.06,0.592-1.54-2.183-6.8-4.947-9.37-2.035-1.9-2.91-2.09-9.876-2.14-9.486-.06-11.253-0.58-11.1-3.3,0.065-1.13.316-2.06,0.557-2.06s3.617-.39,7.5-0.86a52.7,52.7,0,0,0,14.937-4.23c8.56-3.64,9.213-3.71,29.638-3.23a100.881,100.881,0,0,0,20.006-1.61c7.1-1.19,12.322-1.65,15.142-1.31a24.721,24.721,0,0,0,7.826-.42c4.546-1.23,16.356.24,21.006,2.61,2.74,1.4,4.2,1.58,8.83,1.12,5.01-.49,5.38-0.43,3.88.68a17.9,17.9,0,0,1-6.25,1.82c-5.47.72-10.5,4.62-9.17,7.1,0.58,1.08.16,1.99-1.69,3.77a13.015,13.015,0,0,0-2.9,3.73c-0.58,1.83-7.949,5.23-11.6,5.35-4.059.14-4.483,1.01-1.345,2.73a48.754,48.754,0,0,1,4.81,3.09l2.114,1.61-1.911.7c-1.465.54-2.654,0.2-5.091-1.49-3.308-2.29-6.867-2.3-4.969-.02,0.741,0.89.563,1.24-.823,1.6-3.1.81-.907,2.41,2.509,1.83,2.175-.36,3.4-0.17,4.078.65,0.809,0.97-.247,1.42-6.318,2.7a79.819,79.819,0,0,1-11.873,1.6c-4.684.07-8.06,1.41-13.026,5.18-1.62,1.23-5.061,2.45-9.088,3.22-8.416,1.6-11.26,3.46-16.331,10.68-4.074,5.79-6.53,7.95-9.069,7.97a20.209,20.209,0,0,1-5.419-2.26h0Zm-59.1-5.57a17.911,17.911,0,0,1-4.875-4.55c-1.739-2.75-3.343-3.1-8.04-1.75a6.632,6.632,0,0,1-4.087.1c-2.468-1.38,1.99-2.74,6.956-2.12,3.777,0.47,4.616.34,5.056-.81,0.885-2.3,4.935-3.95,7.186-2.92a5.213,5.213,0,0,0,4.417-.07c2.382-.9,2.415-0.99.859-2.13a6.346,6.346,0,0,0-2.257-1.18c-0.352,0-1.621-1.68-2.82-3.72a18.448,18.448,0,0,0-5-5.45c-2.631-1.63-2.979-1.66-5.332-.44-2.057,1.06-3.246,1.13-6.5.4a20.762,20.762,0,0,0-6.8-.36c-2.686.5-7.606-.81-7.606-2.03,0-2.24,7.06-7.26,11.254-8.01l3.334-.59-2.384,2.54c-3.287,3.5-2.051,5.11,1.519,1.98a14.644,14.644,0,0,1,5.817-2.99c2.574-.48,3.677-0.17,6.909,1.97,4.3,2.84,4.632,2.92,7.057,1.62,1.46-.78,2-0.56,3.588,1.42a13.549,13.549,0,0,0,5.936,3.63c3.807,1.2,4.068,1.46,4.068,4.09a4.57,4.57,0,0,0,1.9,4.16c5.594,3.99,5.472,3.83,4.261,5.77-1.659,2.65-2.97,2.84-6.643.97-2.556-1.3-3.672-1.48-4.958-.79-1.575.84-1.591,1.02-.324,3.47,1.04,2.01,1.135,3.02.428,4.57-0.871,1.91-1.009,1.94-3.374.72-4.648-2.41-7.779-.83-3.442,1.73,1.358,0.8,2.28,1.77,2.049,2.14-0.807,1.3-4.932.61-8.162-1.37h0Zm-31.43-3.4c-1.643-.86-2.92-0.94-5.221-0.3-3.913,1.08-5.281.29-3.295-1.9,2.541-2.81,4.265-3.36,7.331-2.35,3.451,1.14,4.982,2.83,4.051,4.47C830.163,4774.83,829.758,4774.84,827.89,4773.86Zm165.558-.38c-1.376-.9-3.126-1.44-3.891-1.2-1.052.33-1.286,0.04-.963-1.19,0.5-1.9,7.82-4.63,10.3-3.84a11.278,11.278,0,0,0,4.9-.5c2.88-.87,3.64-0.8,5.59.47l2.25,1.48-2,1.56c-1.7,1.32-4.84,2.46-12.431,4.52C996.511,4774.97,994.823,4774.39,993.448,4773.48ZM767.13,4757.94a33.515,33.515,0,0,1-6.205-2.18l-4.121-1.84,5.788-.42c3.184-.23,5.788-0.79,5.788-1.25s-2.251-1.03-5-1.28c-3.632-.32-4.317-0.55-2.5-0.83,3.04-.47,3.259-1.78.417-2.5-2.048-.52-2.033-0.55.847-1.79a22.137,22.137,0,0,1,15.016-1.16c3.867,1.15,4.471,1.14,6.294-.05,1.289-.85,2.054-0.99,2.121-0.39,0.057,0.51.151,1.36,0.208,1.9,0.194,1.8,1.856,1.57,3.84-.54,1.837-1.96,5.021-2.89,5.014-1.48a13.79,13.79,0,0,1-1.648,3.32l-1.645,2.7,2.69,1.4,2.69,1.4-4.417,2.01c-3.985,1.82-4.8,1.92-8.375,1.07-3.464-.83-4.458-0.74-7.948.76-3.942,1.69-4.773,1.79-8.852,1.15h0Zm33.432-.59c-0.753-.9-0.442-1.35,1.5-2.15a7.53,7.53,0,0,1,4.339-.42c1.8,0.57,1.763.66-.981,2.12-3.5,1.86-3.676,1.88-4.861.45h0Zm382.948-6.16c-4.27-1.68-4.18-1.59-2.94-3.08,0.58-.7.73-1.28,0.33-1.3s0.02-.59.94-1.28a4.662,4.662,0,0,0,1.68-1.85c0.03-1.23,3.42-4.48,5.82-5.57a31.3,31.3,0,0,1,7.92-1.57c2.98-.23,6.97-0.67,8.87-0.96,2.02-.31,3.67-0.18,3.97.31,0.59,0.95-.54,1.36-7.01,2.52-6.42,1.15-10.27,2.95-12.82,5.97-2.67,3.17-2.76,5.18-.3,6.89l1.87,1.31-2.5-.04a20.561,20.561,0,0,1-5.83-1.35h0Zm-436.591-2.41c-1.344-1.35-1.038-1.64,5.412-5.17,7.557-4.13,11.355-4.68,18.133-2.61l3.751,1.14-5,.99c-4.091.81-12.759,3.7-19.6,6.54A2.866,2.866,0,0,1,746.919,4748.78Zm60.223-1.08c0-.44-1.032-1.4-2.293-2.12l-2.292-1.32,3.069,0.49c2.181,0.34,3.267.14,3.752-.71,0.576-1,5.881-3.01,8-3.02,0.355-.01.065,1.11-0.645,2.49-1.674,3.23-9.588,6.69-9.588,4.19h0Zm12.978-2.43c-1.194-1.93,6.962-4.92,10.427-3.82,2.526,0.8.838,2.17-3.567,2.91a28.91,28.91,0,0,0-4.958,1.18,1.588,1.588,0,0,1-1.9-.27h0Zm26.617-6.13c-5.5-.44-10.106-0.89-10.231-1.01-0.745-.69,1.114-2.94,3.114-3.77,1.968-.81,2.874-0.7,5.567.67,2.625,1.33,4.317,1.55,9.194,1.2a37.48,37.48,0,0,1,8.335.17l2.36,0.6-2.918,1.55a11.414,11.414,0,0,1-4.168,1.47c-0.687-.05-5.751-0.45-11.253-0.88h0Zm239.883-3.41c-4.09-2.09-4.49-3.04-1.27-3.06a7.146,7.146,0,0,0,3.54-.91c1.08-.77,1.07-0.84-0.1-0.47a2.507,2.507,0,0,1-2.33-.54c-0.74-.73-1.12-0.72-1.6.06-0.45.72-1.36,0.8-3.09,0.29-4.4-1.32-5.38-1.9-5.38-3.2,0-1.11,1.1-1.21,7.92-.73,5.19,0.36,7.92.26,7.92-.3,0-1.63,2.31-.82,2.92,1.03l0.62,1.87,0.37-1.87a2.128,2.128,0,0,1,1.56-1.87,1.117,1.117,0,0,0,1.2-1c0-.78.22-0.78,1,0,0.58,0.58,3.37,1,6.67,1,5.96,0,7.35,1.06,3.38,2.57-2.07.78-5.66,0.56-9.59-.59-0.81-.24-1.46-0.13-1.46.25,0.01,0.77,4.69,3.59,5.96,3.59a3.892,3.892,0,0,1,1.99,1.17c1.01,1,1,1.24-.06,1.64-0.67.26-1.22,0.07-1.22-.43,0-.58-1.07-0.7-3-0.33-2.1.39-2.83,0.28-2.43-.36a2.094,2.094,0,0,0-.44-2.14c-1.07-1.29-4.14-1.68-4.14-.53a14.184,14.184,0,0,1-2.71,3.67l-2.71,2.99-3.52-1.8h0Zm-221.127-1.83c-1.445-.84-3.49-1.09-6.669-0.8-2.972.28-5.256,0.04-6.494-.67-1.705-.97-1.288-1.08,3.918-1.04,6.51,0.05,9.369-1.34,5.843-2.84-1.675-.72-1.43-0.78,1.441-0.39,3.748,0.52,5.2-.48,3.162-2.17-2.177-1.81.217-2.37,7.965-1.87q7.192,0.465,9.039-.52c2.359-1.26,1.434-2.87-1.263-2.19-1.864.47-14.8-.3-14.253-0.85,0.391-.39,18.716-2.08,30.749-2.84,6.241-.39,13.181-0.94,15.421-1.22l4.073-.51-6.724,3.23c-6.305,3.02-16.557,5.97-20.769,5.97-1.025,0-3.973,1.13-6.551,2.5a25.279,25.279,0,0,1-5.835,2.5,27.569,27.569,0,0,0-6.059,2.49c-2.7,1.36-4.91,2.47-4.91,2.46s-0.938-.57-2.084-1.24h0Zm-16.255-7.6c-4.04-.9-4.188-1.23-1.219-2.77,4.327-2.24,8.422-2.81,10.284-1.44,1.474,1.09,1.388,1.25-1.507,2.96C853.779,4726.83,852.555,4727.03,849.238,4726.3Z" transform="translate(-584 -4703.97)"/>
  <path class="cls-2" d="M605,4788s10.162-45.54,48-57c50.859-15.41,69,32,69,32s70.734-56.63,147-58c70.044-1.26,135,63,135,63s-59.591-13.26-102,5c-34.035,14.66-53,58-53,58s61.25-23,102-14,76,38,76,38,3.25-37.5,24-56,37-17,37-17,57.73-51.62,119-62c76.75-13,161,33,161,33s38.2-24.53,76-19c51.25,7.5,77,45,77,45s-42.25,6-65,41-23,98-23,98-19.25-18.5-58-9c-55.88,13.7-67,53-67,53s86.36,0.08,135,21c73.25,31.5,100,122,100,122s-22.25-22-55-17-59,30-59,30-50.92-61.77-149-55c-81.83,5.65-160,70-160,70s-39.79-62.53-95-74c-135.819-28.22-197,132-197,132s1.458-77.58-12-111c-15.644-38.85-53-49-53-49-0.17.36,3.6-57.03-18.447-84.79C721.693,4917.41,688,4914,688,4914s-3.908-53.34-22-81C644.88,4800.7,605,4788,605,4788Z" transform="translate(-584 -4703.97)"/>
  <g id="shields">
    <path data-name="Kształt 1737 kopia 15" class="cls-3" d="M1542.27,5104.8l-0.26.13-0.26-.12c-0.13-.06-12.95-6.21-12.95-24.56v-0.48l0.47-.11a32.488,32.488,0,0,0,8.98-3.37,5.883,5.883,0,0,1,7.5,0,32.488,32.488,0,0,0,8.98,3.37l0.47,0.11v0.48C1555.2,5097.99,1542.4,5104.73,1542.27,5104.8Zm-20.26-324.87-0.26-.12c-0.13-.06-12.95-6.21-12.95-24.56v-0.48l0.47-.11a32.488,32.488,0,0,0,8.98-3.37,5.883,5.883,0,0,1,7.5,0,32.488,32.488,0,0,0,8.98,3.37l0.47,0.11v0.48c0,17.74-12.8,24.48-12.93,24.55Zm-86,139-0.26-.12c-0.13-.06-12.95-6.21-12.95-24.56v-0.48l0.47-.11a32.488,32.488,0,0,0,8.98-3.37,5.883,5.883,0,0,1,7.5,0,32.488,32.488,0,0,0,8.98,3.37l0.47,0.11v0.48c0,17.74-12.8,24.48-12.93,24.55Zm-9.76,172.36a5.883,5.883,0,0,1,7.5,0,32.488,32.488,0,0,0,8.98,3.37l0.47,0.11v0.48c0,17.74-12.8,24.48-12.93,24.55l-0.26.13-0.26-.12c-0.13-.06-12.95-6.21-12.95-24.56v-0.48l0.47-.11A32.488,32.488,0,0,0,1426.25,5091.29Zm-57.24-336.36-0.26-.12c-0.13-.06-12.95-6.21-12.95-24.56v-0.48l0.47-.11a32.488,32.488,0,0,0,8.98-3.37,5.883,5.883,0,0,1,7.5,0,32.488,32.488,0,0,0,8.98,3.37l0.47,0.11v0.48c0,17.74-12.8,24.48-12.93,24.55Zm-62,211-0.26-.12c-0.13-.06-12.95-6.21-12.95-24.56v-0.48l0.47-.11a32.488,32.488,0,0,0,8.98-3.37,5.883,5.883,0,0,1,7.5,0,32.488,32.488,0,0,0,8.98,3.37l0.47,0.11v0.48c0,17.74-12.8,24.48-12.93,24.55Zm-186,172-0.26-.12c-0.13-.06-12.95-6.21-12.95-24.56v-0.48l0.47-.11a32.488,32.488,0,0,0,8.98-3.37,5.883,5.883,0,0,1,7.5,0,32.488,32.488,0,0,0,8.98,3.37l0.47,0.11v0.48c0,17.74-12.8,24.48-12.93,24.55Zm-32-353-0.26-.12c-0.13-.06-12.95-6.21-12.95-24.56v-0.48l0.47-.11a32.488,32.488,0,0,0,8.98-3.37,5.883,5.883,0,0,1,7.5,0,32.488,32.488,0,0,0,8.98,3.37l0.47,0.11v0.48c0,17.74-12.8,24.48-12.93,24.55Zm-63,71-0.26-.12c-0.13-.06-12.95-6.21-12.95-24.56v-0.48l0.47-.11a32.488,32.488,0,0,0,8.98-3.37,5.883,5.883,0,0,1,7.5,0,32.488,32.488,0,0,0,8.98,3.37l0.47,0.11v0.48c0,17.74-12.8,24.48-12.93,24.55Zm-24-86-0.26-.12c-0.13-.06-12.95-6.21-12.95-24.56v-0.48l0.471-.11a32.518,32.518,0,0,0,8.979-3.37,5.883,5.883,0,0,1,7.5,0,32.488,32.488,0,0,0,8.98,3.37l0.47,0.11v0.48c0,17.74-12.8,24.48-12.93,24.55Zm-106,325-0.263-.12c-0.131-.06-12.949-6.21-12.949-24.56v-0.48l0.471-.11a32.531,32.531,0,0,0,8.979-3.37,5.883,5.883,0,0,1,7.5,0,32.518,32.518,0,0,0,8.979,3.37l0.471,0.11v0.48c0,17.74-12.8,24.48-12.928,24.55Zm-48-259-0.263-.12c-0.131-.06-12.949-6.21-12.949-24.56v-0.48l0.471-.11a32.531,32.531,0,0,0,8.979-3.37,5.883,5.883,0,0,1,7.5,0,32.518,32.518,0,0,0,8.979,3.37l0.471,0.11v0.48c0,17.74-12.8,24.48-12.928,24.55ZM842.2,5166.77v0.48c0,17.74-12.8,24.48-12.928,24.55l-0.26.13-0.263-.12c-0.131-.06-12.949-6.21-12.949-24.56v-0.48l0.471-.11a32.518,32.518,0,0,0,8.979-3.37,5.883,5.883,0,0,1,7.5,0,32.518,32.518,0,0,0,8.979,3.37Zm-78.188-133.84-0.263-.12c-0.131-.06-12.949-6.21-12.949-24.56v-0.48l0.471-.11a32.531,32.531,0,0,0,8.979-3.37,5.883,5.883,0,0,1,7.5,0,32.518,32.518,0,0,0,8.979,3.37l0.471,0.11v0.48c0,17.74-12.8,24.48-12.928,24.55Zm-39-268-0.263-.12c-0.131-.06-12.949-6.21-12.949-24.56v-0.48l0.471-.11a32.518,32.518,0,0,0,8.979-3.37,5.883,5.883,0,0,1,7.5,0,32.531,32.531,0,0,0,8.979,3.37l0.471,0.11v0.48c0,17.74-12.8,24.48-12.928,24.55Zm-44,154-0.263-.12c-0.131-.06-12.949-6.21-12.949-24.56v-0.48l0.471-.11a32.518,32.518,0,0,0,8.979-3.37,5.883,5.883,0,0,1,7.5,0,32.531,32.531,0,0,0,8.979,3.37l0.471,0.11v0.48c0,17.74-12.8,24.48-12.928,24.55Zm-77-124-0.263-.12c-0.131-.06-12.949-6.21-12.949-24.56v-0.48l0.471-.11a32.531,32.531,0,0,0,8.979-3.37,5.883,5.883,0,0,1,7.5,0,32.518,32.518,0,0,0,8.979,3.37l0.471,0.11v0.48c0,17.74-12.8,24.48-12.928,24.55Z" transform="translate(-584 -4703.97)"/>
    <path class="cls-4" d="M1547.75,5086.48l-6.24,6.26a0.509,0.509,0,0,1-.35.15h-0.42a0.486,0.486,0,0,1-.34-0.15l-2.28-2.28h0a0.513,0.513,0,0,1,0-.71l0.7-.69v-0.01a0.492,0.492,0,0,1,.7.01l1.43,1.43,5.4-5.42h0a0.5,0.5,0,0,1,.7,0l0.7,0.7h0A0.513,0.513,0,0,1,1547.75,5086.48Zm-26.24-318.74a0.509,0.509,0,0,1-.35.15h-0.42a0.486,0.486,0,0,1-.34-0.15l-2.28-2.28h0a0.513,0.513,0,0,1,0-.71l0.7-.69v-0.01a0.492,0.492,0,0,1,.7.01l1.43,1.43,5.4-5.42h0a0.5,0.5,0,0,1,.7,0l0.7,0.7h0a0.513,0.513,0,0,1,0,.71Zm-86,140a0.509,0.509,0,0,1-.35.15h-0.42a0.486,0.486,0,0,1-.34-0.15l-2.28-2.28h0a0.513,0.513,0,0,1,0-.71l0.7-.69v-0.01a0.492,0.492,0,0,1,.7.01l1.43,1.43,5.4-5.42h0a0.5,0.5,0,0,1,.7,0l0.7,0.7h0a0.513,0.513,0,0,1,0,.71Zm-1.16,193.33a0.5,0.5,0,0,1,.7,0l0.7,0.7h0a0.513,0.513,0,0,1,0,.71l-6.24,6.26a0.509,0.509,0,0,1-.35.15h-0.42a0.486,0.486,0,0,1-.34-0.15l-2.28-2.28h0a0.513,0.513,0,0,1,0-.71l0.7-.69v-0.01a0.492,0.492,0,0,1,.7.01l1.43,1.43,5.4-5.42h0Zm-65.84-358.33a0.509,0.509,0,0,1-.35.15h-0.42a0.486,0.486,0,0,1-.34-0.15l-2.28-2.28h0a0.513,0.513,0,0,1,0-.71l0.7-.69v-0.01a0.492,0.492,0,0,1,.7.01l1.43,1.43,5.4-5.42h0a0.5,0.5,0,0,1,.7,0l0.7,0.7h0a0.513,0.513,0,0,1,0,.71Zm-63,212a0.509,0.509,0,0,1-.35.15h-0.42a0.486,0.486,0,0,1-.34-0.15l-2.28-2.28h0a0.513,0.513,0,0,1,0-.71l0.7-.69v-0.01a0.492,0.492,0,0,1,.7.01l1.43,1.43,5.4-5.42h0a0.5,0.5,0,0,1,.7,0l0.7,0.7h0a0.513,0.513,0,0,1,0,.71Zm-185,172a0.509,0.509,0,0,1-.35.15h-0.42a0.486,0.486,0,0,1-.34-0.15l-2.28-2.28h0a0.513,0.513,0,0,1,0-.71l0.7-.69v-0.01a0.492,0.492,0,0,1,.7.01l1.43,1.43,5.4-5.42h0a0.5,0.5,0,0,1,.7,0l0.7,0.7h0a0.513,0.513,0,0,1,0,.71Zm-32-354a0.509,0.509,0,0,1-.35.15h-0.42a0.486,0.486,0,0,1-.34-0.15l-2.28-2.28h0a0.513,0.513,0,0,1,0-.71l0.7-.69v-0.01a0.492,0.492,0,0,1,.7.01l1.43,1.43,5.4-5.42h0a0.5,0.5,0,0,1,.7,0l0.7,0.7h0a0.513,0.513,0,0,1,0,.71Zm-63,71a0.509,0.509,0,0,1-.35.15h-0.42a0.486,0.486,0,0,1-.34-0.15l-2.28-2.28h0a0.513,0.513,0,0,1,0-.71l0.7-.69v-0.01a0.492,0.492,0,0,1,.7.01l1.43,1.43,5.4-5.42h0a0.5,0.5,0,0,1,.7,0l0.7,0.7h0a0.513,0.513,0,0,1,0,.71Zm-24-85a0.509,0.509,0,0,1-.35.15h-0.42a0.486,0.486,0,0,1-.34-0.15l-2.276-2.28h0a0.506,0.506,0,0,1,0-.71l0.694-.69c0-.01,0-0.01,0-0.01a0.494,0.494,0,0,1,.7.01l1.427,1.43,5.4-5.42h0a0.5,0.5,0,0,1,.7,0l0.7,0.7h0a0.513,0.513,0,0,1,0,.71Zm-106,325a0.5,0.5,0,0,1-.347.15h-0.417a0.5,0.5,0,0,1-.347-0.15l-2.272-2.28h0a0.506,0.506,0,0,1,0-.71l0.694-.69c0-.01,0-0.01,0-0.01a0.494,0.494,0,0,1,.7.01l1.429,1.43,5.4-5.42h0a0.5,0.5,0,0,1,.7,0l0.7,0.7h0a0.507,0.507,0,0,1,0,.71Zm-48-259a0.5,0.5,0,0,1-.347.15h-0.417a0.5,0.5,0,0,1-.347-0.15l-2.272-2.28h0a0.506,0.506,0,0,1,0-.71l0.694-.69c0-.01,0-0.01,0-0.01a0.494,0.494,0,0,1,.7.01l1.429,1.43,5.4-5.42h0a0.5,0.5,0,0,1,.7,0l0.7,0.7h0a0.507,0.507,0,0,1,0,.71Zm-19,355a0.5,0.5,0,0,1-.347.15h-0.417a0.5,0.5,0,0,1-.347-0.15l-2.272-2.28h0a0.506,0.506,0,0,1,0-.71l0.694-.69c0-.01,0-0.01,0-0.01a0.494,0.494,0,0,1,.7.01l1.429,1.43,5.4-5.42h0a0.5,0.5,0,0,1,.7,0l0.7,0.7h0a0.507,0.507,0,0,1,0,.71Zm-65-159a0.5,0.5,0,0,1-.347.15h-0.417a0.5,0.5,0,0,1-.347-0.15l-2.272-2.28h0a0.506,0.506,0,0,1,0-.71l0.694-.69c0-.01,0-0.01,0-0.01a0.494,0.494,0,0,1,.7.01l1.429,1.43,5.4-5.42h0a0.5,0.5,0,0,1,.7,0l0.7,0.7h0a0.507,0.507,0,0,1,0,.71Zm-39-268a0.5,0.5,0,0,1-.347.15h-0.417a0.5,0.5,0,0,1-.347-0.15l-2.272-2.28h0a0.506,0.506,0,0,1,0-.71l0.694-.69c0-.01,0-0.01,0-0.01a0.494,0.494,0,0,1,.7.01l1.429,1.43,5.4-5.42h0a0.5,0.5,0,0,1,.7,0l0.7,0.7h0a0.507,0.507,0,0,1,0,.71Zm-44,155a0.5,0.5,0,0,1-.347.15h-0.417a0.5,0.5,0,0,1-.347-0.15l-2.272-2.28h0a0.506,0.506,0,0,1,0-.71l0.694-.69c0-.01,0-0.01,0-0.01a0.494,0.494,0,0,1,.7.01l1.429,1.43,5.4-5.42h0a0.5,0.5,0,0,1,.7,0l0.7,0.7h0a0.507,0.507,0,0,1,0,.71Zm-77-124a0.5,0.5,0,0,1-.347.15h-0.417a0.5,0.5,0,0,1-.347-0.15l-2.272-2.28h0a0.506,0.506,0,0,1,0-.71l0.694-.69c0-.01,0-0.01,0-0.01a0.494,0.494,0,0,1,.7.01l1.429,1.43,5.4-5.42h0a0.5,0.5,0,0,1,.7,0l0.7,0.7h0a0.507,0.507,0,0,1,0,.71Z" transform="translate(-584 -4703.97)"/>
  </g>
</svg>
