<?xml version="1.0" encoding="UTF-8"?>
<svg  xmlns="http://www.w3.org/2000/svg" xmlns:xlink= "http://www.w3.org/1999/xlink" width="50px" height="50px" viewBox="0 0 50 50">
<g id="surface862">
<path style=" stroke:none;fill-rule:nonzero;fill:rgb(9.803922%,46.27451%,82.352941%);fill-opacity:1;" d="M 46.875 36.457031 C 46.875 38.757812 45.007812 40.625 42.707031 40.625 L 7.292969 40.625 C 4.992188 40.625 3.125 38.757812 3.125 36.457031 L 3.125 13.542969 C 3.125 11.242188 4.992188 9.375 7.292969 9.375 L 42.707031 9.375 C 45.007812 9.375 46.875 11.242188 46.875 13.542969 Z M 46.875 36.457031 "/>
<path style=" stroke:none;fill-rule:nonzero;fill:rgb(100%,100%,100%);fill-opacity:1;" d="M 23.183594 20.832031 L 20.980469 25.710938 L 18.789062 20.832031 L 15.984375 20.832031 L 15.984375 27.839844 L 12.855469 20.832031 L 10.488281 20.832031 L 7.292969 28.105469 L 9.183594 28.105469 L 9.882812 26.480469 L 13.457031 26.480469 L 14.167969 28.105469 L 17.777344 28.105469 L 17.777344 22.703125 L 20.171875 28.105469 L 21.800781 28.105469 L 24.246094 22.796875 L 24.246094 28.105469 L 26.042969 28.105469 L 26.042969 20.832031 Z M 10.558594 24.910156 L 11.625 22.371094 L 12.738281 24.910156 Z M 39.460938 24.386719 L 42.707031 20.851562 L 40.398438 20.851562 L 38.320312 23.105469 L 36.3125 20.832031 L 29.167969 20.832031 L 29.167969 28.105469 L 36.078125 28.105469 L 38.257812 25.699219 L 40.382812 28.125 L 42.683594 28.125 Z M 35.132812 26.578125 L 30.957031 26.578125 L 30.957031 25.140625 L 34.953125 25.140625 L 34.953125 23.761719 L 30.957031 23.761719 L 30.957031 22.398438 L 35.367188 22.414062 L 37.128906 24.386719 Z M 35.132812 26.578125 "/>
</g>
</svg>
