<?xml version="1.0" encoding="UTF-8"?>
<svg  xmlns="http://www.w3.org/2000/svg" xmlns:xlink= "http://www.w3.org/1999/xlink" width="50px" height="50px" viewBox="0 0 50 50">
<g id="surface68692">
<path style=" stroke:none;fill-rule:nonzero;fill:rgb(88.235294%,90.588235%,91.764706%);fill-opacity:1;" d="M 46.875 36.457031 C 46.875 38.75 45 40.625 42.707031 40.625 L 7.292969 40.625 C 5 40.625 3.125 38.75 3.125 36.457031 L 3.125 13.542969 C 3.125 11.25 5 9.375 7.292969 9.375 L 42.707031 9.375 C 45 9.375 46.875 11.25 46.875 13.542969 Z M 46.875 36.457031 "/>
<path style=" stroke:none;fill-rule:nonzero;fill:rgb(100%,42.745098%,0%);fill-opacity:1;" d="M 46.875 36.457031 C 46.875 38.75 45 40.625 42.707031 40.625 L 16.667969 40.625 C 16.667969 40.625 41.25 36.667969 46.875 25 Z M 22.917969 25 C 22.917969 26.769531 24.269531 28.125 26.042969 28.125 C 27.8125 28.125 29.167969 26.769531 29.167969 25 C 29.167969 23.230469 27.8125 21.875 26.042969 21.875 C 24.269531 21.875 22.917969 23.230469 22.917969 25 Z M 22.917969 25 "/>
<path style=" stroke:none;fill-rule:nonzero;fill:rgb(0%,0%,0%);fill-opacity:1;" d="M 11.667969 21.875 L 12.8125 21.875 L 12.8125 28.125 L 11.667969 28.125 Z M 17.917969 25 C 17.917969 26.769531 19.269531 28.125 21.042969 28.125 C 21.5625 28.125 21.980469 28.019531 22.5 27.8125 L 22.5 26.457031 C 22.082031 26.875 21.667969 27.082031 21.042969 27.082031 C 19.894531 27.082031 19.0625 26.25 19.0625 25 C 19.0625 23.855469 19.894531 22.917969 21.042969 22.917969 C 21.5625 22.917969 21.980469 23.125 22.5 23.542969 L 22.5 22.1875 C 21.980469 21.980469 21.5625 21.769531 21.042969 21.769531 C 19.269531 21.875 17.917969 23.332031 17.917969 25 Z M 31.875 25.9375 L 30.207031 21.875 L 28.957031 21.875 L 31.5625 28.125 L 32.1875 28.125 L 34.792969 21.875 L 33.542969 21.875 Z M 35.3125 28.125 L 38.644531 28.125 L 38.644531 27.082031 L 36.457031 27.082031 L 36.457031 25.417969 L 38.542969 25.417969 L 38.542969 24.375 L 36.457031 24.375 L 36.457031 22.917969 L 38.644531 22.917969 L 38.644531 21.875 L 35.3125 21.875 Z M 43.230469 23.75 C 43.230469 22.605469 42.5 21.875 41.144531 21.875 L 39.375 21.875 L 39.375 28.125 L 40.519531 28.125 L 40.519531 25.625 L 40.625 25.625 L 42.292969 28.125 L 43.75 28.125 L 41.875 25.519531 C 42.707031 25.3125 43.230469 24.6875 43.230469 23.75 Z M 40.832031 24.792969 L 40.519531 24.792969 L 40.519531 22.917969 L 40.832031 22.917969 C 41.5625 22.917969 41.980469 23.230469 41.980469 23.855469 C 41.980469 24.375 41.667969 24.792969 40.832031 24.792969 Z M 8.019531 21.875 L 6.25 21.875 L 6.25 28.125 L 7.917969 28.125 C 10.519531 28.125 11.144531 25.9375 11.144531 25 C 11.25 23.125 9.894531 21.875 8.019531 21.875 Z M 7.707031 27.082031 L 7.394531 27.082031 L 7.394531 22.917969 L 7.8125 22.917969 C 9.375 22.917969 10 23.957031 10 25 C 10 25.417969 9.894531 27.082031 7.707031 27.082031 Z M 15.9375 24.269531 C 15.207031 23.957031 15 23.855469 15 23.542969 C 15 23.125 15.417969 22.917969 15.832031 22.917969 C 16.144531 22.917969 16.457031 23.019531 16.769531 23.4375 L 17.394531 22.605469 C 16.875 22.082031 16.355469 21.875 15.625 21.875 C 14.582031 21.875 13.75 22.605469 13.75 23.644531 C 13.75 24.480469 14.167969 24.894531 15.207031 25.3125 C 15.832031 25.519531 16.355469 25.730469 16.355469 26.25 C 16.355469 26.769531 15.9375 27.082031 15.417969 27.082031 C 14.894531 27.082031 14.375 26.769531 14.167969 26.25 L 13.4375 26.980469 C 13.957031 27.8125 14.582031 28.125 15.519531 28.125 C 16.769531 28.125 17.605469 27.292969 17.605469 26.144531 C 17.605469 25.207031 17.1875 24.792969 15.9375 24.269531 Z M 15.9375 24.269531 "/>
</g>
</svg>
