<?xml version="1.0" encoding="UTF-8"?>
<svg  xmlns="http://www.w3.org/2000/svg" xmlns:xlink= "http://www.w3.org/1999/xlink" width="50px" height="50px" viewBox="0 0 50 50">
<g id="surface136781">
<path style=" stroke:none;fill-rule:nonzero;fill:rgb(81.176471%,84.705882%,86.27451%);fill-opacity:1;" d="M 46.875 36.457031 C 46.875 38.757812 45.007812 40.625 42.707031 40.625 L 7.292969 40.625 C 4.992188 40.625 3.125 38.757812 3.125 36.457031 L 3.125 13.542969 C 3.125 11.242188 4.992188 9.375 7.292969 9.375 L 42.707031 9.375 C 45.007812 9.375 46.875 11.242188 46.875 13.542969 Z M 46.875 36.457031 "/>
<path style=" stroke:none;fill-rule:nonzero;fill:rgb(24.705882%,31.764706%,70.980392%);fill-opacity:1;" d="M 11.113281 13.542969 C 8.9375 13.542969 7.292969 14.921875 7.292969 17.308594 L 7.292969 36.457031 L 14.042969 36.457031 C 15.742188 36.457031 17.707031 34.863281 17.707031 32.792969 L 17.707031 13.542969 Z M 11.113281 13.542969 "/>
<path style=" stroke:none;fill-rule:nonzero;fill:rgb(89.803922%,22.352941%,20.784314%);fill-opacity:1;" d="M 23.613281 13.542969 C 21.4375 13.542969 19.792969 14.921875 19.792969 17.308594 L 19.792969 36.457031 L 26.542969 36.457031 C 28.242188 36.457031 30.207031 34.863281 30.207031 32.792969 L 30.207031 13.542969 Z M 23.613281 13.542969 "/>
<path style=" stroke:none;fill-rule:nonzero;fill:rgb(21.960784%,55.686275%,23.529412%);fill-opacity:1;" d="M 36.113281 13.542969 C 33.9375 13.542969 32.292969 14.921875 32.292969 17.308594 L 32.292969 36.457031 L 39.042969 36.457031 C 40.742188 36.457031 42.707031 34.863281 42.707031 32.792969 L 42.707031 13.542969 Z M 36.113281 13.542969 "/>
<path style=" stroke:none;fill-rule:nonzero;fill:rgb(98.039216%,98.039216%,98.039216%);fill-opacity:1;" d="M 16.464844 25.472656 C 16.464844 27.382812 13.996094 28.390625 12.191406 28.390625 C 10.230469 28.390625 8.476562 27.226562 8.101562 25.742188 L 9.429688 25.742188 C 9.589844 26.644531 10.492188 27.277344 11.5 27.277344 C 12.613281 27.277344 13.410156 26.480469 13.410156 25.472656 L 13.410156 22.023438 L 16.464844 22.023438 Z M 40.214844 25.039062 C 41.007812 25.039062 41.5625 24.25 41.5625 23.457031 C 41.5625 22.664062 40.871094 21.976562 40.078125 21.976562 L 33.554688 21.976562 L 33.554688 28.070312 L 40.214844 28.070312 C 41.113281 28.070312 41.800781 27.285156 41.800781 26.488281 C 41.800781 25.699219 41.113281 25.039062 40.214844 25.039062 Z M 36.09375 22.613281 L 38.15625 22.613281 C 38.679688 22.613281 39.15625 23.082031 39.15625 23.609375 C 39.15625 24.140625 38.679688 24.617188 38.15625 24.617188 L 36.09375 24.617188 Z M 38.207031 27.441406 L 36.097656 27.441406 L 36.097656 25.433594 L 38.207031 25.433594 C 38.738281 25.433594 39.210938 25.90625 39.210938 26.4375 C 39.210938 26.964844 38.738281 27.441406 38.207031 27.441406 Z M 28.96875 23.101562 C 27.753906 22.820312 26.589844 22.65625 26.007812 22.65625 C 24.738281 22.65625 23.734375 23.714844 23.734375 25.054688 C 23.734375 26.398438 24.738281 27.460938 26.007812 27.460938 C 26.589844 27.460938 27.753906 27.351562 28.96875 27.066406 L 28.96875 28.128906 L 23.890625 28.128906 C 22.304688 28.128906 20.984375 26.730469 20.984375 25.054688 C 20.984375 23.378906 22.304688 21.984375 23.890625 21.984375 L 28.96875 21.984375 Z M 28.96875 23.101562 "/>
</g>
</svg>
