<?xml version="1.0" encoding="UTF-8"?>
<svg  xmlns="http://www.w3.org/2000/svg" xmlns:xlink= "http://www.w3.org/1999/xlink" width="50px" height="50px" viewBox="0 0 50 50">
<g id="surface54288">
<path style=" stroke:none;fill-rule:nonzero;fill:rgb(8.235294%,39.607843%,75.294118%);fill-opacity:1;" d="M 46.875 36.457031 C 46.875 38.757812 45.007812 40.625 42.707031 40.625 L 7.292969 40.625 C 4.992188 40.625 3.125 38.757812 3.125 36.457031 L 3.125 13.542969 C 3.125 11.242188 4.992188 9.375 7.292969 9.375 L 42.707031 9.375 C 45.007812 9.375 46.875 11.242188 46.875 13.542969 Z M 46.875 36.457031 "/>
<path style=" stroke:none;fill-rule:nonzero;fill:rgb(100%,100%,100%);fill-opacity:1;" d="M 15.820312 19.792969 L 13.082031 27.949219 C 13.082031 27.949219 12.386719 24.5 12.320312 24.066406 C 10.761719 20.511719 8.464844 20.710938 8.464844 20.710938 L 11.171875 31.25 L 11.171875 31.246094 L 14.464844 31.246094 L 19.019531 19.792969 Z M 18.425781 31.25 L 21.417969 31.25 L 23.226562 19.792969 L 20.195312 19.792969 Z M 39.589844 19.792969 L 36.445312 19.792969 L 31.539062 31.25 L 34.507812 31.25 L 35.121094 29.613281 L 38.867188 29.613281 L 39.1875 31.25 L 41.910156 31.25 Z M 35.949219 27.425781 L 37.578125 23.09375 L 38.429688 27.425781 Z M 27.46875 23.132812 C 27.46875 22.5 27.988281 22.03125 29.472656 22.03125 C 30.441406 22.03125 31.546875 22.730469 31.546875 22.730469 L 32.035156 20.328125 C 32.035156 20.328125 30.617188 19.789062 29.230469 19.789062 C 26.085938 19.789062 24.464844 21.292969 24.464844 23.199219 C 24.464844 26.644531 28.609375 26.171875 28.609375 27.941406 C 28.609375 28.242188 28.367188 28.945312 26.640625 28.945312 C 24.910156 28.945312 23.769531 28.308594 23.769531 28.308594 L 23.253906 30.617188 C 23.253906 30.617188 24.359375 31.25 26.5 31.25 C 28.644531 31.25 31.617188 29.644531 31.617188 27.339844 C 31.617188 24.570312 27.46875 24.367188 27.46875 23.132812 Z M 27.46875 23.132812 "/>
<path style=" stroke:none;fill-rule:nonzero;fill:rgb(100%,75.686275%,2.745098%);fill-opacity:1;" d="M 12.722656 25.984375 L 11.714844 21.039062 C 11.714844 21.039062 11.257812 19.964844 10.074219 19.964844 C 8.894531 19.964844 5.449219 19.964844 5.449219 19.964844 C 5.449219 19.964844 11.347656 21.707031 12.722656 25.984375 Z M 12.722656 25.984375 "/>
</g>
</svg>
