<?xml version="1.0" encoding="utf-8"?>
<!-- Generator: Adobe Illustrator 16.0.0, SVG Export Plug-In . SVG Version: 6.00 Build 0)  -->
<!DOCTYPE svg PUBLIC "-//W3C//DTD SVG 1.1//EN" "http://www.w3.org/Graphics/SVG/1.1/DTD/svg11.dtd">
<svg version="1.1" id="Layer_2" xmlns="http://www.w3.org/2000/svg" xmlns:xlink="http://www.w3.org/1999/xlink" x="0px" y="0px"
	 width="397.863px" height="99.43px" viewBox="0 0 397.863 99.43" enable-background="new 0 0 397.863 99.43" xml:space="preserve">
<path fill="#FFFFFF" d="M56.521,76.428c-0.263-0.483,0.082-1.074,0.632-1.082l9.145,0.006c5.271,0,9.663-3.195,9.663-8.388
	c0-11.819-27.233-9.981-27.233-27.553c0-8.465,7.427-15.094,18.049-15.094c5.99,0,16.053,2.715,16.053,10.382v0.822
	c0,0.959-0.663,1.789-1.597,2l-3.674,0.834c-1.064,0.24-2.077-0.568-2.077-1.659c0-2.955-4.233-5.111-8.705-5.111
	c-6.07,0-9.903,3.354-9.903,7.587c0,11.42,27.154,8.865,27.154,27.393c0,8.625-6.709,16.054-17.89,16.054h-5.164
	c-0.719,0-1.38-0.394-1.723-1.024L56.521,76.428z"/>
<path fill="#FFFFFF" d="M172.558,76.257c0.203-0.312,0.545-0.903,1.095-0.912l12.145,0.006c5.271,0,9.663-3.194,9.663-8.386
	c0-11.82-27.233-9.982-27.233-27.553c0-8.467,7.427-15.094,18.049-15.094c5.989,0,16.053,2.715,16.053,10.381v0.822
	c0,0.959-0.663,1.788-1.598,2l-3.674,0.834c-1.064,0.241-2.076-0.568-2.076-1.66c0-2.955-4.233-5.11-8.705-5.11
	c-6.07,0-9.903,3.354-9.903,7.587c0,11.421,27.153,8.865,27.153,27.393c0,8.627-6.709,16.053-17.89,16.053h-15.165
	c-0.007,0-0.014,0-0.021,0c-1.008-0.01-1.497-1.264-0.844-2.03L172.558,76.257z"/>
<path fill="#FFFFFF" d="M45.28,75.543c-1.975,0-3.291-0.164-4.114-1.892l-6.992-13.904c-0.988-1.892-2.469-2.632-2.469-2.632V56.95
	c4.114-0.905,10.449-5.677,10.449-15.384c0-10.613-7.158-17.03-17.359-17.03H0.76c-0.581,0-0.946,0.628-0.658,1.133l2.835,4.976
	c0.341,0.598,0.976,0.967,1.665,0.967h0.202h8.227H23.89c6.088,0,9.79,3.783,9.79,10.283s-3.702,10.531-9.954,10.531H10.764
	c-0.479,0-0.867,0.389-0.867,0.866l0.002,5.181c0,0.571,0.469,1.031,1.04,1.018l9.66,0.01c3.209,0,4.278,0.412,5.759,3.127
	l7.898,15.631c1.892,3.784,3.538,4.36,8.062,4.36h6.795c0.602,0,0.977-0.653,0.674-1.173l-3.023-5.189c0,0-0.224-0.431-0.575-0.58
	C45.739,75.483,45.28,75.543,45.28,75.543"/>
<path fill="#FFFFFF" d="M213.265,48.377h-4.106c-0.648,0-1.174-0.525-1.174-1.174v-3.892c0-0.649,0.525-1.175,1.174-1.175h4.267
	v-9.945c0-0.648,0.525-1.174,1.174-1.174h5.252c0.647,0,1.174,0.525,1.174,1.174v9.945h6.294c0.648,0,1.052,0.449,1.386,1.175
	c0,0,1.313,3.366,1.494,3.892c0.212,0.613-0.525,1.174-1.174,1.174h-8v18.562c0,8.08,3.601,9.12,6.561,9.12
	c0.22,0,0.425-0.008,0.611-0.016c0.671-0.037,0.911,0.371,1.229,1.17c0,0,1.713,3.619,2,4.5c0.191,0.588-0.472,1.131-1.088,1.172
	c-0.435,0.029-0.985,0.054-1.633,0.054c-5.119,0-15.439-1.601-15.439-15.121V48.377z"/>
<path fill="#FFFFFF" d="M240.944,50.537c0-1.199-0.642-1.76-1.761-1.76h-0.625c-0.352-0.068-0.684-0.304-0.922-0.922
	c0,0-1.465-3.802-1.733-4.797c-0.133-0.491,0.413-0.921,0.922-0.921h6.679c3.68,0,5.2,1.521,5.2,4.96v19.199
	c0,5.601,1.12,10.08,7.521,10.08c8.319,0,13.199-7.279,13.199-15.279V43.059c0-0.51,0.413-0.921,0.923-0.921h5.916
	c0.51,0,0.922,0.411,0.922,0.921v31.158c0,1.201,0.64,1.761,1.76,1.761h-0.027c0.509,0,0.609,0.349,0.922,0.922
	c0,0,1.85,4.405,1.97,4.797c0.148,0.487-0.413,0.923-0.922,0.923h-6.103c-3.44,0-5.12-1.602-5.12-4.48v-1.52
	c0-1.281,0.08-2.322,0.08-2.322h-0.159c-1.681,4-6.881,9.281-14.881,9.281c-9.12,0-13.76-4.8-13.76-15.521V50.537z"/>
<path fill="#FFFFFF" d="M304.263,41.177c9.36,0,12.48,6.241,12.48,6.241h0.16c0,0-0.16-1.201-0.16-2.721v-10.16
	c0-1.2-0.64-1.76-1.76-1.76h-0.57c-0.392,0-0.563-0.283-0.71-0.711l-2-5.22c0-0.392,0.317-0.71,0.709-0.71h7.57
	c2.497,0,4.521,2.024,4.521,4.52v43.562c0,1.2,0.641,1.761,1.761,1.761h0.57c0.393,0,0.567,0.238,0.709,0.709
	c0,0,1.78,4.717,2.001,5.221c0.156,0.359-0.317,0.709-0.71,0.709h-6.73c-3.521,0-4.96-1.6-4.96-4.319c0-1.2,0.08-2.08,0.08-2.08
	h-0.16c0,0-3.36,7.36-13.28,7.36c-10.961,0-17.841-8.641-17.841-21.2C285.942,49.498,293.543,41.177,304.263,41.177 M316.983,62.298
	c0-7.2-3.761-14.399-11.521-14.399c-6.319,0-11.6,5.279-11.6,14.479c0,8.8,4.721,14.479,11.44,14.479
	C311.302,76.858,316.983,72.617,316.983,62.298"/>
<path fill="#FFFFFF" d="M337.583,50.537c0-1.199-0.64-1.76-1.76-1.76h-0.39c-0.491,0-0.676-0.313-0.891-0.891
	c0,0-1.626-3.857-2-4.857c-0.173-0.461,0.399-0.893,0.891-0.893h7.608c2.331,0,4.22,1.891,4.22,4.221v27.86
	c0,1.2,0.642,1.76,1.762,1.76h0.389c0.492,0,0.704,0.347,0.891,0.892c0,0,1.812,4.188,2,4.857c0.134,0.475-0.397,0.891-0.891,0.891
	h-5.818c-3.319,0-6.011-2.69-6.011-6.01V50.537z M338.634,26.137h5.178c0.492,0,0.892,0.399,0.892,0.891v6.298
	c0,0.492-0.399,0.892-0.892,0.892h-5.178c-0.492,0-0.891-0.399-0.891-0.892v-6.298C337.743,26.536,338.142,26.137,338.634,26.137"/>
<path fill="#FFFFFF" d="M376.022,41.177c12.08,0,21.841,8.882,21.841,21.121c0,12.319-9.761,21.28-21.841,21.28
	s-21.762-8.961-21.762-21.28C354.261,50.059,363.942,41.177,376.022,41.177 M376.022,76.858c7.68,0,13.92-6.08,13.92-14.56
	c0-8.399-6.24-14.399-13.92-14.399c-7.602,0-13.841,6-13.841,14.399C362.182,70.778,368.421,76.858,376.022,76.858"/>
<path fill="#E43E3E" d="M94.657,73.137c-0.158-0.871-0.287-1.752-0.382-2.641c-0.099-0.887-0.172-1.783-0.192-2.68
	c-0.016-0.896-0.014-1.799,0.027-2.701c0.073-1.805,0.269-3.611,0.564-5.411c0.318-1.792,0.745-3.571,1.268-5.323
	c0.522-1.754,1.161-3.472,1.868-5.16c0.313-0.758,1.686-3.842,3.446-6.642c2.178-3.465,4.843-6.737,5.561-7.513
	c1.305-1.395,2.711-2.697,4.188-3.917c1.471-1.228,3.032-2.346,4.64-3.392c1.61-1.043,3.292-1.974,5.017-2.813
	c1.726-0.839,3.494-1.595,5.299-2.251c1.811-0.641,3.658-1.178,5.526-1.633c1.868-0.458,3.765-0.795,5.675-1.057
	c3.824-0.505,7.71-0.565,11.588-0.269l3.066,0.233l1.796,2.938c1.25,2.045,2.313,4.203,3.246,6.413
	c0.928,2.213,1.705,4.49,2.323,6.814c0.625,2.321,1.042,4.696,1.322,7.084c0.274,2.391,0.385,4.801,0.33,7.209
	c-0.044,2.409-0.311,4.812-0.712,7.188c-0.408,2.375-0.98,4.721-1.712,7.018c-0.721,2.299-1.647,4.528-2.702,6.687
	c-0.536,1.094-2.717,5.411-5.7,9.2c-2.904,3.688-6.607,6.854-7.511,7.607c-1.843,1.516-3.795,2.891-5.823,4.126
	c-2.032,1.228-4.131,2.341-6.314,3.248c-2.176,0.918-4.409,1.685-6.677,2.291c-2.264,0.618-4.576,1.031-6.891,1.304
	c-2.317,0.264-4.643,0.395-6.96,0.312c-4.251,0-10.094-1.011-11.084-1.407c-0.208-0.084-0.546-0.316-0.629-0.523
	c-0.158-0.396-0.119-0.721-0.065-0.93c0.232-0.893,1.403-3.477,2.022-4.558c1.216-2.122,4.455-7.95,8.776-13.877
	c4.693-6.437,9.366-11.056,9.366-11.056l1.567-1.629c0.524-0.543,1.65-0.693-2.986,6.102c-0.838,1.225-4.071,6.201-4.834,7.469
	c-6.509,10.781-7.504,14.438-7.76,15.104c4.131,0.428,7.561,0.209,11.65-0.5c4.089-0.707,8.08-1.976,11.824-3.762
	c3.743-1.783,7.238-4.084,10.351-6.82c0.704-0.619,2.746-2.381,4.426-4.365c2.032-2.398,3.681-5.021,3.681-5.021
	c1.113-1.72,2.132-3.548,3.009-5.418c0.88-1.873,1.631-3.807,2.245-5.783c0.615-1.976,1.092-3.994,1.427-6.035
	c0.339-2.041,0.524-4.105,0.59-6.174c0.125-4.135-0.322-8.289-1.321-12.307c-0.997-4.018-2.356-7.561-4.407-11.161
	c-1.662-0.497-8.153-0.205-9.843-0.038c-1.69,0.171-4.818,0.541-9.977,2.013c-6.483,2.026-12.56,5.425-17.518,10.075
	c-1.232,1.166-2.439,2.369-3.486,3.707c-0.785,1.002-1.645,2.055-3.008,4.107c-1.886,2.841-3.48,5.876-4.774,9.029
	c-1.301,3.148-2.266,6.438-2.807,9.801c-0.27,1.682-0.435,3.379-0.481,5.082C95.527,74.701,94.8,74.008,94.657,73.137"/>
<path fill="#FFFFFF" d="M132.003,9.816c-1.944,0.294-3.856,0.763-5.747,1.289c-1.891,0.526-3.755,1.153-5.568,1.906
	c-1.811,0.756-3.587,1.593-5.294,2.557c-1.71,0.956-3.365,2.007-4.934,3.171c-0.805,0.601-4.011,3.157-6.674,6.039
	c-2.517,2.725-4.505,5.777-4.999,6.543c-1.023,1.57-1.982,3.18-2.83,4.85c-0.85,1.666-1.607,3.377-2.258,5.123
	c-0.628,1.754-1.158,3.539-1.565,5.34c-0.1,0.438-0.634,2.637-0.816,5.062c-0.192,2.563-0.029,5.36,0.005,5.812
	c0,0,0.165,1.056,0.401,1.012c0.286-0.055,0.357-0.951,0.357-0.951c0.138-1.755,0.371-3.467,0.741-5.178
	c0.359-1.704,0.839-3.383,1.42-5.024c1.164-3.285,2.742-6.417,4.631-9.345c1.884-2.936,4.085-5.658,6.468-8.206
	c0,0,2.055-2.102,4.086-3.828c1.638-1.391,3.24-2.416,3.889-2.839c5.846-3.764,12.595-6.006,19.484-6.909
	C153.357,13.544,145.917,7.71,132.003,9.816"/>
<path fill="#FFFFFF" d="M122.457,1.174c-1.84,0.673-3.683,1.336-5.445,2.182c-1.758,0.853-3.5,1.748-5.098,2.852
	c-1.19,0.822-2.799,1.903-4.637,3.462c-1.428,1.211-2.807,2.483-4.102,3.839c-1.301,1.348-2.547,2.748-3.695,4.227
	c-1.149,1.476-2.215,3.014-3.184,4.605c-0.948,1.605-1.805,3.257-2.545,4.95c-0.373,0.845-0.709,1.704-1.027,2.565
	c-0.314,0.863-0.576,1.743-0.811,2.626c-0.239,0.882-0.443,1.769-0.615,2.659c-0.187,0.883-0.295,1.8-0.396,2.674
	c0,0-0.053,1.296,0.187,1.296c0.291,0.001,0.547-1.094,0.547-1.094c0.466-1.697,1.018-3.335,1.704-4.944
	c0.675-1.605,1.462-3.164,2.343-4.667c1.763-3.006,3.904-5.784,6.312-8.303c2.403-2.526,5.079-4.785,7.9-6.837
	c0,0,2.301-1.542,4.809-2.946c1.663-0.932,3.647-1.819,4.282-2.096C141.603-1.619,127.434-0.648,122.457,1.174"/>
</svg>
