<svg width="133" height="32" viewBox="0 0 133 32" fill="none" xmlns="http://www.w3.org/2000/svg">
<g clip-path="url(#clip0)">
<path d="M18.8942 24.5972C18.8062 24.4417 18.9216 24.2515 19.1054 24.2489L22.1625 24.2509C23.9245 24.2509 25.3927 23.2226 25.3927 21.5513C25.3927 17.7476 16.2891 18.3391 16.2891 12.6838C16.2891 9.95949 18.7718 7.82605 22.3226 7.82605C24.325 7.82605 27.6889 8.69983 27.6889 11.1673V11.4319C27.6889 11.7405 27.4673 12.0076 27.155 12.0756L25.9269 12.344C25.5712 12.4212 25.2326 12.1612 25.2326 11.81C25.2326 10.859 23.8175 10.1651 22.3226 10.1651C20.2935 10.1651 19.0122 11.2446 19.0122 12.6069C19.0122 16.2823 28.0894 15.46 28.0894 21.4229C28.0894 24.1987 25.8466 26.5896 22.109 26.5896H20.3827C20.1424 26.5896 19.9214 26.4628 19.8068 26.2601L18.8942 24.5972Z" fill="black"/>
<path d="M57.6838 24.5421C57.7516 24.4417 57.866 24.2515 58.0498 24.2486L62.1097 24.2505C63.8718 24.2505 65.3399 23.2226 65.3399 21.5516C65.3399 17.7475 56.2363 18.3391 56.2363 12.6841C56.2363 9.95915 58.7191 7.82635 62.2699 7.82635C64.2719 7.82635 67.6362 8.70014 67.6362 11.1673V11.4319C67.6362 11.7405 67.4145 12.0073 67.102 12.0755L65.8738 12.3439C65.5181 12.4215 65.1798 12.1611 65.1798 11.8097C65.1798 10.8587 63.7648 10.1651 62.2699 10.1651C60.2407 10.1651 58.9594 11.2446 58.9594 12.6069C58.9594 16.2826 68.0363 15.4599 68.0363 21.4229C68.0363 24.1994 65.7936 26.5893 62.0559 26.5893H56.9865C56.9841 26.5893 56.9818 26.5893 56.9794 26.5893C56.6425 26.5861 56.479 26.1825 56.6973 25.936L57.6838 24.5421Z" fill="black"/>
<path d="M15.1365 24.3124C14.4763 24.3124 14.0363 24.2596 13.7612 23.7034L11.4239 19.2287C11.0936 18.6197 10.5985 18.3816 10.5985 18.3816V18.3285C11.9738 18.0372 14.0915 16.5014 14.0915 13.3774C14.0915 9.96176 11.6987 7.89655 8.28863 7.89655H0.254065C0.059845 7.89655 -0.0621693 8.09866 0.034105 8.26118L0.981806 9.86263C1.0958 10.0551 1.30807 10.1738 1.53839 10.1738H1.60592H4.35609H7.9861C10.0212 10.1738 11.2588 11.3913 11.2588 13.4833C11.2588 15.5752 10.0212 16.8725 7.93128 16.8725H3.59826C3.43814 16.8725 3.30844 16.9977 3.30844 17.1512L3.3091 18.8186C3.3091 19.0024 3.46588 19.1505 3.65676 19.1463L6.88596 19.1495C7.95869 19.1495 8.31604 19.2821 8.81112 20.1559L11.4513 25.1865C12.0838 26.4043 12.634 26.5897 14.1463 26.5897H16.4178C16.619 26.5897 16.7444 26.3795 16.6431 26.2121L15.6326 24.5421C15.6326 24.5421 15.5577 24.4034 15.4403 24.3555C15.2899 24.293 15.1365 24.3124 15.1365 24.3124Z" fill="black"/>
<path d="M71.2914 15.5694H69.9188C69.7022 15.5694 69.5264 15.4004 69.5264 15.1916V13.939C69.5264 13.7301 69.7019 13.5608 69.9188 13.5608H71.3452V10.3602C71.3452 10.1516 71.5207 9.98236 71.7377 9.98236H73.4933C73.7096 9.98236 73.8858 10.1513 73.8858 10.3602V13.5608H75.9898C76.2064 13.5608 76.3415 13.7053 76.4531 13.939C76.4531 13.939 76.892 15.0223 76.9525 15.1916C77.0234 15.3889 76.777 15.5694 76.5601 15.5694H73.8858V21.5433C73.8858 24.1437 75.0896 24.4784 76.079 24.4784C76.1526 24.4784 76.2211 24.4759 76.2833 24.4733C76.5076 24.4614 76.5878 24.5927 76.6941 24.8498C76.6941 24.8498 77.2668 26.0145 77.3627 26.2981C77.4266 26.4873 77.2049 26.6621 76.999 26.6753C76.8536 26.6846 76.6697 26.6926 76.4531 26.6926C74.7419 26.6926 71.2921 26.1774 71.2921 21.8262V15.5694H71.2914Z" fill="black"/>
<path d="M80.5442 16.2646C80.5442 15.8787 80.3296 15.6981 79.9555 15.6981H79.7466C79.6289 15.6763 79.5179 15.6003 79.4384 15.4014C79.4384 15.4014 78.9487 14.1778 78.8591 13.8576C78.8146 13.6995 78.9971 13.5612 79.1673 13.5612H81.4C82.6301 13.5612 83.1383 14.0507 83.1383 15.1575V21.3364C83.1383 23.139 83.5127 24.5804 85.6524 24.5804C88.4334 24.5804 90.0647 22.2378 90.0647 19.6631V13.8579C90.0647 13.6938 90.2027 13.5615 90.3732 13.5615H92.3508C92.5213 13.5615 92.6591 13.6938 92.6591 13.8579V23.8856C92.6591 24.2721 92.873 24.4524 93.2474 24.4524H93.2384C93.4085 24.4524 93.442 24.5647 93.5466 24.7491C93.5466 24.7491 94.165 26.1668 94.2051 26.2929C94.2546 26.4497 94.0671 26.59 93.8969 26.59H91.8568C90.7068 26.59 90.1452 26.0744 90.1452 25.1482V24.659C90.1452 24.2467 90.172 23.9117 90.172 23.9117H90.1188C89.5569 25.199 87.8186 26.8986 85.1443 26.8986C82.0956 26.8986 80.5445 25.3538 80.5445 21.9034V16.2646H80.5442Z" fill="black"/>
<path d="M101.711 13.2521C104.84 13.2521 105.883 15.2607 105.883 15.2607H105.936C105.936 15.2607 105.883 14.8742 105.883 14.385V11.1152C105.883 10.729 105.669 10.5487 105.294 10.5487H105.104C104.973 10.5487 104.916 10.4577 104.866 10.3199L104.198 8.63994C104.198 8.51378 104.304 8.41144 104.435 8.41144H106.965C107.8 8.41144 108.477 9.06283 108.477 9.86613V23.8859C108.477 24.2721 108.691 24.4526 109.065 24.4526H109.256C109.387 24.4526 109.445 24.5292 109.493 24.6808C109.493 24.6808 110.088 26.1989 110.162 26.3611C110.214 26.4766 110.056 26.5893 109.925 26.5893H107.675C106.498 26.5893 106.017 26.0744 106.017 25.1993C106.017 24.8131 106.043 24.5299 106.043 24.5299H105.99C105.99 24.5299 104.867 26.8986 101.551 26.8986C97.8866 26.8986 95.5867 24.1176 95.5867 20.0757C95.5863 15.9301 98.1272 13.2521 101.711 13.2521ZM105.963 20.0496C105.963 17.7324 104.706 15.4155 102.112 15.4155C99.9992 15.4155 98.2339 17.1145 98.2339 20.0754C98.2339 22.9075 99.812 24.7352 102.058 24.7352C104.064 24.7355 105.963 23.3706 105.963 20.0496Z" fill="black"/>
<path d="M112.849 16.2646C112.849 15.8787 112.635 15.6981 112.261 15.6981H112.131C111.966 15.6981 111.905 15.5974 111.833 15.4114C111.833 15.4114 111.289 14.1701 111.164 13.8482C111.106 13.6999 111.298 13.5608 111.462 13.5608H114.005C114.784 13.5608 115.416 14.1694 115.416 14.9193V23.8856C115.416 24.2718 115.631 24.452 116.005 24.452H116.135C116.299 24.452 116.37 24.5637 116.433 24.7391C116.433 24.7391 117.039 26.087 117.101 26.3023C117.146 26.4551 116.969 26.589 116.804 26.589H114.859C113.749 26.589 112.849 25.7233 112.849 24.6548V16.2646ZM113.201 8.4118H114.932C115.096 8.4118 115.23 8.54022 115.23 8.69856V10.7255C115.23 10.8838 115.096 11.0125 114.932 11.0125H113.201C113.036 11.0125 112.903 10.8841 112.903 10.7255V8.69856C112.903 8.54022 113.036 8.4118 113.201 8.4118Z" fill="black"/>
<path d="M125.699 13.2522C129.737 13.2522 133 16.1107 133 20.0497C133 24.0143 129.737 26.8983 125.699 26.8983C121.661 26.8983 118.424 24.0143 118.424 20.0497C118.424 16.1107 121.661 13.2522 125.699 13.2522ZM125.699 24.7356C128.266 24.7356 130.352 22.7788 130.352 20.0497C130.352 17.3466 128.266 15.4156 125.699 15.4156C123.158 15.4156 121.072 17.3466 121.072 20.0497C121.072 22.7788 123.158 24.7356 125.699 24.7356Z" fill="black"/>
<path d="M31.6425 23.538C31.5897 23.2577 31.5466 22.9741 31.5148 22.688C31.4817 22.4026 31.4573 22.1142 31.4506 21.8255C31.4453 21.5372 31.4459 21.2465 31.4596 20.9562C31.484 20.3753 31.5496 19.7941 31.6482 19.2148C31.7545 18.6381 31.8972 18.0655 32.0721 17.5017C32.2466 16.9372 32.4602 16.3843 32.6965 15.841C32.8011 15.5971 33.2601 14.6045 33.8485 13.7034C34.5765 12.5882 35.4674 11.5352 35.7074 11.2854C36.1437 10.8365 36.6137 10.4175 37.1074 10.0248C37.5991 9.6296 38.121 9.26979 38.6585 8.93315C39.1967 8.59748 39.759 8.29785 40.3356 8.02783C40.9126 7.75781 41.5036 7.5145 42.107 7.30338C42.7124 7.09708 43.3298 6.92426 43.9543 6.77782C44.5787 6.63042 45.2128 6.52197 45.8513 6.43765C47.1296 6.27512 48.4287 6.25581 49.725 6.35107L50.7499 6.42606L51.3503 7.37161C51.7682 8.02976 52.1235 8.72428 52.4354 9.43553C52.7456 10.1478 53.0054 10.8806 53.212 11.6285C53.4209 12.3755 53.5603 13.1398 53.6539 13.9084C53.7455 14.6779 53.7826 15.4535 53.7642 16.2285C53.7495 17.0038 53.6602 17.7772 53.5262 18.5418C53.3898 19.3062 53.1986 20.0612 52.9539 20.8005C52.7129 21.5404 52.4033 22.2577 52.0507 22.9526C51.8715 23.3047 51.1424 24.694 50.1452 25.9135C49.1745 27.1004 47.9366 28.1193 47.6344 28.3617C47.0183 28.8496 46.3658 29.2921 45.6879 29.6895C45.0086 30.0848 44.3069 30.443 43.5772 30.7349C42.8498 31.0303 42.1033 31.2772 41.3451 31.4722C40.5883 31.6711 39.8155 31.804 39.0416 31.8919C38.267 31.9768 37.4895 32.019 36.715 31.9923C35.2939 31.9923 33.3407 31.6669 33.0097 31.5394C32.9402 31.5124 32.8272 31.4377 32.7995 31.3711C32.7466 31.2437 32.7597 31.1391 32.7777 31.0718C32.8553 30.7844 33.2467 29.9528 33.4537 29.6049C33.8602 28.922 34.9429 27.0463 36.3874 25.1388C37.9562 23.0672 39.5183 21.5806 39.5183 21.5806L40.0421 21.0563C40.2173 20.8816 40.5937 20.8333 39.0439 23.0202C38.7638 23.4144 37.683 25.0159 37.428 25.424C35.2521 28.8936 34.9195 30.0706 34.8339 30.2849C36.2149 30.4227 37.3615 30.3522 38.7284 30.124C40.0953 29.8965 41.4294 29.4881 42.681 28.9133C43.9322 28.3394 45.1005 27.5989 46.1412 26.7184C46.3765 26.5192 47.0591 25.9521 47.6207 25.3136C48.3 24.5418 48.8512 23.6976 48.8512 23.6976C49.2233 23.1441 49.5639 22.5558 49.8571 21.9539C50.1512 21.3511 50.4023 20.7287 50.6075 20.0928C50.8131 19.4568 50.9726 18.8074 51.0846 18.1505C51.1979 17.4936 51.2597 16.8294 51.2818 16.1635C51.3236 14.8327 51.1742 13.4958 50.8402 12.2027C50.5069 10.9095 50.0526 9.76928 49.367 8.61067C48.8114 8.45072 46.6416 8.5447 46.0766 8.59844C45.5117 8.65348 44.466 8.77255 42.7415 9.2463C40.5743 9.89833 38.5428 10.9922 36.8854 12.4888C36.4736 12.864 36.0701 13.2512 35.7201 13.6818C35.4577 14.0043 35.1702 14.3432 34.7146 15.0036C34.0841 15.9179 33.5513 16.8947 33.1187 17.9094C32.6838 18.9226 32.3612 19.9814 32.1804 21.0637C32.0901 21.6051 32.035 22.1512 32.0196 22.6993C31.9333 24.0413 31.6903 23.8183 31.6425 23.538Z" fill="#E43E3E"/>
<path d="M44.1268 3.1591C43.4769 3.25372 42.8378 3.40466 42.2056 3.57395C41.5735 3.74323 40.9504 3.94502 40.3443 4.18736C39.7389 4.43067 39.1452 4.70005 38.5746 5.01029C38.003 5.31797 37.4497 5.65622 36.9252 6.03083C36.6561 6.22425 35.5844 7.04686 34.6942 7.97439C33.8528 8.85139 33.1883 9.83363 33.0231 10.0802C32.6811 10.5854 32.3606 11.1036 32.0771 11.641C31.7929 12.1772 31.5399 12.7279 31.3223 13.2898C31.1123 13.8543 30.9352 14.4288 30.7991 15.0084C30.7657 15.1494 30.5872 15.8571 30.5263 16.6375C30.4622 17.4624 30.5166 18.3626 30.528 18.508C30.528 18.508 30.5832 18.8479 30.6621 18.8337C30.7577 18.816 30.7814 18.5277 30.7814 18.5277C30.8275 17.9628 30.9054 17.4119 31.0291 16.8612C31.1491 16.3128 31.3096 15.7724 31.5038 15.2443C31.8929 14.1871 32.4204 13.1791 33.0519 12.2368C33.6817 11.2919 34.4174 10.4158 35.214 9.59579C35.214 9.59579 35.901 8.9193 36.5799 8.36381C37.1275 7.91614 37.663 7.58626 37.88 7.45012C39.8342 6.23874 42.0903 5.51718 44.3932 5.22657C51.2651 4.3589 48.778 2.48132 44.1268 3.1591Z" fill="#E43E3E"/>
<path d="M40.9356 0.37782C40.3205 0.594415 39.7044 0.807791 39.1154 1.08006C38.5277 1.35459 37.9454 1.64263 37.4112 1.99793C37.0134 2.26248 36.4755 2.61039 35.8611 3.11213C35.3837 3.50187 34.9228 3.91124 34.4899 4.34765C34.0549 4.78148 33.6384 5.23205 33.2547 5.70804C32.8706 6.18307 32.5142 6.67805 32.1903 7.19009C31.8734 7.70663 31.5869 8.2383 31.3395 8.78317C31.2149 9.05512 31.1025 9.33158 30.9962 9.60868C30.8913 9.88642 30.8037 10.1696 30.7251 10.4538C30.6452 10.7377 30.577 11.0231 30.5195 11.3096C30.457 11.5938 30.4209 11.8889 30.3872 12.1702C30.3872 12.1702 30.3694 12.5873 30.4497 12.5873C30.5469 12.5876 30.6325 12.2352 30.6325 12.2352C30.7883 11.689 30.9728 11.1618 31.2021 10.644C31.4278 10.1275 31.6909 9.62573 31.9854 9.14202C32.5747 8.17458 33.2904 7.28053 34.0954 6.46982C34.8987 5.65687 35.7932 4.92985 36.7363 4.26944C36.7363 4.26944 37.5054 3.77317 38.3438 3.32132C38.8998 3.02137 39.563 2.7359 39.7752 2.64675C47.3358 -0.521063 42.5993 -0.208562 40.9356 0.37782Z" fill="#E43E3E"/>
</g>
<defs>
<clipPath id="clip0">
<rect width="133" height="32" fill="white"/>
</clipPath>
</defs>
</svg>
