<svg xmlns="http://www.w3.org/2000/svg" width="106" height="17" viewBox="0 0 106 17">
  <metadata><?xpacket begin="﻿" id="W5M0MpCehiHzreSzNTczkc9d"?>
<x:xmpmeta xmlns:x="adobe:ns:meta/" x:xmptk="Adobe XMP Core 5.6-c138 79.159824, 2016/09/14-01:09:01        ">
   <rdf:RDF xmlns:rdf="http://www.w3.org/1999/02/22-rdf-syntax-ns#">
      <rdf:Description rdf:about=""/>
   </rdf:RDF>
</x:xmpmeta>
                                                                                                    
                                                                                                    
                                                                                                    
                                                                                                    
                                                                                                    
                                                                                                    
                                                                                                    
                                                                                                    
                                                                                                    
                                                                                                    
                                                                                                    
                                                                                                    
                                                                                                    
                                                                                                    
                                                                                                    
                                                                                                    
                                                                                                    
                                                                                                    
                                                                                                    
                                                                                                    
                           
<?xpacket end="w"?></metadata>
<defs>
    <style>
      .cls-1 {
        fill: #fff;
        fill-rule: evenodd;
      }
    </style>
  </defs>
  <path id="logo" class="cls-1" d="M116.925,41.009h-5.659a1.275,1.275,0,1,1,0-2.55h5.659a2.444,2.444,0,0,0,2.254-1.371,2.62,2.62,0,0,0-.16-2.575,2.563,2.563,0,0,0-2.145-1.153h-2.547a4.817,4.817,0,0,1-4.858-4.26,4.684,4.684,0,0,1,4.681-5.09h5.661a1.275,1.275,0,1,1,0,2.55H114.15a2.13,2.13,0,0,0-2.128,2.319,2.247,2.247,0,0,0,2.3,1.93h2.547a5.129,5.129,0,0,1,4.657,7.293A4.971,4.971,0,0,1,116.925,41.009Zm-14.416,0a1.286,1.286,0,0,1-1.148-.7L97.73,33.08a1.28,1.28,0,0,1,2.293-1.141l3.632,7.224A1.278,1.278,0,0,1,102.509,41.009Zm-3.5-6.8h-6.54a1.275,1.275,0,1,1,0-2.55h6.54a2.442,2.442,0,0,0,2.253-1.371,2.615,2.615,0,0,0-.16-2.575,2.562,2.562,0,0,0-2.145-1.152H92.469a1.275,1.275,0,1,1,0-2.55h6.488a5.128,5.128,0,0,1,4.657,7.293A4.972,4.972,0,0,1,99.009,34.209ZM83.924,26.561H73.67a1.275,1.275,0,1,1,0-2.55H83.924A1.275,1.275,0,1,1,83.924,26.561Zm0,14.448H73.67a1.275,1.275,0,1,1,0-2.55H83.924A1.275,1.275,0,1,1,83.924,41.009Zm0-6.8H73.67a1.275,1.275,0,1,1,0-2.55H83.924A1.275,1.275,0,1,1,83.924,34.209ZM60,41.009a1.278,1.278,0,0,1-1.282-1.275V33.785a1.282,1.282,0,0,1,2.564,0v5.949A1.278,1.278,0,0,1,60,41.009Zm0-5.779a1.283,1.283,0,0,1-1.087-.6l-5.447-8.669a1.271,1.271,0,0,1,.408-1.757,1.286,1.286,0,0,1,1.766.406L60,31.549l4.36-6.939a1.287,1.287,0,0,1,1.766-.406,1.272,1.272,0,0,1,.408,1.757L61.086,34.63A1.283,1.283,0,0,1,60,35.229ZM37.25,33.785a1.292,1.292,0,0,1-.573-0.135,1.273,1.273,0,0,1-.573-1.711l3.632-7.224a1.287,1.287,0,0,1,1.719-.57,1.272,1.272,0,0,1,.573,1.71L38.4,33.08A1.282,1.282,0,0,1,37.25,33.785Zm-3.631,7.224a1.286,1.286,0,0,1-.572-0.135,1.272,1.272,0,0,1-.573-1.711L36.1,31.939a1.287,1.287,0,0,1,1.72-.57A1.272,1.272,0,0,1,38.4,33.08L34.766,40.3A1.284,1.284,0,0,1,33.619,41.009Zm10.9-7.224a1.282,1.282,0,0,1-1.147-.7l-3.631-7.224a1.272,1.272,0,0,1,.573-1.71,1.287,1.287,0,0,1,1.72.57l3.631,7.224a1.273,1.273,0,0,1-.573,1.711A1.288,1.288,0,0,1,44.514,33.785Zm3.631,7.224A1.284,1.284,0,0,1,47,40.3L43.367,33.08a1.272,1.272,0,0,1,.573-1.711,1.286,1.286,0,0,1,1.72.57l3.631,7.224a1.272,1.272,0,0,1-.573,1.711A1.286,1.286,0,0,1,48.145,41.009Zm-21.789,0H17.278A1.278,1.278,0,0,1,16,39.733V25.285a1.282,1.282,0,0,1,2.563,0V38.459h7.8A1.275,1.275,0,1,1,26.356,41.009Z" transform="translate(-16 -24)"/>
</svg>
