<svg width="597" height="501" viewBox="0 0 597 501" fill="none" xmlns="http://www.w3.org/2000/svg">
<path d="M270.619 134.626H52.209V274.52H270.619V134.626Z" fill="#E9EBEE"/>
<path d="M264.372 152.186H58.4551V266.247H264.372V152.186Z" fill="white"/>
<path d="M270.524 134.507H52.1138V143.794H270.524V134.507Z" fill="#1A66FF"/>
<path d="M59.0212 140.965C59.9715 140.965 60.7419 140.195 60.7419 139.245C60.7419 138.294 59.9715 137.524 59.0212 137.524C58.0709 137.524 57.3005 138.294 57.3005 139.245C57.3005 140.195 58.0709 140.965 59.0212 140.965Z" fill="white"/>
<path d="M65.55 140.965C66.5004 140.965 67.2707 140.195 67.2707 139.245C67.2707 138.294 66.5004 137.524 65.55 137.524C64.5997 137.524 63.8293 138.294 63.8293 139.245C63.8293 140.195 64.5997 140.965 65.55 140.965Z" fill="white"/>
<path d="M72.0788 140.965C73.0292 140.965 73.7995 140.195 73.7995 139.245C73.7995 138.294 73.0292 137.524 72.0788 137.524C71.1285 137.524 70.3582 138.294 70.3582 139.245C70.3582 140.195 71.1285 140.965 72.0788 140.965Z" fill="white"/>
<path d="M130.086 164.018H77.1687V254.414H130.086V164.018Z" fill="#E9EBEE"/>
<path d="M183.335 164.018H139.233V188.909H183.335V164.018Z" fill="#1A66FF"/>
<path d="M183.335 195.816H139.233V222.593H183.335V195.816Z" fill="#E9EBEE"/>
<path d="M183.335 229.523H139.233V254.414H183.335V229.523Z" fill="#E9EBEE"/>
<path d="M245.68 164.018H192.763V203.406H245.68V164.018Z" fill="#E9EBEE"/>
<path d="M245.68 215.027H192.763V254.414H245.68V215.027Z" fill="#E9EBEE"/>
<path d="M544.114 134.626H325.704V274.52H544.114V134.626Z" fill="#E9EBEE"/>
<path d="M537.867 152.186H331.95V266.247H537.867V152.186Z" fill="white"/>
<path d="M544.021 134.507H325.61V143.794H544.021V134.507Z" fill="#1A66FF"/>
<path d="M332.492 140.965C333.443 140.965 334.213 140.195 334.213 139.245C334.213 138.294 333.443 137.524 332.492 137.524C331.542 137.524 330.772 138.294 330.772 139.245C330.772 140.195 331.542 140.965 332.492 140.965Z" fill="white"/>
<path d="M339.021 140.965C339.972 140.965 340.742 140.195 340.742 139.245C340.742 138.294 339.972 137.524 339.021 137.524C338.071 137.524 337.301 138.294 337.301 139.245C337.301 140.195 338.071 140.965 339.021 140.965Z" fill="white"/>
<path d="M345.55 140.965C346.501 140.965 347.271 140.195 347.271 139.245C347.271 138.294 346.501 137.524 345.55 137.524C344.6 137.524 343.83 138.294 343.83 139.245C343.83 140.195 344.6 140.965 345.55 140.965Z" fill="white"/>
<path d="M519.128 164.018H466.21V254.414H519.128V164.018Z" fill="#E9EBEE"/>
<path d="M457.443 164.018H350.713V188.909H457.443V164.018Z" fill="#1A66FF"/>
<path d="M457.443 195.816H350.713V222.593H457.443V195.816Z" fill="#E9EBEE"/>
<path d="M457.443 229.523H350.713V254.414H457.443V229.523Z" fill="#E9EBEE"/>
<path d="M296.9 26.2688H295.674V92.9751H296.9V26.2688Z" fill="#CCCCCC"/>
<path d="M418.974 134.46H417.748V93.5642H174.801V134.46H173.575V92.3621H418.974V134.46Z" fill="#CCCCCC"/>
<path d="M305.266 212.74L304.347 208.025C304.347 208.025 290.817 203.429 289.309 212.74H305.266Z" fill="#DCDEE1"/>
<path d="M279.316 465.8H270.453L266.234 431.622H279.316V465.8Z" fill="#FFB8B8"/>
<path d="M281.58 474.403H252.988V474.05C252.988 471.099 254.16 468.269 256.246 466.183C258.333 464.096 261.163 462.924 264.113 462.924H281.58V474.403Z" fill="#2F2E41"/>
<path d="M309.771 465.8H318.657L322.876 431.622H309.771V465.8Z" fill="#FFB8B8"/>
<path d="M307.531 462.924H324.879C327.83 462.924 330.66 464.096 332.746 466.183C334.833 468.269 336.005 471.099 336.005 474.05V474.403H307.531V462.924Z" fill="#2F2E41"/>
<path d="M318.114 232.045L328.249 231.125L334.684 261.461L333.741 289.04L323.629 325.811L309.864 317.537L317.218 279.847L318.114 232.045Z" fill="#2F2E41"/>
<path d="M324.525 322.582L322.262 341.887L325.02 386.931V454.062L307.554 453.119L303.877 383.254L293.765 351.079L286.411 387.85L281.814 456.796L263.9 455.358V387.615L263.429 338.209L269.864 318.905L324.525 322.582Z" fill="#2F2E41"/>
<path d="M286.883 213.66C286.883 213.66 293.318 204.467 305.268 210.902L310.784 218.256L328.25 231.126L324.573 274.332L329.169 328.545L263.901 327.603L274.932 273.389V215.498L286.883 213.66Z" fill="#2F2E41"/>
<path opacity="0.25" d="M322.263 246.376L327.543 309.405L320.896 275.251L322.263 246.376Z" fill="black"/>
<path d="M274.32 340.283C275.44 338.913 275.978 337.158 275.819 335.396C275.661 333.633 274.818 332.003 273.471 330.855C273.166 330.593 272.834 330.364 272.481 330.171L274.461 314.803L265.41 311.102L263.053 332.858C262.306 334.359 262.14 336.083 262.585 337.699C263.03 339.316 264.055 340.711 265.465 341.619C266.874 342.526 268.569 342.882 270.224 342.618C271.88 342.355 273.38 341.49 274.438 340.189L274.32 340.283Z" fill="#FFB8B8"/>
<path d="M277.69 318.457H262.981V324.892H277.69V318.457Z" fill="#DCDEE1"/>
<path d="M284.572 223.3L274.932 215.498C274.932 215.498 268.025 215.026 267.106 225.138C266.187 235.25 265.079 278.456 265.079 278.456L261.59 321.662L280.895 322.581L284.572 275.746V223.3Z" fill="#2F2E41"/>
<path d="M313.287 193.392C318.176 184.447 314.888 173.234 305.944 168.345C297 163.456 285.786 166.744 280.897 175.688C276.008 184.632 279.296 195.846 288.24 200.735C297.185 205.624 308.398 202.336 313.287 193.392Z" fill="#FFB8B8"/>
<path d="M295.721 200.86C300.245 201.972 305.022 201.357 309.116 199.134C313.211 196.911 316.329 193.241 317.862 188.841C319.394 184.442 319.231 179.628 317.403 175.343C315.575 171.058 312.214 167.608 307.978 165.669C304.734 164.208 301.18 163.569 297.63 163.806C292.115 164.089 286.74 166.164 281.131 165.999L280.329 167.271L277.312 166.541L276.652 168.898H275.874C275.576 169.568 275.445 170.3 275.491 171.032C275.537 171.764 275.759 172.474 276.139 173.101C276.519 173.728 277.044 174.255 277.671 174.635C278.298 175.015 279.008 175.239 279.74 175.286C280.926 175.159 282.096 174.906 283.228 174.531C283.797 174.356 284.4 174.329 284.982 174.453C285.564 174.577 286.104 174.847 286.552 175.238C287.589 176.37 287.141 178.161 286.929 179.693C286.717 181.225 287.259 183.276 288.791 183.323C289.593 183.323 290.347 182.781 291.148 182.946C291.581 183.097 291.945 183.4 292.17 183.799C292.396 184.198 292.468 184.666 292.374 185.115C292.145 186.007 291.78 186.857 291.29 187.637C290.244 189.914 290.078 192.498 290.822 194.891C291.566 197.284 293.168 199.318 295.32 200.601" fill="#2F2E41"/>
<path d="M412.563 475.11H179.987C179.824 475.11 179.668 475.046 179.553 474.931C179.438 474.816 179.374 474.66 179.374 474.497C179.374 474.335 179.438 474.179 179.553 474.064C179.668 473.949 179.824 473.885 179.987 473.885H412.563C412.726 473.885 412.881 473.949 412.996 474.064C413.111 474.179 413.176 474.335 413.176 474.497C413.176 474.66 413.111 474.816 412.996 474.931C412.881 475.046 412.726 475.11 412.563 475.11Z" fill="#CCCCCC"/>
</svg>
