<svg width="596" height="514" viewBox="0 0 596 514" fill="none" xmlns="http://www.w3.org/2000/svg">
    <g clip-path="url(#clip0_6630_1911)">
        <path d="M437.101 355.141L504.844 394.677L332.275 496.73L264.282 457.019L437.101 355.141Z"
            fill="url(#paint0_linear_6630_1911)" fill-opacity="0.05" />
        <path
            d="M290.391 258.999L364.27 289.128L428.914 338.996L372.351 388.403L290.391 418.993L280.002 332.994L290.391 258.999Z"
            fill="#BABEC7" />
        <path d="M151.868 338.996L213.049 291.437L290.391 258.999V418.993L206.123 387.248L151.868 338.996Z"
            fill="#BABEC7" />
        <path
            d="M151.868 338.996L290.391 258.999L428.914 338.996L443.921 344.537L461.583 338.996C461.583 334.148 458.351 329.3 452.002 325.721L313.479 245.724C307.13 242.03 298.703 240.183 290.391 240.183C282.08 240.183 273.653 242.03 267.304 245.724L128.781 325.721C122.432 329.3 119.2 334.148 119.2 338.996L135.707 343.383L151.868 338.996Z"
            fill="#E9EAEC" />
        <path d="M290.391 425.71L256.568 286.591L363.116 219.638L405.827 216.753V359.104L290.391 425.71Z"
            fill="#347BE9" />
        <path d="M174.955 216.753V355.68L290.391 422.286V283.359L267.304 236.954L174.955 216.753Z" fill="#0367E4" />
        <path d="M174.955 216.753L290.391 150.031L405.827 216.753L290.391 283.359L174.955 216.753Z" fill="#428BF0" />
        <path fill-rule="evenodd" clip-rule="evenodd"
            d="M234.764 289.627C236.347 290.546 237.322 292.238 237.322 294.069V344.57C237.322 347.407 235.023 349.706 232.186 349.706C229.35 349.706 227.05 347.407 227.05 344.57V302.919L222.751 305.376C220.288 306.783 217.151 305.927 215.744 303.465C214.336 301.002 215.192 297.865 217.655 296.458L229.638 289.61C231.228 288.702 233.181 288.708 234.764 289.627Z"
            fill="white" />
        <path
            d="M119.2 349.154C119.2 354.003 122.432 358.851 128.781 362.43L267.304 442.427C273.653 446.121 282.08 447.968 290.391 447.968C298.703 447.968 307.13 446.121 313.479 442.427L452.002 362.43C458.351 358.736 461.583 353.887 461.583 349.154V338.996H428.914L290.391 418.993L151.868 338.996H119.2V349.154Z"
            fill="#E9EAEC" />
        <path
            d="M452.002 352.271L313.479 432.268C307.13 435.962 298.703 437.809 290.391 437.809C282.08 437.809 273.653 435.962 267.304 432.268L128.781 352.271C122.432 348.577 119.2 343.729 119.2 338.996V365.662C119.2 370.51 122.432 375.358 128.781 378.937L267.304 458.934C273.653 462.628 282.08 464.475 290.391 464.475C298.703 464.475 307.13 462.628 313.479 458.934L452.002 378.937C458.351 375.243 461.583 370.395 461.583 365.662V338.996C461.583 343.844 458.351 348.577 452.002 352.271Z"
            fill="#BABEC7" />
        <path
            d="M375.986 238.084C376.145 239.827 375.194 241.571 373.45 242.363C371.231 243.631 369.329 244.899 367.427 246.168C365.525 247.436 362.988 247.436 360.928 246.326C352.368 241.254 329.86 227.463 322.727 223.025C297.524 233.645 262.017 232.377 239.35 219.379C214.147 204.796 214.305 181.337 239.35 166.754C264.553 152.171 305.291 152.171 330.335 166.754C353.478 180.069 355.221 200.992 336.042 215.575L375.828 233.487V238.084H375.986Z"
            fill="#F9A000" />
        <path
            d="M374.718 235.547C372.341 237.291 369.012 239.51 366.793 241.095C365.366 241.571 363.939 241.571 362.513 241.095C353.795 236.023 330.652 221.598 323.202 217.001C297.999 227.463 262.493 226.195 239.826 213.356C214.622 199.09 214.622 175.789 239.826 161.364C265.029 146.94 305.766 146.94 330.811 161.364C353.953 174.521 355.697 195.286 336.359 209.71C343.809 213.99 364.574 226.037 373.45 231.267C376.937 233.328 376.303 234.438 374.718 235.547ZM322.41 164.693C301.645 152.805 268.041 152.805 247.276 164.693C226.511 176.74 226.511 196.078 247.276 208.125C268.041 220.172 301.645 220.013 322.41 208.125C343.175 196.237 343.175 176.74 322.41 164.693Z"
            fill="#FFD251" />
        <path
            d="M247.91 165.168C268.04 153.439 300.852 153.439 320.983 165.168C341.114 176.74 341.114 195.761 320.983 207.332C300.852 219.062 268.04 219.062 247.91 207.332C227.779 195.602 227.62 176.74 247.91 165.168Z"
            fill="#FBB900" />
        <path opacity="0.1"
            d="M320.983 166.754C300.852 155.183 268.041 155.183 247.91 166.754C238.558 172.143 233.485 179.118 232.851 186.251C232.059 178.008 237.131 169.766 247.91 163.584C268.041 151.854 300.852 151.854 320.983 163.584C331.762 169.766 336.834 178.167 336.042 186.251C335.408 179.118 330.335 172.143 320.983 166.754Z"
            fill="black" />
        <path
            d="M266.297 181.495C265.663 181.495 265.029 181.178 264.395 180.861C263.602 180.544 263.127 180.069 262.81 179.276C262.968 178.642 263.444 178.008 264.078 177.85L260.273 175.631C259.322 176.106 258.688 176.74 258.371 177.691C258.054 178.484 258.213 179.435 258.847 180.069C259.639 181.02 260.59 181.971 261.7 182.447C263.285 183.398 265.187 184.032 267.089 184.19C268.833 184.349 270.418 184.032 271.845 183.239C273.588 182.288 274.064 181.02 273.271 179.435C272.796 178.642 272.32 177.85 271.686 177.216C271.052 176.74 270.735 176.106 270.418 175.314C270.26 174.838 270.418 174.521 270.894 174.363C271.369 174.045 272.003 174.045 272.637 174.045C273.43 174.045 274.064 174.363 274.698 174.68C275.173 174.838 275.649 175.314 275.808 175.948C275.808 176.423 275.49 176.899 274.856 177.216L278.661 179.435C279.453 178.959 280.087 178.325 280.404 177.533C280.721 176.74 280.563 175.948 280.087 175.314C279.453 174.363 278.661 173.728 277.71 173.253C276.6 172.619 275.332 172.143 274.064 171.826C272.796 171.509 271.528 171.351 270.418 171.509C269.309 171.509 268.358 171.826 267.406 172.46C265.663 173.411 265.346 174.838 266.297 176.582C266.772 177.216 267.248 178.008 267.723 178.484C268.199 178.959 268.516 179.593 268.833 180.227C268.833 180.703 268.516 181.178 268.04 181.337C267.406 181.495 266.772 181.654 266.297 181.495ZM289.598 187.677L283.575 184.19L286.903 182.288L294.036 186.409L296.889 184.666L285.952 178.325L270.26 187.36L281.197 193.701L284.05 191.957L276.917 187.836L280.721 185.617L286.745 189.104L289.598 187.677ZM304.815 197.822C306.083 197.188 307.193 196.237 307.985 194.969C308.619 194.018 308.619 192.908 308.302 191.957C307.668 190.848 306.876 189.897 305.608 189.421C304.181 188.628 302.596 188.153 301.011 187.836C299.267 187.519 297.523 187.677 295.78 187.994C294.036 188.311 292.451 188.945 290.866 189.897L289.915 190.372C288.647 191.006 287.696 191.957 286.903 193.225C286.269 194.176 286.269 195.127 286.745 196.078C287.379 197.188 288.33 198.139 289.439 198.615C290.866 199.407 292.451 199.883 294.036 200.2C295.78 200.358 297.523 200.358 299.267 200.041C301.011 199.724 302.596 199.09 304.181 198.139L304.815 197.822ZM300.218 196.078C298.95 196.871 297.365 197.347 295.938 197.664C294.829 197.822 293.561 197.664 292.451 197.03C291.5 196.395 291.025 195.761 291.342 194.969C291.976 193.859 292.927 193.067 294.195 192.433L295.304 191.799C298.316 190.214 300.694 189.897 302.596 191.006C303.547 191.64 303.864 192.274 303.705 193.067C303.071 194.176 302.12 195.127 300.852 195.603L300.218 196.078Z"
            fill="white" />
        <path d="M259.046 119.834L251.405 101.774" stroke="#FBC666" stroke-width="4" stroke-miterlimit="10"
            stroke-linecap="round" stroke-linejoin="round" />
        <path d="M200.001 149.705L189.57 143.682" stroke="#FBC666" stroke-width="4" stroke-miterlimit="10"
            stroke-linecap="round" stroke-linejoin="round" />
        <path
            d="M239.553 137.028C235.948 132.73 229.57 138.068 225.965 133.769C222.361 129.471 228.738 124.134 225.133 119.835C221.459 115.468 215.082 120.806 211.477 116.508"
            stroke="#FBC666" stroke-width="4" stroke-miterlimit="10" stroke-linecap="round" stroke-linejoin="round" />
        <path d="M364.283 153.382L376.787 145.394" stroke="#FBC666" stroke-width="4" stroke-miterlimit="10"
            stroke-linecap="round" stroke-linejoin="round" />
        <path d="M333.278 150.892L331.752 139.8L342.914 139.454L341.388 128.362L352.55 127.946" stroke="#FBC666"
            stroke-width="4" stroke-miterlimit="10" stroke-linecap="round" stroke-linejoin="round" />
        <path d="M309.754 136.854L316.7 119.488" stroke="#FBC666" stroke-width="4" stroke-miterlimit="10"
            stroke-linecap="round" stroke-linejoin="round" />
        <path
            d="M289.604 128.5C289.604 123.37 284.058 123.37 284.058 118.309C284.058 113.18 289.604 113.18 289.604 108.119C289.604 102.989 284.058 102.989 284.058 97.9284C284.058 92.8677 289.604 92.7984 289.604 87.7378"
            stroke="#FBC666" stroke-width="4" stroke-miterlimit="10" stroke-linecap="round" stroke-linejoin="round" />
        <path fill-rule="evenodd" clip-rule="evenodd"
            d="M329.486 112.546L330.972 117.889L325.629 119.375L324.143 114.032L329.486 112.546ZM299.625 117.405L304.244 120.474L301.175 125.093L296.556 122.024L299.625 117.405ZM240.984 122.267H246.53V127.813H240.984V122.267ZM257.257 137.114L261.552 140.623L258.044 144.918L253.749 141.41L257.257 137.114ZM209.13 130.453H203.584V135.999H209.13V130.453ZM224.043 150.315L227.511 154.643L223.183 158.111L219.716 153.783L224.043 150.315ZM278.231 129.517L274.632 125.298L270.413 128.897L274.012 133.116L278.231 129.517ZM327.803 133.38H322.257V138.926H327.803V133.38ZM370.089 124.895H375.635V130.441H370.089V124.895ZM356.726 144.397L352.52 140.782L348.906 144.988L353.112 148.603L356.726 144.397Z"
            fill="#F9A000" />
        <path d="M233.992 464.26L266.416 483.267L210.387 515.194L178.042 496.852L233.992 464.26Z"
            fill="url(#paint1_linear_6630_1911)" fill-opacity="0.1" />
        <path fill-rule="evenodd" clip-rule="evenodd"
            d="M250.989 473.582V468.041L49.5884 415.852V421.285C49.6229 421.625 49.7448 421.95 49.9421 422.228C50.1395 422.506 50.4054 422.727 50.7137 422.87L55.2509 425.501L192.574 505.277C193.419 505.704 194.352 505.927 195.298 505.927C196.245 505.927 197.178 505.704 198.023 505.277L249.87 475.167C250.178 475.023 250.444 474.802 250.641 474.524C250.839 474.246 250.961 473.922 250.995 473.582"
            fill="#CBCFD5" />
        <path fill-rule="evenodd" clip-rule="evenodd"
            d="M250.989 468.149C250.954 467.809 250.832 467.484 250.635 467.207C250.438 466.929 250.172 466.707 249.864 466.564L107.999 384.157C107.154 383.729 106.221 383.505 105.275 383.505C104.328 383.505 103.395 383.729 102.55 384.157L50.7212 414.267C50.3873 414.375 50.096 414.586 49.8894 414.871C49.6827 415.156 49.5713 415.5 49.5713 415.852C49.5713 416.205 49.6827 416.548 49.8894 416.833C50.096 417.118 50.3873 417.329 50.7212 417.437L192.575 499.844C193.42 500.272 194.353 500.496 195.299 500.496C196.245 500.496 197.179 500.272 198.024 499.844L249.871 469.733C250.179 469.59 250.445 469.369 250.642 469.091C250.839 468.813 250.961 468.488 250.996 468.149"
            fill="#EBEDF0" />
        <path fill-rule="evenodd" clip-rule="evenodd"
            d="M100.631 434.869V436.454C100.646 436.623 100.704 436.785 100.801 436.924C100.897 437.063 101.028 437.174 101.18 437.246L161.2 472.11C161.621 472.328 162.089 472.441 162.562 472.441C163.036 472.441 163.503 472.328 163.925 472.11L169.39 468.941C169.543 468.869 169.674 468.758 169.771 468.619C169.868 468.48 169.926 468.318 169.941 468.149V466.564L100.622 434.869H100.631ZM93.5643 422.191H78.8026V423.776C78.8218 423.946 78.884 424.108 78.9833 424.246C79.0826 424.385 79.2157 424.496 79.3697 424.568L84.8185 427.738C85.2199 427.957 85.6694 428.071 86.1261 428.07H86.2499C86.7015 428.071 87.1458 427.956 87.5417 427.738L93.0062 424.568C93.1605 424.496 93.2938 424.386 93.3932 424.247C93.4925 424.108 93.5546 423.946 93.5733 423.776V422.191H93.5643ZM104.489 415.852H89.718V417.437C89.7376 417.607 89.8 417.768 89.8993 417.907C89.9985 418.046 90.1314 418.157 90.2852 418.229L95.7339 421.399C96.1554 421.616 96.6221 421.729 97.0955 421.729C97.569 421.729 98.0357 421.616 98.4571 421.399L103.922 418.229C104.075 418.157 104.208 418.046 104.308 417.907C104.407 417.768 104.469 417.607 104.489 417.437V415.852ZM120.853 412.683H106.08V414.267C106.099 414.437 106.162 414.599 106.261 414.738C106.36 414.876 106.493 414.987 106.647 415.06L112.096 418.229C112.498 418.447 112.948 418.561 113.406 418.562H113.529C113.982 418.562 114.427 418.448 114.824 418.229L120.288 415.06C120.442 414.987 120.575 414.877 120.674 414.738C120.774 414.599 120.836 414.437 120.855 414.267V412.683H120.853ZM126.304 403.174H111.531V404.759C111.55 404.929 111.612 405.091 111.712 405.23C111.811 405.368 111.944 405.479 112.098 405.551L117.563 408.721C117.958 408.939 118.403 409.054 118.854 409.053H118.978C119.435 409.054 119.884 408.94 120.286 408.721L125.735 405.551C125.888 405.479 126.021 405.368 126.12 405.229C126.22 405.09 126.282 404.929 126.302 404.759V403.174H126.304ZM137.217 409.513H122.444V411.098C122.464 411.268 122.526 411.43 122.626 411.569C122.726 411.708 122.859 411.818 123.014 411.89L128.478 415.06C128.874 415.278 129.318 415.393 129.77 415.392H129.894C130.35 415.393 130.8 415.279 131.201 415.06L136.65 411.89C136.804 411.818 136.938 411.708 137.038 411.569C137.137 411.43 137.2 411.268 137.219 411.098V409.513H137.217ZM148.101 415.852H133.326V417.437C133.345 417.607 133.408 417.768 133.507 417.907C133.606 418.046 133.739 418.157 133.893 418.229L139.342 421.399C139.743 421.617 140.193 421.732 140.649 421.731H140.757C141.22 421.732 141.675 421.618 142.083 421.399L147.532 418.229C147.686 418.157 147.819 418.046 147.918 417.907C148.017 417.769 148.079 417.607 148.099 417.437V415.852H148.101ZM159.127 422.191H144.352V423.776C144.371 423.946 144.433 424.108 144.533 424.246C144.632 424.385 144.765 424.496 144.919 424.568L150.367 427.738C150.769 427.956 151.218 428.071 151.675 428.07H151.799C152.25 428.071 152.695 427.957 153.091 427.738L158.557 424.568C158.712 424.496 158.845 424.385 158.944 424.247C159.043 424.108 159.106 423.946 159.125 423.776V422.191H159.127ZM153.579 431.7H138.806V433.284C138.826 433.454 138.888 433.616 138.988 433.754C139.087 433.893 139.22 434.004 139.373 434.077L144.838 437.246C145.234 437.465 145.678 437.579 146.13 437.579H146.26C146.717 437.58 147.168 437.465 147.57 437.246L153.016 434.077C153.173 434.008 153.308 433.898 153.408 433.758C153.507 433.619 153.568 433.455 153.584 433.284V431.7H153.579ZM164.499 438.038H149.722V439.623C149.741 439.793 149.803 439.955 149.902 440.094C150.002 440.232 150.135 440.343 150.289 440.416L155.755 443.585C156.152 443.802 156.596 443.916 157.047 443.916H157.169C157.626 443.916 158.076 443.802 158.479 443.585L163.927 440.416C164.081 440.343 164.214 440.232 164.314 440.094C164.413 439.955 164.475 439.793 164.495 439.623V438.038H164.499ZM169.943 428.53H155.186V430.115C155.202 430.286 155.263 430.45 155.363 430.589C155.464 430.728 155.599 430.838 155.755 430.907L161.202 434.077C161.623 434.295 162.091 434.409 162.565 434.409C163.039 434.409 163.506 434.295 163.927 434.077L169.392 430.907C169.545 430.835 169.676 430.724 169.773 430.585C169.87 430.446 169.928 430.284 169.943 430.115V428.53ZM180.859 434.869H166.086V436.454C166.104 436.624 166.166 436.786 166.266 436.925C166.365 437.064 166.498 437.174 166.653 437.246L172.117 440.416C172.539 440.633 173.006 440.746 173.48 440.746C173.954 440.746 174.421 440.633 174.843 440.416L180.289 437.246C180.445 437.176 180.58 437.066 180.68 436.927C180.78 436.788 180.841 436.625 180.859 436.454V434.869ZM159.125 447.547H144.352V449.132C144.371 449.301 144.434 449.463 144.533 449.602C144.632 449.741 144.765 449.852 144.919 449.924L150.367 453.094C150.769 453.312 151.218 453.427 151.675 453.426H151.799C152.25 453.427 152.695 453.313 153.091 453.094L158.557 449.924C158.711 449.852 158.844 449.741 158.944 449.602C159.043 449.463 159.105 449.301 159.125 449.132V447.547ZM175.408 444.377H160.637V445.962C160.656 446.132 160.717 446.294 160.816 446.433C160.915 446.572 161.048 446.682 161.202 446.755L166.653 449.924C167.077 450.143 167.546 450.257 168.022 450.257C168.499 450.257 168.968 450.143 169.392 449.924L174.843 446.755C174.997 446.682 175.13 446.572 175.229 446.433C175.327 446.294 175.389 446.132 175.408 445.962V444.377ZM169.943 453.886H155.186V455.471C155.203 455.642 155.264 455.805 155.364 455.944C155.464 456.083 155.599 456.193 155.755 456.263L161.202 459.433C161.623 459.653 162.09 459.767 162.565 459.767C163.039 459.767 163.506 459.653 163.927 459.433L169.392 456.263C169.545 456.191 169.676 456.08 169.773 455.941C169.87 455.802 169.928 455.64 169.943 455.471V453.886ZM180.859 460.225H166.086V461.81C166.104 461.98 166.166 462.142 166.266 462.281C166.365 462.42 166.498 462.53 166.653 462.602L172.117 465.772C172.539 465.99 173.006 466.104 173.48 466.104C173.954 466.104 174.421 465.99 174.843 465.772L180.289 462.602C180.445 462.532 180.58 462.422 180.68 462.283C180.78 462.144 180.842 461.981 180.859 461.81V460.225ZM186.323 450.716H171.55V452.301C171.569 452.471 171.631 452.633 171.731 452.772C171.83 452.911 171.963 453.022 172.117 453.094L177.566 456.263C177.968 456.482 178.417 456.596 178.874 456.596H178.997C179.449 456.597 179.894 456.482 180.289 456.263L185.756 453.094C185.91 453.022 186.043 452.911 186.143 452.772C186.242 452.633 186.304 452.471 186.323 452.301V450.716ZM191.772 441.208H176.999V442.793C177.019 442.962 177.082 443.124 177.181 443.262C177.28 443.401 177.413 443.512 177.566 443.585L183.033 446.755C183.428 446.975 183.873 447.09 184.325 447.09H184.448C184.905 447.089 185.355 446.974 185.756 446.755L191.205 443.585C191.359 443.513 191.491 443.402 191.591 443.263C191.69 443.124 191.752 442.962 191.772 442.793V441.208ZM202.685 447.547H187.914V449.132C187.933 449.301 187.995 449.463 188.094 449.602C188.193 449.741 188.326 449.852 188.479 449.924L193.93 453.094C194.354 453.312 194.824 453.426 195.301 453.426C195.777 453.426 196.247 453.312 196.671 453.094L202.12 449.924C202.274 449.852 202.406 449.741 202.505 449.602C202.604 449.463 202.666 449.301 202.685 449.132V447.547ZM197.239 457.055H182.466V458.64C182.481 458.811 182.541 458.975 182.641 459.115C182.741 459.254 182.876 459.364 183.033 459.433L188.479 462.602C188.901 462.819 189.368 462.932 189.842 462.932C190.316 462.932 190.783 462.819 191.205 462.602L196.671 459.433C196.826 459.36 196.959 459.25 197.058 459.111C197.157 458.972 197.219 458.81 197.239 458.64V457.055ZM213.601 453.886H198.828V455.471C198.847 455.64 198.909 455.802 199.009 455.941C199.108 456.08 199.241 456.191 199.395 456.263L204.843 459.433C205.244 459.653 205.694 459.768 206.151 459.768H206.275C206.728 459.769 207.173 459.653 207.569 459.433L213.033 456.263C213.188 456.191 213.321 456.081 213.421 455.942C213.52 455.803 213.582 455.641 213.601 455.471V453.886ZM208.136 463.394H193.379V464.979C193.393 465.148 193.452 465.311 193.548 465.45C193.645 465.589 193.777 465.7 193.93 465.772L199.395 468.941C199.816 469.16 200.283 469.274 200.757 469.274C201.232 469.274 201.699 469.16 202.12 468.941L207.569 465.772C207.725 465.702 207.859 465.592 207.959 465.452C208.059 465.313 208.12 465.15 208.136 464.979V463.394ZM224.516 460.225H209.743V461.81C209.762 461.98 209.824 462.142 209.923 462.281C210.022 462.42 210.156 462.53 210.31 462.602L215.759 465.772C216.18 465.99 216.647 466.104 217.121 466.104C217.594 466.104 218.061 465.99 218.482 465.772L223.949 462.602C224.103 462.53 224.236 462.419 224.335 462.28C224.434 462.141 224.497 461.979 224.516 461.81V460.225ZM235.413 466.564H220.656V468.149C220.67 468.318 220.729 468.48 220.826 468.62C220.923 468.759 221.054 468.87 221.208 468.941L226.672 472.11C227.094 472.328 227.56 472.441 228.034 472.441C228.507 472.441 228.974 472.328 229.395 472.11L234.846 468.941C235.002 468.871 235.137 468.761 235.236 468.622C235.336 468.483 235.397 468.319 235.413 468.149V466.564ZM202.685 472.903H187.914V474.488C187.933 474.657 187.994 474.82 188.093 474.958C188.192 475.097 188.325 475.208 188.479 475.28L193.93 478.449C194.339 478.667 194.794 478.78 195.256 478.78H195.362C195.819 478.78 196.269 478.667 196.671 478.449L202.12 475.28C202.274 475.208 202.407 475.097 202.506 474.958C202.605 474.82 202.667 474.657 202.685 474.488V472.903ZM191.772 479.242H176.999V480.827C177.018 480.996 177.08 481.159 177.18 481.297C177.279 481.436 177.412 481.547 177.566 481.619L183.033 484.788C183.429 485.006 183.873 485.121 184.325 485.121H184.448C184.905 485.121 185.354 485.006 185.756 484.788L191.205 481.619C191.359 481.547 191.492 481.436 191.592 481.298C191.691 481.159 191.753 480.997 191.772 480.827V479.242ZM202.685 485.581H187.914V487.166C187.933 487.335 187.995 487.497 188.094 487.636C188.193 487.775 188.326 487.885 188.479 487.958L193.93 491.127C194.338 491.347 194.793 491.461 195.256 491.46H195.362C195.819 491.461 196.269 491.346 196.671 491.127L202.12 487.958C202.274 487.885 202.406 487.775 202.505 487.636C202.604 487.497 202.666 487.335 202.685 487.166V485.581ZM191.772 466.564H176.999V468.149C177.019 468.318 177.081 468.48 177.18 468.619C177.28 468.757 177.412 468.868 177.566 468.941L183.033 472.11C183.429 472.328 183.873 472.443 184.325 472.443H184.448C184.905 472.443 185.354 472.328 185.756 472.11L191.205 468.941C191.359 468.869 191.492 468.758 191.591 468.619C191.69 468.48 191.753 468.318 191.772 468.149V466.564ZM180.859 472.903H166.086V474.488C166.104 474.658 166.166 474.82 166.265 474.959C166.365 475.098 166.498 475.209 166.653 475.28L172.117 478.449C172.539 478.667 173.006 478.78 173.48 478.78C173.954 478.78 174.421 478.667 174.843 478.449L180.289 475.28C180.446 475.211 180.581 475.101 180.681 474.962C180.781 474.822 180.843 474.659 180.859 474.488V472.903ZM148.099 441.208H133.326V442.793C133.346 442.962 133.408 443.124 133.508 443.263C133.607 443.401 133.739 443.512 133.893 443.585L139.342 446.755C139.766 446.972 140.236 447.085 140.712 447.085C141.189 447.085 141.658 446.972 142.083 446.755L147.532 443.585C147.685 443.513 147.818 443.402 147.918 443.263C148.017 443.124 148.079 442.962 148.099 442.793V441.208ZM142.666 425.361H127.909V426.945C127.925 427.116 127.986 427.279 128.086 427.417C128.186 427.556 128.32 427.666 128.476 427.735L133.924 430.905C134.346 431.123 134.812 431.237 135.286 431.237C135.76 431.237 136.227 431.123 136.648 430.905L142.112 427.735C142.264 427.663 142.395 427.553 142.491 427.414C142.587 427.275 142.645 427.114 142.659 426.945V425.361H142.666ZM131.759 419.022H117.002V420.606C117.021 420.776 117.084 420.938 117.183 421.077C117.282 421.216 117.415 421.326 117.569 421.399L123.02 424.568C123.422 424.787 123.871 424.902 124.328 424.901H124.452C124.903 424.901 125.348 424.787 125.744 424.568L131.208 421.399C131.362 421.326 131.495 421.215 131.594 421.077C131.693 420.938 131.756 420.776 131.775 420.606V419.022H131.759ZM126.311 428.53H111.531V430.115C111.55 430.285 111.612 430.447 111.711 430.586C111.81 430.725 111.944 430.835 112.098 430.907L117.563 434.077C117.959 434.294 118.403 434.409 118.854 434.409H118.978C119.435 434.409 119.884 434.294 120.286 434.077L125.735 430.907C125.889 430.835 126.022 430.724 126.121 430.585C126.22 430.447 126.283 430.285 126.302 430.115V428.53H126.311ZM115.388 422.191H100.631V423.776C100.645 423.945 100.704 424.107 100.8 424.246C100.897 424.385 101.028 424.496 101.18 424.568L106.647 427.738C107.068 427.956 107.535 428.07 108.009 428.07C108.482 428.07 108.949 427.956 109.37 427.738L114.819 424.568C114.975 424.498 115.109 424.388 115.209 424.249C115.309 424.11 115.37 423.947 115.386 423.776V422.191H115.388ZM104.487 428.53H89.718V430.115C89.7374 430.285 89.7997 430.447 89.899 430.585C89.9983 430.724 90.1313 430.835 90.2852 430.907L95.7339 434.077C96.155 434.295 96.6218 434.409 97.0955 434.409C97.5693 434.409 98.0361 434.295 98.4571 434.077L103.922 430.907C104.076 430.835 104.209 430.724 104.308 430.585C104.407 430.447 104.469 430.285 104.489 430.115V428.53H104.487ZM65.1639 414.267V415.852C65.1831 416.022 65.2453 416.184 65.3446 416.323C65.4439 416.461 65.577 416.572 65.7311 416.644L73.9053 421.399C74.3295 421.616 74.7987 421.729 75.2748 421.729C75.7508 421.729 76.22 421.616 76.6442 421.399L82.0952 418.229C82.2487 418.157 82.3812 418.046 82.4801 417.907C82.579 417.768 82.641 417.606 82.6601 417.437V415.852L65.1639 414.267ZM76.0771 407.928V409.513C76.0932 409.684 76.1542 409.847 76.2539 409.987C76.3536 410.126 76.4883 410.236 76.6442 410.305L84.8185 415.06C85.2199 415.279 85.6694 415.393 86.1261 415.392H86.2499C86.7015 415.393 87.1458 415.278 87.5417 415.06L93.0062 411.89C93.1605 411.818 93.2938 411.708 93.3932 411.569C93.4925 411.43 93.5546 411.268 93.5733 411.098V409.513L76.0771 407.928ZM204.274 469.733V471.318C204.294 471.488 204.356 471.65 204.456 471.788C204.555 471.927 204.688 472.038 204.841 472.11L208.919 474.485L198.81 479.24V480.827C198.829 480.996 198.891 481.159 198.99 481.297C199.09 481.436 199.223 481.547 199.377 481.619L204.825 484.788C205.227 485.006 205.677 485.12 206.133 485.121H206.257C206.709 485.121 207.154 485.007 207.551 484.788L223.931 475.28C224.088 475.21 224.224 475.1 224.326 474.961C224.428 474.822 224.493 474.659 224.514 474.488V472.903L204.274 469.733ZM86.9926 401.589V403.174C87.0074 403.343 87.0662 403.505 87.1629 403.644C87.2597 403.784 87.3911 403.895 87.5439 403.966L101.183 411.89C101.591 412.109 102.046 412.223 102.508 412.223H102.616C103.073 412.223 103.522 412.109 103.924 411.89L109.373 408.721C109.527 408.648 109.66 408.538 109.759 408.399C109.858 408.26 109.92 408.098 109.94 407.928V406.344L86.9835 401.589H86.9926ZM97.881 395.25V396.835C97.9006 397.005 97.963 397.167 98.0622 397.305C98.1615 397.444 98.2943 397.555 98.4482 397.627L106.638 402.382C107.06 402.599 107.526 402.712 108 402.712C108.473 402.712 108.94 402.599 109.361 402.382L114.81 399.212C114.966 399.142 115.1 399.032 115.2 398.893C115.3 398.754 115.361 398.591 115.377 398.42V396.835L97.8787 395.25H97.881ZM123 434.077C122.844 434.146 122.709 434.256 122.609 434.395C122.509 434.535 122.447 434.698 122.431 434.869C122.45 435.039 122.513 435.201 122.613 435.34C122.712 435.479 122.846 435.589 123 435.661L128.465 438.831C128.878 439.058 129.344 439.172 129.815 439.161C130.293 439.173 130.765 439.059 131.186 438.831L136.634 435.661C136.788 435.589 136.921 435.478 137.021 435.34C137.12 435.201 137.182 435.039 137.201 434.869C137.186 434.698 137.125 434.535 137.025 434.395C136.925 434.256 136.79 434.146 136.634 434.077L131.186 430.907C130.771 430.678 130.304 430.561 129.831 430.568C129.359 430.557 128.894 430.672 128.48 430.9L123 434.077Z"
            fill="#CBCFD5" />
        <path fill-rule="evenodd" clip-rule="evenodd"
            d="M177.566 478.449C177.41 478.519 177.276 478.628 177.176 478.767C177.077 478.906 177.015 479.069 176.999 479.239C177.018 479.409 177.081 479.571 177.18 479.71C177.279 479.849 177.412 479.959 177.566 480.032L183.033 483.201C183.446 483.43 183.912 483.545 184.383 483.536C184.861 483.545 185.333 483.43 185.754 483.201L191.202 480.032C191.357 479.96 191.49 479.849 191.589 479.71C191.689 479.571 191.751 479.409 191.77 479.239C191.754 479.069 191.693 478.906 191.593 478.767C191.493 478.628 191.358 478.518 191.202 478.449L185.754 475.28C185.333 475.053 184.861 474.939 184.383 474.949C183.912 474.939 183.447 475.053 183.033 475.28L177.566 478.449ZM166.653 472.11C166.497 472.18 166.362 472.29 166.263 472.429C166.163 472.568 166.102 472.732 166.086 472.903C166.104 473.073 166.166 473.235 166.266 473.374C166.365 473.513 166.498 473.623 166.653 473.695L172.117 476.864C172.539 477.082 173.006 477.195 173.48 477.195C173.954 477.195 174.421 477.082 174.843 476.864L180.289 473.695C180.445 473.625 180.58 473.515 180.68 473.376C180.78 473.237 180.841 473.073 180.859 472.903C180.846 472.731 180.786 472.565 180.685 472.426C180.585 472.286 180.448 472.177 180.289 472.11L174.843 468.941C174.421 468.722 173.954 468.608 173.48 468.608C173.006 468.608 172.539 468.722 172.117 468.941L166.653 472.11ZM101.18 434.076C101.027 434.147 100.895 434.258 100.799 434.397C100.702 434.537 100.644 434.699 100.631 434.869C100.646 435.038 100.704 435.2 100.801 435.339C100.897 435.478 101.028 435.589 101.18 435.661L161.2 470.526C161.621 470.743 162.088 470.856 162.562 470.856C163.036 470.856 163.503 470.743 163.925 470.526L169.39 467.356C169.543 467.284 169.674 467.173 169.771 467.034C169.868 466.895 169.926 466.733 169.941 466.564C169.928 466.394 169.87 466.231 169.773 466.092C169.676 465.953 169.543 465.842 169.39 465.771L109.37 430.907C108.949 430.689 108.482 430.576 108.009 430.576C107.535 430.576 107.068 430.689 106.647 430.907L101.18 434.076ZM90.2829 427.737C90.127 427.807 89.9923 427.917 89.8926 428.056C89.7929 428.196 89.7319 428.359 89.7158 428.53C89.7352 428.7 89.7975 428.862 89.8968 429C89.9961 429.139 90.129 429.25 90.2829 429.322L95.7317 432.492C96.1527 432.71 96.6196 432.824 97.0933 432.824C97.567 432.824 98.0339 432.71 98.4549 432.492L103.919 429.322C104.073 429.25 104.206 429.139 104.306 429C104.405 428.862 104.467 428.7 104.487 428.53C104.47 428.359 104.409 428.196 104.31 428.056C104.21 427.917 104.075 427.807 103.919 427.737L98.4549 424.568C98.0339 424.35 97.567 424.236 97.0933 424.236C96.6196 424.236 96.1527 424.35 95.7317 424.568L90.2829 427.737ZM79.3697 421.398C79.2135 421.468 79.0785 421.578 78.9788 421.717C78.8791 421.856 78.8183 422.02 78.8026 422.191C78.8217 422.36 78.8839 422.522 78.9833 422.661C79.0826 422.799 79.2157 422.909 79.3697 422.981L84.8185 426.15C85.2387 426.38 85.7112 426.494 86.1891 426.483C86.6604 426.493 87.1259 426.378 87.5394 426.15L93.0039 422.981C93.1581 422.91 93.2913 422.799 93.3906 422.661C93.49 422.522 93.5522 422.361 93.5711 422.191C93.5557 422.02 93.4949 421.856 93.3951 421.717C93.2954 421.577 93.1603 421.467 93.0039 421.398L87.5394 418.229C87.1259 418.001 86.6604 417.887 86.1891 417.896C85.7112 417.885 85.2387 418 84.8185 418.229L79.3697 421.398ZM65.7311 413.475C65.5751 413.544 65.4404 413.654 65.3407 413.794C65.241 413.933 65.18 414.096 65.1639 414.267C65.1831 414.437 65.2453 414.599 65.3446 414.738C65.4439 414.877 65.577 414.987 65.7311 415.059L73.9053 419.814C74.3294 420.031 74.7987 420.145 75.2748 420.145C75.7508 420.145 76.2202 420.031 76.6442 419.814L82.0952 416.644C82.2487 416.572 82.3812 416.461 82.4801 416.322C82.579 416.183 82.641 416.021 82.6601 415.852C82.6442 415.681 82.5835 415.518 82.4843 415.379C82.385 415.24 82.2507 415.129 82.0952 415.059L73.9053 410.305C73.4917 410.078 73.0262 409.963 72.5549 409.972C72.077 409.961 71.6046 410.076 71.1843 410.305L65.7311 413.475ZM188.448 472.11C188.292 472.18 188.157 472.29 188.057 472.429C187.958 472.568 187.897 472.732 187.881 472.903C187.9 473.072 187.962 473.234 188.062 473.373C188.161 473.512 188.294 473.623 188.448 473.695L193.899 476.864C194.32 477.09 194.792 477.205 195.269 477.197C195.746 477.208 196.218 477.093 196.638 476.864L202.089 473.695C202.243 473.623 202.376 473.512 202.475 473.373C202.574 473.234 202.636 473.072 202.656 472.903C202.64 472.732 202.579 472.568 202.479 472.429C202.379 472.29 202.245 472.18 202.089 472.11L196.638 468.941C196.218 468.712 195.746 468.597 195.269 468.608C194.792 468.6 194.32 468.715 193.899 468.941L188.448 472.11ZM177.566 465.771C177.41 465.841 177.276 465.951 177.176 466.09C177.076 466.23 177.015 466.393 176.999 466.564C177.019 466.733 177.081 466.895 177.18 467.034C177.28 467.172 177.412 467.283 177.566 467.356L183.033 470.526C183.446 470.754 183.912 470.869 184.383 470.858C184.861 470.869 185.333 470.754 185.754 470.526L191.202 467.356C191.356 467.284 191.489 467.173 191.589 467.034C191.688 466.895 191.75 466.733 191.77 466.564C191.754 466.393 191.693 466.229 191.593 466.09C191.493 465.951 191.359 465.841 191.202 465.771L185.754 462.602C185.333 462.374 184.861 462.26 184.383 462.271C183.912 462.26 183.446 462.374 183.033 462.602L177.566 465.771ZM166.653 459.432C166.497 459.503 166.363 459.613 166.263 459.753C166.164 459.892 166.102 460.056 166.086 460.227C166.104 460.397 166.166 460.559 166.266 460.698C166.365 460.837 166.498 460.948 166.653 461.019L172.117 464.189C172.539 464.406 173.006 464.52 173.48 464.52C173.954 464.52 174.421 464.406 174.843 464.189L180.289 461.019C180.445 460.95 180.58 460.84 180.68 460.7C180.78 460.561 180.842 460.398 180.859 460.227C180.845 460.055 180.785 459.89 180.684 459.75C180.584 459.609 180.447 459.5 180.289 459.432L174.843 456.263C174.421 456.044 173.954 455.93 173.48 455.93C173.006 455.93 172.539 456.044 172.117 456.263L166.653 459.432ZM155.755 453.093C155.597 453.16 155.46 453.269 155.36 453.409C155.259 453.549 155.199 453.714 155.186 453.886C155.202 454.057 155.264 454.22 155.364 454.36C155.464 454.499 155.599 454.609 155.755 454.678L161.202 457.848C161.623 458.066 162.09 458.18 162.565 458.18C163.039 458.18 163.506 458.066 163.927 457.848L169.392 454.678C169.545 454.606 169.676 454.495 169.773 454.356C169.87 454.217 169.928 454.055 169.943 453.886C169.931 453.716 169.873 453.552 169.776 453.413C169.679 453.273 169.546 453.163 169.392 453.093L163.927 449.924C163.506 449.705 163.039 449.591 162.565 449.591C162.09 449.591 161.623 449.705 161.202 449.924L155.755 453.093ZM144.84 446.754C144.684 446.824 144.549 446.934 144.449 447.073C144.35 447.212 144.289 447.376 144.273 447.547C144.292 447.717 144.354 447.879 144.454 448.017C144.553 448.156 144.686 448.267 144.84 448.339L150.289 451.509C150.709 451.736 151.182 451.851 151.659 451.841C152.131 451.851 152.596 451.736 153.01 451.509L158.476 448.339C158.63 448.266 158.763 448.156 158.862 448.017C158.961 447.878 159.024 447.716 159.044 447.547C159.027 447.376 158.966 447.213 158.866 447.073C158.767 446.934 158.632 446.824 158.476 446.754L153.01 443.585C152.597 443.354 152.131 443.239 151.659 443.25C151.181 443.239 150.708 443.354 150.289 443.585L144.84 446.754ZM133.927 440.415C133.771 440.484 133.636 440.594 133.536 440.733C133.437 440.872 133.376 441.035 133.36 441.205C133.379 441.376 133.441 441.538 133.54 441.677C133.639 441.816 133.773 441.928 133.927 442L139.375 445.17C139.8 445.388 140.269 445.502 140.746 445.502C141.223 445.502 141.693 445.388 142.117 445.17L147.565 442C147.72 441.928 147.853 441.817 147.952 441.677C148.052 441.538 148.114 441.376 148.133 441.205C148.117 441.035 148.056 440.872 147.956 440.733C147.856 440.594 147.721 440.484 147.565 440.415L142.117 437.246C141.693 437.027 141.223 436.913 140.746 436.913C140.269 436.913 139.8 437.027 139.375 437.246L133.927 440.415ZM123.014 434.076C122.857 434.146 122.722 434.256 122.622 434.395C122.522 434.534 122.461 434.698 122.444 434.869C122.464 435.039 122.526 435.201 122.626 435.34C122.726 435.478 122.859 435.589 123.014 435.661L128.478 438.831C128.891 439.058 129.357 439.172 129.828 439.161C130.306 439.173 130.779 439.059 131.199 438.831L136.648 435.661C136.802 435.589 136.935 435.478 137.034 435.339C137.133 435.201 137.196 435.039 137.215 434.869C137.199 434.698 137.138 434.534 137.038 434.395C136.939 434.256 136.804 434.146 136.648 434.076L131.199 430.907C130.78 430.676 130.308 430.559 129.831 430.567C129.359 430.557 128.894 430.672 128.48 430.9L123.014 434.076ZM112.098 427.737C111.942 427.807 111.807 427.917 111.707 428.056C111.608 428.195 111.547 428.359 111.531 428.53C111.55 428.7 111.612 428.862 111.711 429.001C111.81 429.14 111.944 429.25 112.098 429.322L117.563 432.492C117.976 432.72 118.442 432.835 118.913 432.824C119.391 432.836 119.863 432.721 120.284 432.492L125.732 429.322C125.886 429.25 126.019 429.139 126.119 429C126.218 428.862 126.28 428.7 126.299 428.53C126.283 428.359 126.222 428.196 126.122 428.056C126.023 427.917 125.888 427.807 125.732 427.737L120.284 424.568C119.865 424.337 119.394 424.22 118.917 424.228C118.446 424.218 117.98 424.333 117.567 424.561L112.098 427.737ZM101.183 421.398C101.029 421.469 100.897 421.58 100.801 421.719C100.704 421.859 100.647 422.022 100.633 422.191C100.648 422.359 100.706 422.521 100.803 422.66C100.899 422.799 101.03 422.909 101.183 422.981L106.649 426.15C107.07 426.369 107.537 426.483 108.011 426.483C108.485 426.483 108.952 426.369 109.373 426.15L114.821 422.981C114.977 422.912 115.112 422.802 115.212 422.663C115.311 422.525 115.372 422.361 115.388 422.191C115.376 422.019 115.316 421.854 115.216 421.714C115.116 421.574 114.979 421.465 114.821 421.398L109.373 418.229C108.952 418.01 108.485 417.896 108.011 417.896C107.537 417.896 107.07 418.01 106.649 418.229L101.183 421.398ZM90.2852 415.059C90.1293 415.129 89.9945 415.239 89.8949 415.378C89.7952 415.518 89.7342 415.681 89.718 415.852C89.7376 416.022 89.8 416.183 89.8993 416.322C89.9985 416.461 90.1314 416.572 90.2852 416.644L95.7339 419.814C96.1553 420.031 96.622 420.144 97.0955 420.144C97.5691 420.144 98.0358 420.031 98.4571 419.814L103.922 416.644C104.075 416.572 104.208 416.461 104.308 416.322C104.407 416.183 104.469 416.022 104.489 415.852C104.473 415.681 104.412 415.518 104.312 415.378C104.212 415.239 104.078 415.129 103.922 415.059L98.4571 411.89C98.0358 411.673 97.5691 411.559 97.0955 411.559C96.622 411.559 96.1553 411.673 95.7339 411.89L90.2852 415.059ZM76.6307 407.136C76.4733 407.203 76.3371 407.313 76.2371 407.452C76.1371 407.592 76.0771 407.757 76.0636 407.928C76.0797 408.099 76.1407 408.262 76.2404 408.402C76.3401 408.541 76.4748 408.651 76.6307 408.72L84.805 413.475C85.2253 413.704 85.6977 413.818 86.1756 413.808C86.647 413.818 87.1128 413.703 87.526 413.475L92.9904 410.305C93.1445 410.233 93.2776 410.122 93.3769 409.984C93.4762 409.845 93.5384 409.683 93.5576 409.513C93.5415 409.342 93.4804 409.179 93.3808 409.039C93.2811 408.9 93.1464 408.79 92.9904 408.72L84.8005 403.966C84.3794 403.748 83.9126 403.634 83.4388 403.634C82.9651 403.634 82.4983 403.748 82.0772 403.966L76.6307 407.136ZM193.93 462.602C193.776 462.672 193.644 462.783 193.547 462.922C193.45 463.061 193.392 463.224 193.379 463.394C193.393 463.563 193.452 463.726 193.548 463.865C193.645 464.004 193.777 464.115 193.93 464.187L199.395 467.356C199.816 467.575 200.283 467.689 200.757 467.689C201.232 467.689 201.699 467.575 202.12 467.356L207.569 464.187C207.725 464.117 207.859 464.007 207.959 463.867C208.059 463.728 208.12 463.565 208.136 463.394C208.123 463.223 208.063 463.058 207.963 462.918C207.863 462.778 207.727 462.669 207.569 462.602L202.12 459.432C201.698 459.215 201.231 459.101 200.757 459.101C200.284 459.101 199.816 459.215 199.395 459.432L193.93 462.602ZM224.516 472.903C224.499 472.732 224.438 472.569 224.339 472.43C224.239 472.29 224.105 472.18 223.949 472.11L213.033 465.771C212.613 465.544 212.142 465.429 211.665 465.438C211.194 465.429 210.728 465.544 210.315 465.771L204.848 468.941C204.692 469.011 204.558 469.121 204.458 469.26C204.358 469.399 204.297 469.562 204.281 469.733C204.301 469.903 204.363 470.065 204.462 470.203C204.562 470.342 204.694 470.453 204.848 470.526L208.926 472.903L199.473 478.452C199.318 478.52 199.183 478.63 199.083 478.769C198.983 478.908 198.922 479.071 198.906 479.242C198.925 479.412 198.987 479.574 199.087 479.712C199.186 479.851 199.319 479.962 199.473 480.034L204.922 483.203C205.343 483.432 205.815 483.547 206.293 483.539C206.764 483.547 207.23 483.431 207.643 483.203L224.021 473.695C224.161 473.613 224.28 473.499 224.366 473.36C224.452 473.222 224.504 473.065 224.516 472.903ZM183.033 456.263C182.875 456.329 182.738 456.437 182.638 456.577C182.538 456.717 182.478 456.881 182.466 457.053C182.481 457.224 182.541 457.388 182.641 457.527C182.741 457.667 182.876 457.777 183.033 457.845L188.479 461.015C188.901 461.232 189.368 461.346 189.842 461.346C190.316 461.346 190.783 461.232 191.205 461.015L196.671 457.845C196.826 457.773 196.959 457.662 197.058 457.524C197.157 457.385 197.219 457.223 197.239 457.053C197.222 456.883 197.161 456.72 197.061 456.581C196.961 456.442 196.827 456.332 196.671 456.263L191.205 453.093C190.783 452.875 190.316 452.761 189.842 452.761C189.368 452.761 188.901 452.875 188.479 453.093L183.033 456.263ZM172.117 449.924C171.962 449.994 171.827 450.104 171.727 450.243C171.628 450.382 171.567 450.545 171.55 450.716C171.57 450.886 171.632 451.048 171.731 451.187C171.831 451.325 171.964 451.436 172.117 451.509L177.566 454.678C177.986 454.907 178.459 455.022 178.937 455.011C179.408 455.022 179.874 454.907 180.287 454.678L185.754 451.509C185.908 451.436 186.04 451.325 186.14 451.187C186.239 451.048 186.301 450.886 186.321 450.716C186.305 450.545 186.244 450.382 186.144 450.243C186.045 450.103 185.91 449.993 185.754 449.924L180.287 446.754C179.873 446.527 179.408 446.412 178.937 446.422C178.459 446.412 177.987 446.526 177.566 446.754L172.117 449.924ZM161.202 443.585C161.046 443.654 160.911 443.763 160.812 443.902C160.713 444.041 160.652 444.204 160.637 444.375C160.655 444.545 160.717 444.707 160.816 444.846C160.915 444.985 161.048 445.095 161.202 445.167L166.653 448.337C167.077 448.556 167.546 448.67 168.022 448.67C168.499 448.67 168.968 448.556 169.392 448.337L174.843 445.167C174.997 445.095 175.13 444.985 175.229 444.846C175.328 444.707 175.389 444.545 175.408 444.375C175.393 444.204 175.332 444.041 175.233 443.902C175.133 443.763 174.999 443.654 174.843 443.585L169.392 440.415C168.968 440.197 168.499 440.083 168.022 440.083C167.546 440.083 167.077 440.197 166.653 440.415L161.202 443.585ZM150.289 437.246C150.133 437.315 149.998 437.425 149.898 437.565C149.798 437.704 149.737 437.867 149.722 438.038C149.741 438.208 149.803 438.37 149.902 438.509C150.002 438.647 150.135 438.758 150.289 438.831L155.755 442C156.168 442.229 156.634 442.344 157.106 442.333C157.584 442.344 158.056 442.229 158.476 442L163.925 438.831C164.079 438.758 164.212 438.647 164.311 438.509C164.411 438.37 164.473 438.208 164.492 438.038C164.476 437.867 164.415 437.704 164.316 437.565C164.216 437.425 164.081 437.315 163.925 437.246L158.476 434.076C158.056 433.848 157.584 433.733 157.106 433.744C156.634 433.733 156.168 433.848 155.755 434.076L150.289 437.246ZM139.373 430.907C139.217 430.977 139.083 431.087 138.983 431.226C138.884 431.365 138.822 431.529 138.806 431.699C138.826 431.869 138.888 432.031 138.988 432.169C139.087 432.308 139.22 432.419 139.373 432.492L144.838 435.661C145.251 435.889 145.717 436.003 146.188 435.994C146.666 436.004 147.138 435.889 147.559 435.661L153.005 432.492C153.162 432.423 153.297 432.313 153.396 432.173C153.496 432.034 153.557 431.87 153.572 431.699C153.56 431.527 153.5 431.362 153.4 431.222C153.3 431.082 153.163 430.973 153.005 430.907L147.559 427.737C147.138 427.509 146.666 427.394 146.188 427.405C145.717 427.394 145.251 427.509 144.838 427.737L139.373 430.907ZM128.476 424.568C128.318 424.635 128.182 424.745 128.082 424.885C127.982 425.026 127.922 425.191 127.909 425.363C127.925 425.533 127.986 425.696 128.086 425.835C128.186 425.974 128.32 426.083 128.476 426.153L133.924 429.322C134.346 429.541 134.812 429.655 135.286 429.655C135.76 429.655 136.227 429.541 136.648 429.322L142.112 426.153C142.273 426.093 142.412 425.985 142.511 425.843C142.609 425.702 142.661 425.533 142.661 425.36C142.661 425.188 142.609 425.019 142.511 424.877C142.412 424.736 142.273 424.628 142.112 424.568L136.648 421.398C136.227 421.18 135.76 421.066 135.286 421.066C134.812 421.066 134.346 421.18 133.924 421.398L128.476 424.568ZM117.576 418.229C117.42 418.299 117.286 418.409 117.187 418.548C117.087 418.687 117.027 418.851 117.011 419.021C117.03 419.191 117.092 419.353 117.191 419.492C117.29 419.63 117.422 419.741 117.576 419.814L123.025 422.983C123.445 423.213 123.917 423.328 124.395 423.316C124.867 423.327 125.333 423.212 125.746 422.983L131.21 419.814C131.364 419.741 131.497 419.63 131.596 419.492C131.695 419.353 131.758 419.191 131.777 419.021C131.761 418.851 131.7 418.687 131.601 418.548C131.501 418.409 131.366 418.299 131.21 418.229L125.746 415.059C125.332 414.832 124.867 414.717 124.395 414.727C123.918 414.716 123.445 414.83 123.025 415.059L117.576 418.229ZM106.647 411.89C106.491 411.96 106.356 412.07 106.257 412.209C106.157 412.348 106.096 412.512 106.08 412.682C106.099 412.852 106.161 413.015 106.26 413.153C106.359 413.292 106.493 413.403 106.647 413.475L112.096 416.644C112.516 416.873 112.989 416.988 113.466 416.977C113.938 416.987 114.404 416.872 114.817 416.644L120.281 413.475C120.436 413.403 120.569 413.292 120.668 413.153C120.767 413.014 120.829 412.852 120.848 412.682C120.832 412.512 120.771 412.348 120.672 412.209C120.572 412.07 120.437 411.96 120.281 411.89L114.817 408.72C114.404 408.492 113.938 408.378 113.466 408.388C112.989 408.377 112.516 408.492 112.096 408.72L106.647 411.89ZM87.5439 400.797C87.3901 400.867 87.2579 400.978 87.1609 401.117C87.0639 401.257 87.0058 401.42 86.9926 401.589C87.0076 401.758 87.0665 401.92 87.1632 402.059C87.26 402.198 87.3912 402.309 87.5439 402.382L101.18 410.305C101.602 410.532 102.073 410.646 102.551 410.638C103.029 410.649 103.501 410.534 103.922 410.305L109.37 407.136C109.524 407.063 109.657 406.953 109.757 406.814C109.856 406.675 109.918 406.513 109.938 406.343C109.922 406.173 109.861 406.009 109.761 405.87C109.661 405.73 109.526 405.62 109.37 405.551L95.7317 397.627C95.3103 397.409 94.8431 397.294 94.3689 397.294C93.8948 397.294 93.4275 397.409 93.0062 397.627L87.5439 400.797ZM221.208 465.771C221.045 465.83 220.905 465.938 220.806 466.079C220.707 466.221 220.654 466.39 220.654 466.564C220.654 466.737 220.707 466.906 220.806 467.048C220.905 467.19 221.045 467.297 221.208 467.356L226.672 470.526C227.093 470.743 227.56 470.857 228.034 470.857C228.507 470.857 228.974 470.743 229.395 470.526L234.846 467.356C235.002 467.286 235.137 467.176 235.236 467.037C235.336 466.898 235.397 466.734 235.413 466.564C235.4 466.392 235.34 466.227 235.24 466.088C235.14 465.948 235.004 465.838 234.846 465.771L229.395 462.602C228.974 462.384 228.507 462.271 228.034 462.271C227.56 462.271 227.093 462.384 226.672 462.602L221.208 465.771ZM210.31 459.432C210.154 459.502 210.019 459.613 209.92 459.753C209.82 459.892 209.759 460.056 209.743 460.227C209.762 460.397 209.824 460.559 209.923 460.698C210.023 460.837 210.156 460.947 210.31 461.019L215.759 464.189C216.18 464.407 216.647 464.52 217.12 464.52C217.594 464.52 218.061 464.407 218.482 464.189L223.949 461.019C224.103 460.947 224.236 460.836 224.335 460.697C224.434 460.559 224.497 460.397 224.516 460.227C224.499 460.056 224.438 459.893 224.338 459.753C224.238 459.614 224.104 459.503 223.949 459.432L218.482 456.263C218.061 456.044 217.594 455.93 217.12 455.93C216.647 455.93 216.18 456.044 215.759 456.263L210.31 459.432ZM199.473 453.093C199.317 453.163 199.182 453.272 199.083 453.412C198.983 453.551 198.922 453.715 198.906 453.886C198.926 454.056 198.988 454.217 199.087 454.356C199.187 454.495 199.32 454.606 199.473 454.678L204.922 457.848C205.342 458.078 205.815 458.194 206.293 458.183C206.764 458.193 207.23 458.077 207.643 457.848L213.108 454.678C213.261 454.605 213.394 454.494 213.493 454.356C213.593 454.217 213.655 454.055 213.675 453.886C213.659 453.715 213.598 453.551 213.498 453.412C213.398 453.273 213.264 453.163 213.108 453.093L207.643 449.924C207.229 449.697 206.764 449.582 206.293 449.591C205.815 449.581 205.343 449.696 204.922 449.924L199.473 453.093ZM188.445 446.754C188.29 446.824 188.155 446.934 188.055 447.073C187.956 447.213 187.895 447.376 187.878 447.547C187.898 447.716 187.961 447.878 188.06 448.017C188.159 448.156 188.292 448.266 188.445 448.339L193.896 451.509C194.32 451.727 194.79 451.841 195.266 451.841C195.742 451.841 196.212 451.727 196.635 451.509L202.086 448.339C202.24 448.266 202.373 448.156 202.472 448.017C202.571 447.878 202.634 447.716 202.654 447.547C202.637 447.376 202.576 447.213 202.476 447.073C202.377 446.934 202.242 446.824 202.086 446.754L196.635 443.585C196.212 443.366 195.742 443.252 195.266 443.252C194.79 443.252 194.32 443.366 193.896 443.585L188.445 446.754ZM177.564 440.415C177.408 440.485 177.274 440.594 177.174 440.733C177.074 440.872 177.013 441.035 176.997 441.205C177.016 441.376 177.078 441.538 177.178 441.677C177.277 441.816 177.41 441.927 177.564 442L183.031 445.17C183.443 445.4 183.909 445.514 184.381 445.502C184.859 445.514 185.332 445.4 185.752 445.17L191.2 442C191.354 441.928 191.488 441.816 191.587 441.677C191.686 441.538 191.748 441.376 191.767 441.205C191.751 441.035 191.69 440.872 191.591 440.733C191.491 440.594 191.356 440.484 191.2 440.415L185.752 437.246C185.332 437.016 184.859 436.901 184.381 436.913C183.909 436.901 183.443 437.016 183.031 437.246L177.564 440.415ZM166.651 434.076C166.495 434.146 166.36 434.256 166.261 434.395C166.161 434.535 166.1 434.698 166.083 434.869C166.102 435.039 166.165 435.201 166.264 435.34C166.363 435.478 166.496 435.589 166.651 435.661L172.115 438.831C172.537 439.048 173.004 439.162 173.478 439.162C173.952 439.162 174.419 439.048 174.841 438.831L180.287 435.661C180.443 435.591 180.578 435.481 180.678 435.342C180.777 435.203 180.839 435.04 180.856 434.869C180.843 434.697 180.783 434.532 180.683 434.392C180.582 434.252 180.445 434.143 180.287 434.076L174.841 430.907C174.419 430.689 173.952 430.576 173.478 430.576C173.004 430.576 172.537 430.689 172.115 430.907L166.651 434.076ZM155.753 427.737C155.595 427.804 155.458 427.913 155.357 428.053C155.257 428.193 155.197 428.358 155.184 428.53C155.2 428.701 155.261 428.865 155.361 429.004C155.461 429.143 155.597 429.253 155.753 429.322L161.2 432.492C161.621 432.71 162.088 432.824 162.562 432.824C163.036 432.824 163.504 432.71 163.925 432.492L169.39 429.322C169.543 429.25 169.674 429.139 169.771 429C169.868 428.861 169.926 428.699 169.941 428.53C169.928 428.36 169.871 428.197 169.774 428.057C169.676 427.918 169.544 427.807 169.39 427.737L163.925 424.568C163.504 424.349 163.036 424.235 162.562 424.235C162.088 424.235 161.621 424.349 161.2 424.568L155.753 427.737ZM144.838 421.398C144.681 421.467 144.546 421.577 144.446 421.717C144.347 421.856 144.286 422.02 144.271 422.191C144.289 422.361 144.352 422.522 144.451 422.661C144.55 422.799 144.684 422.91 144.838 422.981L150.286 426.15C150.707 426.379 151.179 426.494 151.657 426.483C152.128 426.494 152.594 426.379 153.007 426.15L158.474 422.981C158.628 422.909 158.761 422.799 158.86 422.66C158.959 422.522 159.022 422.36 159.041 422.191C159.025 422.02 158.964 421.857 158.864 421.717C158.765 421.578 158.63 421.468 158.474 421.398L153.007 418.229C152.594 418 152.128 417.885 151.657 417.896C151.179 417.885 150.707 418 150.286 418.229L144.838 421.398ZM133.924 415.059C133.769 415.129 133.634 415.239 133.534 415.378C133.434 415.518 133.373 415.681 133.357 415.852C133.377 416.022 133.439 416.184 133.538 416.322C133.638 416.461 133.771 416.572 133.924 416.644L139.373 419.814C139.794 420.042 140.266 420.156 140.744 420.144C141.221 420.154 141.693 420.04 142.114 419.814L147.563 416.644C147.717 416.572 147.85 416.461 147.949 416.322C148.049 416.184 148.111 416.022 148.13 415.852C148.114 415.681 148.054 415.517 147.954 415.378C147.854 415.239 147.719 415.129 147.563 415.059L142.114 411.89C141.693 411.663 141.221 411.549 140.744 411.557C140.266 411.546 139.794 411.661 139.373 411.89L133.924 415.059ZM123.011 408.72C122.855 408.79 122.72 408.9 122.62 409.039C122.52 409.178 122.458 409.342 122.442 409.513C122.461 409.683 122.524 409.845 122.624 409.984C122.723 410.123 122.857 410.233 123.011 410.305L128.476 413.475C128.889 413.703 129.355 413.818 129.826 413.808C130.304 413.819 130.777 413.704 131.197 413.475L136.645 410.305C136.8 410.233 136.933 410.123 137.032 409.984C137.132 409.845 137.194 409.683 137.213 409.513C137.197 409.342 137.136 409.178 137.036 409.039C136.936 408.9 136.802 408.79 136.645 408.72L131.197 405.551C130.779 405.32 130.308 405.203 129.831 405.211C129.359 405.201 128.894 405.316 128.48 405.544L123.011 408.72ZM112.096 402.382C111.94 402.451 111.805 402.561 111.705 402.7C111.605 402.839 111.544 403.003 111.529 403.174C111.548 403.344 111.61 403.506 111.709 403.645C111.809 403.783 111.942 403.894 112.096 403.966L117.56 407.136C117.974 407.364 118.439 407.479 118.911 407.469C119.389 407.48 119.861 407.365 120.281 407.136L125.73 403.966C125.884 403.894 126.017 403.783 126.116 403.644C126.215 403.506 126.278 403.344 126.297 403.174C126.281 403.003 126.22 402.84 126.12 402.7C126.021 402.561 125.886 402.451 125.73 402.382L120.281 399.212C119.861 398.983 119.389 398.868 118.911 398.879C118.439 398.869 117.974 398.984 117.56 399.212L112.096 402.382ZM98.4571 394.458C98.3013 394.528 98.1668 394.638 98.0671 394.777C97.9675 394.916 97.9063 395.079 97.89 395.25C97.9094 395.42 97.9717 395.582 98.071 395.721C98.1703 395.859 98.3032 395.97 98.4571 396.043L106.647 400.797C107.068 401.015 107.535 401.129 108.009 401.129C108.482 401.129 108.949 401.015 109.37 400.797L114.819 397.627C114.975 397.558 115.11 397.448 115.21 397.309C115.309 397.169 115.37 397.006 115.386 396.835C115.373 396.663 115.313 396.498 115.213 396.359C115.113 396.219 114.977 396.109 114.819 396.043L106.645 391.288C106.224 391.06 105.752 390.945 105.274 390.956C104.803 390.945 104.337 391.06 103.924 391.288L98.4571 394.458ZM188.448 484.788C188.292 484.858 188.157 484.968 188.058 485.107C187.958 485.247 187.897 485.41 187.881 485.581C187.9 485.75 187.963 485.912 188.062 486.051C188.161 486.189 188.294 486.3 188.448 486.373L193.899 489.542C194.32 489.768 194.792 489.883 195.269 489.875C195.746 489.885 196.218 489.77 196.638 489.542L202.089 486.373C202.242 486.3 202.375 486.189 202.474 486.051C202.574 485.912 202.636 485.75 202.656 485.581C202.639 485.41 202.578 485.247 202.479 485.107C202.379 484.968 202.244 484.858 202.089 484.788L196.638 481.619C196.218 481.39 195.746 481.275 195.269 481.286C194.792 481.277 194.32 481.392 193.899 481.619L188.448 484.788Z"
            fill="white" />
    </g>
    <defs>
        <linearGradient id="paint0_linear_6630_1911" x1="277.268" y1="464.673" x2="307.396" y2="515.735"
            gradientUnits="userSpaceOnUse">
            <stop />
            <stop offset="0.894792" stop-opacity="0" />
        </linearGradient>
        <linearGradient id="paint1_linear_6630_1911" x1="191.333" y1="503.78" x2="205.946" y2="527.209"
            gradientUnits="userSpaceOnUse">
            <stop />
            <stop offset="0.739583" stop-opacity="0" />
        </linearGradient>
        <clipPath id="clip0_6630_1911">
            <rect width="600.755" height="513.575" fill="white" />
        </clipPath>
    </defs>
</svg>