<?xml version="1.0" encoding="UTF-8"?>
<svg  xmlns="http://www.w3.org/2000/svg" xmlns:xlink= "http://www.w3.org/1999/xlink" width="50px" height="50px" viewBox="0 0 50 50">
<g id="surface122903">
<path style=" stroke:none;fill-rule:nonzero;fill:rgb(24.705882%,31.764706%,70.980392%);fill-opacity:1;" d="M 46.875 36.457031 C 46.875 38.757812 45.007812 40.625 42.707031 40.625 L 7.292969 40.625 C 4.992188 40.625 3.125 38.757812 3.125 36.457031 L 3.125 13.542969 C 3.125 11.242188 4.992188 9.375 7.292969 9.375 L 42.707031 9.375 C 45.007812 9.375 46.875 11.242188 46.875 13.542969 Z M 46.875 36.457031 "/>
<path style=" stroke:none;fill-rule:nonzero;fill:rgb(100%,75.686275%,2.745098%);fill-opacity:1;" d="M 31.25 14.582031 C 25.496094 14.582031 20.832031 19.246094 20.832031 25 C 20.832031 30.753906 25.496094 35.417969 31.25 35.417969 C 37.003906 35.417969 41.667969 30.753906 41.667969 25 C 41.667969 19.246094 37.003906 14.582031 31.25 14.582031 Z M 31.25 14.582031 "/>
<path style=" stroke:none;fill-rule:nonzero;fill:rgb(100%,23.921569%,0%);fill-opacity:1;" d="M 22.929688 31.25 C 22.449219 30.605469 22.03125 29.914062 21.707031 29.167969 L 27.253906 29.167969 C 27.542969 28.503906 27.769531 27.808594 27.917969 27.082031 L 21.042969 27.082031 C 20.90625 26.410156 20.832031 25.714844 20.832031 25 L 28.125 25 C 28.125 24.285156 28.050781 23.589844 27.914062 22.917969 L 21.042969 22.917969 C 21.191406 22.191406 21.417969 21.496094 21.707031 20.832031 L 27.253906 20.832031 C 26.925781 20.085938 26.511719 19.394531 26.027344 18.75 L 22.929688 18.75 C 23.386719 18.144531 23.898438 17.582031 24.472656 17.089844 C 22.652344 15.53125 20.292969 14.582031 17.707031 14.582031 C 11.957031 14.582031 7.292969 19.246094 7.292969 25 C 7.292969 30.753906 11.957031 35.417969 17.707031 35.417969 C 21.113281 35.417969 24.128906 33.777344 26.027344 31.25 Z M 22.929688 31.25 "/>
</g>
</svg>
