<svg  width="18" height="18" viewBox="0 0 18 18" fill="none" xmlns="http://www.w3.org/2000/svg">
	<title>18x18-status</title>
	<g id="Warstwa_2" data-name="Warstwa 2">
		<g id="Warstwa_1-2" data-name="Warstwa 1">
			<path fill="#b9bdc5"
				d="M18,6.77a1,1,0,0,0-.8-.67l-5-.75L9.89.57A1,1,0,0,0,9,0H9a1,1,0,0,0-.91.58L5.85,5.36l-5,.78a1,1,0,0,0-.8.67,1,1,0,0,0,.24,1l3.65,3.73-.85,5.29a1,1,0,0,0,.41,1,1,1,0,0,0,.57.18,1,1,0,0,0,.49-.13L9,15.4l4.46,2.46a1,1,0,0,0,1.06-.06,1,1,0,0,0,.41-1l-.87-5.29,3.64-3.74A1,1,0,0,0,18,6.77Z" />
		</g>
	</g>
</svg>