<?xml version="1.0" encoding="utf-8"?>
<!-- Generator: Adobe Illustrator 23.0.3, SVG Export Plug-In . SVG Version: 6.00 Build 0)  -->
<svg id="Warstwa_1"  xmlns:xlink="http://www.w3.org/1999/xlink" x="0px" y="0px"
	 viewBox="0 0 12 12" style="enable-background:new 0 0 12 12;" xml:space="preserve">
<style type="text/css">
	.st0{fill:#B9BDC5;}
</style>
<title>12x12-sort-ascending</title>
<g id="done">
	<path class="st0" d="M8.9,2.7L6.3,0.2C6.2,0,5.9-0.1,5.7,0.1c0,0,0,0,0,0L3.2,2.7C3.1,2.7,3,2.9,3,3v0.5C3,3.8,3.2,4,3.5,4h5
		C8.8,4,9,3.8,9,3.5V3C9,2.9,8.9,2.7,8.9,2.7z"/>
</g>
<g id="done_1_">
	<path class="st0" d="M8.5,8h-5C3.2,8,3,8.2,3,8.5V9c0,0.1,0.1,0.3,0.2,0.4l2.5,2.5c0.2,0.2,0.5,0.2,0.7,0c0,0,0,0,0,0l2.5-2.5
		C8.9,9.3,9,9.1,9,9V8.5C9,8.2,8.8,8,8.5,8z"/>
</g>
</svg>
