<svg id="layout-condensed_thumb-sm"  width="288" height="240" viewBox="0 0 144 120">
  <metadata><?xpacket begin="﻿" id="W5M0MpCehiHzreSzNTczkc9d"?>
<x:xmpmeta xmlns:x="adobe:ns:meta/" x:xmptk="Adobe XMP Core 5.6-c142 79.160924, 2017/07/13-01:06:39        ">
   <rdf:RDF xmlns:rdf="http://www.w3.org/1999/02/22-rdf-syntax-ns#">
      <rdf:Description rdf:about=""/>
   </rdf:RDF>
</x:xmpmeta>
                                                                                                    
                                                                                                    
                                                                                                    
                                                                                                    
                                                                                                    
                                                                                                    
                                                                                                    
                                                                                                    
                                                                                                    
                                                                                                    
                                                                                                    
                                                                                                    
                                                                                                    
                                                                                                    
                                                                                                    
                                                                                                    
                                                                                                    
                                                                                                    
                                                                                                    
                                                                                                    
                           
<?xpacket end="w"?></metadata>
<defs>
    <style>
      .cls-1 {
        fill: #fff;
      }

      .cls-2 {
        fill: #b8dafc;
        fill-rule: evenodd;
        opacity: 0.64;
      }
    </style>
  </defs>
  <rect id="Prostokąt_zaokrąglony_1563_kopia_4" data-name="Prostokąt zaokrąglony 1563 kopia 4" class="cls-1" width="144" height="120"/>
  <path id="Prostokąt_1564" data-name="Prostokąt 1564" class="cls-2" d="M1559,200h24v10h-24V200Zm112,2h6v6h-6v-6Zm10,0h6v6h-6v-6Zm-80,2h12v2h-12v-2Zm-12-2h6v6h-6v-6Zm30,2h11v2h-11v-2Zm17,0h12v2h-12v-2Zm18,0h12v2h-12v-2Z" transform="translate(-1551 -191)"/>
  <path id="Prostokąt_1564_kopia" data-name="Prostokąt 1564 kopia" class="cls-2" d="M1551,219v-1h144v1H1551Zm42,8h93v26h-93V227Zm0,34h42v28h-42V261Zm50,0h43v28h-43V261Zm-84-34h26v75h-26V227Zm34,70h42v5h-42v-5Zm50,0h43v5h-43v-5Z" transform="translate(-1551 -191)"/>
</svg>
