<svg xmlns="http://www.w3.org/2000/svg" viewBox="0 0 63.42 64"><defs><style>.cls-1,.cls-2{fill:none;stroke:#393d45;}.cls-1,.cls-2,.cls-3,.cls-4{stroke-linecap:round;stroke-linejoin:round;stroke-width:2px;}.cls-2{stroke-dasharray:4 8;}.cls-3{fill:#009aff;stroke:#009aff;}.cls-4{fill:#1062fe;stroke:#1062fe;}</style></defs><title>free reissues</title><g id="Warstwa_2" data-name="Warstwa 2"><g id="Warstwa_1-2" data-name="Warstwa 1"><path class="cls-1" d="M18.38,59.58A31.17,31.17,0,0,1,1,31.8C1,14.65,15.11,1,32.46,1a32,32,0,0,1,8.19.84"/><path class="cls-2" d="M45.23,4A31.17,31.17,0,0,1,31.12,63,32.5,32.5,0,0,1,23,61.71"/><line class="cls-1" x1="44.02" y1="2.97" x2="46.46" y2="10.9"/><line class="cls-1" x1="44.02" y1="2.97" x2="52.26" y2="1.72"/><line class="cls-1" x1="19.21" y1="60.57" x2="11" y2="61.06"/><line class="cls-1" x1="19.21" y1="60.57" x2="17.48" y2="52.35"/><path class="cls-3" d="M49.72,51s-3.1,1.63-3.11,1.63c-1.77-1-5-2.76-5-2.76V29.62C31.83,24,18.71,16,18.71,16l-.53-4.24.23-.16c.67-.42,2.5-1.48,2.5-1.53,9.34,5.39,19.48,10.85,28.81,16.24Z"/><path class="cls-4" d="M46.68,52.66c-1.39-.79-4.58-2.37-4.58-2.37s.13-18.8-.09-20.35c-4.77-3.26-23.78-13.83-23.78-14.33V11.75c9.34,5.39,19.1,10.78,28.45,16.18Z"/><polygon class="cls-1" points="40.71 53.92 13.71 38.51 13.71 14.06 40.71 29.63 40.71 53.92"/><line class="cls-1" x1="13.71" y1="22" x2="40.02" y2="37.05"/></g></g></svg>