<?xml version="1.0" encoding="utf-8"?>
<!-- Generator: Adobe Illustrator 24.0.0, SVG Export Plug-In . SVG Version: 6.00 Build 0)  -->
<svg version="1.1" id="Warstwa_1" xmlns="http://www.w3.org/2000/svg" xmlns:xlink="http://www.w3.org/1999/xlink" x="0px" y="0px"
	 viewBox="0 0 64 64" style="enable-background:new 0 0 64 64;" xml:space="preserve">
<style type="text/css">
	
		.st0{fill-rule:evenodd;clip-rule:evenodd;fill:#009AFF;stroke:#009AFF;stroke-width:2;stroke-linecap:round;stroke-linejoin:round;}
	
		.st1{fill-rule:evenodd;clip-rule:evenodd;fill:#1062FE;stroke:#1062FE;stroke-width:2;stroke-linecap:round;stroke-linejoin:round;}
	.st2{fill:none;stroke:#393D45;stroke-width:2;stroke-linecap:round;stroke-linejoin:round;}
	.st3{fill:none;stroke:#393D45;stroke-width:2;stroke-linecap:round;stroke-linejoin:round;stroke-dasharray:4,8;}
	.st4{fill-rule:evenodd;clip-rule:evenodd;fill:#FFFFFF;}
</style>
<title>activate HTTPS and the lock icon</title>
<g id="Warstwa_2_1_">
	<g id="Warstwa_1-2">
		<path id="lock" class="st0" d="M43.3,16.1c0.1-4.5-6.7-7.9-11.6-5s-8.4,10-8.5,16.5L19.1,30v21l2.8,2l22.4-16.6L47,17l-2.9-1.4
			L43.3,16.1z M36.9,34.7l0.3,3.6l-3.3,2l0.2-4.4c-0.7-0.2-1.1-0.8-1.1-1.5c0-1.8,0.9-3.4,2.4-4.4c1.7-1,2.8,0.3,2.8,1.7
			C38,32.8,37.6,33.8,36.9,34.7z M28.6,24.5c0.8-3.8,2-8,5.8-10.2s4.8-0.9,4.8,4.1L28.6,24.5z"/>
		<path id="lock-2" class="st1" d="M43.8,18.8c-0.1-6.3-4-9.1-8.8-6.2S26.3,22.6,26.2,29l-4.4,2.5V53L47,37.9V17L43.8,18.8z
			 M28.8,27.5c0.1-5.1,3.1-10.6,6.8-12.8s6.8-0.1,6.8,4.9L28.8,27.5z"/>
		<line class="st2" x1="12.4" y1="56.2" x2="11.6" y2="48.5"/>
		<line class="st2" x1="12.4" y1="56.2" x2="5" y2="55.3"/>
		<path class="st3" d="M45.4,3.9C55.5,9,63,19.6,63,31.8C63,48.9,48.5,63,31.6,63c-1.3,0-2.6-0.1-3.8-0.2"/>
		<path class="st2" d="M11.5,55.2C4.9,49.3,1,40.8,1,31.9C1.1,14.8,14.9,1,32,1c4.6-0.1,9.2,0.9,13.4,2.9"/>
		<path id="lock-3" class="st4" d="M36.8,34.3l0.4,4.3L34,40.5l0.3-4.7c-0.8-0.2-1.3-1-1.3-1.8c0.1-1.9,1.1-3.7,2.7-4.7
			c1.5-0.9,2.7-0.2,2.7,1.6C38.2,32.1,37.6,33.3,36.8,34.3z"/>
	</g>
</g>
</svg>
