<svg xmlns="http://www.w3.org/2000/svg" viewBox="0 0 64 64"><defs><style>.cls-1{fill:none;stroke:#393d45;}.cls-1,.cls-2,.cls-3{stroke-linecap:round;stroke-linejoin:round;stroke-width:2px;}.cls-2{fill:#1062fe;stroke:#1062fe;}.cls-3{fill:#009aff;stroke:#009aff;}</style></defs><title>staging of restores</title><g id="Warstwa_2" data-name="Warstwa 2"><g id="Warstwa_1-2" data-name="Warstwa 1"><line class="cls-1" x1="51.38" y1="56.19" x2="51.68" y2="48.46"/><line class="cls-1" x1="51.38" y1="56.19" x2="59.11" y2="55.92"/><path class="cls-1" d="M18.32,4.18A31.46,31.46,0,0,0,1,32.09,30.93,30.93,0,0,0,31.81,63a30.18,30.18,0,0,0,3.83-.24"/><path class="cls-1" d="M52,55.23c6.32-5.68,11-14,11-23.22C63,14.89,48.67,1,31.81,1A30.14,30.14,0,0,0,18.32,4.18"/><polygon class="cls-2" points="47 39.5 32 31.63 31.96 15.04 47 23.52 47 39.5"/><polygon class="cls-3" points="31 49.53 16 40.26 16 23.01 31 31.46 31 49.53"/></g></g></svg>