<svg xmlns="http://www.w3.org/2000/svg" viewBox="0 0 60.09 64"><defs><style>.cls-1,.cls-3,.cls-4{fill:none;stroke-linecap:round;stroke-linejoin:round;stroke-width:2px;}.cls-1,.cls-3{stroke:#393d45;}.cls-1{fill-rule:evenodd;}.cls-2{fill:#1062fe;}.cls-4{stroke:#1062fe;}</style></defs><title>secure online transactions</title><g id="Warstwa_2" data-name="Warstwa 2"><g id="Warstwa_1-2" data-name="Warstwa 1"><path class="cls-1" d="M57.75,46.2a6.17,6.17,0,0,0,1.33-3.45c0-7.18,0-33,0-33,0-.43,0-.66-.33-.87L30.77,1a1.36,1.36,0,0,0-.4,0A1.33,1.33,0,0,0,30,1L1.53,8.76a.77.77,0,0,0-.33.87S1,35.55,1,42.74C1,51.09,30,62.91,30.37,63c.14,0,4.81-2,10.32-4.89"/><path class="cls-2" d="M19.13,15V8L52.88,27.41V49.78l-5.76-3.33c-.24-5.56,0-15.14,0-15.14S26.55,19.32,19.13,15Z"/><polyline class="cls-3" points="13.09 34.08 13.09 11.71 47.09 31.34 47.09 53.71 13.09 34.08"/><polyline class="cls-4" points="32.65 29.6 27.23 26.34 27.17 31.08 32.59 34.34 32.53 39.09 27.11 35.83"/><line class="cls-4" x1="29.97" y1="25.6" x2="29.94" y2="27.97"/><line class="cls-4" x1="29.82" y1="37.46" x2="29.79" y2="39.83"/></g></g></svg>