<?xml version="1.0" encoding="utf-8"?>
<!-- Generator: Adobe Illustrator 23.0.6, SVG Export Plug-In . SVG Version: 6.00 Build 0)  -->
<svg version="1.1" id="Warstwa_1" xmlns="http://www.w3.org/2000/svg" xmlns:xlink="http://www.w3.org/1999/xlink" x="0px" y="0px"
	 viewBox="0 0 64 64" style="enable-background:new 0 0 64 64;" xml:space="preserve">
<style type="text/css">
	.st0{fill:none;stroke:#393D45;stroke-width:2;stroke-linecap:round;stroke-linejoin:round;stroke-dasharray:3.07,6.13;}
	.st1{fill:none;stroke:#393D45;stroke-width:2;stroke-linecap:round;stroke-linejoin:round;}
	.st2{fill:#009AFF;stroke:#009AFF;stroke-width:2;stroke-linecap:round;stroke-linejoin:round;}
	.st3{fill:#1062FE;stroke:#1062FE;stroke-width:2;stroke-linecap:round;stroke-linejoin:round;}
	.st4{fill-rule:evenodd;clip-rule:evenodd;fill:#FFFFFF;}
</style>
<title>website-security</title>
<g>
	<g id="Products">
		<path class="st0" d="M8.7,18c7.8-5,20.1-7.2,31.8-5.3C57,15.5,66.6,25.5,61.8,35.3c-0.9,1.6-2.1,3.1-3.5,4.4"/>
		<line class="st1" x1="7.4" y1="18.5" x2="15.7" y2="18.4"/>
		<line class="st1" x1="7.4" y1="18.5" x2="8.5" y2="13.7"/>
		<path class="st2" d="M50.4,7.7L45,5.4c-0.2-0.1-0.4-0.2-0.7-0.1L29.2,9.5c-0.1,0-0.3,0.1-0.4,0.2L13.3,23.6
			C13.1,23.7,13,24,13,24.3c0,0,0,18.8,0,24.3c0,6.3,16.4,9.5,18.2,9.9h0.2c0.3,0,0.6-0.2,0.8-0.4c0.6-0.8,13.8-21.6,13.9-27.7
			l4.8-21.8C50.9,8.2,50.7,7.8,50.4,7.7z"/>
		<path class="st3" d="M50.6,7.7c-0.2-0.2-0.9,0-1.2,0l-15.5,4c-0.1,0-0.3,0.1-0.4,0.2L17.2,25.6C17,25.8,17,26.1,17,26.4
			c0,0,0,19,0,24.4c0,6.4,15.3,7.8,17,7.9h0.1c0.3,0,0.5-0.1,0.7-0.3c1.6-2,16.1-19.7,16.1-25.6V8.5C51,8.2,50.9,7.9,50.6,7.7z"/>
		<path class="st1" d="M54.9,41.9c-7.8,5-19.9,7.3-31.6,5.4C6.7,44.6-2.5,34.5,2.3,24.7c0.8-1.7,1.8-3.2,3.1-4.5"/>
		<line class="st1" x1="56.1" y1="41.6" x2="54.3" y2="46.3"/>
		<line class="st1" x1="56.1" y1="41.6" x2="47.7" y2="41.3"/>
		<path id="Kształt_4" class="st4" d="M40.9,23.1L40.9,23.1c-0.7-0.3-1.6,0.4-2.2,1.5l-6,11.6l-2.5-2.1c-0.5-0.5-1.5,0-2.2,1l0,0.1
			c-0.6,1-0.7,2.2-0.2,2.6l3.6,3l0,0c0.1,0.1,0.2,0.1,0.2,0.2l0,0c0.7,0.3,1.6-0.4,2.2-1.5L41,25.5C41.6,24.5,41.5,23.4,40.9,23.1z"
			/>
	</g>
</g>
</svg>
