<svg xmlns="http://www.w3.org/2000/svg" viewBox="0 0 49.64 64"><defs><style>.cls-1{fill:none;stroke:#393d45;stroke-dasharray:4 8;}.cls-1,.cls-2,.cls-3{stroke-linecap:round;stroke-linejoin:round;stroke-width:2px;}.cls-1,.cls-2,.cls-3,.cls-4{fill-rule:evenodd;}.cls-2{fill:#009aff;stroke:#009aff;}.cls-3{fill:#1062fe;stroke:#1062fe;}.cls-4{fill:#fff;}</style></defs><title>trusted by over 40,000,000</title><g id="Warstwa_2" data-name="Warstwa 2"><g id="Warstwa_1-2" data-name="Warstwa 1"><path id="Kształt_2" data-name="Kształt 2" class="cls-1" d="M34.12,26.63c0,6-16.56,26.65-16.56,26.65S1,51.77,1,45.74C1,40,1,20.11,1,20.11L17.54,5.65,34.12,1V26.63Z"/><path id="Kształt_2-2" data-name="Kształt 2" class="cls-2" d="M44.78,34.06c0,6-14.52,28.69-14.52,28.69s-18.37-3.44-18.39-9.47c0-5.78,0-25.64,0-25.64L28.21,13.08,44.14,8.61l4.5,2.62L44.78,34.06Z"/><path id="Kształt_2-3" data-name="Kształt 2" class="cls-3" d="M48.64,36.86C48.64,42.9,32.3,63,32.3,63s-16.53-1.5-16.55-7.53c0-5.78,0-25.64,0-25.64L32.28,15.37l16.36-4.14V36.86Z"/><path id="Kształt_4" data-name="Kształt 4" class="cls-4" d="M41.24,26l-.06,0c-.78-.32-2,.47-2.61,1.77L31.36,41.9l-3.09-2.56c-.66-.55-1.83,0-2.62,1.23l0,.09c-.79,1.22-.9,2.65-.24,3.19l4.41,3.66.06,0a.87.87,0,0,0,.28.19l.06,0c.78.32,1.95-.47,2.61-1.77l8.68-17.07C42.12,27.62,42,26.31,41.24,26Z"/></g></g></svg>