<svg xmlns="http://www.w3.org/2000/svg" viewBox="0 0 63.98 63.53"><defs><style>.cls-1,.cls-2{fill:none;stroke:#393d45;}.cls-1,.cls-2,.cls-3,.cls-4{stroke-linecap:round;stroke-linejoin:round;stroke-width:2px;}.cls-2{stroke-dasharray:6.42 6.42;}.cls-3{fill:#009aff;stroke:#009aff;}.cls-4{fill:#1062fe;stroke:#1062fe;}</style></defs><title>unlimited pages</title><g id="Warstwa_2" data-name="Warstwa 2"><g id="Warstwa_1-2" data-name="Warstwa 1"><line class="cls-1" x1="18.37" y1="58.99" x2="15.96" y2="51.22"/><line class="cls-1" x1="18.37" y1="58.99" x2="10.23" y2="60.22"/><path class="cls-1" d="M17.73,58.41A30.6,30.6,0,0,1,1,31.06,29.85,29.85,0,0,1,31.19,1a33.37,33.37,0,0,1,8.24.81"/><path class="cls-1" d="M32.26,62.53a28,28,0,0,1-4-.34"/><path class="cls-1" d="M27.54,62.07c-1.39-.24-2.74-.55-3.91-.86"/><path class="cls-1" d="M45.68,4.64a31.4,31.4,0,0,1,3.45,2"/><path class="cls-2" d="M54.08,10.73A30.08,30.08,0,0,1,63,30.8"/><path class="cls-1" d="M62.92,34a28.6,28.6,0,0,1-.56,4"/><line class="cls-1" x1="45.18" y1="4.27" x2="47.98" y2="11.87"/><line class="cls-1" x1="53.6" y1="3.31" x2="45.18" y2="4.27"/><polygon class="cls-3" points="27.09 10.17 25.23 11.6 43.75 32.24 52.69 52.88 54.53 52.31 54.53 27.24 27.09 10.17"/><polygon class="cls-4" points="25.23 11.6 25.23 23.9 42.37 33.9 42.37 46.67 52.51 52.88 52.51 27.81 25.23 11.6"/><polygon class="cls-1" points="42 59.05 14 42.88 14 18 42 34.17 42 59.05"/><line class="cls-1" x1="14.3" y1="27.01" x2="42" y2="42.76"/></g></g></svg>