<?xml version="1.0" encoding="utf-8"?>
<!-- Generator: Adobe Illustrator 22.1.0, SVG Export Plug-In . SVG Version: 6.00 Build 0)  -->
<svg version="1.1" id="Warstwa_1" xmlns="http://www.w3.org/2000/svg" xmlns:xlink="http://www.w3.org/1999/xlink" x="0px" y="0px"
	 width="64px" height="64px" viewBox="0 0 64 64" style="enable-background:new 0 0 64 64;" xml:space="preserve">
<style type="text/css">
	.st0{fill:none;stroke:#393D45;stroke-width:2;stroke-linecap:round;stroke-linejoin:round;}
	.st1{fill:#1062FE;stroke:#1062FE;stroke-width:2;stroke-linecap:round;stroke-linejoin:round;}
</style>
<path class="st0" d="M52.5,52.5C46.8,58.2,39.4,61,32,61c-7.4,0-14.8-2.8-20.5-8.5C5.8,46.8,3,39.4,3,32c0-7.4,2.8-14.8,8.5-20.5
	C17.2,5.8,24.6,3,32,3c7.4,0,14.8,2.8,20.5,8.5C58.2,17.2,61,24.6,61,32C61,39.4,58.2,46.8,52.5,52.5z"/>
<path class="st0" d="M53.4,20.7c1.2,0.8,2.3,1.6,3.2,2.5"/>
<path class="st0" d="M42.1,16.3c1.4,0.3,2.7,0.6,3.9,1"/>
<path class="st0" d="M30,15.3c0.7,0,1.4,0,2,0c0.7,0,1.4,0,2,0"/>
<path class="st0" d="M18,17.3c1.3-0.4,2.6-0.8,3.9-1"/>
<path class="st0" d="M7.4,23.2c0.9-0.9,2-1.7,3.2-2.5"/>
<path class="st0" d="M61,32c0,4.6-3.2,8.8-8.5,11.8c-5.2,3-12.5,4.9-20.5,4.9c-8,0-15.3-1.9-20.5-4.9C6.2,40.8,3,36.6,3,32"/>
<circle class="st1" cx="32" cy="32" r="7"/>
</svg>
