<svg xmlns="http://www.w3.org/2000/svg" viewBox="0 0 60 64"><defs><style>.cls-1{fill:none;stroke:#393d45;}.cls-1,.cls-2{stroke-linecap:round;stroke-linejoin:round;stroke-width:2px;}.cls-1,.cls-2,.cls-3{fill-rule:evenodd;}.cls-2{fill:#1062fe;stroke:#1062fe;}.cls-3{fill:#fff;}</style></defs><title>prove legitimacy</title><g id="Warstwa_2" data-name="Warstwa 2"><g id="Warstwa_1-2" data-name="Warstwa 1"><path class="cls-1" d="M57.59,46.13A6,6,0,0,0,59,42.69c0-7.19,0-33.06,0-33.06,0-.43,0-.67-.34-.87L30.41,1A1.39,1.39,0,0,0,30,1a1.46,1.46,0,0,0-.41,0L1.37,8.46A.78.78,0,0,0,1,9.33s0,25.88.05,33.06C1.11,50.75,29.67,62.91,30,63c.15,0,4.92-2,10.55-4.89"/><path class="cls-2" d="M30.45,50.6c-.19-.05-16.39-7-16.4-11.93,0-4.23,0-19.44,0-19.44a.46.46,0,0,1,.19-.51l16-4.55a.58.58,0,0,1,.23,0,.62.62,0,0,1,.23,0l16.13,4.59c.17.12.19.26.19.51,0,0,0,15.22,0,19.44C47,43.61,30.53,50.58,30.45,50.6Z"/><path class="cls-3" d="M21.75,32.36l5.65,6.43a1.32,1.32,0,0,0,2.07,0h0a1.9,1.9,0,0,0,0-2.4L23.81,30a1.49,1.49,0,0,0-2.06,0h0A1.91,1.91,0,0,0,21.75,32.36Z"/><path class="cls-3" d="M39.36,27.33,29.51,38.79a1.32,1.32,0,0,1-2.07,0h0a1.9,1.9,0,0,1,0-2.4l9.85-11.47a1.33,1.33,0,0,1,2.07,0h0A1.91,1.91,0,0,1,39.36,27.33Z"/></g></g></svg>