<?xml version="1.0" encoding="utf-8"?>
<!-- Generator: Adobe Illustrator 22.1.0, SVG Export Plug-In . SVG Version: 6.00 Build 0)  -->
<svg version="1.1" id="Warstwa_1" xmlns="http://www.w3.org/2000/svg" xmlns:xlink="http://www.w3.org/1999/xlink" x="0px" y="0px"
	 width="64px" height="64px" viewBox="0 0 64 64" style="enable-background:new 0 0 64 64;" xml:space="preserve">
<style type="text/css">
	.st0{fill:none;stroke:#393D45;stroke-width:2;stroke-linecap:round;stroke-linejoin:round;}
	.st1{fill:#1062FE;stroke:#1062FE;stroke-width:2;stroke-linecap:round;stroke-linejoin:round;}
	.st2{fill:#009AFF;stroke:#009AFF;stroke-width:2;stroke-linecap:round;stroke-linejoin:round;}
</style>
<line class="st0" x1="59" y1="20.6" x2="59" y2="16.6"/>
<line class="st0" x1="59" y1="35.3" x2="59" y2="28.7"/>
<polyline class="st0" points="55.5,49.4 59,47.4 59,43.4 "/>
<line class="st0" x1="42.6" y1="56.9" x2="48.4" y2="53.5"/>
<polyline class="st0" points="28.5,61 32,63 35.5,61 "/>
<line class="st0" x1="15.6" y1="53.6" x2="21.4" y2="56.9"/>
<polyline class="st0" points="5,43.4 5,47.4 8.5,49.4 "/>
<line class="st0" x1="5" y1="28.7" x2="5" y2="35.3"/>
<line class="st0" x1="5" y1="16.6" x2="5" y2="20.6"/>
<polygon class="st1" points="32,37 27.5,34.4 19,39.3 32,46.8 45,39.3 36.5,34.4 "/>
<polygon class="st2" points="32,32.8 24.8,28.6 19,32 32,39.5 45,32 39.2,28.6 "/>
<polygon class="st0" points="32,32.2 5,16.6 32,1 59,16.6 "/>
<polyline class="st0" points="26,4.7 26,20 52.8,20 "/>
<line class="st0" x1="25" y1="13" x2="11.5" y2="13"/>
<line class="st0" x1="38" y1="21" x2="38" y2="28.5"/>
</svg>
