<svg xmlns="http://www.w3.org/2000/svg" viewBox="0 0 64 64"><defs><style>.cls-1,.cls-2,.cls-3,.cls-4{fill:none;stroke:#393d45;}.cls-1,.cls-2,.cls-3,.cls-4,.cls-5,.cls-6{stroke-linecap:round;stroke-linejoin:round;stroke-width:2px;}.cls-2{stroke-dasharray:7.63 9.54;}.cls-3{stroke-dasharray:7.63 9.54;}.cls-4{stroke-dasharray:6.52 8.15;}.cls-5{fill:#1062fe;stroke:#1062fe;}.cls-6{fill:#009aff;stroke:#009aff;}</style></defs><title>email archiving</title><g id="Warstwa_2" data-name="Warstwa 2"><g id="Warstwa_1-2" data-name="Warstwa 1"><polyline class="cls-1" points="63 43.41 63 47.41 59.43 49.21"/><line class="cls-2" x1="50.91" y1="53.49" x2="39.83" y2="59.06"/><polyline class="cls-1" points="35.57 61.2 32 63 28.43 61.2"/><line class="cls-3" x1="19.91" y1="56.92" x2="8.83" y2="51.35"/><polyline class="cls-1" points="4.57 49.21 1 47.41 1 43.41"/><line class="cls-4" x1="1" y1="35.26" x2="1" y2="24.66"/><polyline class="cls-1" points="1 20.59 1 16.59 4.57 14.79"/><line class="cls-3" x1="13.09" y1="10.51" x2="24.17" y2="4.94"/><polyline class="cls-1" points="28.43 2.8 32 1 35.57 2.8"/><line class="cls-2" x1="44.09" y1="7.08" x2="55.17" y2="12.65"/><polyline class="cls-1" points="59.43 14.79 63 16.59 63 20.59"/><line class="cls-4" x1="63" y1="28.74" x2="63" y2="39.34"/><polygon class="cls-5" points="32 38.45 24.39 35 9.94 41.55 32 51.53 54.06 41.55 39.61 35 32 38.45"/><polygon class="cls-6" points="32 32.8 19.86 27.31 9.94 31.8 32 41.78 54.06 31.8 44.14 27.31 32 32.8"/><polygon class="cls-1" points="32 32.54 9.54 22.37 32 12.21 54.46 22.37 32 32.54"/><polyline class="cls-1" points="26.99 14.77 26.99 24.33 49.99 24.33"/><line class="cls-1" x1="25.99" y1="20.37" x2="13.97" y2="20.37"/><line class="cls-1" x1="36.99" y1="25.33" x2="36.99" y2="30.28"/></g></g></svg>