<svg xmlns="http://www.w3.org/2000/svg" viewBox="0 0 63.93 63.94"><defs><style>.cls-1{fill:#009aff;stroke:#009aff;}.cls-1,.cls-2,.cls-3,.cls-4{stroke-linecap:round;stroke-linejoin:round;stroke-width:2px;}.cls-2{fill:#1062fe;stroke:#1062fe;}.cls-3,.cls-4{fill:none;stroke:#393d45;}.cls-4{stroke-dasharray:4 8;}</style></defs><title>fast automated steup</title><g id="Warstwa_2" data-name="Warstwa 2"><g id="Warstwa_1-2" data-name="Warstwa 1"><path class="cls-1" d="M30.88,16.24l-14,8.07V39.43l1.82,1.1,14.09,7.32,12.34-8.74,1.77-13.62-1.81-1.42Zm4.71,18.09L30.87,37,25.8,34.33V29l5.07-2.69L35.59,29Z"/><path class="cls-2" d="M32.61,18,18.86,25.49V40.34l13.75,7.51,14.27-7.51V25.49ZM38,35.57l-5.4,2.68-4.77-2.68V30.26l4.77-2.68L38,30.26Z"/><line class="cls-3" x1="19.09" y1="60.44" x2="16.35" y2="53.2"/><line class="cls-3" x1="19.09" y1="60.44" x2="11.67" y2="61.45"/><path class="cls-4" d="M38,1.58C49.06,4,58.94,12.33,62,24.15,66.24,40.73,55.68,58,39.35,62.22a29.59,29.59,0,0,1-3.78.72"/><path class="cls-3" d="M18,59.71a31.49,31.49,0,0,1-16-20A31,31,0,0,1,24.25,2.09,29.84,29.84,0,0,1,38,1.58"/><line class="cls-3" x1="47.66" y1="5.31" x2="50.41" y2="12.54"/><line class="cls-3" x1="47.66" y1="5.31" x2="55.08" y2="4.3"/></g></g></svg>