<?xml version="1.0" encoding="utf-8"?>
<!-- Generator: Adobe Illustrator 23.0.6, SVG Export Plug-In . SVG Version: 6.00 Build 0)  -->
<svg version="1.1" id="Warstwa_1" xmlns="http://www.w3.org/2000/svg" xmlns:xlink="http://www.w3.org/1999/xlink" x="0px" y="0px"
	 viewBox="0 0 64 64" style="enable-background:new 0 0 64 64;" xml:space="preserve">
<style type="text/css">
	.st0{fill:none;stroke:#393D45;stroke-width:2;stroke-linecap:round;stroke-linejoin:round;}
	.st1{fill:none;stroke:#393D45;stroke-width:1.94;stroke-linecap:round;stroke-linejoin:round;}
	.st2{fill:#009AFF;stroke:#009AFF;stroke-width:2;stroke-linecap:round;stroke-linejoin:round;}
	.st3{fill:none;stroke:#393D45;stroke-width:2;stroke-linecap:round;stroke-linejoin:round;stroke-dasharray:4,6;}
	.st4{fill:#1062FE;stroke:#1062FE;stroke-width:2;stroke-linecap:round;stroke-linejoin:round;}
</style>
<title>e-mail-services</title>
<g>
	<g id="Products">
		<polyline class="st0" points="63,19 63,18.9 31.9,1.2 1,19 		"/>
		<polyline class="st1" points="1,19.8 1,44.8 31,62.1 		"/>
		<polyline class="st1" points="31,62 31,36.9 1.5,19.9 		"/>
		<polyline class="st1" points="1.1,21.3 15.6,47.5 30.9,37.8 		"/>
		<line class="st1" x1="21.3" y1="43.9" x2="30" y2="59.7"/>
		<line class="st1" x1="1.1" y1="43" x2="10" y2="37.3"/>
		<line class="st0" x1="62.4" y1="19.1" x2="31.4" y2="36.8"/>
		<polyline class="st2" points="48.2,24.8 20.9,9.5 15.6,12.5 42.8,27.9 42.8,27.9 48.2,24.9 		"/>
		<polyline class="st3" points="31.9,62.8 62.9,45 62.9,19.1 		"/>
		<polygon class="st4" points="50,50 45.1,53 45,31.4 50,28.5 		"/>
	</g>
</g>
</svg>
