<svg xmlns="http://www.w3.org/2000/svg" viewBox="0 0 63.73 63.71"><defs><style>.cls-1,.cls-2{fill:none;stroke:#393d45;}.cls-1,.cls-2,.cls-3,.cls-4{stroke-linecap:round;stroke-linejoin:round;stroke-width:2px;}.cls-2{stroke-dasharray:8 10;}.cls-3{fill:#009aff;stroke:#009aff;}.cls-4{fill:#1062fe;stroke:#1062fe;}.cls-5{fill:#fff;fill-rule:evenodd;}</style></defs><title>site lock trust seal</title><g id="Warstwa_2" data-name="Warstwa 2"><g id="Warstwa_1-2" data-name="Warstwa 1"><path class="cls-1" d="M18.27,59.33A30.42,30.42,0,0,1,1,31.94C1,15,15,1,32.53,1a33.4,33.4,0,0,1,8.22,1.45"/><path class="cls-2" d="M54.07,10.87a30.57,30.57,0,0,1,8.66,21.26c0,16.9-14.08,30.58-31.6,30.58a33.05,33.05,0,0,1-8.25-1.28"/><line class="cls-1" x1="19.11" y1="60.31" x2="10.82" y2="60.79"/><line class="cls-1" x1="19.11" y1="60.31" x2="17.36" y2="52.21"/><path class="cls-3" d="M49.49,7.59l-4.66-2a.81.81,0,0,0-.61-.07L31.1,9.21a.92.92,0,0,0-.32.18l-13.45,12a.8.8,0,0,0-.27.6s0,16.35,0,21.11c0,5.47,14.18,8.28,15.8,8.58l.14,0a.82.82,0,0,0,.68-.37c.49-.77,12-18.73,12.08-24L49.88,8.41A.8.8,0,0,0,49.49,7.59Z"/><path class="cls-4" d="M49.69,7.66c-.19-.15-.76,0-1,0L35.22,11.1a.8.8,0,0,0-.33.17l-14,11.93a.87.87,0,0,0-.17.66s0,16.43,0,21.19c0,5.54,13.15,6.7,14.62,6.84h.07a.81.81,0,0,0,.62-.29c1.39-1.72,14-17.09,14-22.2V8.29A.81.81,0,0,0,49.69,7.66Z"/><path id="lock" class="cls-5" d="M40.32,23.44c0-3.16-2-4.57-4.53-3.13s-4.5,5.17-4.53,8.36L29,29.91V40.4L42,33V22.51Zm-4,7.88.16,1.77-1.36.79.14-2a.78.78,0,0,1-.57-.73,2.54,2.54,0,0,1,1.14-2c.63-.36,1.13-.07,1.13.65A2.87,2.87,0,0,1,36.28,31.32ZM32.34,28a8.24,8.24,0,0,1,3.45-6.49c1.88-1.08,3.41,0,3.44,2.51Z"/></g></g></svg>