<svg xmlns="http://www.w3.org/2000/svg" viewBox="0 0 64 64"><defs><style>.cls-1{fill:#1062fe;}.cls-1,.cls-3{stroke:#1062fe;}.cls-1,.cls-2,.cls-3,.cls-4{stroke-linecap:round;stroke-linejoin:round;stroke-width:2px;}.cls-2,.cls-3,.cls-4{fill:none;}.cls-2,.cls-4{stroke:#393d45;}.cls-4{stroke-dasharray:4 8;}</style></defs><title>issued in 1-2 days</title><g id="Warstwa_2" data-name="Warstwa 2"><g id="Warstwa_1-2" data-name="Warstwa 1"><polygon class="cls-1" points="26.91 39.87 16 46.17 16 21.66 38 8.96 38 21.72 27 28.2 26.91 39.87"/><polygon class="cls-2" points="49 41.33 27 54.03 27 28.92 49 16.21 49 41.33"/><polygon class="cls-2" points="49 41.33 27 54.03 27 28.92 49 16.21 49 41.33"/><polyline class="cls-3" points="38.65 39.25 38.65 29.64 36.19 31.06"/><line class="cls-3" x1="40.65" y1="38.29" x2="36.64" y2="40.6"/><line class="cls-2" x1="12.42" y1="56.23" x2="11.57" y2="48.53"/><line class="cls-2" x1="12.42" y1="56.23" x2="4.99" y2="55.36"/><path class="cls-4" d="M45.42,3.94C55.51,9,63,19.56,63,31.76,63,48.88,48.46,63,31.6,63a30.45,30.45,0,0,1-3.84-.24"/><path class="cls-2" d="M11.51,55.24A31.5,31.5,0,0,1,1,31.91,31.05,31.05,0,0,1,32,1,29.72,29.72,0,0,1,45.42,3.94"/></g></g></svg>