<?xml version="1.0" encoding="utf-8"?>
<!-- Generator: Adobe Illustrator 24.0.0, SVG Export Plug-In . SVG Version: 6.00 Build 0)  -->
<svg version="1.1" id="Warstwa_1" xmlns="http://www.w3.org/2000/svg" xmlns:xlink="http://www.w3.org/1999/xlink" x="0px" y="0px"
	 viewBox="0 0 63.8 64" style="enable-background:new 0 0 63.8 64;" xml:space="preserve">
<style type="text/css">
	.st0{fill:none;stroke:#393D45;stroke-width:2;stroke-linecap:round;stroke-linejoin:round;stroke-dasharray:4,8;}
	.st1{fill:#1062FE;stroke:#1062FE;stroke-width:2;stroke-linejoin:round;}
	.st2{fill-rule:evenodd;clip-rule:evenodd;fill:#1062FE;}
	.st3{fill:none;stroke:#393D45;stroke-width:2;stroke-linecap:round;stroke-linejoin:round;}
</style>
<title>99.9 browser compatibility</title>
<g id="Warstwa_2_1_">
	<g id="Warstwa_1-2">
		<polyline class="st0" points="41.6,8.5 41.6,1 1,24.4 1,60.3 11.2,54.4 		"/>
		<polygon class="st1" points="51.9,9.7 51.9,3 10.9,26.7 10.9,62.1 21.9,55.7 21.9,27.2 		"/>
		<path id="Kształt_4" class="st2" d="M50.3,27.4L50.3,27.4c-0.7-0.3-1.7,0.4-2.3,1.4l-6.2,11.4l-2.7-2.1c-0.6-0.4-1.6,0-2.2,1
			l0,0.1c-0.7,1-0.8,2.1-0.2,2.6l3.8,2.9h0c0.1,0.1,0.2,0.1,0.2,0.2l0,0c0.7,0.3,1.7-0.4,2.3-1.4l7.5-13.7
			C51,28.7,50.9,27.6,50.3,27.4z"/>
		<polygon class="st3" points="21.8,63 62.8,39.8 62.8,3.7 21.8,27.2 		"/>
		<line class="st3" x1="62.6" y1="13.1" x2="22.2" y2="36.4"/>
	</g>
</g>
</svg>
