<svg xmlns="http://www.w3.org/2000/svg" viewBox="0 0 64 64"><defs><style>.cls-1{fill:#1062fe;stroke:#1062fe;}.cls-1,.cls-2,.cls-3,.cls-4{stroke-linecap:round;stroke-linejoin:round;stroke-width:2px;}.cls-2{fill:#009aff;stroke:#009aff;}.cls-3,.cls-4{fill:none;stroke:#393d45;}.cls-4{stroke-dasharray:3.84 7.69;}</style></defs><title>Automatic daily backup</title><g id="Warstwa_2" data-name="Warstwa 2"><g id="Warstwa_1-2" data-name="Warstwa 1"><polygon class="cls-1" points="46.76 25.33 46.75 41.3 31.63 50.31 16.85 41.27 16.87 25.35 46.76 25.33"/><polygon class="cls-2" points="31.64 33.58 16.87 25.07 31.65 16.54 46.76 25.05 31.64 33.58"/><path class="cls-3" d="M18.33,59.82A31,31,0,0,1,32.5,1a32.24,32.24,0,0,1,8.16,1"/><line class="cls-3" x1="18.39" y1="59.84" x2="15.93" y2="51.92"/><line class="cls-3" x1="18.39" y1="59.84" x2="10.08" y2="61.1"/><path class="cls-3" d="M45.25,4.18c.59.3,1.18.62,1.76,1"/><path class="cls-4" d="M53.14,9.74A31.15,31.15,0,0,1,63,32.19C63,49.34,48.47,63,31.07,63c-.81,0-1.61,0-2.41-.09"/><path class="cls-3" d="M24.86,62.4q-1-.19-1.95-.45"/><line class="cls-3" x1="45.18" y1="4.16" x2="47.64" y2="12.08"/><line class="cls-3" x1="45.18" y1="4.16" x2="53.49" y2="2.9"/></g></g></svg>