<svg xmlns="http://www.w3.org/2000/svg" viewBox="0 0 64 64"><defs><style>.cls-1,.cls-2{fill:none;stroke:#393d45;}.cls-1,.cls-2,.cls-3,.cls-4{stroke-linecap:round;stroke-linejoin:round;stroke-width:2px;}.cls-2{fill-rule:evenodd;}.cls-3{fill:#1062fe;stroke:#1062fe;}.cls-4{fill:#009aff;stroke:#009aff;}</style></defs><title>instant issuance</title><g id="Warstwa_2" data-name="Warstwa 2"><g id="Warstwa_1-2" data-name="Warstwa 1"><polyline class="cls-1" points="32.04 63 11.88 50.51 11.88 32.54"/><polyline class="cls-1" points="31.95 31.54 32.04 63 53.03 50.6 53.03 32.54"/><path id="Kształt_5" data-name="Kształt 5" class="cls-2" d="M52.34,19.65,32,7.41,42.66,1,63,13.24Z"/><path id="Kształt_5-2" data-name="Kształt 5" class="cls-2" d="M21.34,38.31,1,26.06l10.65-6.41L32,31.89Z"/><path id="Kształt_5_kopia" data-name="Kształt 5 kopia" class="cls-2" d="M32,31.9,52.29,19.65"/><path id="Kształt_5_kopia-2" data-name="Kształt 5 kopia" class="cls-2" d="M32,7.4,11.66,19.65,1,13.25,21.34,1Z"/><polygon class="cls-3" points="16.96 19.96 31.97 29 47.09 19.96 47.09 13.61 16.96 13.61 16.96 19.96"/><polygon class="cls-4" points="32.15 22.64 16.96 13.61 32.15 4.57 47.09 13.61 32.15 22.64"/><path id="Kształt_5_kopia-3" data-name="Kształt 5 kopia" class="cls-2" d="M63,26.06,42.66,38.31,32,31.9,52.34,19.65Z"/></g></g></svg>