<?xml version="1.0" encoding="utf-8"?>
<!-- Generator: Adobe Illustrator 22.1.0, SVG Export Plug-In . SVG Version: 6.00 Build 0)  -->
<svg version="1.1" id="Warstwa_1" xmlns="http://www.w3.org/2000/svg" xmlns:xlink="http://www.w3.org/1999/xlink" x="0px" y="0px"
	 width="64px" height="64px" viewBox="0 0 64 64" style="enable-background:new 0 0 64 64;" xml:space="preserve">
<style type="text/css">
	.st0{fill:none;stroke:#393D45;stroke-width:2;stroke-linecap:round;stroke-linejoin:round;}
	.st1{fill:#1062FE;stroke:#1062FE;stroke-width:2;stroke-linecap:round;stroke-linejoin:round;}
	.st2{fill:#009AFF;stroke:#009AFF;stroke-width:2;stroke-linecap:round;stroke-linejoin:round;}
</style>
<polyline class="st0" points="35.5,3 32,1 28.5,3 "/>
<line class="st0" x1="48.4" y1="10.4" x2="42.6" y2="7.1"/>
<polyline class="st0" points="59,20.6 59,16.6 55.5,14.6 "/>
<line class="st0" x1="59" y1="35.3" x2="59" y2="28.7"/>
<polyline class="st0" points="55.5,49.4 59,47.4 59,43.4 "/>
<line class="st0" x1="42.6" y1="56.9" x2="48.4" y2="53.6"/>
<polyline class="st0" points="28.5,61 32,63 35.5,61 "/>
<line class="st0" x1="15.6" y1="53.6" x2="21.4" y2="56.9"/>
<polyline class="st0" points="5,43.4 5,47.4 8.5,49.4 "/>
<line class="st0" x1="5" y1="28.7" x2="5" y2="35.3"/>
<polyline class="st0" points="8.5,14.6 5,16.6 5,20.6 "/>
<line class="st0" x1="21.4" y1="7.1" x2="15.6" y2="10.5"/>
<polygon class="st1" points="19,25 19,39.3 32,46.8 45,39.3 45,25 "/>
<polygon class="st2" points="32,32.2 19,24.7 32,17.2 45,24.7 "/>
</svg>
