<?xml version="1.0" encoding="utf-8"?>
<!-- Generator: Adobe Illustrator 23.0.6, SVG Export Plug-In . SVG Version: 6.00 Build 0)  -->
<svg version="1.1" id="Warstwa_1" xmlns="http://www.w3.org/2000/svg" xmlns:xlink="http://www.w3.org/1999/xlink" x="0px" y="0px"
	 viewBox="0 0 64 64" style="enable-background:new 0 0 64 64;" xml:space="preserve">
<style type="text/css">
	
		.st0{fill-rule:evenodd;clip-rule:evenodd;fill:#009AFF;stroke:#009AFF;stroke-width:2;stroke-linecap:round;stroke-linejoin:round;}
	.st1{fill:none;stroke:#393D45;stroke-width:2;stroke-linecap:round;stroke-linejoin:round;stroke-dasharray:3.87,5.8;}
	.st2{fill:none;stroke:#393D45;stroke-width:2;stroke-linecap:round;stroke-linejoin:round;}
	.st3{fill:none;stroke:#1062FE;stroke-width:2;stroke-linecap:round;stroke-linejoin:round;}
</style>
<title>website-backup</title>
<g>
	<g id="Products">
		<path class="st0" d="M14.5,51.6c-3.7-1.9-6.8-3.5-6.9-3.6C1,43,1.6,29.2,8.8,17.2C15.4,6.1,25.3,0.4,31.9,3.5
			c0.2,0.1,2.6,1.3,5.7,2.8c0,0-6.8-1.3-14.1,5.3c-9.8,8.9-12.3,16.9-13.1,23.1C8.5,49.5,14.5,51.6,14.5,51.6z"/>
		<path class="st1" d="M39.3,7.2c0.2,0.1,11.9,6,15,7.5"/>
		<path class="st2" d="M14.9,51.7c-6.5-5-5.9-18.8,1.2-30.9C22.8,9.8,32.7,4.1,39.3,7.2"/>
		<path class="st1" d="M31.3,60.2c-3.7-1.9-16.2-8.3-16.4-8.5"/>
		<path class="st2" d="M56.5,16c-6.5-5-17.6,0.7-24.8,12.7s-7.7,25.9-1.2,30.9S48,58.9,55.2,46.8S63,21,56.5,16z"/>
		<path class="st3" d="M45.7,27.7c2.8-0.5,4.9,1.1,5.4,4.5c0.6,4.8-2.4,11.3-6.7,14.5"/>
		<line class="st3" x1="45.5" y1="27.6" x2="49.2" y2="24.5"/>
		<line class="st3" x1="45.5" y1="27.6" x2="46.8" y2="31.1"/>
		<path class="st3" d="M41.2,47.8c-2.7,0.5-4.9-1.1-5.3-4.5c-0.6-4.8,2.4-11.3,6.7-14.5"/>
		<line class="st3" x1="41.4" y1="47.9" x2="37.7" y2="51"/>
		<line class="st3" x1="41.4" y1="47.9" x2="40.1" y2="44.4"/>
	</g>
</g>
</svg>
