<svg xmlns="http://www.w3.org/2000/svg" viewBox="0 0 64 62.94"><defs><style>.cls-1,.cls-2{fill:none;stroke:#393d45;stroke-width:2px;}.cls-1,.cls-2,.cls-3{stroke-linecap:round;stroke-linejoin:round;}.cls-1{stroke-dasharray:8 8;}.cls-3{fill:#1062fe;stroke:#1062fe;fill-rule:evenodd;}</style></defs><title>builder</title><g id="Warstwa_2" data-name="Warstwa 2"><g id="Warstwa_1-2" data-name="Warstwa 1"><line class="cls-1" x1="14.88" y1="22.42" x2="1.83" y2="30.02"/><line class="cls-1" x1="63" y1="30.5" x2="43.69" y2="19.25"/><polyline class="cls-1" points="1.83 30.02 1 30.5 32 48.56 63 30.5"/><line class="cls-2" x1="32" y1="48.56" x2="32" y2="61.94"/><polyline class="cls-2" points="63 30.5 63 43.88 32 61.94 1 43.88 1 30.5"/><polygon class="cls-3" points="49.32 9.29 41.9 7.04 41.9 10.81 34.41 14.88 34.44 7.34 37.72 5.41 31.62 0.5 25.52 11.47 29.37 9.55 29.37 16.9 21.36 20.66 21.36 16.89 13.91 26.85 21.37 28.99 21.37 25.17 29.37 21.42 29.37 28.81 25.52 30.72 31.62 35.64 37.72 24.68 34.39 26.62 34.39 19.23 41.9 15.33 41.9 19.16 49.32 9.29"/></g></g></svg>