<svg xmlns="http://www.w3.org/2000/svg" viewBox="0 0 64 63.77"><defs><style>.cls-1,.cls-5{fill:none;stroke:#393d45;}.cls-1,.cls-2,.cls-3,.cls-4,.cls-5{stroke-linecap:round;stroke-linejoin:round;stroke-width:2px;}.cls-1{stroke-dasharray:4 8;}.cls-1,.cls-2,.cls-3,.cls-5{fill-rule:evenodd;}.cls-2{fill:#009aff;stroke:#009aff;}.cls-3,.cls-4{fill:#1062fe;stroke:#1062fe;}</style></defs><title>incoming email filtering</title><g id="Warstwa_2" data-name="Warstwa 2"><g id="Warstwa_1-2" data-name="Warstwa 1"><polygon class="cls-1" points="63 57.14 47.92 48.58 47.92 22.07 30.02 11.22 30.02 1 63 19.71 63 57.14"/><polygon class="cls-2" points="50.95 58.25 47.91 60.38 36.29 49.87 36.29 23.36 18.92 12.52 14.93 3.88 18.92 2.29 50.95 21.09 50.95 58.25"/><polygon class="cls-3" points="47.91 60.38 34 52.17 34 25.02 14.93 14.1 14.93 3.88 47.91 22.95 47.91 60.38"/><polygon class="cls-4" points="21.41 30.96 18.48 32.67 15.55 27.54 15.55 26.74 21.41 30.17 21.41 30.96"/><polygon class="cls-4" points="19.35 30.13 18.36 29.64 18.36 21.66 19.35 22.15 19.35 30.13"/><path id="Kształt_3" data-name="Kształt 3" class="cls-5" d="M34,62.77,1,43.9V6.1L34,25.34ZM1,12.17,17.5,42,33.81,31.59M23.9,37.9l9.91,17.89M1,36.84l10.1-6.43"/></g></g></svg>