<?xml version="1.0" encoding="utf-8"?>
<!-- Generator: Adobe Illustrator 22.1.0, SVG Export Plug-In . SVG Version: 6.00 Build 0)  -->
<svg version="1.1" id="Warstwa_1" xmlns="http://www.w3.org/2000/svg" xmlns:xlink="http://www.w3.org/1999/xlink" x="0px" y="0px"
	 width="64px" height="64px" viewBox="0 0 64 64" style="enable-background:new 0 0 64 64;" xml:space="preserve">
<style type="text/css">
	.st0{fill:none;stroke:#393D45;stroke-width:2;stroke-linecap:round;stroke-linejoin:round;}
	.st1{fill:none;stroke:#1062FE;stroke-width:2;stroke-linecap:round;stroke-linejoin:round;}
</style>
<line class="st0" x1="14" y1="45.8" x2="20" y2="49.2"/>
<polygon class="st0" points="5,20 5,51 26,63 59,44 59,13 38,1 "/>
<polyline class="st1" points="30.6,12.6 25.1,15.7 29.3,18.1 34.7,14.9 38.9,17.3 33.4,20.4 "/>
<line class="st1" x1="25.8" y1="13" x2="27.7" y2="14"/>
<line class="st1" x1="36.3" y1="19" x2="38.2" y2="20"/>
<polyline class="st0" points="13.3,15.5 34,27.4 34,58 "/>
<polyline class="st0" points="30.2,5.7 51,17.6 51,48 "/>
<line class="st0" x1="5.2" y1="30.4" x2="11" y2="33.8"/>
<polyline class="st0" points="5.3,20.2 26,32 58.8,13.1 "/>
<line class="st0" x1="26" y1="32.3" x2="26" y2="62"/>
</svg>
