<?xml version="1.0" encoding="utf-8"?>
<!-- Generator: Adobe Illustrator 22.1.0, SVG Export Plug-In . SVG Version: 6.00 Build 0)  -->
<svg version="1.1" id="Warstwa_1" xmlns="http://www.w3.org/2000/svg" xmlns:xlink="http://www.w3.org/1999/xlink" x="0px" y="0px"
	 width="64px" height="64px" viewBox="0 0 64 64" style="enable-background:new 0 0 64 64;" xml:space="preserve">
<style type="text/css">
	.st0{fill:#009AFF;stroke:#009AFF;stroke-width:2;stroke-linecap:round;stroke-linejoin:round;}
	.st1{fill:#1062FE;stroke:#1062FE;stroke-width:2;stroke-linecap:round;stroke-linejoin:round;}
	.st2{fill:none;stroke:#393D45;stroke-width:2;stroke-linecap:round;stroke-linejoin:round;}
</style>
<polygon class="st0" points="50,36.4 46,34.1 42,36.4 35.8,32.9 33,34.5 28.2,31.7 21,35.9 49,57.8 59,52 "/>
<polygon class="st1" points="36,44.5 21,35.9 21,47.4 36,56.1 36,60.7 40,63 49,57.8 40,42.2 36,39.9 "/>
<polyline class="st2" points="42.7,16.8 33,22.4 33,33.4 "/>
<polyline class="st2" points="32.8,22.3 18,13.7 18,9.1 14.2,6.9 "/>
<line class="st2" x1="27.7" y1="8.1" x2="18.3" y2="13.5"/>
<line class="st2" x1="18.3" y1="8.9" x2="27.7" y2="3.5"/>
<polygon class="st2" points="33,33.9 43,28.1 43,16.6 28,7.9 28,3.3 24,1 5,12 14,27.6 18,29.9 18,25.2 "/>
<line class="st2" x1="18.1" y1="29.9" x2="21.8" y2="27.7"/>
</svg>
