<svg xmlns="http://www.w3.org/2000/svg" viewBox="0 0 63.82 64"><defs><style>.cls-1,.cls-4{fill:none;}.cls-1{stroke:#393d45;}.cls-1,.cls-2,.cls-3,.cls-4{stroke-linecap:round;stroke-linejoin:round;stroke-width:2px;}.cls-2{fill:#009aff;stroke:#009aff;}.cls-3{fill:#1062fe;stroke:#1062fe;}.cls-4{stroke:#fff;}</style></defs><title>unlimited files and databases</title><g id="Warstwa_2" data-name="Warstwa 2"><g id="Warstwa_1-2" data-name="Warstwa 1"><path id="Kształt_6" data-name="Kształt 6" class="cls-1" d="M7.15,11.1a16.33,16.33,0,0,1,1-2.89C8.92,6.7,11,7,12.88,8.09L21.6,13a7.67,7.67,0,0,1,2.59,2.75,4,4,0,0,1,.31.74L25.74,20a4.62,4.62,0,0,0,1.66,1.87l16,9.27c6.57,3.39,4.45,8,4.23,8.66L40.83,60.77a2.29,2.29,0,0,1-1,1.43"/><polygon class="cls-2" points="24.33 1 20.94 2.3 59.82 55.29 62.81 53.39 62.82 18.39 24.33 1"/><path class="cls-3" d="M20.94,2.3V24.82l8.44,4.94S36.17,33.27,38,35s3,5.47,3,5.47v5.84l18.81,9V19.82Z"/><path id="Kształt_6-2" data-name="Kształt 6" class="cls-1" d="M36.26,62.43,4.78,44.16C2.34,42.75,1,39.46,1,36.58l0-23.1C1,10.59,3.26,9.3,5.7,10.71l8.56,5a7.76,7.76,0,0,1,2.8,3.13l1.38,4a4.62,4.62,0,0,0,1.68,1.88L36.26,34a10.5,10.5,0,0,1,4.62,8L40.8,59.64C40.8,62.53,38.7,63.84,36.26,62.43Z"/><line class="cls-4" x1="51" y1="24.65" x2="28.31" y2="14.42"/><line class="cls-4" x1="51" y1="30.2" x2="28.31" y2="19.97"/><line class="cls-4" x1="51" y1="35.7" x2="28.31" y2="25.47"/></g></g></svg>