<?xml version="1.0" encoding="utf-8"?>
<!-- Generator: Adobe Illustrator 23.0.6, SVG Export Plug-In . SVG Version: 6.00 Build 0)  -->
<svg version="1.1" id="Warstwa_1" xmlns="http://www.w3.org/2000/svg" xmlns:xlink="http://www.w3.org/1999/xlink" x="0px" y="0px"
	 viewBox="0 0 64 64" style="enable-background:new 0 0 64 64;" xml:space="preserve">
<style type="text/css">
	.st0{fill:none;stroke:#393D45;stroke-width:2;stroke-linecap:round;stroke-linejoin:round;stroke-dasharray:7.96,9.94;}
	.st1{fill:none;stroke:#393D45;stroke-width:2;stroke-linecap:round;stroke-linejoin:round;}
	.st2{fill:#1062FE;stroke:#1062FE;stroke-width:2;stroke-linecap:round;stroke-linejoin:round;}
	.st3{fill:#009AFF;stroke:#009AFF;stroke-width:2;stroke-linecap:round;stroke-linejoin:round;}
</style>
<title>vps-hosting</title>
<g>
	<g id="Products">
		<polyline class="st0" points="62,41.2 62,18.8 31.4,1 2,18.8 2,45.7 		"/>
		<polyline class="st1" points="1.8,46 31.4,63 62.2,45.2 		"/>
		<polygon class="st2" points="21.8,21.5 21.8,30 31.8,35.7 41.8,30 41.8,21.5 		"/>
		<polygon class="st3" points="31.9,27.1 21.9,21.4 31.9,15.6 41.9,21.4 		"/>
		<polygon class="st2" points="5.8,31 5.8,40 15.8,45.7 25.8,40 25.8,31 		"/>
		<polygon class="st3" points="15.8,36.7 5.8,30.9 15.8,25.2 25.8,30.9 		"/>
		<polygon class="st2" points="37.8,31 37.8,40 47.8,45.7 57.8,40 57.8,31 		"/>
		<polygon class="st3" points="47.9,36.7 37.9,30.9 47.9,25.2 57.9,30.9 		"/>
		<polygon class="st2" points="21.8,40 21.8,49.4 32.3,55.5 42.8,49.4 42.8,40 		"/>
		<polygon class="st3" points="32,46.4 21.5,40.3 32,34.3 42.5,40.3 		"/>
	</g>
</g>
</svg>
