<svg xmlns="http://www.w3.org/2000/svg" viewBox="0 0 63.31 63.5"><defs><style>.cls-1,.cls-2,.cls-5{fill:none;}.cls-1,.cls-2{stroke:#393d45;}.cls-1,.cls-2,.cls-3,.cls-4,.cls-5{stroke-linecap:round;stroke-linejoin:round;stroke-width:2px;}.cls-2{stroke-dasharray:4 8;}.cls-3{fill:#009aff;stroke:#009aff;}.cls-4{fill:#1062fe;stroke:#1062fe;}.cls-5{stroke:#fff;}</style></defs><title>forms</title><g id="Warstwa_2" data-name="Warstwa 2"><g id="Warstwa_1-2" data-name="Warstwa 1"><line class="cls-1" x1="24.81" y1="41.63" x2="37.75" y2="34.55"/><line class="cls-1" x1="20.39" y1="44.04" x2="21.61" y2="43.37"/><line class="cls-1" x1="24.79" y1="35.83" x2="37.75" y2="28.72"/><line class="cls-1" x1="20.39" y1="38.24" x2="21.6" y2="37.57"/><line class="cls-1" x1="24.79" y1="29.89" x2="37.75" y2="22.79"/><line class="cls-1" x1="20.39" y1="32.3" x2="21.6" y2="31.64"/><path class="cls-1" d="M41.61,12.91l0,.09V40.08a6.71,6.71,0,0,1-2.91,5.4l-22,12.34c-1.61.91-3.06-.15-3.06-2.23v-35a7,7,0,0,1,3.06-5.48L32.16,6.48,33,6a.09.09,0,0,1,.12,0Z"/><path class="cls-2" d="M13.65,46.75l-5,2.78C3.58,52.78,1,50.42,1,48.37V15.72c0-2.05-.07-3.91,1.49-4.8L10,6.46,19.53,1s0,0,0,0l9.12,6.73"/><path class="cls-3" d="M62.27,16.17,60.66,42.25a6.94,6.94,0,0,1-2.89,5.54L40.36,61.14a23.44,23.44,0,0,1-2.54,1.36,19.2,19.2,0,0,1-4.57-1.67c-.54-.26-1.94-.91-1.94-1.85l.08-36.73c0-2.13,2.84-4.77,4.44-5.69L50.94,8.33l1.28-.68s0,0,0,0l2.27,1.12,6,5.7S62.27,16.13,62.27,16.17Z"/><path class="cls-4" d="M62.27,16.17l0,28.45c0,2.1.23,4.06-1.65,5.29L39,62.12a2.36,2.36,0,0,1-3.72-1.94V24.79a7.35,7.35,0,0,1,3.35-5.44L53.1,11l1.14-.64s0,0,0,0l8.07,5.13S62.27,16.13,62.27,16.17Z"/><path class="cls-3" d="M62.31,15.5,57.8,20.35c-1.74.41-3.58-1.14-3.57-2.28V8.66Z"/><line class="cls-5" x1="44.5" y1="45.7" x2="57.43" y2="38.61"/><line class="cls-5" x1="40.08" y1="48.1" x2="41.29" y2="47.44"/><line class="cls-5" x1="44.47" y1="39.89" x2="57.43" y2="32.79"/><line class="cls-5" x1="39.81" y1="42.67" x2="41.07" y2="41.99"/><line class="cls-5" x1="44.37" y1="34.02" x2="57.8" y2="26.66"/><line class="cls-5" x1="39.81" y1="36.52" x2="41.07" y2="35.83"/></g></g></svg>