<?xml version="1.0" encoding="utf-8"?>
<!-- Generator: Adobe Illustrator 22.1.0, SVG Export Plug-In . SVG Version: 6.00 Build 0)  -->
<svg version="1.1" id="Warstwa_1" xmlns="http://www.w3.org/2000/svg" xmlns:xlink="http://www.w3.org/1999/xlink" x="0px" y="0px"
	 width="64px" height="64px" viewBox="0 0 64 64" style="enable-background:new 0 0 64 64;" xml:space="preserve">
<style type="text/css">
	.st0{fill:none;stroke:#393D45;stroke-width:2;stroke-linecap:round;stroke-linejoin:round;}
	.st1{fill:#1062FE;stroke:#1062FE;stroke-width:2;stroke-linecap:round;stroke-linejoin:round;}
	.st2{fill:none;stroke:#1062FE;stroke-width:2;stroke-linecap:round;stroke-linejoin:round;}
</style>
<path class="st0" d="M42.5,50.4L47,53V37.7c0-0.7,0.2-1.6,0.7-2.5c0.5-0.8,1.1-1.5,1.8-1.9c0.6-0.4,1.3-0.5,1.8-0.2S52,34,52,34.7
	V44v9.7c0,1.5-0.5,3.2-1.5,4.9s-2.3,3-3.5,3.7c-1.3,0.7-2.6,0.9-3.5,0.4c-1-0.6-1.5-1.8-1.5-3.2V18.3L12,1v41.2
	c0,1.5,0.5,2.7,1.5,3.2l30,17.3"/>
<line class="st0" x1="51.3" y1="33.1" x2="42.5" y2="28"/>
<polygon class="st1" points="37,29.5 17,18 17,9.9 37,21.4 "/>
<line class="st2" x1="37" y1="35.5" x2="17" y2="24"/>
<line class="st2" x1="31" y1="38.1" x2="17" y2="30"/>
</svg>
