<svg xmlns="http://www.w3.org/2000/svg" viewBox="0 0 63.31 63.5"><defs><style>.cls-1,.cls-2,.cls-5{fill:none;}.cls-1,.cls-2{stroke:#393d45;}.cls-1,.cls-2,.cls-3,.cls-4,.cls-5{stroke-linecap:round;stroke-linejoin:round;stroke-width:2px;}.cls-2{stroke-dasharray:4 8;}.cls-3{fill:#009aff;stroke:#009aff;}.cls-4{fill:#1062fe;stroke:#1062fe;}.cls-5{stroke:#fff;}</style></defs><title>file change monitoring</title><g id="Warstwa_2" data-name="Warstwa 2"><g id="Warstwa_1-2" data-name="Warstwa 1"><path class="cls-1" d="M41.83,13.36V40A6.6,6.6,0,0,1,39,45.26L17.31,57.39c-1.58.89-3-.15-3-2.19V20.81a6.88,6.88,0,0,1,3-5.39L32.5,6.91l.78-.44a.13.13,0,0,1,.12,0l8.39,6.77A.13.13,0,0,1,41.83,13.36Z"/><path class="cls-2" d="M14.68,46l-6,3.58C3.58,52.78,1,50.42,1,48.37V15.72c0-2.05-.07-3.91,1.49-4.8L10,6.46,19.53,1s0,0,0,0l10,7.39"/><path class="cls-3" d="M62.27,16.17,60.66,42.25a6.94,6.94,0,0,1-2.89,5.54L40.36,61.14a23.44,23.44,0,0,1-2.54,1.36,19.2,19.2,0,0,1-4.57-1.67c-.54-.26-1.94-.91-1.94-1.85l.08-36.73c0-2.13,2.84-4.77,4.44-5.69L50.94,8.33l1.28-.68s0,0,0,0l2.27,1.12,6,5.7S62.27,16.13,62.27,16.17Z"/><path class="cls-4" d="M62.27,16.17l0,28.45c0,2.1.23,4.06-1.65,5.29L39,62.12a2.36,2.36,0,0,1-3.72-1.94V24.79a7.35,7.35,0,0,1,3.35-5.44L53.1,11l1.14-.64s0,0,0,0l8.07,5.13S62.27,16.13,62.27,16.17Z"/><path class="cls-3" d="M62.31,15.5,57.8,20.35c-1.74.41-3.58-1.14-3.57-2.28V8.66Z"/><line class="cls-5" x1="42.02" y1="49.69" x2="59.3" y2="40.23"/><line class="cls-5" x1="42.02" y1="43.78" x2="59.3" y2="34.38"/><line class="cls-5" x1="42.02" y1="38.04" x2="59.3" y2="28.61"/></g></g></svg>