<svg xmlns="http://www.w3.org/2000/svg" viewBox="0 0 63.94 63.88"><defs><style>.cls-1,.cls-4{fill:none;stroke:#393d45;}.cls-1,.cls-2,.cls-3,.cls-4{stroke-linecap:round;stroke-linejoin:round;stroke-width:2px;}.cls-1{stroke-dasharray:4 8;}.cls-2{fill:#009aff;stroke:#009aff;}.cls-3{fill:#1062fe;stroke:#1062fe;}</style></defs><title>outgoing email filtering</title><g id="Warstwa_2" data-name="Warstwa 2"><g id="Warstwa_1-2" data-name="Warstwa 1"><polygon class="cls-1" points="43.7 62.88 1 62.88 1 26.04 12.74 26.04 12.74 48.52 43.7 48.52 43.7 62.88"/><polygon class="cls-2" points="49.7 52.92 7.89 52.92 7.89 16.37 10.85 14 18.8 16.84 18.8 37.27 52.62 37.46 53.86 50.08 49.7 52.92"/><polygon class="cls-3" points="44.98 8.33 41.47 5.23 37.98 8.33 37.98 9.04 44.98 9.04 44.98 8.33"/><polygon class="cls-3" points="41.98 8.04 40.98 8.05 40.98 14.04 41.98 14.05 41.98 8.04"/><polygon class="cls-3" points="53.86 50.08 10.85 50.08 10.85 14 18.8 14.18 18.8 37.27 53.86 37.53 53.86 50.08"/><rect class="cls-4" x="18.87" y="1" width="44.06" height="35.96"/><polyline class="cls-4" points="19.36 6.48 41.04 26.41 62.74 6.46"/><line class="cls-4" x1="49.34" y1="18.77" x2="62.71" y2="31.09"/><line class="cls-4" x1="19.36" y1="31.07" x2="32.73" y2="18.77"/></g></g></svg>