<?xml version="1.0" encoding="utf-8"?>
<!-- Generator: Adobe Illustrator 23.0.6, SVG Export Plug-In . SVG Version: 6.00 Build 0)  -->
<svg version="1.1" id="Warstwa_1" xmlns="http://www.w3.org/2000/svg" xmlns:xlink="http://www.w3.org/1999/xlink" x="0px" y="0px"
	 viewBox="0 0 64 64" style="enable-background:new 0 0 64 64;" xml:space="preserve">
<style type="text/css">
	.st0{fill:none;stroke:#393D45;stroke-width:2;stroke-linecap:round;stroke-linejoin:round;stroke-dasharray:8,10;}
	.st1{fill:none;stroke:#393D45;stroke-width:2;stroke-linecap:round;stroke-linejoin:round;}
	
		.st2{fill-rule:evenodd;clip-rule:evenodd;fill:#1062FE;stroke:#1062FE;stroke-width:2;stroke-linecap:round;stroke-linejoin:round;}
	
		.st3{fill-rule:evenodd;clip-rule:evenodd;fill:#009AFF;stroke:#009AFF;stroke-width:2;stroke-linecap:round;stroke-linejoin:round;}
</style>
<title>cloud-hosting</title>
<g>
	<g id="Products">
		<polyline class="st0" points="63,41.6 63,19.1 32,1.2 1,19.1 1,46.1 		"/>
		<polyline class="st1" points="63,44.9 32,27 1,44.9 		"/>
		<polyline class="st1" points="1,44.9 32,62.8 63,44.9 		"/>
		<path id="Kształt_1" class="st2" d="M40.2,25.8l-0.4-0.3c-5.3-3-14-3-19.4,0.1c-3.7,2.1-5,5.3-3.4,8.1c-1.3,0.1-4.6-1.2-5.8-0.6
			c-0.2,1.9,0,3.5-0.1,4.6c0.1,0.6,0.3,1.2,0.7,1.7c0.3,0.5,0,2.9,0.1,3.8c0,1.5,1,2.9,2.9,4c3.9,2.3,10.3,2.2,14.2-0.1l23.3-13.5
			c1.6-0.7,2.6-2.3,2.8-4c0.1-1.3,0-2.5,0-4.7C51.8,23.2,43.8,24.2,40.2,25.8z"/>
		<path id="Kształt_1-2" class="st3" d="M40.2,21.1l-0.4-0.2c-5.3-3.1-14-3-19.4,0.1c-3.7,2.1-5,5.3-3.4,8.1
			c-1.3,0.1-2.6,0.5-3.7,1.2c-2.8,1.6-2.9,4.1-0.4,5.7c-1.8,2.2-1.1,4.8,1.9,6.6c3.9,2.2,10.3,2.2,14.2-0.1L52.4,29
			c3.6-2.1,3.7-5.5,0.1-7.6C49.1,19.5,43.8,19.4,40.2,21.1z"/>
	</g>
</g>
</svg>
