<svg xmlns="http://www.w3.org/2000/svg" viewBox="0 0 64 64"><defs><style>.cls-1,.cls-2{fill:none;stroke:#393d45;}.cls-1,.cls-2,.cls-3,.cls-4{stroke-linecap:round;stroke-linejoin:round;stroke-width:2px;}.cls-2{stroke-dasharray:4 8;}.cls-3{fill:#009aff;stroke:#009aff;}.cls-4{fill:#1062fe;stroke:#1062fe;}</style></defs><title>website time maschine</title><g id="Warstwa_2" data-name="Warstwa 2"><g id="Warstwa_1-2" data-name="Warstwa 1"><polyline class="cls-1" points="24.77 47.66 47 61.21 47 25.44 17 7.27 17 26"/><path class="cls-2" d="M47.82,45.73,63,54.58V20.52a2.64,2.64,0,0,0-1.32-2.29L32.14,1V16.39"/><path id="Kształt_1" data-name="Kształt 1" class="cls-3" d="M20.06,39.58l9.42-5.43c1.32-.76,1.32-3.27,0-5.56l-24-14c-.66.28-4,1.14-3.91,2.26,0,1,3.3,2.25,3.91,3.31l9.42,16.41L5.5,42c-1.32.76-1.32,3.26,0,5.56L26,63l3.5-1.44c1.32-.76,1.32-3.26,0-5.56Z"/><path id="Kształt_1-2" data-name="Kształt 1" class="cls-4" d="M16.55,41,26,35.59c1.32-.77,1.32-3.27,0-5.57L2,16C.67,16.8.67,19.31,2,21.6L11.41,38,2,43.46C.67,44.22.67,46.72,2,49L26,63c1.32-.76,1.32-3.26,0-5.56Z"/></g></g></svg>