<?xml version="1.0" encoding="utf-8"?>
<!-- Generator: Adobe Illustrator 23.0.6, SVG Export Plug-In . SVG Version: 6.00 Build 0)  -->
<svg version="1.1" id="Warstwa_1" xmlns="http://www.w3.org/2000/svg" xmlns:xlink="http://www.w3.org/1999/xlink" x="0px" y="0px"
	 viewBox="0 0 64 64" style="enable-background:new 0 0 64 64;" xml:space="preserve">
<style type="text/css">
	.st0{fill:none;stroke:#393D45;stroke-width:2;stroke-linecap:round;stroke-linejoin:round;}
	.st1{fill:none;stroke:#393D45;stroke-width:2;stroke-linecap:round;stroke-linejoin:round;stroke-dasharray:6.84,8.56;}
	.st2{fill:#1062FE;stroke:#1062FE;stroke-width:2;stroke-linecap:round;stroke-linejoin:round;}
	.st3{fill:none;stroke:#009AFF;stroke-width:2;stroke-linecap:round;stroke-linejoin:round;}
</style>
<title>website-builder</title>
<g>
	<g id="Products">
		<polyline class="st0" points="35,42.9 35,38.7 38.6,36.6 		"/>
		<line class="st1" x1="46" y1="32.3" x2="55.6" y2="26.7"/>
		<polyline class="st0" points="59.3,24.6 63,22.5 63,26.7 		"/>
		<polyline class="st0" points="63,40.7 63,44.9 59.3,47 		"/>
		<line class="st1" x1="51.9" y1="51.3" x2="42.3" y2="56.8"/>
		<polyline class="st0" points="38.6,59 35,61.1 35,56.9 		"/>
		<polygon class="st2" points="29,61.1 1,44.9 1,22.5 29,38.7 		"/>
		<polygon class="st0" points="59.7,18.7 32,2.9 4.4,18.8 32,34.7 59.7,18.8 		"/>
		<polyline class="st3" points="44.3,22.3 50.7,18.6 50.7,18.5 44.4,14.9 		"/>
		<polyline class="st3" points="18.9,22.3 12.5,18.6 12.5,18.5 18.9,14.9 		"/>
	</g>
</g>
</svg>
