<?xml version="1.0" encoding="utf-8"?>
<!-- Generator: Adobe Illustrator 23.0.6, SVG Export Plug-In . SVG Version: 6.00 Build 0)  -->
<svg version="1.1" id="Warstwa_1" xmlns="http://www.w3.org/2000/svg" xmlns:xlink="http://www.w3.org/1999/xlink" x="0px" y="0px"
	 viewBox="0 0 64 64" style="enable-background:new 0 0 64 64;" xml:space="preserve">
<style type="text/css">
	.st0{fill:#009AFF;stroke:#009AFF;stroke-width:2;stroke-linecap:round;stroke-linejoin:round;}
	.st1{fill:none;stroke:#393D45;stroke-width:2;stroke-linecap:round;stroke-linejoin:round;stroke-dasharray:7.96,9.94;}
	.st2{clip-path:url(#SVGID_2_);}
	.st3{fill:#1062FE;stroke:#1062FE;stroke-width:2.22;stroke-linecap:round;stroke-linejoin:round;}
	.st4{fill:none;stroke:#FFFFFF;stroke-width:2;stroke-linecap:round;stroke-linejoin:round;}
	.st5{fill:none;stroke:#FFFFFF;stroke-width:2;stroke-linecap:round;stroke-miterlimit:10;}
</style>
<title>web-hosting</title>
<polygon class="st0" points="31.9,27.1 1,44.9 63,44.9 "/>
<polygon class="st0" points="31.9,62.8 62.8,44.9 1,44.9 "/>
<polyline class="st1" points="63,41.4 63,19 32.2,1.2 1.3,19 1.4,45.9 "/>
<g>
	<defs>
		<path id="SVGID_1_" d="M45.2,44.1c-7,7-18.4,7-25.5,0s-7-18.4,0-25.5s18.4-7,25.5,0c3.4,3.4,5.3,8,5.3,12.7
			C50.5,36.1,48.6,40.7,45.2,44.1z"/>
	</defs>
	<clipPath id="SVGID_2_">
		<use xlink:href="#SVGID_1_"  style="overflow:visible;"/>
	</clipPath>
	<g class="st2">
		<path class="st3" d="M45.2,44.1c-7,7-18.4,7-25.5,0s-7-18.4,0-25.5s18.4-7,25.5,0c3.4,3.4,5.3,8,5.3,12.7
			C50.5,36.1,48.6,40.7,45.2,44.1z"/>
		<path class="st4" d="M32.5,20.2c-1.9,0-3.8-0.4-5.5-1.3c-1.3-0.6-2.1-1.8-2.3-3.2c0.1-1.4,1-2.6,2.3-3.2c1.7-0.9,3.6-1.3,5.5-1.3
			c1.9,0,3.8,0.4,5.5,1.3c1.3,0.6,2.1,1.8,2.3,3.2c-0.1,1.4-1,2.6-2.3,3.2C36.2,19.8,34.4,20.2,32.5,20.2z"/>
		<path class="st4" d="M53,29.6c0,3.2-2.5,6.2-6.2,8.3c-4.4,2.4-9.4,3.5-14.4,3.4c-5,0.1-9.9-1.1-14.4-3.4c-3.7-2.1-6.2-5.2-6.2-8.4
			"/>
		<path class="st4" d="M51.2,38.3c0,3-2.3,5.7-5.7,7.6c-4.1,2.2-8.6,3.3-13.2,3.2c-4.6,0.1-9.1-1-13.2-3.2c-3.4-2-5.7-4.7-5.7-7.7"
			/>
		<path class="st4" d="M50.2,20.6c0,2.8-2,5.4-5.2,7.3c-3.9,2.1-8.2,3.1-12.6,3c-4.4,0.1-8.7-0.9-12.6-3c-3.2-1.9-5.2-4.4-5.2-7.3"
			/>
		<path class="st5" d="M39.8,18.4c0.1,0,0.9,0.7,1,0.7c5.2,4.6,9.9,22.2-3.8,30.1c-1.1,0.7-2.2,1.3-3.4,1.9"/>
		<path class="st5" d="M25.7,18.6l-1.3,1.2c-5.1,4.8-9.5,22,3.8,29.8c0.9,0.5,1.8,1,2.8,1.5"/>
		<line class="st4" x1="33" y1="20.6" x2="33" y2="51.1"/>
	</g>
</g>
</svg>
