<?xml version="1.0" encoding="utf-8"?>
<!-- Generator: Adobe Illustrator 23.0.6, SVG Export Plug-In . SVG Version: 6.00 Build 0)  -->
<svg version="1.1" id="Warstwa_1" xmlns="http://www.w3.org/2000/svg" xmlns:xlink="http://www.w3.org/1999/xlink" x="0px" y="0px"
	 viewBox="0 0 64 64" style="enable-background:new 0 0 64 64;" xml:space="preserve">
<style type="text/css">
	.st0{fill:none;stroke:#393D45;stroke-width:2;stroke-linecap:round;stroke-linejoin:round;}
	.st1{fill:none;stroke:#393D45;stroke-width:2;stroke-linecap:round;stroke-linejoin:round;stroke-dasharray:7.94,9.92;}
	
		.st2{fill-rule:evenodd;clip-rule:evenodd;fill:#1062FE;stroke:#1062FE;stroke-width:2;stroke-linecap:round;stroke-linejoin:round;}
	
		.st3{fill-rule:evenodd;clip-rule:evenodd;fill:#009AFF;stroke:#009AFF;stroke-width:2;stroke-linecap:round;stroke-linejoin:round;}
	.st4{fill-rule:evenodd;clip-rule:evenodd;fill:#FFFFFF;}
</style>
<title>game-server</title>
<path class="st0" d="M1.2,35.6c-0.1,0.4-0.1,9.7,0,10.1c1,6,17.6,15.5,17.6,15.5c3,1.9,6.8,2,10,0.3c4-2.3-1.4-8.8,2.6-11.1l5.2-3
	l5.2-3c4-2.3,15.3,0.9,19.4-1.5c1.4-0.8,1.9-1.5,1.9-2.4c0-0.4,0.2-9.2,0-10.1"/>
<polyline class="st1" points="62.8,23 62.8,19.1 32.1,1.3 1.4,19.1 1.4,31 "/>
<path class="st2" d="M63.1,28.9c0,0-26.7-10.6-35.2-5.8l0,0c-4,2.3-5.4,4.3-7.3,5.4l-4.2,2.4l-4.2,2.4c-1.9,1.1-11.1,0.2-11.1,0.2
	s0,5.6,0,6.6C1,45.9,18.8,56.1,18.8,56.1c3,1.9,6.8,2,10,0.3c4-2.3-1.4-8.8,2.6-11.1l5.1-3l5.2-3c4-2.3,15.3,0.9,19.4-1.5
	c1.4-0.8,2.1-1.7,2.1-2.6L63.1,28.9z"/>
<path class="st3" d="M60.5,26c0,0-24.1-13.8-32.5-9l0,0c-4,2.3-5.4,4.3-7.3,5.4l-4.2,2.4l-4.2,2.4c-1.9,1.1-5.4,1.9-9.4,4.2
	c-8.4,4.8,15.8,18.6,15.8,18.6c3,1.9,6.8,2,10,0.3c4-2.3-1.4-8.8,2.6-11.1l5.2-3l5.2-3c4-2.3,15.3,0.9,19.4-1.5
	C64,29.9,63.8,27.9,60.5,26z"/>
<path class="st4" d="M31.5,26.1c-0.5,0.2-0.8,0.7-0.6,1.2c0.1,0.3,0.3,0.5,0.6,0.6c1,0.5,2.1,0.5,3.1,0c0.5-0.2,0.8-0.7,0.6-1.2
	c0,0,0,0,0,0c-0.1-0.3-0.3-0.5-0.6-0.6C33.6,25.6,32.5,25.6,31.5,26.1L31.5,26.1z"/>
<path class="st4" d="M36.7,22.6c-0.5,0.2-0.7,0.7-0.6,1.2c0.1,0.3,0.3,0.5,0.6,0.6c1,0.5,2.1,0.5,3.1,0c0.5-0.2,0.7-0.7,0.6-1.2
	c-0.1-0.3-0.3-0.5-0.6-0.6C38.8,22.1,37.7,22.1,36.7,22.6z"/>
<path class="st4" d="M30.5,22.5c-0.5,0.2-0.7,0.7-0.6,1.2c0.1,0.3,0.3,0.5,0.6,0.6c1,0.5,2.1,0.5,3.1,0c0.5-0.2,0.8-0.7,0.6-1.2
	c-0.1-0.3-0.3-0.5-0.6-0.6C32.6,22,31.5,22,30.5,22.5L30.5,22.5z"/>
<path class="st4" d="M37.7,26.2c-0.5,0.2-0.7,0.7-0.6,1.2c0.1,0.3,0.3,0.5,0.6,0.6c1,0.5,2.1,0.5,3.1,0c0.5-0.2,0.7-0.7,0.6-1.2
	c-0.1-0.3-0.3-0.5-0.6-0.6C39.8,25.7,38.7,25.7,37.7,26.2z"/>
<polygon class="st4" points="12.2,33.6 14.8,32.1 17.3,33.6 14.8,35.1 "/>
<polygon class="st4" points="19,33.6 21.6,32.1 24.2,33.6 21.6,35.1 "/>
<polygon class="st4" points="12.2,37.5 14.8,36.1 17.3,37.5 14.8,39 "/>
<polygon class="st4" points="18.9,37.5 21.5,36 24,37.5 21.5,39 "/>
</svg>
