<?xml version="1.0" encoding="utf-8"?>
<!-- Generator: Adobe Illustrator 22.1.0, SVG Export Plug-In . SVG Version: 6.00 Build 0)  -->
<svg version="1.1" id="Warstwa_1" xmlns="http://www.w3.org/2000/svg" xmlns:xlink="http://www.w3.org/1999/xlink" x="0px" y="0px"
	 width="64px" height="64px" viewBox="0 0 64 64" style="enable-background:new 0 0 64 64;" xml:space="preserve">
<style type="text/css">
	.st0{fill:none;stroke:#393D45;stroke-width:2;stroke-linecap:round;stroke-linejoin:round;}
	.st1{fill:none;stroke:#1062FE;stroke-width:2;stroke-linecap:round;stroke-linejoin:round;}
</style>
<polygon class="st0" points="59,47.4 32,63 32,32.2 59,16.6 "/>
<line class="st0" x1="32" y1="11.9" x2="32" y2="15.9"/>
<polyline class="st0" points="28.5,3 32,1 32,5 "/>
<line class="st0" x1="15.6" y1="10.5" x2="21.4" y2="7.1"/>
<polyline class="st0" points="5,20.6 5,16.6 8.5,14.6 "/>
<line class="st0" x1="5" y1="35.3" x2="5" y2="28.7"/>
<polyline class="st0" points="8.5,45.4 5,47.4 5,43.4 "/>
<line class="st0" x1="17.8" y1="40" x2="14.4" y2="42"/>
<polyline class="st0" points="31.9,46.9 18,54.9 18,24.1 45,8.5 45,24.5 "/>
<polygon class="st1" points="48,32.4 48,44.4 53,41.5 53,29.5 "/>
<polyline class="st1" points="42.7,41.4 38,44.1 38,38.1 43,35.2 43,47.2 39,49.5 "/>
</svg>
