<svg xmlns="http://www.w3.org/2000/svg" viewBox="0 0 63.8 63.95"><defs><style>.cls-1{fill:none;stroke:#393d45;}.cls-1,.cls-2,.cls-3{stroke-linecap:round;stroke-linejoin:round;stroke-width:2px;}.cls-2{fill:#009aff;stroke:#009aff;}.cls-2,.cls-3,.cls-4{fill-rule:evenodd;}.cls-3{fill:#1062fe;stroke:#1062fe;}.cls-4{fill:#fff;}</style></defs><title>strongest &amp;amp; fastest SSL</title><g id="Warstwa_2" data-name="Warstwa 2"><g id="Warstwa_1-2" data-name="Warstwa 1"><path class="cls-1" d="M55.83,51.2a31.12,31.12,0,0,1-30.95,11C8.15,58.44-2,41.55,1.81,24.46a32.91,32.91,0,0,1,2.64-7.88"/><path class="cls-1" d="M7.54,12.54A31.12,31.12,0,0,1,62,39.4a33,33,0,0,1-3.07,7.77"/><line class="cls-1" x1="6.3" y1="13.51" x2="14.58" y2="12.85"/><line class="cls-1" x1="6.3" y1="13.51" x2="6.9" y2="5.13"/><line class="cls-1" x1="56.99" y1="50.6" x2="55.64" y2="58.79"/><line class="cls-1" x1="56.99" y1="50.6" x2="48.58" y2="50.5"/><path id="lock" class="cls-2" d="M40.85,18.25c.2-4.71-5.55-6.51-9.88-4s-7.37,8.61-7.47,14L19,30.86V49.18l2.94,1.51L42.08,36.2,44.9,19,42,17.5ZM27.91,25.71c.74-3.32,2-6.73,5.3-8.64s4.22-1.22,4.27,3.13Z"/><path id="lock-2" data-name="lock" class="cls-3" d="M42.28,20.76c-.06-5.54-3.58-8-7.91-5.49s-7.86,9.07-7.91,14.67l-4,2.34V50.56l22.4-13.17L44.9,19ZM28.19,28.84c0-4.4,2.73-9.49,6-11.4s6,.07,6,4.41Z"/><path id="Kształt_4" data-name="Kształt 4" class="cls-4" d="M37.77,29.34h0c-.33-.14-.82.19-1.1.74l-3,6L32.29,35c-.27-.23-.77,0-1.1.52l0,0c-.34.51-.38,1.12-.11,1.35l1.87,1.54h0a.28.28,0,0,0,.12.08h0c.33.14.82-.19,1.1-.74l3.66-7.21C38.14,30,38.1,29.47,37.77,29.34Z"/></g></g></svg>