<?xml version="1.0" encoding="utf-8"?>
<!-- Generator: Adobe Illustrator 23.0.6, SVG Export Plug-In . SVG Version: 6.00 Build 0)  -->
<svg version="1.1" id="Warstwa_1" xmlns="http://www.w3.org/2000/svg" xmlns:xlink="http://www.w3.org/1999/xlink" x="0px" y="0px"
	 viewBox="0 0 64 64" style="enable-background:new 0 0 64 64;" xml:space="preserve">
<style type="text/css">
	.st0{fill:#009AFF;stroke:#009AFF;stroke-width:2.02;stroke-linecap:round;stroke-linejoin:round;}
	.st1{fill:none;stroke:#393D45;stroke-width:2;stroke-linecap:round;stroke-linejoin:round;stroke-dasharray:3.74,5.61;}
	.st2{fill:none;stroke:#393D45;stroke-width:1.97;stroke-linecap:round;stroke-linejoin:round;}
	
		.st3{fill-rule:evenodd;clip-rule:evenodd;fill:#1062FE;stroke:#1062FE;stroke-width:0.5;stroke-linecap:round;stroke-linejoin:round;}
	.st4{fill:none;stroke:#1062FE;stroke-width:2;stroke-linecap:round;stroke-linejoin:round;}
	
		.st5{fill-rule:evenodd;clip-rule:evenodd;fill:#1062FE;stroke:#1062FE;stroke-width:2;stroke-linecap:round;stroke-linejoin:round;}
	.st6{fill-rule:evenodd;clip-rule:evenodd;fill:#FFFFFF;}
</style>
<title>ssl-certificates</title>
<g>
	<g id="Products">
		<polygon class="st0" points="36.4,0.8 1.5,21 1.5,55.4 6,57.8 6,23.6 40.9,3.3 		"/>
		<line class="st1" x1="42.2" y1="3.9" x2="49.8" y2="8.3"/>
		<line class="st1" x1="7.9" y1="24.1" x2="15.5" y2="28.5"/>
		<line class="st1" x1="7.6" y1="58.8" x2="15.2" y2="63.2"/>
		<polygon class="st2" points="49.4,8.5 15.4,28.2 15.4,62.6 49.4,43 		"/>
		<polyline class="st2" points="41.9,3.9 7.5,23.8 7.5,58.2 		"/>
		<path id="Kształt_6" class="st3" d="M21.7,35.6l0.7,2.8c0.1,0.6,0.3,1.2,0.4,1.8l0,0c0.1-0.7,0.3-1.5,0.5-2.2l0.9-3.7l0.8-0.5
			l0.8,2.7c0.2,0.6,0.3,1.2,0.5,1.8l0,0c0.1-0.7,0.2-1.4,0.4-2.3l0.8-3.6l1-0.5L26.6,39l-0.9,0.5L24.9,37c-0.2-0.6-0.3-1.2-0.4-1.8
			l0,0c-0.1,0.8-0.3,1.6-0.5,2.3L23.2,41l-0.9,0.5l-1.6-5.3L21.7,35.6z M29.8,30.9l0.7,2.8c0.1,0.6,0.3,1.2,0.4,1.8l0,0
			c0.1-0.7,0.3-1.5,0.5-2.2l0.9-3.7l0.8-0.5l0.8,2.6c0.2,0.6,0.3,1.2,0.5,1.8l0,0c0.1-0.7,0.2-1.4,0.4-2.3l0.8-3.6l1-0.5l-1.7,7.2
			l-0.9,0.5l-0.8-2.5c-0.2-0.6-0.3-1.2-0.5-1.8l0,0c-0.1,0.8-0.3,1.6-0.5,2.3l-0.9,3.5l-0.9,0.5l-1.6-5.3L29.8,30.9z M38,26.2
			l0.7,2.8c0.2,0.6,0.3,1.2,0.4,1.8l0,0c0.1-0.7,0.3-1.5,0.5-2.2l0.9-3.7l0.8-0.5l0.8,2.6c0.2,0.6,0.3,1.2,0.5,1.8l0,0
			c0.1-0.7,0.2-1.4,0.4-2.3l0.8-3.6l1-0.5L43,29.6l-0.9,0.5l-0.8-2.5c-0.2-0.6-0.4-1.2-0.5-1.8l0,0c-0.1,0.8-0.3,1.6-0.5,2.3
			l-0.9,3.4l-0.9,0.5L37,26.8L38,26.2z"/>
		<path class="st4" d="M50.7,27c-4.2,2.4-7.7,8.8-7.7,14.2"/>
		<path class="st4" d="M58.4,32.3c-0.1-5.4-3.5-7.8-7.7-5.3"/>
		<polygon class="st5" points="40.5,43 40.5,60.7 62.5,48.2 62.5,30.4 		"/>
		<path id="Kształt_4" class="st6" d="M55.8,39.7L55.8,39.7c-0.4-0.2-0.9,0.2-1.2,0.8l-3.3,6.4l-1.4-1.2c-0.3-0.2-0.8,0-1.2,0.6
			l0,0c-0.4,0.6-0.4,1.2-0.1,1.5l2,1.7l0,0l0.1,0.1l0,0c0.4,0.2,0.9-0.2,1.2-0.8l3.9-7.7C56.2,40.4,56.1,39.8,55.8,39.7z"/>
	</g>
</g>
</svg>
