<svg xmlns="http://www.w3.org/2000/svg" viewBox="0 0 64 63.82"><defs><style>.cls-1,.cls-2,.cls-3{fill:none;stroke:#393d45;}.cls-1,.cls-2,.cls-3,.cls-4,.cls-5{stroke-linecap:round;stroke-linejoin:round;stroke-width:2px;}.cls-1{stroke-dasharray:4 8;}.cls-3,.cls-4,.cls-5{fill-rule:evenodd;}.cls-4{fill:#009aff;stroke:#009aff;}.cls-5{fill:#1062fe;stroke:#1062fe;}</style></defs><title>seo</title><g id="Warstwa_2" data-name="Warstwa 2"><g id="Warstwa_1-2" data-name="Warstwa 1"><polyline class="cls-1" points="42 6.01 42 1 1 24.4 1 60.28 6.44 57.14"/><polygon class="cls-2" points="7.95 62.82 48 39.52 48 3.64 7.95 26.95 7.95 62.82"/><path id="Kształt_7" data-name="Kształt 7" class="cls-3" d="M10.43,49.93l8.44-13.82,11.41,2.36,13-25.37"/><path id="Kształt_2" data-name="Kształt 2" class="cls-4" d="M59.84,39.57c0,4.37-10.5,20.76-10.5,20.76S36,57.84,36,53.47c0-4.18,0-18.54,0-18.54L47.85,24.39l11.53-3.24L63,23.05,59.84,39.57Z"/><path id="Kształt_2-2" data-name="Kształt 2" class="cls-5" d="M63,41.6C63,46,50.81,60.51,50.81,60.51s-11.7-1-11.71-5.39c0-4.18,0-18.55,0-18.55L50.8,26.05l12.2-3V41.6Z"/></g></g></svg>