<svg xmlns="http://www.w3.org/2000/svg" viewBox="0 0 64.08 64"><defs><style>.cls-1{fill:#1062fe;stroke:#1062fe;}.cls-1,.cls-10,.cls-2,.cls-3,.cls-4,.cls-5,.cls-6,.cls-7,.cls-8,.cls-9{stroke-linecap:round;stroke-linejoin:round;stroke-width:2px;}.cls-2{fill:#009aff;stroke:#009aff;}.cls-3{fill:#fff;stroke:#fff;fill-rule:evenodd;}.cls-10,.cls-4,.cls-5,.cls-6,.cls-7,.cls-8,.cls-9{fill:none;stroke:#393d45;}.cls-5{stroke-dasharray:7.66 9.58;}.cls-6{stroke-dasharray:7.64 9.55;}.cls-7{stroke-dasharray:6.56 8.19;}.cls-8{stroke-dasharray:7.6 9.5;}.cls-9{stroke-dasharray:7.6 9.5;}.cls-10{stroke-dasharray:6.57 8.21;}</style></defs><title>video</title><g id="Warstwa_2" data-name="Warstwa 2"><g id="Warstwa_1-2" data-name="Warstwa 1"><polygon class="cls-1" points="31.59 46.93 12 35.19 12 30 31.59 23.45 52 30 52 35 31.59 46.93"/><polygon class="cls-2" points="32 42.27 12 30 32 18.73 52 30 32 42.27"/><path id="Kształt_6_kopia" data-name="Kształt 6 kopia" class="cls-3" d="M25.06,30.69l8.79-5.08,2.79,6.78Z"/><polyline class="cls-4" points="63.07 43.32 63.08 47.32 59.51 49.12"/><line class="cls-5" x1="50.96" y1="53.43" x2="39.85" y2="59.04"/><polyline class="cls-4" points="35.57 61.2 32 63 28.43 61.2"/><line class="cls-6" x1="19.91" y1="56.88" x2="8.83" y2="51.28"/><polyline class="cls-4" points="4.57 49.13 1 47.32 1 43.32"/><line class="cls-7" x1="1.01" y1="35.13" x2="1.01" y2="24.47"/><polyline class="cls-4" points="1.01 20.38 1.02 16.38 4.6 14.6"/><line class="cls-8" x1="13.11" y1="10.38" x2="24.16" y2="4.89"/><polyline class="cls-4" points="28.42 2.78 32 1 35.59 2.77"/><line class="cls-9" x1="44.1" y1="6.98" x2="55.16" y2="12.46"/><polyline class="cls-4" points="59.41 14.56 63 16.34 63.01 20.34"/><line class="cls-10" x1="63.03" y1="28.54" x2="63.06" y2="39.22"/></g></g></svg>