<svg xmlns="http://www.w3.org/2000/svg" viewBox="0 0 64.14 63.51"><defs><style>.cls-1,.cls-2{fill:none;stroke:#393d45;}.cls-1,.cls-2,.cls-3,.cls-4{stroke-linecap:round;stroke-linejoin:round;stroke-width:2px;}.cls-1{stroke-dasharray:4 8;}.cls-3{fill:#009aff;stroke:#009aff;}.cls-3,.cls-4{fill-rule:evenodd;}.cls-4{fill:#1062fe;stroke:#1062fe;}</style></defs><title>OWASP protection</title><g id="Warstwa_2" data-name="Warstwa 2"><g id="Warstwa_1-2" data-name="Warstwa 1"><polyline class="cls-1" points="41.14 5.88 41.14 1 1 23.82 1 58.82 6.76 55.76"/><polygon class="cls-2" points="9.14 62.51 49.14 39.16 49.14 3.62 9.14 27.51 9.14 62.51"/><line class="cls-2" x1="48.51" y1="16.68" x2="10.09" y2="38.87"/><path id="Kształt_2" data-name="Kształt 2" class="cls-3" d="M60,39.36c0,4.31-10.39,20.51-10.39,20.51S36.49,57.41,36.48,53.1c0-4.14,0-18.33,0-18.33L48.17,24.35l11.39-3.19L63.14,23,60,39.36Z"/><path id="Kształt_2-2" data-name="Kształt 2" class="cls-4" d="M63.13,41.36c0,4.32-12,18.69-12,18.69s-11.94-1.22-12-5.54c0-4.13,0-18,0-18L51.08,26l12.06-3V41.36Z"/></g></g></svg>