<svg xmlns="http://www.w3.org/2000/svg" viewBox="0 0 63.88 64"><defs><style>.cls-1,.cls-3{fill:none;}.cls-1{stroke:#393d45;}.cls-1,.cls-2,.cls-3{stroke-linecap:round;stroke-linejoin:round;stroke-width:2px;}.cls-2{fill:#1062fe;stroke:#1062fe;}.cls-3{stroke:#fff;}</style></defs><title>email backup</title><g id="Warstwa_2" data-name="Warstwa 2"><g id="Warstwa_1-2" data-name="Warstwa 1"><polyline class="cls-1" points="29.08 63 1 47.46 1 16.09"/><polyline class="cls-1" points="29 32.09 29.08 63 56 47.63 56.14 16.35"/><polygon class="cls-1" points="29.37 32.04 1 16.09 29.34 1 56.14 16.35 29.37 32.04"/><polyline class="cls-1" points="23 5.09 23 20.09 49.75 20.09"/><line class="cls-1" x1="23" y1="13.09" x2="6.63" y2="13.09"/><line class="cls-1" x1="34" y1="20.09" x2="34" y2="29.09"/><circle class="cls-2" cx="48.22" cy="45.2" r="14.65"/><path class="cls-3" d="M51,37.8a8.08,8.08,0,0,1-2.24,15.66"/><line class="cls-3" x1="50.79" y1="37.57" x2="54.73" y2="36.95"/><line class="cls-3" x1="50.79" y1="37.57" x2="51.97" y2="41.33"/><path class="cls-3" d="M45.42,52.6A8.08,8.08,0,0,1,47.67,37"/><line class="cls-3" x1="45.66" y1="52.84" x2="41.72" y2="53.46"/><line class="cls-3" x1="45.66" y1="52.84" x2="44.48" y2="49.08"/></g></g></svg>