<?xml version="1.0" encoding="utf-8"?>
<!-- Generator: Adobe Illustrator 23.0.6, SVG Export Plug-In . SVG Version: 6.00 Build 0)  -->
<svg version="1.1" id="Warstwa_1" xmlns="http://www.w3.org/2000/svg" xmlns:xlink="http://www.w3.org/1999/xlink" x="0px" y="0px"
	 viewBox="0 0 64 64" style="enable-background:new 0 0 64 64;" xml:space="preserve">
<style type="text/css">
	.st0{fill:none;stroke:#393D45;stroke-width:2;stroke-linecap:round;stroke-linejoin:round;stroke-dasharray:8,10;}
	.st1{fill:#1062FE;stroke:#1062FE;stroke-width:2;stroke-linecap:round;stroke-linejoin:round;}
	.st2{fill:#009AFF;stroke:#009AFF;stroke-width:2;stroke-linecap:round;stroke-linejoin:round;}
	.st3{fill:none;stroke:#FFFFFF;stroke-width:2;stroke-linecap:round;stroke-linejoin:round;}
	.st4{fill-rule:evenodd;clip-rule:evenodd;fill:#FFFFFF;}
</style>
<title>dedicated-servers</title>
<polyline class="st0" points="63,23 63,19 32,1.1 1,19 1,28.1 "/>
<polyline class="st1" points="1,32.6 1,45 32,62.9 63,45 63,32.6 "/>
<polygon class="st2" points="31.9,14.6 1,32.5 63,32.4 "/>
<polygon class="st2" points="31.9,50.3 62.8,32.5 1,32.5 "/>
<line class="st3" x1="51.7" y1="46.7" x2="59.8" y2="42.1"/>
<path id="Kształt_1_kopia" class="st4" d="M23.8,31.1c2.7,1.4,5.8,1.4,8.5,0c2.3-1.4,2.3-3.6,0-4.9c-2.7-1.4-5.8-1.4-8.5,0
	C21.4,27.5,21.4,29.7,23.8,31.1z M37,30.1c0.3,1-0.2,2.1-1.5,2.9c-1.5,0.8-3.3,1.1-5,0.9c-2.2,2-3.8,4.6-1.5,5.9l2.7,1.5L50,30.7
	l-2.7-1.5C45.1,27.9,40.5,28.8,37,30.1L37,30.1z"/>
</svg>
