<svg xmlns="http://www.w3.org/2000/svg" viewBox="0 0 64 64"><defs><style>.cls-1,.cls-4{fill:none;stroke:#393d45;}.cls-1,.cls-2,.cls-3,.cls-4{stroke-linecap:round;stroke-linejoin:round;stroke-width:2px;}.cls-2{fill:#1062fe;stroke:#1062fe;}.cls-3{fill:#009aff;stroke:#009aff;}.cls-4{stroke-dasharray:3.84 7.68;}</style></defs><title>daily automatic website backups</title><g id="Warstwa_2" data-name="Warstwa 2"><g id="Warstwa_1-2" data-name="Warstwa 1"><line class="cls-1" x1="19.31" y1="60.42" x2="16.85" y2="52.51"/><line class="cls-1" x1="19.31" y1="60.42" x2="11.01" y2="61.67"/><polygon class="cls-1" points="31.99 50.38 14.29 39.8 31.99 29.21 49.7 39.8 31.99 50.38"/><polygon class="cls-2" points="31.99 43.57 14.29 32.98 31.99 22.4 49.7 32.98 31.99 43.57"/><polygon class="cls-3" points="31.99 35.63 14.34 25.25 31.99 14.45 49.63 25.23 31.99 35.63"/><path class="cls-1" d="M18.66,59.83C8.47,54.73,1,44.08,1,32A31.21,31.21,0,0,1,32.34,1a34.7,34.7,0,0,1,8.45,1.24"/><path class="cls-1" d="M45.33,4.37c.6.29,1.18.61,1.76,1"/><path class="cls-4" d="M53.23,9.91A30.56,30.56,0,0,1,63,32c0,17.1-14.3,31-31.54,31-.92,0-1.89,0-2.87-.12"/><path class="cls-1" d="M24.79,62.36c-.67-.12-1.33-.27-1.95-.44"/><line class="cls-1" x1="44.82" y1="3.99" x2="47.68" y2="11.72"/><line class="cls-1" x1="53.41" y1="3.01" x2="44.82" y2="3.99"/></g></g></svg>