<svg id="Logo" xmlns="http://www.w3.org/2000/svg" viewBox="0 0 227 37"><defs><style>.cls-1{fill:#3ba5ff;}</style></defs><title>1Artboard 1</title><path class="cls-1" d="M216.5,37h-12a2.5,2.5,0,0,1,0-5h12a5.5,5.5,0,0,0,0-11h-6a10.5,10.5,0,0,1,0-21h12a2.5,2.5,0,1,1,0,5h-12a5.5,5.5,0,0,0,0,11h6a10.5,10.5,0,0,1,0,21Z"/><path class="cls-1" d="M186.5,37a2.5,2.5,0,0,1-2.24-1.38l-8-16a2.5,2.5,0,1,1,4.47-2.24l8,16A2.5,2.5,0,0,1,186.5,37Z"/><path class="cls-1" d="M178.5,21h-14a2.5,2.5,0,0,1,0-5h14a5.5,5.5,0,0,0,0-11h-14a2.5,2.5,0,1,1,0-5h14a10.5,10.5,0,0,1,0,21Z"/><path class="cls-1" d="M148.5,5h-22a2.5,2.5,0,1,1,0-5h22a2.5,2.5,0,1,1,0,5Z"/><path class="cls-1" d="M148.5,37h-22a2.5,2.5,0,0,1,0-5h22a2.5,2.5,0,0,1,0,5Z"/><path class="cls-1" d="M148.5,21h-22a2.5,2.5,0,0,1,0-5h22a2.5,2.5,0,0,1,0,5Z"/><path class="cls-1" d="M98.5,37A2.5,2.5,0,0,1,96,34.5v-13a2.5,2.5,0,0,1,5,0v13A2.5,2.5,0,0,1,98.5,37Z"/><path class="cls-1" d="M98.5,24.2A2.5,2.5,0,0,1,96.38,23l-12-19.2a2.5,2.5,0,0,1,4.24-2.65L98.5,17l9.88-15.81a2.5,2.5,0,0,1,4.24,2.65l-12,19.2A2.5,2.5,0,0,1,98.5,24.2Z"/><path class="cls-1" d="M46.5,21a2.5,2.5,0,0,1-2.23-3.62l8-16a2.5,2.5,0,1,1,4.47,2.24l-8,16A2.5,2.5,0,0,1,46.5,21Z"/><path class="cls-1" d="M38.5,37a2.5,2.5,0,0,1-2.23-3.62l8-16a2.5,2.5,0,1,1,4.47,2.24l-8,16A2.5,2.5,0,0,1,38.5,37Z"/><path class="cls-1" d="M62.5,21a2.5,2.5,0,0,1-2.24-1.38l-8-16a2.5,2.5,0,1,1,4.47-2.24l8,16A2.5,2.5,0,0,1,62.5,21Z"/><path class="cls-1" d="M70.5,37a2.5,2.5,0,0,1-2.24-1.38l-8-16a2.5,2.5,0,1,1,4.47-2.24l8,16A2.5,2.5,0,0,1,70.5,37Z"/><path class="cls-1" d="M22.5,37H2.5A2.5,2.5,0,0,1,0,34.5V2.5a2.5,2.5,0,0,1,5,0V32H22.5a2.5,2.5,0,0,1,0,5Z"/></svg>