<svg id="layout-left_thumb-sm"  width="288" height="240" viewBox="0 0 144 120">
  <metadata><?xpacket begin="﻿" id="W5M0MpCehiHzreSzNTczkc9d"?>
<x:xmpmeta xmlns:x="adobe:ns:meta/" x:xmptk="Adobe XMP Core 5.6-c142 79.160924, 2017/07/13-01:06:39        ">
   <rdf:RDF xmlns:rdf="http://www.w3.org/1999/02/22-rdf-syntax-ns#">
      <rdf:Description rdf:about=""/>
   </rdf:RDF>
</x:xmpmeta>
                                                                                                    
                                                                                                    
                                                                                                    
                                                                                                    
                                                                                                    
                                                                                                    
                                                                                                    
                                                                                                    
                                                                                                    
                                                                                                    
                                                                                                    
                                                                                                    
                                                                                                    
                                                                                                    
                                                                                                    
                                                                                                    
                                                                                                    
                                                                                                    
                                                                                                    
                                                                                                    
                           
<?xpacket end="w"?></metadata>
<defs>
    <style>
      .cls-1, .cls-3 {
        fill: #fff;
      }

      .cls-2 {
        fill: #b8dafc;
        opacity: 0.64;
      }

      .cls-2, .cls-3, .cls-4 {
        fill-rule: evenodd;
      }

      .cls-4 {
        fill: #d2e7fd;
      }
    </style>
  </defs>
  <rect id="Prostokąt_zaokrąglony_1563_kopia_4" data-name="Prostokąt zaokrąglony 1563 kopia 4" class="cls-1" width="144" height="120"/>
  <path id="Prostokąt_1564_kopia" data-name="Prostokąt 1564 kopia" class="cls-2" d="M1931,215h73v24h-73V215Zm0,32h32v24h-32V247Zm40,0h33v24h-33V247Zm-74-32h26v87h-26V215Zm-28-24.006h20v120h-20v-120ZM1889,207v-1h122v1H1889Zm42,72h32v23h-32V279Zm40,0h33v23h-33V279Z" transform="translate(-1869 -191)"/>
  <path id="Prostokąt_1564" data-name="Prostokąt 1564" class="cls-3" d="M1875,219h8v2h-8v-2Zm0,14h8v2h-8v-2Zm0,14h8v2h-8v-2Zm0,14h8v2h-8v-2Zm0,13h8v2h-8v-2Z" transform="translate(-1869 -191)"/>
  <rect id="Prostokąt_1564_kopia_3" data-name="Prostokąt 1564 kopia 3" class="cls-1" x="6" y="7" width="8" height="8"/>
  <path id="Prostokąt_1564_kopia_2" data-name="Prostokąt 1564 kopia 2" class="cls-4" d="M1963,198h12v2h-12v-2Zm29,0h12v2h-12v-2Zm-38-2h6v6h-6v-6Zm29,0h6v6h-6v-6Z" transform="translate(-1869 -191)"/>
</svg>
