<svg width="597" height="501" viewBox="0 0 597 501" fill="none" xmlns="http://www.w3.org/2000/svg">
<path d="M460.083 189.299C465.003 198.96 468.877 208.951 479.735 208.951C484.947 208.951 489.946 206.881 493.632 203.195C497.317 199.51 499.387 194.511 499.387 189.299C499.387 184.087 497.317 179.089 493.632 175.403C489.946 171.718 484.947 169.647 479.735 169.647C468.699 169.494 450.907 171.279 460.083 189.299Z" fill="#2F2E41"/>
<path d="M475.531 425.684L467.119 427.571L455.904 396.041L468.317 393.288L475.531 425.684Z" fill="#A0616A"/>
<path d="M479.481 433.357L452.387 439.398V439.041C452.078 437.655 452.046 436.222 452.292 434.824C452.537 433.426 453.056 432.09 453.818 430.892C454.58 429.694 455.571 428.658 456.734 427.844C457.896 427.029 459.208 426.451 460.594 426.143L477.136 422.473L479.481 433.357Z" fill="#2F2E41"/>
<path d="M500.484 436.95H491.869L487.791 403.764H500.484V436.95Z" fill="#A0616A"/>
<path d="M502.676 445.285H474.995V444.98C474.995 443.56 475.275 442.155 475.818 440.844C476.361 439.533 477.157 438.341 478.161 437.338C479.164 436.334 480.356 435.538 481.667 434.995C482.978 434.452 484.383 434.172 485.803 434.172H502.753L502.676 445.285Z" fill="#2F2E41"/>
<path d="M500.484 419.491H489.498C488.733 419.48 487.997 419.197 487.423 418.693C486.848 418.188 486.472 417.495 486.363 416.738L476.422 339.736C476.384 339.455 476.237 339.202 476.012 339.03C475.788 338.858 475.505 338.782 475.224 338.818C475.021 338.846 474.83 338.933 474.676 339.07C474.521 339.206 474.411 339.384 474.358 339.583L468.444 361.58L473.822 411.844C473.906 412.614 473.706 413.388 473.26 414.021C472.815 414.654 472.154 415.104 471.401 415.285L462.684 417.273C461.911 417.452 461.1 417.333 460.41 416.941C459.721 416.549 459.204 415.913 458.962 415.158L444.918 366.448C443.796 362.884 443.414 359.128 443.796 355.411L448.18 311.494H448.512L507.136 314.323L503.721 416.559C503.662 417.371 503.293 418.128 502.69 418.674C502.087 419.22 501.297 419.512 500.484 419.491Z" fill="#2F2E41"/>
<path d="M478.767 209.308C488.283 209.308 495.998 201.594 495.998 192.078C495.998 182.562 488.283 174.847 478.767 174.847C469.251 174.847 461.537 182.562 461.537 192.078C461.537 201.594 469.251 209.308 478.767 209.308Z" fill="#A0616A"/>
<path d="M505.811 318.987H505.582L447.135 315.852C446.304 315.8 445.526 315.423 444.968 314.804C444.411 314.184 444.118 313.371 444.153 312.539C444.177 312.262 444.228 311.989 444.306 311.723L448.945 297.373C453.923 281.976 454.802 265.548 451.494 249.708C450.616 245.569 450.632 241.29 451.542 237.158C452.452 233.026 454.235 229.136 456.77 225.748C459.266 222.404 462.446 219.631 466.099 217.613C469.751 215.596 473.792 214.381 477.952 214.049H478.818C486.656 213.589 494.355 216.26 500.225 221.474C506.094 226.689 509.653 234.02 510.119 241.858C510.229 243.909 510.135 245.967 509.838 248L505.76 275.35L508.997 315.623C509.068 316.458 508.804 317.286 508.264 317.927C507.724 318.567 506.952 318.967 506.117 319.038L505.811 318.987Z" fill="#EBEDF0"/>
<path d="M433.907 322.632C434.77 322.062 435.495 321.306 436.031 320.421C436.567 319.536 436.899 318.543 437.004 317.514C437.109 316.484 436.984 315.445 436.637 314.47C436.291 313.494 435.733 312.608 435.003 311.876L446.243 289.445L433.295 290.975L424.603 312.029C423.46 313.325 422.828 314.994 422.826 316.723C422.824 318.452 423.452 320.122 424.592 321.421C425.732 322.721 427.307 323.56 429.021 323.783C430.735 324.006 432.472 323.597 433.907 322.632Z" fill="#A0616A"/>
<path d="M511.138 326.277C510.469 325.637 509.932 324.871 509.56 324.023C509.187 323.176 508.985 322.263 508.966 321.337C508.947 320.411 509.112 319.49 509.449 318.628C509.787 317.765 510.292 316.978 510.934 316.311C511.209 316.006 511.517 315.732 511.852 315.495L504.511 291.51L517.026 295.181L522.124 317.382C523.084 318.848 523.466 320.618 523.197 322.35C522.928 324.082 522.026 325.653 520.667 326.759C519.307 327.865 517.586 328.428 515.835 328.339C514.085 328.25 512.43 327.515 511.189 326.277H511.138Z" fill="#A0616A"/>
<path d="M509.94 313.711C509.173 313.723 508.429 313.451 507.85 312.948C507.272 312.444 506.899 311.745 506.805 310.984L500.943 266.862L491.639 232.401C491.292 231.139 491.199 229.821 491.364 228.522C491.529 227.224 491.949 225.971 492.601 224.836C493.253 223.701 494.123 222.706 495.16 221.909C496.198 221.112 497.384 220.528 498.649 220.192C499.413 219.98 500.201 219.868 500.994 219.86C503.407 219.776 505.77 220.568 507.644 222.091C509.519 223.614 510.778 225.764 511.189 228.144L525.081 309.531C525.222 310.351 525.033 311.195 524.556 311.877C524.079 312.56 523.351 313.026 522.532 313.176H522.124L510.221 313.66L509.94 313.711Z" fill="#EBEDF0"/>
<path d="M440.152 308.766H439.489L427.841 306.217C427.426 306.141 427.031 305.983 426.678 305.753C426.325 305.523 426.021 305.225 425.784 304.876C425.547 304.528 425.381 304.135 425.297 303.723C425.212 303.31 425.211 302.884 425.292 302.47C425.323 302.339 425.365 302.211 425.419 302.088L452.718 224.143C453.521 221.896 455.099 220.009 457.169 218.822C459.239 217.635 461.665 217.226 464.01 217.668C465.294 217.916 466.518 218.414 467.609 219.135C468.701 219.856 469.64 220.786 470.371 221.87C471.103 222.955 471.613 224.173 471.873 225.455C472.133 226.738 472.137 228.059 471.886 229.342C471.732 230.126 471.484 230.888 471.147 231.611L456.286 264.008L443.16 306.472C442.98 307.132 442.588 307.714 442.045 308.129C441.501 308.544 440.836 308.768 440.152 308.766Z" fill="#EBEDF0"/>
<path d="M460.467 182.443C464.41 185.158 469.087 186.607 473.874 186.597C472.157 187.771 470.211 188.57 468.164 188.942C474.537 190.268 481.113 190.268 487.485 188.942C488.906 188.707 490.276 188.233 491.538 187.54C492.176 187.197 492.733 186.721 493.172 186.146C493.612 185.57 493.924 184.907 494.087 184.201C494.105 182.972 493.796 181.76 493.191 180.689C492.586 179.619 491.708 178.728 490.646 178.109C487.65 175.869 484.19 174.326 480.521 173.594C476.852 172.861 473.066 172.959 469.439 173.878C467.017 174.36 464.812 175.601 463.143 177.421C462.34 178.351 461.858 179.515 461.766 180.74C461.674 181.965 461.978 183.187 462.633 184.227L460.467 182.443Z" fill="#2F2E41"/>
<path d="M370.49 55.4307H74.2311C72.6084 55.4441 71.0564 56.0964 69.9113 57.2462C68.7663 58.396 68.1204 59.9508 68.1138 61.5735V350.313C68.1138 351.936 68.7583 353.492 69.9055 354.639C71.0527 355.786 72.6087 356.431 74.2311 356.431H100.306V354.697H74.2311C73.0728 354.691 71.9642 354.226 71.1476 353.404C70.3309 352.583 69.8725 351.472 69.8725 350.313V61.5735C69.8725 60.4152 70.3309 59.3039 71.1476 58.4825C71.9642 57.661 73.0728 57.1961 74.2311 57.1894H370.49C371.653 57.1894 372.768 57.6513 373.59 58.4735C374.412 59.2957 374.874 60.4108 374.874 61.5735V350.313C374.877 351.165 374.629 351.998 374.16 352.709C373.738 353.337 373.169 353.853 372.504 354.213C371.878 354.526 371.189 354.692 370.49 354.697H344.517V356.431H370.49C371.376 356.433 372.252 356.243 373.058 355.873C373.863 355.503 374.579 354.963 375.155 354.29V354.137C375.516 353.681 375.808 353.174 376.021 352.633C376.35 351.904 376.515 351.113 376.505 350.313V61.5735C376.499 59.9682 375.867 58.4284 374.744 57.2814C373.621 56.1344 372.095 55.4705 370.49 55.4307Z" fill="#D6F1FF"/>
<path d="M375.741 79.9767H68.9807V81.7354H375.741V79.9767Z" fill="#D6F1FF"/>
<path d="M83.8662 73.8086C86.7661 73.8086 89.117 71.4577 89.117 68.5578C89.117 65.6579 86.7661 63.3071 83.8662 63.3071C80.9663 63.3071 78.6155 65.6579 78.6155 68.5578C78.6155 71.4577 80.9663 73.8086 83.8662 73.8086Z" fill="#D6F1FF"/>
<path d="M98.9556 73.8086C101.855 73.8086 104.206 71.4577 104.206 68.5578C104.206 65.6579 101.855 63.3071 98.9556 63.3071C96.0557 63.3071 93.7048 65.6579 93.7048 68.5578C93.7048 71.4577 96.0557 73.8086 98.9556 73.8086Z" fill="#D6F1FF"/>
<path d="M114.044 73.8086C116.944 73.8086 119.295 71.4577 119.295 68.5578C119.295 65.6579 116.944 63.3071 114.044 63.3071C111.145 63.3071 108.794 65.6579 108.794 68.5578C108.794 71.4577 111.145 73.8086 114.044 73.8086Z" fill="#D6F1FF"/>
<path d="M296.572 120.479H148.303C145.883 120.479 143.562 119.517 141.85 117.806C140.139 116.095 139.178 113.774 139.178 111.354C139.178 108.933 140.139 106.612 141.85 104.901C143.562 103.19 145.883 102.229 148.303 102.229H296.572C298.993 102.229 301.314 103.19 303.025 104.901C304.736 106.612 305.698 108.933 305.698 111.354C305.698 113.774 304.736 116.095 303.025 117.806C301.314 119.517 298.993 120.479 296.572 120.479ZM148.303 103.63C146.254 103.63 144.29 104.444 142.842 105.892C141.393 107.341 140.58 109.305 140.58 111.354C140.58 113.402 141.393 115.366 142.842 116.815C144.29 118.263 146.254 119.077 148.303 119.077H296.572C298.621 119.077 300.585 118.263 302.034 116.815C303.482 115.366 304.296 113.402 304.296 111.354C304.296 109.305 303.482 107.341 302.034 105.892C300.585 104.444 298.621 103.63 296.572 103.63H148.303Z" fill="#D6F1FF"/>
<path d="M333.99 247.975H110.757C109.183 247.975 107.624 247.664 106.171 247.06C104.717 246.456 103.397 245.571 102.286 244.455C101.175 243.34 100.296 242.016 99.6981 240.56C99.1004 239.103 98.7961 237.543 98.8028 235.969V164.422C98.8096 161.256 100.072 158.221 102.313 155.985C104.554 153.749 107.591 152.493 110.757 152.493H333.99C335.557 152.493 337.108 152.801 338.555 153.401C340.002 154 341.317 154.879 342.425 155.987C343.533 157.094 344.411 158.409 345.011 159.857C345.61 161.304 345.919 162.855 345.919 164.422V235.969C345.929 237.542 345.628 239.102 345.033 240.558C344.438 242.014 343.561 243.338 342.452 244.454C341.344 245.57 340.025 246.455 338.573 247.059C337.121 247.664 335.563 247.975 333.99 247.975ZM110.757 153.895C107.981 153.921 105.327 155.042 103.37 157.012C101.414 158.983 100.313 161.645 100.307 164.422V235.969C100.307 238.761 101.416 241.439 103.39 243.413C105.364 245.387 108.042 246.496 110.834 246.496H334.067C336.859 246.496 339.536 245.387 341.51 243.413C343.484 241.439 344.594 238.761 344.594 235.969V164.422C344.587 161.632 343.476 158.958 341.503 156.985C339.53 155.013 336.856 153.901 334.067 153.895H110.757Z" fill="#D6F1FF"/>
<path d="M251.635 196.385H173.715C172.29 196.289 170.955 195.655 169.979 194.611C169.004 193.568 168.461 192.193 168.461 190.764C168.461 189.336 169.004 187.961 169.979 186.918C170.955 185.874 172.29 185.24 173.715 185.144H251.635C252.405 185.092 253.177 185.199 253.904 185.458C254.631 185.717 255.297 186.123 255.861 186.65C256.425 187.177 256.874 187.814 257.181 188.522C257.488 189.229 257.647 189.993 257.647 190.764C257.647 191.536 257.488 192.3 257.181 193.007C256.874 193.715 256.425 194.352 255.861 194.879C255.297 195.406 254.631 195.812 253.904 196.071C253.177 196.33 252.405 196.437 251.635 196.385Z" fill="#1A66FF"/>
<path d="M323.947 215.323H173.715C172.227 215.323 170.801 214.733 169.749 213.681C168.698 212.629 168.107 211.203 168.107 209.716C168.107 208.229 168.698 206.802 169.749 205.751C170.801 204.699 172.227 204.108 173.715 204.108H323.947C325.434 204.108 326.86 204.699 327.912 205.751C328.964 206.802 329.554 208.229 329.554 209.716C329.554 211.203 328.964 212.629 327.912 213.681C326.86 214.733 325.434 215.323 323.947 215.323Z" fill="#1A66FF"/>
<path d="M136.22 221.288C147.848 221.288 157.274 211.862 157.274 200.234C157.274 188.606 147.848 179.18 136.22 179.18C124.592 179.18 115.166 188.606 115.166 200.234C115.166 211.862 124.592 221.288 136.22 221.288Z" fill="#1A66FF"/>
<path d="M323.947 238.136H304.218C302.731 238.136 301.305 237.546 300.253 236.494C299.202 235.442 298.611 234.016 298.611 232.529C298.611 231.042 299.202 229.615 300.253 228.564C301.305 227.512 302.731 226.921 304.218 226.921H323.87C325.358 226.921 326.784 227.512 327.836 228.564C328.887 229.615 329.478 231.042 329.478 232.529C329.478 234.016 328.887 235.442 327.836 236.494C326.784 237.546 325.358 238.136 323.87 238.136H323.947Z" fill="white"/>
<path d="M323.947 238.136H304.218C302.731 238.136 301.305 237.546 300.253 236.494C299.202 235.442 298.611 234.016 298.611 232.529C298.611 231.042 299.202 229.615 300.253 228.564C301.305 227.512 302.731 226.921 304.218 226.921H323.87C325.358 226.921 326.784 227.512 327.836 228.564C328.887 229.615 329.478 231.042 329.478 232.529C329.478 234.016 328.887 235.442 327.836 236.494C326.784 237.546 325.358 238.136 323.87 238.136H323.947Z" fill="#CCCCCC"/>
<path d="M333.99 281.671H110.757C107.591 281.671 104.554 282.927 102.313 285.164C100.072 287.4 98.8097 290.434 98.803 293.6V365.199C98.8097 368.367 100.071 371.404 102.312 373.644C104.552 375.885 107.589 377.146 110.757 377.153H333.99C337.156 377.146 340.19 375.884 342.427 373.643C344.663 371.402 345.919 368.365 345.919 365.199V293.6C345.912 290.438 344.653 287.408 342.418 285.173C340.182 282.937 337.152 281.678 333.99 281.671ZM344.517 365.199C344.517 367.993 343.409 370.673 341.435 372.651C339.462 374.63 336.784 375.744 333.99 375.751H110.757C107.978 375.718 105.324 374.592 103.369 372.617C101.413 370.643 100.313 367.978 100.307 365.199V293.6C100.32 290.808 101.437 288.134 103.414 286.162C105.391 284.19 108.067 283.08 110.859 283.073H334.092C336.884 283.073 339.562 284.182 341.536 286.156C343.51 288.131 344.619 290.808 344.619 293.6L344.517 365.199Z" fill="#D6F1FF"/>
<path d="M251.634 325.538H173.715C172.227 325.538 170.801 324.947 169.749 323.896C168.698 322.844 168.107 321.418 168.107 319.931C168.107 318.443 168.698 317.017 169.749 315.965C170.801 314.914 172.227 314.323 173.715 314.323H251.634C253.122 314.323 254.548 314.914 255.6 315.965C256.651 317.017 257.242 318.443 257.242 319.931C257.242 321.418 256.651 322.844 255.6 323.896C254.548 324.947 253.122 325.538 251.634 325.538Z" fill="#1A66FF"/>
<path d="M323.948 344.502H173.715C172.29 344.406 170.955 343.772 169.979 342.729C169.004 341.685 168.461 340.31 168.461 338.882C168.461 337.453 169.004 336.078 169.979 335.035C170.955 333.991 172.29 333.357 173.715 333.261H323.948C324.718 333.209 325.49 333.316 326.217 333.575C326.944 333.834 327.61 334.24 328.173 334.767C328.737 335.294 329.186 335.931 329.494 336.639C329.801 337.346 329.959 338.11 329.959 338.882C329.959 339.653 329.801 340.417 329.494 341.124C329.186 341.832 328.737 342.469 328.173 342.996C327.61 343.523 326.944 343.929 326.217 344.188C325.49 344.447 324.718 344.554 323.948 344.502Z" fill="#1A66FF"/>
<path d="M136.22 350.466C147.848 350.466 157.274 341.04 157.274 329.412C157.274 317.785 147.848 308.358 136.22 308.358C124.592 308.358 115.166 317.785 115.166 329.412C115.166 341.04 124.592 350.466 136.22 350.466Z" fill="#1A66FF"/>
<path d="M323.948 367.314H304.219C303.449 367.366 302.677 367.259 301.95 367C301.223 366.741 300.557 366.336 299.994 365.809C299.43 365.282 298.981 364.645 298.673 363.937C298.366 363.229 298.208 362.465 298.208 361.694C298.208 360.922 298.366 360.159 298.673 359.451C298.981 358.743 299.43 358.106 299.994 357.579C300.557 357.052 301.223 356.646 301.95 356.387C302.677 356.128 303.449 356.022 304.219 356.073H323.871C325.297 356.169 326.632 356.803 327.608 357.847C328.583 358.89 329.126 360.265 329.126 361.694C329.126 363.122 328.583 364.497 327.608 365.541C326.632 366.584 325.297 367.218 323.871 367.314H323.948Z" fill="#CCCCCC"/>
<path d="M527.425 445.948H429.114C428.929 445.942 428.754 445.864 428.626 445.73C428.498 445.597 428.426 445.419 428.426 445.235C428.426 445.144 428.444 445.055 428.478 444.971C428.513 444.888 428.564 444.812 428.628 444.748C428.692 444.684 428.767 444.633 428.851 444.599C428.934 444.564 429.024 444.546 429.114 444.546H527.4C527.492 444.543 527.585 444.558 527.671 444.591C527.758 444.624 527.836 444.674 527.903 444.739C527.97 444.803 528.023 444.88 528.059 444.965C528.095 445.05 528.114 445.142 528.114 445.235C528.114 445.419 528.042 445.597 527.914 445.73C527.785 445.864 527.61 445.942 527.425 445.948Z" fill="#D6F1FF"/>
</svg>
