<svg width="597" height="501" viewBox="0 0 597 501" fill="none" xmlns="http://www.w3.org/2000/svg">
<path d="M458.002 73.9411V74.0593V74.2484C457.88 74.6791 457.816 75.1244 457.813 75.5722C457.802 75.7611 457.802 75.9506 457.813 76.1395C457.79 76.3753 457.79 76.6129 457.813 76.8487C457.867 77.1157 457.946 77.3769 458.05 77.6288C458.076 77.7543 458.124 77.8742 458.192 77.9833C458.549 78.7907 459.093 79.5013 459.78 80.0562C460.466 80.6112 461.275 80.9946 462.139 81.1746H462.399C462.869 81.2459 463.348 81.2459 463.818 81.1746C464.984 81.1037 466.096 80.6557 466.985 79.8981C467.529 79.449 467.576 78.9762 468.262 79.1889C470.436 79.8508 471.878 76.2813 470.791 74.3193V74.1066C470.791 72.7355 468.616 72.3809 467.434 71.7427C467.401 71.8768 467.342 72.003 467.259 72.1139C467.177 72.2248 467.074 72.3182 466.955 72.3886C466.836 72.459 466.704 72.505 466.567 72.524C466.431 72.543 466.291 72.5345 466.158 72.4991C466.001 72.4561 465.856 72.3786 465.734 72.2723C465.611 72.1659 465.513 72.0334 465.449 71.8845C465.236 71.3645 465.047 70.8208 464.858 70.2771C462.447 68.6696 456.3 71.2699 458.002 73.9411Z" fill="#2F2E41"/>
<path d="M443.56 86.3748C443.252 87.1076 433.608 87.0367 433.158 87.6986C429.731 92.71 442.047 114.056 438.619 119.091L438.146 119.658C439.263 119.144 440.338 118.543 441.361 117.862C441.361 115.805 441.527 113.725 441.621 111.668C442.609 112.983 443.405 114.432 443.985 115.971C445.436 114.604 447.02 113.384 448.713 112.33C450.094 110.817 451.686 109.511 453.441 108.453L443.56 86.3748Z" fill="#2F2E41"/>
<path d="M450.579 127.53C449.698 126.958 448.713 126.565 447.679 126.374C446.646 126.183 445.585 126.198 444.558 126.417C443.53 126.637 442.556 127.057 441.691 127.654C440.826 128.25 440.087 129.012 439.516 129.894C439.045 130.624 438.687 131.421 438.453 132.258L423.773 170.506L398.55 156.181C398.441 154.546 397.818 152.988 396.771 151.729C395.724 150.469 394.306 149.572 392.719 149.166C391.133 148.76 389.458 148.865 387.935 149.467C386.411 150.068 385.116 151.135 384.235 152.516C383.354 153.897 382.931 155.52 383.027 157.155C383.123 158.791 383.732 160.354 384.769 161.622C385.805 162.89 387.216 163.799 388.799 164.218C390.382 164.638 392.058 164.547 393.586 163.958C398.881 169.631 421.953 192.892 431.408 183.791C439.422 176.155 450.981 146.56 453.771 136.348C454.232 134.729 454.172 133.006 453.599 131.423C453.027 129.841 451.97 128.479 450.579 127.53Z" fill="#A0616A"/>
<path d="M336.072 153.131C328.857 135.154 327.744 115.306 332.904 96.6346C332.84 95.4908 333.231 94.368 333.994 93.5127C334.756 92.6574 335.826 92.1394 336.97 92.0723L379.662 89.7084C380.787 89.6631 381.886 90.0611 382.721 90.8169C383.557 91.5728 384.062 92.6261 384.129 93.7507L387.321 150.247C387.379 151.394 386.982 152.516 386.216 153.371C385.45 154.225 384.377 154.743 383.231 154.81L340.563 157.174C339.437 157.213 338.339 156.814 337.501 156.06C336.663 155.306 336.151 154.256 336.072 153.131Z" fill="#DCDEE1"/>
<path d="M338.39 135.875C333.662 126.987 334.253 113.82 336.357 99.5658C336.315 99.029 336.381 98.4893 336.551 97.9784C336.721 97.4675 336.991 96.9956 337.345 96.5904C337.7 96.1852 338.132 95.855 338.615 95.619C339.099 95.383 339.626 95.2461 340.163 95.2162L376.851 93.1596C377.919 93.1016 378.967 93.4696 379.765 94.1831C380.562 94.8965 381.045 95.8971 381.106 96.9655L383.942 147.269C383.971 147.8 383.895 148.331 383.717 148.833C383.54 149.334 383.266 149.796 382.91 150.191C382.555 150.586 382.124 150.908 381.644 151.136C381.164 151.365 380.644 151.497 380.113 151.524L357.396 152.8C352.634 153.065 347.961 151.433 344.399 148.261C340.837 145.089 338.677 140.636 338.39 135.875Z" fill="white"/>
<path d="M356.876 142.73C358.965 142.73 360.658 141.037 360.658 138.948C360.658 136.859 358.965 135.166 356.876 135.166C354.787 135.166 353.094 136.859 353.094 138.948C353.094 141.037 354.787 142.73 356.876 142.73Z" fill="#1A66FF"/>
<path d="M367.253 104.293C366.095 102.355 363.424 102.189 361.178 102.237C358.868 102.191 356.563 102.453 354.323 103.017C353.204 103.299 352.152 103.8 351.227 104.489C350.303 105.179 349.523 106.044 348.933 107.035C347.878 109.7 347.828 112.657 348.791 115.356C350.145 120.643 352.272 125.701 355.103 130.367L356.757 131.478C360.106 128.421 362.809 124.726 364.709 120.61C366.609 116.494 367.667 112.039 367.82 107.508C367.943 106.404 367.747 105.288 367.253 104.293Z" fill="#1A66FF"/>
<path d="M125.523 298.888C111.647 247.072 113.869 189.015 125.523 127.318C125.523 125.804 126.118 124.351 127.179 123.272C128.241 122.193 129.683 121.575 131.197 121.55H302.696C303.456 121.547 304.208 121.694 304.911 121.982C305.613 122.271 306.252 122.695 306.79 123.231C307.328 123.767 307.755 124.404 308.047 125.105C308.338 125.806 308.488 126.558 308.488 127.318V298.888C308.488 300.418 307.88 301.885 306.798 302.967C305.717 304.049 304.25 304.656 302.72 304.656H131.197C129.683 304.631 128.241 304.013 127.179 302.934C126.118 301.855 125.523 300.402 125.523 298.888Z" fill="#E9EBEE"/>
<path d="M126.609 255.961C123.092 214.399 124.027 172.581 129.398 131.219C129.404 129.691 130.014 128.227 131.094 127.147C132.175 126.067 133.638 125.457 135.166 125.451H299.03C299.787 125.451 300.536 125.6 301.234 125.89C301.933 126.18 302.567 126.606 303.101 127.141C303.634 127.677 304.057 128.313 304.344 129.013C304.631 129.713 304.778 130.462 304.775 131.219V295.012C304.79 295.776 304.653 296.536 304.372 297.246C304.09 297.957 303.669 298.604 303.134 299.15C302.6 299.696 301.961 300.13 301.256 300.426C300.551 300.722 299.795 300.875 299.03 300.874H175.423C163.134 300.881 151.293 296.265 142.25 287.945C133.207 279.624 127.623 268.207 126.609 255.961Z" fill="white"/>
<path d="M231.448 157.788H162.517C162.122 157.788 161.743 157.631 161.464 157.352C161.184 157.073 161.028 156.694 161.028 156.299C161.028 155.904 161.184 155.525 161.464 155.246C161.743 154.966 162.122 154.81 162.517 154.81H231.448C231.843 154.81 232.221 154.966 232.501 155.246C232.78 155.525 232.937 155.904 232.937 156.299C232.937 156.694 232.78 157.073 232.501 157.352C232.221 157.631 231.843 157.788 231.448 157.788Z" fill="#1A66FF"/>
<path d="M266.339 171.38H162.517C162.122 171.38 161.743 171.224 161.464 170.944C161.184 170.665 161.028 170.286 161.028 169.891C161.028 169.496 161.184 169.117 161.464 168.838C161.743 168.559 162.122 168.402 162.517 168.402H266.339C266.734 168.402 267.112 168.559 267.392 168.838C267.671 169.117 267.828 169.496 267.828 169.891C267.822 170.284 267.663 170.66 267.385 170.938C267.107 171.216 266.732 171.374 266.339 171.38Z" fill="#E9EBEE"/>
<path d="M266.337 181.994H162.516C162.306 181.968 162.093 181.986 161.891 182.048C161.689 182.11 161.502 182.215 161.344 182.355C161.185 182.494 161.058 182.666 160.971 182.859C160.884 183.052 160.839 183.261 160.839 183.472C160.839 183.683 160.884 183.892 160.971 184.085C161.058 184.278 161.185 184.449 161.344 184.589C161.502 184.729 161.689 184.833 161.891 184.895C162.093 184.958 162.306 184.976 162.516 184.949H266.337C266.547 184.976 266.76 184.958 266.962 184.895C267.164 184.833 267.351 184.729 267.509 184.589C267.668 184.449 267.795 184.278 267.882 184.085C267.969 183.892 268.014 183.683 268.014 183.472C268.014 183.261 267.969 183.052 267.882 182.859C267.795 182.666 267.668 182.494 267.509 182.355C267.351 182.215 267.164 182.11 266.962 182.048C266.76 181.986 266.547 181.968 266.337 181.994Z" fill="#E9EBEE"/>
<path d="M266.337 198.541H162.516C162.306 198.568 162.093 198.549 161.891 198.487C161.689 198.425 161.502 198.321 161.344 198.181C161.185 198.041 161.058 197.869 160.971 197.677C160.884 197.484 160.839 197.275 160.839 197.064C160.839 196.852 160.884 196.643 160.971 196.451C161.058 196.258 161.185 196.086 161.344 195.946C161.502 195.807 161.689 195.702 161.891 195.64C162.093 195.578 162.306 195.56 162.516 195.586H266.337C266.547 195.56 266.76 195.578 266.962 195.64C267.164 195.702 267.351 195.807 267.509 195.946C267.668 196.086 267.795 196.258 267.882 196.451C267.969 196.643 268.014 196.852 268.014 197.064C268.014 197.275 267.969 197.484 267.882 197.677C267.795 197.869 267.668 198.041 267.509 198.181C267.351 198.321 267.164 198.425 266.962 198.487C266.76 198.549 266.547 198.568 266.337 198.541Z" fill="#E9EBEE"/>
<path d="M266.337 212.133H162.516C162.306 212.16 162.093 212.142 161.891 212.08C161.689 212.017 161.502 211.913 161.344 211.773C161.185 211.634 161.058 211.462 160.971 211.269C160.884 211.076 160.839 210.867 160.839 210.656C160.839 210.445 160.884 210.236 160.971 210.043C161.058 209.85 161.185 209.679 161.344 209.539C161.502 209.399 161.689 209.295 161.891 209.233C162.093 209.17 162.306 209.152 162.516 209.179H266.337C266.547 209.152 266.76 209.17 266.962 209.233C267.164 209.295 267.351 209.399 267.509 209.539C267.668 209.679 267.795 209.85 267.882 210.043C267.969 210.236 268.014 210.445 268.014 210.656C268.014 210.867 267.969 211.076 267.882 211.269C267.795 211.462 267.668 211.634 267.509 211.773C267.351 211.913 267.164 212.017 266.962 212.08C266.76 212.142 266.547 212.16 266.337 212.133Z" fill="#E9EBEE"/>
<path d="M266.339 225.82H162.517C162.122 225.82 161.743 225.663 161.464 225.384C161.184 225.105 161.028 224.726 161.028 224.331C161.028 223.936 161.184 223.557 161.464 223.278C161.743 222.999 162.122 222.842 162.517 222.842H266.339C266.734 222.842 267.112 222.999 267.392 223.278C267.671 223.557 267.828 223.936 267.828 224.331C267.828 224.726 267.671 225.105 267.392 225.384C267.112 225.663 266.734 225.82 266.339 225.82Z" fill="#E9EBEE"/>
<path d="M266.339 239.413H162.517C162.122 239.413 161.743 239.256 161.464 238.976C161.184 238.697 161.028 238.318 161.028 237.923C161.028 237.528 161.184 237.15 161.464 236.87C161.743 236.591 162.122 236.434 162.517 236.434H266.339C266.734 236.434 267.112 236.591 267.392 236.87C267.671 237.15 267.828 237.528 267.828 237.923C267.828 238.318 267.671 238.697 267.392 238.976C267.112 239.256 266.734 239.413 266.339 239.413Z" fill="#E9EBEE"/>
<path d="M266.339 253.147H162.517C162.322 253.15 162.129 253.115 161.949 253.042C161.768 252.97 161.604 252.863 161.465 252.726C161.327 252.59 161.216 252.427 161.141 252.248C161.066 252.068 161.028 251.876 161.028 251.681C161.028 251.286 161.184 250.908 161.464 250.628C161.743 250.349 162.122 250.192 162.517 250.192H266.339C266.548 250.166 266.761 250.184 266.963 250.246C267.165 250.308 267.352 250.413 267.51 250.552C267.669 250.692 267.796 250.864 267.883 251.057C267.97 251.249 268.015 251.458 268.015 251.67C268.015 251.881 267.97 252.09 267.883 252.283C267.796 252.475 267.669 252.647 267.51 252.787C267.352 252.927 267.165 253.031 266.963 253.093C266.761 253.155 266.548 253.174 266.339 253.147Z" fill="#E9EBEE"/>
<path d="M266.339 266.834H162.517C162.122 266.834 161.743 266.677 161.464 266.398C161.184 266.118 161.028 265.74 161.028 265.345C161.028 264.95 161.184 264.571 161.464 264.291C161.743 264.012 162.122 263.855 162.517 263.855H266.339C266.734 263.855 267.112 264.012 267.392 264.291C267.671 264.571 267.828 264.95 267.828 265.345C267.828 265.74 267.671 266.118 267.392 266.398C267.112 266.677 266.734 266.834 266.339 266.834Z" fill="#E9EBEE"/>
<path d="M241.706 176.297C239.403 175.375 236.876 175.166 234.452 175.697C232.029 176.228 229.821 177.475 228.114 179.275C226.6 181.013 225.802 183.261 225.881 185.564C225.96 187.868 226.91 190.056 228.539 191.686C232.984 195.539 239.13 194.05 243.976 191.946C248.42 189.96 253.313 186.722 253.242 181.261C253.242 179.848 252.899 178.457 252.243 177.206C251.586 175.956 250.636 174.883 249.473 174.081C248.31 173.278 246.97 172.771 245.568 172.601C244.166 172.431 242.743 172.604 241.423 173.106C240.264 173.531 240.761 175.47 241.943 174.997C243.645 174.351 245.534 174.406 247.196 175.15C248.857 175.895 250.156 177.268 250.807 178.968C250.972 179.404 251.091 179.855 251.162 180.316C251.847 184.854 247.971 187.785 244.377 189.582C240.43 191.544 235.395 193.435 231.187 191.166C230.37 190.709 229.655 190.089 229.088 189.344C228.521 188.599 228.114 187.745 227.892 186.835C227.671 185.925 227.639 184.98 227.799 184.057C227.959 183.135 228.308 182.255 228.823 181.474C231.329 177.266 236.908 176.746 241.139 178.188C242.321 178.614 242.841 176.722 241.659 176.297H241.706Z" fill="#1A66FF"/>
<path d="M180.507 203.648C178.194 202.71 175.653 202.493 173.215 203.024C170.777 203.556 168.556 204.811 166.844 206.626C165.33 208.364 164.532 210.612 164.611 212.915C164.69 215.218 165.64 217.406 167.269 219.036C171.713 222.89 177.859 221.4 182.729 219.296C187.149 217.287 192.043 214.072 191.972 208.612C191.972 207.199 191.629 205.808 190.972 204.557C190.316 203.306 189.366 202.234 188.203 201.431C187.04 200.629 185.7 200.121 184.298 199.951C182.895 199.782 181.473 199.955 180.152 200.456C178.994 200.882 179.49 202.82 180.672 202.324C181.52 201.997 182.423 201.842 183.33 201.866C184.238 201.89 185.132 202.094 185.96 202.465C186.789 202.837 187.535 203.368 188.157 204.03C188.779 204.691 189.264 205.469 189.584 206.319C189.749 206.754 189.868 207.206 189.939 207.666C190.624 212.205 186.748 215.136 183.154 216.933C179.207 218.895 174.172 220.762 169.964 218.516C169.146 218.058 168.431 217.435 167.864 216.688C167.297 215.941 166.89 215.084 166.668 214.173C166.446 213.262 166.414 212.314 166.575 211.39C166.735 210.466 167.084 209.584 167.6 208.801C170.106 204.617 175.685 204.073 179.916 205.539C181.098 205.964 181.618 204.073 180.436 203.648H180.507Z" fill="#DCDEE1"/>
<path d="M241.069 258.324C238.752 257.388 236.207 257.172 233.766 257.703C231.325 258.234 229.1 259.489 227.382 261.303C225.867 263.037 225.071 265.284 225.154 267.585C225.238 269.886 226.195 272.069 227.831 273.689C232.275 277.566 238.421 276.053 243.267 273.949C247.711 271.964 252.581 268.749 252.51 263.288C252.492 261.895 252.144 260.526 251.495 259.294C250.846 258.061 249.914 257 248.775 256.197C247.611 255.415 246.28 254.916 244.889 254.74C243.497 254.563 242.084 254.714 240.761 255.18C239.579 255.606 240.1 257.544 241.281 257.071C242.122 256.749 243.019 256.595 243.919 256.621C244.82 256.646 245.706 256.849 246.528 257.218C247.35 257.587 248.09 258.115 248.707 258.771C249.324 259.428 249.805 260.2 250.122 261.043C250.295 261.486 250.422 261.945 250.501 262.414C251.186 266.952 247.309 269.884 243.716 271.656C240.123 273.429 234.734 275.51 230.502 273.264C229.681 272.808 228.964 272.186 228.395 271.439C227.826 270.692 227.417 269.836 227.195 268.923C226.973 268.011 226.942 267.062 227.105 266.137C227.267 265.212 227.619 264.331 228.138 263.548C230.502 259.364 236.223 258.821 240.454 260.263C241.636 260.688 242.132 258.797 240.974 258.395L241.069 258.324Z" fill="#DCDEE1"/>
<path d="M238.846 276.809C240.332 286.306 244.803 295.082 251.611 301.867C256.809 306.955 263.175 310.693 270.152 312.754C277.128 314.814 284.503 315.134 291.632 313.686C292.837 313.426 292.696 311.487 291.466 311.724C282.734 313.553 273.648 312.628 265.464 309.076C258.956 306.186 253.278 301.708 248.95 296.055C244.622 290.401 241.782 283.751 240.69 276.715C240.501 275.486 238.563 275.651 238.752 276.88L238.846 276.809Z" fill="#DCDEE1"/>
<path d="M294.563 326.167L309.101 317.799C309.31 317.651 309.453 317.427 309.497 317.174C309.541 316.922 309.484 316.662 309.337 316.452C309.295 316.378 309.239 316.314 309.171 316.262L294.303 305.436C293.286 304.703 291.939 306.192 293.05 306.925L308.013 317.752V316.191L293.452 324.512C292.364 325.151 293.452 326.758 294.563 326.12V326.167Z" fill="#DCDEE1"/>
<path d="M251.211 172.113C252.696 162.624 257.167 153.855 263.976 147.08C269.168 141.982 275.533 138.239 282.511 136.178C289.49 134.117 296.868 133.802 303.996 135.26C305.225 135.52 305.06 137.459 303.831 137.199C295.096 135.371 286.009 136.304 277.828 139.87C271.334 142.782 265.674 147.277 261.366 152.944C257.059 158.61 254.242 165.266 253.173 172.302C252.983 173.532 251.021 173.366 251.211 172.113Z" fill="#3F3D56"/>
<path d="M306.949 122.756L321.464 131.124C321.571 131.197 321.662 131.291 321.732 131.4C321.802 131.509 321.85 131.631 321.872 131.759C321.894 131.887 321.89 132.018 321.861 132.144C321.831 132.271 321.776 132.39 321.7 132.495L321.535 132.684L306.595 143.51C305.578 144.243 304.231 142.754 305.318 142.021L320.305 131.171V132.731L305.791 124.363C304.751 123.748 305.862 122.141 306.949 122.756Z" fill="#3F3D56"/>
<path d="M173.746 224.733C172.261 234.222 167.789 242.991 160.981 249.766C155.789 254.864 149.424 258.608 142.445 260.668C135.467 262.729 128.089 263.044 120.961 261.586C119.755 261.349 119.897 259.387 121.126 259.647C129.823 261.45 138.865 260.517 147.011 256.976C153.515 254.088 159.191 249.614 163.519 243.965C167.847 238.315 170.689 231.67 171.784 224.638C171.973 223.385 173.935 223.551 173.746 224.804V224.733Z" fill="#DCDEE1"/>
<path d="M118.005 274.091L103.491 265.723C103.28 265.571 103.137 265.342 103.092 265.085C103.048 264.829 103.106 264.565 103.254 264.352L103.42 264.162L118.383 253.336C119.376 252.603 120.747 254.092 119.636 254.849L104.673 265.675V264.115L119.116 272.507C120.227 273.122 119.116 274.729 118.005 274.114V274.091Z" fill="#DCDEE1"/>
<path d="M57.6548 294.68C50.2227 282.499 46.9923 268.216 48.4593 254.022C48.3646 253.616 48.3506 253.197 48.4181 252.786C48.4856 252.376 48.6334 251.982 48.8529 251.629C49.0724 251.276 49.3594 250.969 49.6974 250.726C50.0355 250.484 50.418 250.31 50.8232 250.216L81.5536 243.29C81.9588 243.195 82.3786 243.181 82.7891 243.248C83.1996 243.316 83.5928 243.464 83.9462 243.683C84.2996 243.903 84.6064 244.19 84.8489 244.528C85.0913 244.866 85.2649 245.248 85.3595 245.653L94.5314 286.312C94.6261 286.717 94.6401 287.137 94.5726 287.548C94.505 287.958 94.3573 288.351 94.1378 288.705C93.9183 289.058 93.6313 289.365 93.2932 289.607C92.9551 289.85 92.5726 290.023 92.1675 290.118L61.437 297.044C60.6223 297.229 59.7677 297.084 59.0593 296.641C58.351 296.198 57.8462 295.493 57.6548 294.68Z" fill="#E9EBEE"/>
<path d="M57.2296 281.962C52.6673 276.076 51.5326 266.432 51.3435 255.818C51.2575 255.428 51.2509 255.024 51.3239 254.632C51.397 254.239 51.5483 253.865 51.7689 253.532C51.9894 253.199 52.2747 252.914 52.6077 252.693C52.9407 252.473 53.3147 252.321 53.7074 252.248L80.0883 246.291C80.4782 246.209 80.8805 246.205 81.272 246.279C81.6635 246.354 82.0362 246.505 82.3685 246.725C82.7007 246.945 82.9858 247.229 83.2072 247.561C83.4285 247.892 83.5817 248.264 83.6578 248.655L91.8132 284.823C91.9832 285.593 91.8429 286.4 91.4226 287.068C91.0023 287.736 90.3359 288.212 89.5675 288.392L73.2094 292.08C71.4952 292.477 69.7192 292.53 67.9845 292.235C66.2498 291.94 64.5909 291.303 63.1042 290.362C61.6175 289.421 60.3327 288.194 59.3242 286.752C58.3157 285.31 57.6037 283.682 57.2296 281.962Z" fill="white"/>
<path d="M71.0357 284.634C72.5762 284.634 73.8251 283.385 73.8251 281.844C73.8251 280.304 72.5762 279.055 71.0357 279.055C69.4952 279.055 68.2463 280.304 68.2463 281.844C68.2463 283.385 69.4952 284.634 71.0357 284.634Z" fill="#E9EBEE"/>
<path d="M74.4615 255.416C73.3978 254.14 71.4358 254.353 69.7338 254.66C68.0543 254.9 66.4158 255.369 64.8642 256.055C64.0825 256.395 63.3766 256.889 62.788 257.506C62.1995 258.123 61.74 258.851 61.4365 259.648C60.98 261.707 61.2999 263.862 62.3348 265.699C63.9595 269.376 66.1182 272.794 68.7409 275.84L70.0884 276.455C72.1494 273.821 73.6629 270.802 74.5398 267.574C75.4167 264.347 75.6392 260.977 75.1943 257.662C75.1644 256.86 74.9105 256.082 74.4615 255.416Z" fill="#E9EBEE"/>
<path d="M71.0357 284.634C72.5762 284.634 73.8251 283.385 73.8251 281.844C73.8251 280.304 72.5762 279.055 71.0357 279.055C69.4952 279.055 68.2463 280.304 68.2463 281.844C68.2463 283.385 69.4952 284.634 71.0357 284.634Z" fill="#DCDEE1"/>
<path d="M74.4615 255.416C73.3978 254.14 71.4358 254.353 69.7338 254.66C68.0543 254.9 66.4158 255.369 64.8642 256.055C64.0825 256.395 63.3766 256.889 62.788 257.506C62.1995 258.123 61.74 258.851 61.4365 259.648C60.98 261.707 61.2999 263.862 62.3348 265.699C63.9595 269.376 66.1182 272.794 68.7409 275.84L70.0884 276.455C72.1494 273.821 73.6629 270.802 74.5398 267.574C75.4167 264.347 75.6392 260.977 75.1943 257.662C75.1644 256.86 74.9105 256.082 74.4615 255.416Z" fill="#DCDEE1"/>
<path d="M458.003 416.16H450.533L446.987 387.321H458.003V416.16Z" fill="#A0616A"/>
<path d="M435.451 427.176C435.451 428.016 435.785 428.822 436.379 429.416C436.973 430.01 437.779 430.344 438.619 430.344H452.684L453.109 429.446L455.095 425.332L455.875 429.446L456.04 430.344H461.359V429.446L459.965 412.473L458.097 412.355L450.107 411.882L448.145 411.764V416.822C446.561 418.406 434.86 424.41 435.451 427.176Z" fill="#2F2E41"/>
<path d="M428.832 410.345L421.788 412.827L408.881 386.801L419.282 383.161L428.832 410.345Z" fill="#A0616A"/>
<path d="M411.198 428.216C411.472 429.008 412.048 429.659 412.802 430.027C413.555 430.395 414.423 430.449 415.216 430.178L428.501 425.45V424.434L429.021 419.919L431.125 423.535L431.574 424.316L436.586 422.566L436.207 421.739L429.258 406.185L427.485 406.705L419.778 408.903L417.887 409.447L419.566 414.174C418.762 416.278 409.708 425.805 411.198 428.216Z" fill="#2F2E41"/>
<path d="M423.016 185.398L427.649 206.342L461.523 209.415L464.644 191.166L423.016 185.398Z" fill="#A0616A"/>
<path d="M463.793 200.125L425.664 199.487L424.836 210.597L395.406 299.101L390.182 320.872L405.169 401.646H430.557C430.557 401.646 430.037 380.371 429.02 379.544C428.004 378.716 425.9 379.544 427.46 375.029C429.02 370.514 430.179 369.025 428.335 367.204C426.491 365.384 424.222 366.921 425.617 362.477C427.011 358.032 438.216 298.912 438.216 298.912V405.121H464.337C464.337 405.121 469.821 400.133 467.292 397.533C464.762 394.933 462.729 394.413 464.786 390.843C466.843 387.274 471.263 388.172 467.505 383.633C464.526 380.017 471.665 280.639 474.596 239.933C475.419 228.933 471.906 218.048 464.81 209.604L463.793 200.125Z" fill="#2F2E41"/>
<path d="M444.174 117.366L461.029 116.515L468.853 128.878C468.853 128.878 483.604 131.36 482.564 148.711C481.524 166.062 464.646 181.309 464.646 181.309L465.355 178.945L464.102 182.514L464.267 184.547L465.993 186.675L466.158 188.873L464.646 192.372L466.702 195.705L423.325 191.497L421.741 185.729L424.105 182.633L422.805 178.567L424.743 174.69L425.76 173.839C425.76 173.839 414.673 157.292 427.414 144.645L432.52 135.946L438.217 128.854L444.174 117.366Z" fill="#1A66FF"/>
<path d="M448.358 110.062C457.183 110.062 464.337 102.907 464.337 94.0819C464.337 85.2565 457.183 78.1021 448.358 78.1021C439.532 78.1021 432.378 85.2565 432.378 94.0819C432.378 102.907 439.532 110.062 448.358 110.062Z" fill="#A0616A"/>
<path d="M460.508 117.106C459.197 116.026 458.29 114.535 457.932 112.875C457.635 114.888 457.707 116.939 458.144 118.926C457.293 119.588 456.442 120.203 455.662 120.746C455.074 119.212 454.278 117.764 453.299 116.444L453.015 122.638C451.999 123.319 450.932 123.919 449.824 124.434L450.296 123.867C453.7 118.832 444.883 109.683 448.287 104.577C449.256 103.159 444.93 92.0489 441.645 91.5525C438.713 91.1034 438.832 91.9544 435.995 92.569C435.693 91.3402 435.232 90.1561 434.624 89.0468C434.825 90.2758 434.825 91.5291 434.624 92.7581C433.631 92.7581 432.827 92.1671 431.764 92.0016C424.908 90.9379 425.594 83.539 427.509 81.1751C429.423 78.8112 435.782 78.1257 438.713 77.3692C438.973 77.1092 439.588 77.3692 439.848 77.0146C442.513 74.6493 445.771 73.0541 449.273 72.4002C452.776 71.7464 456.39 72.0586 459.728 73.3033C460.34 73.5144 460.933 73.7753 461.501 74.0834C467.222 77.0856 472.139 81.1751 471.784 87.6994C471.619 90.7252 470.933 91.1979 471.784 92.8999C471.997 93.3254 470.153 97.2731 473.25 97.6277C476.346 97.9823 474.952 100.441 475.614 101.315C478.356 104.672 468.026 114.529 460.508 117.106Z" fill="#2F2E41"/>
<path d="M315.721 339.523C312.134 325.713 313.172 311.107 318.676 297.942C318.705 297.526 318.817 297.12 319.005 296.747C319.192 296.374 319.452 296.041 319.768 295.769C320.084 295.497 320.451 295.289 320.848 295.159C321.245 295.029 321.663 294.979 322.08 295.011L353.472 297.233C354.315 297.294 355.099 297.686 355.653 298.324C356.207 298.962 356.485 299.794 356.427 300.637L353.401 342.194C353.334 343.035 352.94 343.816 352.304 344.368C351.667 344.921 350.838 345.201 349.997 345.149L318.605 342.927C317.777 342.843 317.014 342.442 316.476 341.807C315.938 341.172 315.668 340.353 315.721 339.523Z" fill="#E9EBEE"/>
<path d="M319.03 327.137C316.335 320.187 318.061 310.589 320.921 300.401C320.982 299.615 321.351 298.884 321.95 298.37C322.548 297.856 323.326 297.6 324.112 297.659L351.084 299.574C351.871 299.628 352.603 299.992 353.122 300.586C353.64 301.18 353.902 301.955 353.85 302.741L351.226 339.736C351.199 340.128 351.095 340.51 350.92 340.861C350.745 341.212 350.502 341.525 350.205 341.782C349.909 342.039 349.564 342.235 349.192 342.359C348.819 342.482 348.426 342.531 348.035 342.502L331.322 341.32C327.813 341.066 324.547 339.429 322.243 336.77C319.938 334.111 318.783 330.647 319.03 327.137Z" fill="white"/>
<path d="M332.244 333.873C333.784 333.873 335.033 332.624 335.033 331.084C335.033 329.543 333.784 328.294 332.244 328.294C330.703 328.294 329.454 329.543 329.454 331.084C329.454 332.624 330.703 333.873 332.244 333.873Z" fill="#E9EBEE"/>
<path d="M343.048 306.76C342.386 305.247 340.447 304.869 338.816 304.68C337.129 304.467 335.421 304.467 333.734 304.68C332.038 304.872 330.486 305.72 329.408 307.043C328.396 308.889 328.085 311.038 328.534 313.095C329.03 317.085 330.113 320.981 331.748 324.654L332.836 325.624C335.577 323.696 337.903 321.239 339.677 318.397C341.452 315.554 342.638 312.385 343.166 309.076C343.338 308.308 343.297 307.507 343.048 306.76Z" fill="#E9EBEE"/>
<path d="M483.816 192.868L483.201 143.841C483.17 141.763 482.321 139.782 480.839 138.326C479.356 136.87 477.36 136.057 475.282 136.064C473.182 136.064 471.168 136.898 469.682 138.383C468.197 139.868 467.363 141.882 467.363 143.983V144.384L469.585 195.302V226.293C468.335 226.833 467.272 227.731 466.531 228.874C465.789 230.017 465.403 231.354 465.42 232.716C465.437 234.078 465.857 235.405 466.626 236.529C467.396 237.653 468.48 238.524 469.744 239.033C471.008 239.541 472.394 239.665 473.727 239.388C475.061 239.11 476.283 238.444 477.239 237.474C478.195 236.504 478.843 235.272 479.1 233.934C479.358 232.597 479.214 231.213 478.686 229.957C478.521 229.583 478.331 229.219 478.119 228.869L483.816 192.868Z" fill="#A0616A"/>
<path d="M525.657 430.887H504.051V430.722C503.791 430.202 503.507 429.682 503.271 429.138C501.288 424.323 499.945 419.268 499.276 414.104L498.638 410.487C498.587 410.198 498.594 409.902 498.658 409.616C498.722 409.33 498.842 409.059 499.011 408.82C499.181 408.58 499.396 408.376 499.644 408.22C499.892 408.064 500.169 407.959 500.458 407.91C500.752 407.851 501.056 407.854 501.349 407.919C501.642 407.984 501.918 408.11 502.16 408.288L512.017 415.38C513.27 416.302 514.689 417.342 516.036 418.477L516.462 416.562C516.598 416.16 516.841 415.802 517.163 415.526C517.486 415.25 517.877 415.066 518.296 414.994C518.714 414.921 519.145 414.963 519.541 415.114C519.938 415.265 520.287 415.52 520.551 415.853L523.08 419.919C525.095 422.507 526.193 425.692 526.201 428.972C526.13 429.494 526.012 430.009 525.846 430.509L525.657 430.887Z" fill="#F0F0F0"/>
<path d="M547.357 431.384L342.03 431.596C341.823 431.596 341.625 431.514 341.478 431.368C341.332 431.222 341.25 431.023 341.25 430.816C341.25 430.609 341.332 430.411 341.478 430.265C341.625 430.118 341.823 430.036 342.03 430.036L547.357 429.847C547.458 429.847 547.559 429.867 547.652 429.907C547.745 429.946 547.83 430.004 547.9 430.077C547.971 430.15 548.026 430.236 548.063 430.331C548.099 430.425 548.117 430.526 548.113 430.627C548.113 430.828 548.034 431.02 547.892 431.162C547.75 431.304 547.558 431.384 547.357 431.384Z" fill="#CACACA"/>
</svg>
