<svg width="21" height="15" viewBox="0 0 21 15" fill="none" xmlns="http://www.w3.org/2000/svg">
<g clip-path="url(#clip0_80_99832)">
<mask id="mask0_80_99832" style="mask-type:alpha" maskUnits="userSpaceOnUse" x="0" y="0" width="21" height="15">
<path d="M19 0H2C0.89543 0 0 0.895431 0 2V13C0 14.1046 0.89543 15 2 15H19C20.1046 15 21 14.1046 21 13V2C21 0.895431 20.1046 0 19 0Z" fill="white"/>
</mask>
<g mask="url(#mask0_80_99832)">
<path d="M19 0H2C0.89543 0 0 0.895431 0 2V13C0 14.1046 0.89543 15 2 15H19C20.1046 15 21 14.1046 21 13V2C21 0.895431 20.1046 0 19 0Z" fill="#00773C"/>
<path d="M14.3017 11.0973H13.9406C13.9005 11.1543 13.8378 11.2222 13.8027 11.2222C13.76 11.2222 13.6447 11.0945 13.6447 11.0484C13.6447 11.013 13.6998 10.9451 13.75 10.9017V10.7957H7.20486C6.34221 10.7957 5.91339 10.7876 5.625 10.4751H13.75V10.3692C13.7024 10.3284 13.6447 10.2578 13.6447 10.2225C13.6447 10.1763 13.76 10.0486 13.8027 10.0486C13.8453 10.0486 13.9606 10.1763 13.9606 10.2225C13.9606 10.2578 13.903 10.3284 13.8553 10.3692V10.4751H14.9587C15.2546 10.4751 15.375 10.5023 15.375 10.7957C15.375 11.1081 15.2973 11.1652 15.1744 11.1652C15.1318 11.1652 15.0615 11.1625 15.0089 11.0973H14.5801C14.5687 11.1172 14.5494 11.1342 14.5247 11.1462C14.4999 11.1582 14.4707 11.1646 14.4409 11.1646C14.411 11.1646 14.3819 11.1582 14.3571 11.1462C14.3323 11.1342 14.313 11.1172 14.3017 11.0973ZM14.5801 10.9995H14.9587C14.9387 10.9397 14.9387 10.8772 14.9587 10.7957H13.8553V10.9017C13.8829 10.9234 13.9205 10.9696 13.9406 10.9995H14.3017C14.313 10.9795 14.3323 10.9625 14.3571 10.9505C14.3819 10.9385 14.411 10.9321 14.4409 10.9321C14.4707 10.9321 14.4999 10.9385 14.5247 10.9505C14.5494 10.9625 14.5687 10.9795 14.5801 10.9995Z" fill="white"/>
<path d="M15.2045 8.28151C15.2296 8.31411 15.2446 8.34399 15.202 8.39832C15.1618 8.43636 15.1343 8.45809 15.0916 8.49613C15.0741 8.52873 15.0615 8.58034 15.1192 8.59664C15.2296 8.62924 15.4327 8.48798 15.4327 8.48526C15.4753 8.45266 15.4603 8.39289 15.4578 8.39289C15.4327 8.36572 15.38 8.38202 15.3449 8.37659C15.3274 8.37659 15.3173 8.34127 15.3424 8.28966C15.365 8.25706 15.375 8.23804 15.39 8.20001C15.4051 8.16197 15.39 8.13481 15.3299 8.11307C15.2672 8.10221 15.2421 8.10764 15.1744 8.11307C15.1368 8.12122 15.1242 8.14024 15.1167 8.18642C15.1192 8.25706 15.1618 8.25162 15.2045 8.28151ZM14.728 6.60259C14.6929 6.65421 14.6678 6.69496 14.7355 6.73571C14.8057 6.77374 14.9111 6.87969 14.8659 6.99923C14.8409 7.0916 14.8659 7.16495 14.9437 7.03183C15.0239 6.89328 14.9612 6.72756 14.8835 6.62161C14.8158 6.52924 14.7706 6.54826 14.728 6.60259ZM16.8395 4.70634C16.9348 4.79599 16.9875 4.76882 16.9273 4.61669C16.8571 4.46455 16.7894 4.30427 16.7267 4.16028C16.6589 4.00815 16.6414 4.04347 16.5637 4.15213C16.4759 4.25809 16.4684 4.33959 16.501 4.40207C16.6665 5.8229 16.7442 6.56456 16.7618 6.99379C16.7969 7.61863 16.6489 7.96909 16.0596 8.37116C15.869 8.50428 15.6534 8.65641 16.1123 8.53959C16.5411 8.42821 17 8.13481 17 7.01281C17 6.16792 16.8194 5.26326 16.8395 4.70634ZM16.1373 4.41837C16.0847 4.50802 16.0947 4.52704 16.1549 4.62484C16.2151 4.73351 16.2677 4.92911 16.2677 5.08124C16.2677 5.23338 16.3204 5.21436 16.3455 5.07309C16.3731 4.93726 16.363 4.67102 16.2853 4.48357C16.2076 4.28525 16.18 4.35589 16.1373 4.41837ZM16.6414 7.37685C16.6238 7.25188 16.5887 7.12691 16.4333 6.88784C16.2778 6.65421 16.1373 6.43959 15.9994 6.23312C15.9568 5.69793 15.8941 5.12471 15.8941 4.82316C15.9643 4.89379 16.017 4.82316 15.9819 4.70634C15.9468 4.58952 15.8765 4.2771 15.8264 4.14398C15.7812 4.0163 15.7311 4.04347 15.6609 4.16028C15.6007 4.2771 15.5581 4.33144 15.6007 4.41837C15.6182 4.93726 15.686 5.43985 15.7662 5.89353C15.6258 5.69793 15.4954 5.51048 15.375 5.33933C15.3675 5.14373 15.3499 4.94813 15.3399 4.74981C15.4176 4.81229 15.4527 4.79599 15.4101 4.67917C15.375 4.55421 15.2797 4.2934 15.2371 4.1793C15.1919 4.06248 15.1669 4.06248 15.1067 4.15213C15.0114 4.30427 14.9838 4.41022 15.064 4.55421C15.0716 4.67917 15.0891 4.81229 15.0966 4.92911C15.0189 4.82316 14.9512 4.71449 14.8885 4.61669C14.9662 4.66016 15.0289 4.58952 14.9412 4.50802C14.8634 4.42924 14.6979 4.2934 14.6302 4.1956C14.5525 4.0978 14.4823 4.0978 14.4823 4.18745C14.4823 4.2771 14.4898 4.35589 14.4823 4.43739C14.4647 4.50802 14.4647 4.58137 14.5675 4.70634C14.7681 4.95628 14.9587 5.21436 15.1418 5.45615C15.2095 6.34994 15.2546 6.92316 15.2371 7.27905C15.227 7.49367 15.1593 7.61863 15.0465 7.65395C14.9336 7.70013 14.8208 7.61863 14.7155 7.45835C14.5249 7.1731 14.4572 7.22743 14.3092 7.47737C14.1688 7.70829 14.0735 7.9066 13.9958 8.07504C13.928 8.23532 13.8052 8.37931 13.6923 8.16469C13.5895 7.95007 13.572 7.70829 13.5795 7.53985C13.5795 7.3687 13.5544 7.23558 13.4942 7.50453C13.3387 8.16469 13.434 8.30867 13.6071 8.44994C13.8227 8.64826 13.8929 8.66456 14.0058 8.49613C14.2315 8.17284 14.2917 7.88759 14.4221 7.7273C14.5249 7.60233 14.5249 7.70013 14.5775 7.76262C14.7079 7.93105 14.8208 7.99354 15.0013 8.0207C15.1844 8.05602 15.5129 7.89574 15.4878 7.2709C15.4703 6.89599 15.4452 6.38526 15.4101 5.84192C15.5831 6.09185 15.7386 6.31462 15.8615 6.49392C15.9217 6.84981 15.9568 7.1731 15.9392 7.43118C15.9217 7.7273 15.9819 7.7273 16.0421 7.42303C16.0596 7.29806 16.0596 7.03726 16.0345 6.72484C16.2677 7.04813 16.4057 7.26275 16.501 7.41488C16.6063 7.60233 16.6665 7.76262 16.6414 7.37685ZM14.2641 6.67323C14.2641 6.61074 14.2917 6.59172 14.3945 6.50207C14.4823 6.43144 14.7255 6.25214 14.8032 6.17064C14.881 6.09185 14.9412 6.0185 14.9587 6.11902C14.9662 6.21682 14.9838 6.25214 14.8885 6.30647C14.7932 6.34994 14.5424 6.51022 14.4647 6.57271C14.3769 6.64606 14.2641 6.73571 14.2641 6.67323ZM14.2917 5.57296C14.2741 5.65447 14.1688 5.65447 14.1788 5.56481C14.1863 5.47516 14.1788 5.49146 14.1788 5.42083C14.1688 5.3502 14.2566 5.30401 14.2992 5.3665C14.3519 5.42898 14.4396 5.6273 14.4647 5.69793C14.4998 5.76857 14.5174 5.75227 14.5174 5.65447C14.5073 5.53765 14.4898 5.42898 14.4998 5.3502C14.5073 5.30401 14.5349 5.24968 14.5851 5.20621C14.6478 5.16274 14.6804 5.15188 14.7079 5.23338C14.7255 5.30401 14.7757 5.31216 14.7506 5.37736C14.7155 5.4643 14.6377 5.28771 14.5851 5.41268C14.56 5.50233 14.5851 5.75227 14.5775 5.84192C14.5775 5.9207 14.5424 6.03752 14.4823 5.9044C14.4396 5.81475 14.3769 5.66262 14.2917 5.57296ZM13.6923 4.84761C13.8152 4.91009 13.9456 4.94813 13.8503 4.79599C13.7525 4.65201 13.6748 4.41022 13.6246 4.23092C13.5619 4.05433 13.5469 4.06248 13.4491 4.21462C13.3036 4.44554 13.434 4.67102 13.4666 4.93726C13.5895 5.89353 13.7099 6.86883 13.745 7.12691C13.7801 7.41488 13.8227 7.60233 13.7525 7.91475C13.7274 8.01255 13.7625 8.03972 13.8227 7.9229C14.066 7.4502 13.9005 7.03726 13.8754 6.77103C13.8328 6.35809 13.6923 5.2687 13.6672 4.83131M13.0955 4.80414C13.1632 4.86662 13.2434 4.86662 13.1983 4.73351C13.1557 4.59767 13.1206 4.43739 13.0779 4.28525C13.0353 4.13312 13.0077 4.0978 12.9551 4.16843C12.8949 4.24994 12.8522 4.2771 12.8096 4.33144C12.7645 4.3749 12.7569 4.4727 12.8096 4.56236C13.0002 5.91255 13.0077 6.51022 13.0353 7.01281C13.0604 7.51268 13.1306 7.7436 12.8272 8.08319C12.4961 8.44994 12.298 8.53959 12.1501 8.57491C11.9846 8.62381 11.9169 8.69444 12.0949 8.69444C12.6767 8.69444 12.7344 8.52601 12.9726 8.25434C13.1657 8.03429 13.2585 7.75447 13.2434 7.0916C13.2259 5.92885 13.0679 5.42898 13.0955 4.80414ZM10.9188 8.21902C11.0066 8.16469 11.0492 8.12122 11.1169 8.09406C11.1871 8.05602 11.2398 8.06689 11.1871 8.21902C11.1345 8.39561 11.162 8.44994 11.2749 8.40648C11.3777 8.37116 11.4379 8.32497 11.5257 8.28966C11.6034 8.25434 11.6912 8.25434 11.5683 8.35214C11.473 8.43364 11.3351 8.53959 11.2573 8.55861C11.0843 8.60208 10.9965 8.53144 11.0316 8.38746C11.0667 8.25434 11.0918 8.20001 10.989 8.24619C10.8661 8.29781 10.8762 8.24619 10.9188 8.21902ZM12.3156 5.17904C12.3482 5.28771 12.3933 5.33933 12.4184 5.20621C12.436 5.08939 12.4711 5.05408 12.4886 5.17904C12.5137 5.30401 12.5839 5.28771 12.6015 5.17089C12.6265 5.05408 12.6617 4.99159 12.6792 5.11656C12.6968 5.24968 12.6867 5.29586 12.6692 5.33933C12.6617 5.37736 12.5914 5.42083 12.5388 5.3665C12.4786 5.31216 12.461 5.31216 12.4184 5.35835C12.3231 5.448 12.288 5.38551 12.2704 5.26055C12.2629 5.15188 12.298 5.10841 12.3156 5.17904ZM12.8949 7.43118C12.8171 7.02911 12.461 6.38526 11.9319 5.5458C11.9169 5.32303 11.9068 5.11656 11.9068 4.92911C11.9846 5.01876 12.0372 4.96443 12.0122 4.84761C11.9595 4.64386 11.8818 4.4727 11.7865 4.24179C11.7513 4.14398 11.6561 4.11682 11.6134 4.25809C11.5507 4.42924 11.5432 4.46455 11.6209 4.58137C11.6134 4.70634 11.6561 4.92096 11.6736 5.11656C11.5783 4.97258 11.4554 4.79599 11.3601 4.64386C11.5081 4.70634 11.5959 4.66016 11.4655 4.51889C11.3351 4.36675 11.152 4.21462 11.0392 4.10595C10.9263 4 10.8762 4.07063 10.8937 4.16843C10.9012 4.26895 10.9113 4.33959 10.9012 4.41837C10.8937 4.49987 10.9188 4.55421 11.0316 4.59767C11.2573 4.90194 11.483 5.21436 11.6912 5.53765C11.7162 5.80388 11.7689 6.1 11.794 6.34179C11.8642 6.91229 11.967 7.65395 11.8818 7.97724C11.8115 8.21902 11.8818 8.32497 11.9946 7.95822C12.0974 7.59147 12.0874 7.24373 12.0197 6.69768C11.9921 6.48577 11.9846 6.21682 11.9595 5.96689C12.3231 6.54554 12.6516 7.09975 12.7996 7.48552C12.8773 7.69198 12.9475 7.73545 12.8949 7.43118ZM12.2454 4.16843C12.2103 4.24179 12.1852 4.2934 12.2529 4.34774C12.3231 4.40207 12.4284 4.54606 12.3833 4.70634C12.3582 4.83131 12.3833 4.92911 12.461 4.74981C12.5388 4.56236 12.4786 4.33959 12.4008 4.1956C12.3306 4.07063 12.288 4.0978 12.2454 4.16843ZM9.67998 6.11902C9.66242 6.24399 9.6875 6.32277 9.73013 6.38526C9.77527 6.44774 9.86053 6.43959 9.88812 6.36896C9.91319 6.28746 9.93075 6.2793 9.98341 6.34179C10.0436 6.40427 10.2417 6.34994 10.1464 6.03752C10.1038 5.91255 10.0862 5.93972 10.0862 6.08099C10.0862 6.30647 10.016 6.30647 9.93827 6.09185C9.91319 6.01035 9.87809 6.01035 9.87056 6.11902C9.87056 6.32277 9.78279 6.34994 9.73013 6.14347C9.71258 6.05654 9.69753 5.98319 9.67998 6.11902ZM10.8762 6.43959C11.0567 6.39612 10.9539 6.37711 10.831 6.29561C10.7031 6.21682 10.6505 6.21682 10.658 6.30647C10.668 6.35809 10.668 6.41242 10.6856 6.48306C10.7458 6.46676 10.8059 6.45861 10.8762 6.43959ZM10.5201 6.0022C10.658 5.79573 10.8837 5.85822 11.1445 6.04567C11.4053 6.23312 11.3 6.52924 11.0492 6.68138C10.989 6.71669 10.9113 6.75201 10.8135 6.78733C10.841 6.84981 10.8059 6.86883 10.7282 6.81449C10.5025 6.89599 10.2066 7.01281 10.001 7.12691C10.2517 7.14593 11.2924 7.12691 11.5006 7.09975C11.7087 7.08345 11.6736 7.11876 11.6134 7.30621C11.5507 7.48552 11.483 7.4665 11.31 7.49367C11.0316 7.548 10.6229 7.67297 10.3295 7.79794C10.0336 7.9229 10.1389 8.14567 10.4423 8.26249C10.6755 8.32497 10.6505 8.35214 10.6078 8.49613C10.5727 8.62924 10.5727 8.66456 10.2868 8.62109C9.58468 8.50428 9.3314 8.10221 9.21856 7.78979C8.78723 8.42278 8.36092 8.77323 7.96219 8.66456C7.76408 8.62109 7.66879 8.43364 7.65123 8.20001C7.37288 8.33312 7.05189 8.44994 6.63561 8.57491C6.54032 8.61023 6.46258 8.56676 6.59298 8.50428C6.86883 8.36029 7.30266 8.12122 7.65876 7.86042C7.69387 7.70013 7.7716 7.47737 7.84934 7.31436C7.89198 7.21656 7.91956 7.25188 7.91956 7.33338C7.91956 7.39587 7.90201 7.55615 7.90953 7.67297C7.97222 7.61863 8.05748 7.56702 8.10012 7.52083C8.34336 7.29806 8.61169 7.15408 8.43113 6.79819C8.35339 6.63519 8.2907 6.52109 8.26562 6.44774C8.11015 6.38526 8.15278 6.29561 8.22299 6.14347C8.2907 5.99405 8.31829 5.95602 8.45621 6.12717C8.65683 6.36896 8.68191 6.47491 8.54398 6.45861C8.75964 7.02911 8.70698 7.32523 8.37095 7.66482C8.21296 7.83325 8.04996 7.96909 7.85937 8.07504C7.84182 8.22717 7.90201 8.37931 8.17785 8.33312C8.54398 8.28151 8.95023 7.78979 9.12326 7.41488C9.04552 7.09975 8.87249 6.53739 8.76968 6.25214C8.71701 6.10815 8.76968 6.04567 8.81231 5.92885C8.86497 5.81475 8.89005 5.7414 8.95023 5.9044C9.01042 6.05654 9.201 6.43959 9.28877 6.89599C9.38407 7.3524 9.36651 7.7436 9.59221 7.95822C9.69753 8.05602 9.82542 8.12122 9.96586 8.15654C9.86053 7.85227 10.0787 7.61863 10.3646 7.51268C10.1916 7.34153 9.92072 7.3687 9.61728 7.3524C9.3941 7.34153 9.41917 7.31436 9.47936 7.11061C9.53954 6.90414 9.60976 6.87698 9.77527 6.80634C10.001 6.71669 10.2242 6.62704 10.4599 6.55641C10.3119 6.33364 10.4072 6.17064 10.5201 6.0022ZM9.4267 4.16843C9.36651 4.23092 9.36651 4.24179 9.41917 4.32057C9.47184 4.38305 9.54958 4.58137 9.52199 4.78512C9.51447 4.87477 9.53202 4.96443 9.57465 4.80414C9.60976 4.64386 9.59973 4.41837 9.5571 4.28525C9.51447 4.15213 9.46181 4.11682 9.4267 4.16843ZM8.24807 4.51889C8.11015 4.92096 8.11767 5.30401 8.40355 5.63545C8.56906 5.8229 8.68943 5.73325 8.75964 5.52678C8.83738 5.33118 8.89005 5.13558 8.94271 4.99974C8.99286 4.86662 9.038 4.89379 9.02797 5.01876C9.00289 5.2687 8.98534 5.67077 9.22859 5.8229C9.47184 5.97504 9.84298 5.71695 9.97338 5.448C10.3646 5.98319 10.7106 5.73325 10.7533 5.21436C10.7633 5.05408 10.6931 4.70634 10.6505 4.60854C10.6078 4.49987 10.6329 4.49987 10.6931 4.55421C10.7533 4.61669 10.8586 4.65201 10.8059 4.4727C10.7458 4.30427 10.6755 4.20647 10.5802 4.12497C10.495 4.04347 10.4774 4.08965 10.4423 4.15213C10.4072 4.21462 10.4147 4.23092 10.3646 4.2771C10.3119 4.33144 10.3194 4.35589 10.3646 4.4564C10.51 4.84761 10.6505 5.42083 10.4147 5.47516C10.1991 5.51863 10.0611 5.03506 10.0511 4.82316C10.0436 4.53519 10.0085 4.2934 9.95583 4.14398C9.91821 4.04618 9.89564 4 9.87558 4C9.84047 4 9.79032 4.15485 9.75772 4.21462C9.72261 4.2771 9.75772 4.2934 9.78279 4.41837C9.91319 5.04593 9.89564 5.33118 9.61728 5.49146C9.34143 5.66262 9.19348 5.50233 9.19348 5.30401C9.18596 5.10841 9.18596 4.86662 9.21103 4.68732C9.22859 4.50802 9.27122 4.48357 9.21103 4.39392C9.15085 4.2934 9.09819 4.33144 9.02045 4.44554C8.84741 4.69547 8.67438 5.11656 8.61169 5.31216C8.5515 5.51863 8.43113 5.448 8.34336 5.27685C8.24807 5.07309 8.2581 4.70634 8.2907 4.56236C8.32581 4.41837 8.30826 4.35589 8.24807 4.51889ZM7.89198 4.36675C7.90953 4.31242 7.8669 4.25809 7.83179 4.33959C7.80671 4.40207 7.79668 4.44554 7.84934 4.48357C7.8669 4.44554 7.88445 4.40207 7.89198 4.36675ZM7.68383 4.28525C7.78916 4.00815 8.13522 4.04347 8.03993 4.40207C8.03241 4.4564 8.00482 4.52704 7.97222 4.59767C8.02238 4.67102 7.9973 4.76067 7.89198 4.74166C7.77913 4.92911 7.56346 5.13558 7.18981 5.30401C7.01678 5.38551 6.99171 5.32303 7.12211 5.24153C7.37288 5.07309 7.6061 4.86662 7.75405 4.65201C7.6412 4.55421 7.6412 4.41022 7.68383 4.28525ZM7.62365 5.27685C7.52083 5.41268 7.44309 5.60828 7.58854 5.7251C7.66879 5.79573 7.83179 5.71695 7.89198 5.58112C7.95467 5.43985 7.92708 5.42083 7.82427 5.53765C7.67631 5.70608 7.52836 5.55395 7.68383 5.32303C7.78916 5.16274 7.72897 5.12471 7.62365 5.27685ZM7.39043 7.24373C7.40799 7.30621 7.39796 7.4502 7.37288 7.51268C7.33777 7.59147 7.37288 7.6295 7.42554 7.52898C7.47569 7.42303 7.5108 7.29806 7.48573 7.1731C7.47569 7.08345 7.47569 7.05628 7.39796 7.02096C7.31269 6.98565 7.28511 7.03726 7.26003 7.11061C7.22492 7.20026 7.26755 7.29806 7.39043 7.24373ZM6.05382 6.65421C5.89834 6.69768 5.87326 6.63519 5.88079 6.53739C5.89082 6.43959 5.89834 6.41242 6.00366 6.45861C6.0463 6.47491 6.09896 6.53739 6.15162 6.61889C6.11651 6.62704 6.0814 6.64606 6.05382 6.65421ZM6.18422 6.25214C6.02874 6.09185 5.89834 6.08099 5.76794 6.2793C5.64757 6.46676 5.65509 6.51022 5.66512 6.68138C5.67265 6.84981 5.64005 6.91229 5.76794 6.95848C5.89082 7.00195 5.94348 6.98565 6.02122 6.95848C6.0814 6.93946 6.16667 6.91229 6.25444 6.87698C6.27199 6.96663 6.26196 7.06443 6.21181 7.13778C5.89082 7.52898 5.3968 7.81695 5.17863 7.55615C5.05826 7.41488 5.00559 7.1894 5.0407 6.92316C5.07581 6.69768 5.00559 6.79819 4.98052 6.87698C4.90278 7.13778 4.87519 7.51268 4.98052 7.70013C5.12847 7.95822 5.36169 8.07504 5.73534 7.9066C6.10648 7.73545 6.4701 7.43118 6.45505 7.01281C6.45505 6.93131 6.44502 6.86068 6.44502 6.80634C6.48013 6.78733 6.54032 6.74386 6.58295 6.72484C6.59298 6.86883 6.57542 7.04813 6.58295 7.1894C6.6005 7.6458 6.42747 7.77892 6.27199 7.9066C6.05382 8.08319 5.76042 8.20001 5.50964 8.24619C4.9103 8.33312 4.77238 7.94192 4.7799 7.41488C4.7799 7.33338 4.81501 7.27905 4.81501 7.16223C4.80748 6.93946 4.7799 6.97478 4.71219 7.20026C4.6495 7.41488 4.57176 7.91475 4.77238 8.32497C4.98052 8.73791 5.68268 8.62109 6.22936 8.35214C6.76601 8.08319 6.8262 7.57517 6.80112 7.06443C6.80112 6.93131 6.79109 6.78733 6.78356 6.63519C6.80112 6.62704 6.80864 6.61074 6.81867 6.59987C6.89641 6.86068 7.26003 6.78733 7.37288 6.63519C7.43306 6.56456 7.43306 6.55641 7.48573 6.63519C7.56346 6.75201 7.83179 6.78733 7.90201 6.62704C7.96219 6.45861 7.95467 6.29561 7.93711 6.17064C7.91956 6.04567 7.89198 6.05654 7.81424 6.11902C7.72897 6.18965 7.79668 6.1978 7.80671 6.28746C7.84182 6.62704 7.55594 6.59987 7.52083 6.25214C7.50328 6.03752 7.46817 6.11902 7.44309 6.21682C7.32022 6.63519 6.96412 6.71669 6.99923 6.23312C7.00926 6.09185 6.92149 6.13532 6.87886 6.18965C6.83623 6.22497 6.80112 6.27115 6.75849 6.29561C6.7309 5.9044 6.70583 5.45615 6.66069 4.92096C6.76601 5.05408 6.8613 4.90194 6.79109 4.74981C6.74093 4.63299 6.66069 4.3749 6.61053 4.23092C6.56539 4.08965 6.54032 4.13312 6.42747 4.24994C6.32465 4.3749 6.34221 4.40207 6.39236 4.52704C6.37481 4.67917 6.40239 4.83131 6.4375 5.14373C6.46258 5.3665 6.53279 5.83105 6.56539 6.42057C6.51524 6.44774 6.4375 6.50207 6.38484 6.52924C6.34221 6.43144 6.27951 6.34994 6.18422 6.25214ZM4.32099 7.38772C4.32851 7.47737 4.32851 7.53985 4.32851 7.57517C4.32851 7.63765 4.29591 7.70013 4.27836 7.77892C4.17303 8.16469 4.32851 8.35214 4.41628 8.20816C4.49402 8.06689 4.53665 8.08319 4.52913 8.20001C4.5216 8.58578 4.16551 8.61023 4.13792 8.28966C4.09529 7.77892 4.20814 7.70013 4.24325 7.52898C4.26833 7.41488 4.30343 7.32523 4.32099 7.38772ZM4.13792 6.82264C4.3912 6.51022 4.71219 6.34994 4.87519 6.29561C4.98052 6.26029 5.03318 6.21682 5.03318 6.32277C5.0407 6.42057 5.03318 6.43144 4.94541 6.45861C4.74479 6.51022 4.32851 6.72484 4.19059 6.83351C4.12288 6.88784 4.03511 6.95033 4.13792 6.82264ZM5.55228 4.13312C5.5272 4.20647 5.54475 4.2934 5.58738 4.34774C5.63002 4.41022 5.70775 4.41022 5.76042 4.36675C5.80305 4.31242 5.80305 4.30427 5.84819 4.3749C5.87326 4.42924 5.95853 4.41022 5.98611 4.35589C6.00366 4.31242 6.02874 4.26895 6.00366 4.20647C5.97608 4.14398 5.97608 4.16028 5.95853 4.23092C5.94348 4.34774 5.83816 4.32057 5.83063 4.1793C5.83063 4.04347 5.80305 4.11682 5.76794 4.20647C5.70775 4.33959 5.62249 4.31242 5.62249 4.1956C5.62249 4.0978 5.59491 4.0163 5.55228 4.13312ZM5.17863 6.01035C5.20621 6.33364 5.29147 6.93131 5.29147 7.13778C5.3015 7.3524 5.32658 7.28991 5.37924 7.1731C5.43191 7.05628 5.42188 6.93131 5.41435 6.76016C5.3968 6.58357 5.38677 6.28746 5.35166 5.88538C5.42188 5.83105 5.48206 5.7414 5.50964 5.68978C5.57735 5.55395 5.59491 5.56481 5.62249 5.67077C5.67265 5.88538 5.88079 6.02937 6.15914 5.8229C6.41995 5.63545 6.3071 5.24153 6.19425 4.81229C6.28954 4.83131 6.32465 4.74981 6.26196 4.64386C6.23688 4.58137 6.18422 4.52704 6.14159 4.4727C6.09896 4.41837 6.05382 4.3749 6.01119 4.42924C5.97608 4.48357 5.93345 4.52704 5.90837 4.56236C5.88079 4.59767 5.88079 4.63299 5.91589 4.72264C6.02122 4.97258 6.08893 5.24153 6.10648 5.39366C6.13407 5.53765 6.0814 5.57296 5.98611 5.57296C5.89082 5.57296 5.76042 5.5458 5.70775 5.33118C5.65509 5.11656 5.63002 5.01876 5.64005 4.87477C5.64757 4.73351 5.66512 4.63299 5.56983 4.49172C5.46451 4.34774 5.45698 4.3749 5.43191 4.44554C5.41435 4.52704 5.37924 4.64386 5.41435 4.77697C5.45698 4.97258 5.48206 5.14373 5.50964 5.26055C5.5272 5.33933 5.44695 5.51048 5.33661 5.60013C5.30903 5.33118 5.2664 4.97258 5.24884 4.68732C5.3968 4.63299 5.31906 4.42924 5.19618 4.20647C5.11092 4.03532 5.07581 4.10595 5.01562 4.21462C4.95293 4.32057 4.99807 4.36675 5.0407 4.4564C5.00559 4.52704 5.06578 4.63299 5.09336 4.83131C5.10089 4.95628 5.12847 5.31216 5.15355 5.6273C5.03318 5.6273 4.96296 5.5458 4.92033 5.43985C4.82504 5.21436 4.85012 5.01061 4.89275 4.87477C4.93789 4.74166 4.98052 4.53519 4.90278 4.48357C4.83256 4.42924 4.73727 4.49172 4.67708 4.58952C4.57176 4.74981 4.47647 4.98344 4.46894 5.22523C4.45891 5.32303 4.43383 5.51048 4.3912 5.58112C4.3561 5.65447 4.29591 5.66262 4.23322 5.55395C4.1304 5.38551 4.09529 4.95628 4.10532 4.73351C4.10532 4.62484 4.07774 4.60854 4.04263 4.73351C4.01254 4.84761 4 4.96443 4 5.07581C4 5.39095 4.08526 5.67892 4.15548 5.8229C4.25077 6.0185 4.37365 5.97504 4.45891 5.81475C4.58931 5.57296 4.53665 5.35835 4.65953 4.99974C4.72975 4.77697 4.75482 4.94813 4.72975 5.08124C4.66705 5.43985 4.68461 6.0185 5.17863 6.01035ZM4.43383 4.60854C4.5216 4.35589 4.52913 4.13312 4.42631 4.21462C4.33854 4.28525 4.28588 4.21462 4.3561 4.13312C4.44136 4.0163 4.55421 3.98098 4.58179 4.1793C4.58931 4.33144 4.4865 4.51889 4.43383 4.60854Z" fill="white"/>
</g>
</g>
<rect x="0.25" y="0.25" width="20.5" height="14.5" rx="1.75" stroke="black" stroke-opacity="0.1" stroke-width="0.5"/>
<defs>
<clipPath id="clip0_80_99832">
<rect width="21" height="15" rx="2" fill="white"/>
</clipPath>
</defs>
</svg>
