<svg width="20" height="15" viewBox="0 0 20 15" fill="none" xmlns="http://www.w3.org/2000/svg">
<g clip-path="url(#clip0_5309:185348)">
<path d="M-5.0199 0H25.0601V15.04H-5.0199V0Z" fill="#012169"/>
<path d="M-5.0199 0V1.68025L21.6967 15.04H25.0601V13.3597L-1.65646 0H-5.0199ZM25.0601 0V1.68025L-1.65646 15.04H-5.0199V13.3597L21.6967 0H25.0601Z" fill="white"/>
<path d="M7.51441 0V15.04H12.5258V0H7.51441ZM-5.0199 5.01431V10.0257H25.0601V5.01431H-5.0199Z" fill="white"/>
<path d="M-5.0199 6.016V9.024H25.0601V6.016H-5.0199ZM8.5161 0V15.04H11.5241V0H8.5161ZM-5.0199 15.04L5.00579 10.0257H7.25004L-2.77859 15.04H-5.0199ZM-5.0199 0L5.00579 5.01431H2.76448L-5.0199 1.12212V0ZM12.7931 5.01431L22.8188 0H25.0601L15.0344 5.01431H12.7931ZM25.0601 15.04L15.0344 10.0257H17.2757L25.0601 13.9179V15.04Z" fill="#C8102E"/>
</g>
<defs>
<clipPath id="clip0_5309:185348">
<rect width="20" height="15" fill="white"/>
</clipPath>
</defs>
</svg>
