<svg width="20" height="15" viewBox="0 0 20 15" fill="none" xmlns="http://www.w3.org/2000/svg">
<g clip-path="url(#clip0_5309:185345)">
<path fill-rule="evenodd" clip-rule="evenodd" d="M20.7605 15.04H-0.724365V0H20.7605V15.04Z" fill="white"/>
<path fill-rule="evenodd" clip-rule="evenodd" d="M20.7605 3.38403H-0.724365V1.41003H20.7605V3.38403ZM20.7605 13.68H-0.724365V11.706H20.7605V13.68ZM6.57238 5.60185L9.80657 11.2301L13.1113 5.62828L6.57238 5.60478V5.60185Z" fill="#0000CC"/>
<path fill-rule="evenodd" clip-rule="evenodd" d="M9.19849 9.33533L9.81243 10.3781L10.4411 9.3412L9.19556 9.33533H9.19849Z" fill="white"/>
<path fill-rule="evenodd" clip-rule="evenodd" d="M6.56055 9.41769L9.79767 3.78943L13.0994 9.39419L6.56055 9.41769V9.41769Z" fill="#0000CC"/>
<path fill-rule="evenodd" clip-rule="evenodd" d="M9.1986 5.62826L9.81254 4.58545L10.4412 5.62532L9.19566 5.62826H9.1986ZM7.91197 7.96357L7.27454 9.02107L8.47891 9.01813L7.91197 7.96063V7.96357ZM7.28629 6.01014L8.49654 6.01895L7.91491 7.08526L7.28629 6.01014V6.01014ZM11.7278 7.97826L12.3417 9.02107L11.1168 9.00638L11.7278 7.97826ZM12.33 6.01014L11.1197 6.01895L11.7014 7.08526L12.33 6.01014V6.01014ZM8.97241 6.01014L8.13816 7.52001L8.98416 8.99757L10.5352 9.03282L11.4752 7.52001L10.6057 5.99251L8.97241 6.0072V6.01014Z" fill="white"/>
</g>
<defs>
<clipPath id="clip0_5309:185345">
<rect width="20" height="15" fill="white"/>
</clipPath>
</defs>
</svg>
