<svg id="layout-default_thumb-sm"  width="143" height="120" viewBox="0 0 143 120">
  <metadata><?xpacket begin="﻿" id="W5M0MpCehiHzreSzNTczkc9d"?>
<x:xmpmeta xmlns:x="adobe:ns:meta/" x:xmptk="Adobe XMP Core 5.6-c142 79.160924, 2017/07/13-01:06:39        ">
   <rdf:RDF xmlns:rdf="http://www.w3.org/1999/02/22-rdf-syntax-ns#">
      <rdf:Description rdf:about=""/>
   </rdf:RDF>
</x:xmpmeta>
                                                                                                    
                                                                                                    
                                                                                                    
                                                                                                    
                                                                                                    
                                                                                                    
                                                                                                    
                                                                                                    
                                                                                                    
                                                                                                    
                                                                                                    
                                                                                                    
                                                                                                    
                                                                                                    
                                                                                                    
                                                                                                    
                                                                                                    
                                                                                                    
                                                                                                    
                                                                                                    
                           
<?xpacket end="w"?></metadata>
<defs>
    <style>
      .cls-1 {
        fill: #fff;
      }

      .cls-2 {
        fill: #b8dafc;
        fill-rule: evenodd;
        opacity: 0.64;
      }
    </style>
  </defs>
  <rect id="Prostokąt_zaokrąglony_1563_kopia_4" data-name="Prostokąt zaokrąglony 1563 kopia 4" class="cls-1" width="143" height="120"/>
  <path id="Prostokąt_1564" data-name="Prostokąt 1564" class="cls-2" d="M1401,200h24v10h-24V200Zm78,4h16v2h-16v-2Zm33,0h16v2h-16v-2Zm-42-2h6v6h-6v-6Zm33,0h6v6h-6v-6Zm-90,19h16v2h-16v-2Zm-12-2h6v6h-6v-6Zm34,2h16v2h-16v-2Zm22,0h16v2h-16v-2Zm22,0h16v2h-16v-2Zm29-3h20v8h-20v-8Z" transform="translate(-1393 -191)"/>
  <path id="Prostokąt_1564_kopia" data-name="Prostokąt 1564 kopia" class="cls-2" d="M1393,234v-1h143v1H1393Zm42,11h93v24h-93V245Zm0,32h42v24h-42V277Zm50,0h43v24h-43V277Zm-84-32h26v55h-26V245Z" transform="translate(-1393 -191)"/>
</svg>
